<svg width="312" height="350" viewBox="0 0 312 350" fill="none" xmlns="http://www.w3.org/2000/svg">
<path fill-rule="evenodd" clip-rule="evenodd" d="M272.441 350C272.53 347.332 272.619 344.664 272.619 341.996C272.619 248.345 262.658 172.482 155.312 172.482C48.0542 172.482 38.0044 248.345 38.0044 341.996C38.0044 344.664 38.0933 347.332 38.1823 350H272.441Z" fill="#FABE2C"/>
<path fill-rule="evenodd" clip-rule="evenodd" d="M3.49687 350H44.8524C42.9848 335.415 41.5618 320.918 41.1171 307.488C40.5835 291.836 41.295 277.961 43.6963 268.001C44.9414 262.931 46.1865 259.729 47.3426 259.285C47.6094 259.196 47.7873 259.107 48.0541 259.107C49.3882 259.018 50.7222 258.84 52.0563 258.484C61.3946 255.905 68.1538 245.944 67.7092 234.382C67.2645 221.22 57.7482 210.992 46.4533 211.437C42.1843 211.615 38.2711 212.415 34.6247 213.838C18.9718 219.797 9.36669 234.471 4.38624 254.749C0.561961 270.046 -0.50529 288.99 0.206203 309.356C0.739823 322.341 1.89601 336.126 3.49687 350Z" fill="#E2895D"/>
<path fill-rule="evenodd" clip-rule="evenodd" d="M263.28 259.107C263.547 259.107 263.814 259.196 263.992 259.285C265.148 259.729 266.304 262.931 267.638 268C270.129 277.961 270.751 291.836 270.218 307.488C269.773 320.918 268.439 335.415 266.482 350H307.838C309.528 336.126 310.684 322.341 311.128 309.356C311.84 288.99 310.684 270.046 306.948 254.749C301.879 234.471 292.363 219.797 276.71 213.838C273.063 212.415 269.15 211.615 264.881 211.437C253.586 210.903 244.07 221.22 243.626 234.382C243.181 247.545 251.986 258.662 263.28 259.107Z" fill="#E2895D"/>
<path fill-rule="evenodd" clip-rule="evenodd" d="M155.312 172.482C189.197 172.482 213.387 179.419 230.641 191.604C226.55 275.204 85.1407 275.204 80.0713 191.604C97.2361 179.419 121.427 172.482 155.312 172.482Z" fill="#E2895D"/>
<path fill-rule="evenodd" clip-rule="evenodd" d="M41.1169 289.968C41.3837 281.519 42.2731 274.048 43.785 268.001C45.0301 262.931 46.2753 259.729 47.4315 259.285C47.6983 259.196 47.8761 259.107 48.1429 259.107C49.477 259.018 50.811 258.84 52.1451 258.484C61.4834 255.905 68.2426 245.944 67.7979 234.382C67.3532 221.22 57.8371 210.992 46.5421 211.437C42.2731 211.615 38.3599 212.415 34.7135 213.838C19.0606 219.797 9.45546 234.471 4.475 254.749C1.89584 265.066 0.561801 277.072 0.206055 289.968H41.1169Z" fill="#FF9100"/>
<path fill-rule="evenodd" clip-rule="evenodd" d="M283.291 217.039C295.12 224.243 302.679 237.494 306.948 254.659C309.528 264.976 310.862 276.982 311.217 289.878H270.218C269.951 281.429 269.061 273.958 267.55 267.911C266.304 262.841 265.059 259.64 263.903 259.195C263.636 259.106 263.458 259.017 263.192 259.017C251.897 258.483 243.092 247.366 243.537 234.204C243.981 221.041 253.498 210.813 264.793 211.258C269.061 211.436 272.975 212.236 276.621 213.659C279.022 214.727 281.246 215.794 283.291 217.039Z" fill="#FF9100"/>
<path fill-rule="evenodd" clip-rule="evenodd" d="M104.262 211.436C95.1014 201.92 88.52 189.825 85.8519 176.395C78.3812 173.816 72.9561 166.701 72.9561 158.43C72.9561 149.27 79.4484 141.621 88.0753 139.842C97.5026 111.738 124.006 55.1406 155.222 55.1406C186.439 55.1406 212.942 111.738 222.37 139.842C230.997 141.621 237.489 149.27 237.489 158.43C237.489 166.79 232.064 173.905 224.593 176.395C218.101 208.768 189.463 233.137 155.134 233.137C144.016 233.137 133.522 230.558 124.184 226.022" fill="#FFB685"/>
<path d="M257.012 112.672C257.025 120.632 255.096 128.476 251.392 135.522C247.688 142.568 242.321 148.604 235.757 153.107C232.965 150.541 229.312 149.117 225.521 149.117C224.421 149.128 223.325 149.254 222.251 149.493L217.885 150.458V129.023C215.283 129.023 212.788 127.989 210.948 126.149C209.109 124.309 208.075 121.814 208.075 119.212V108.715C205.792 108.084 203.656 107.009 201.789 105.55C199.923 104.091 198.363 102.278 197.199 100.215C196.036 98.1521 195.291 95.8794 195.008 93.5276C194.725 91.1758 194.909 88.7913 195.55 86.511C168.943 99.4171 142.335 99.4171 115.727 86.511C116.37 88.7838 116.559 91.161 116.284 93.507C116.008 95.8529 115.273 98.1216 114.121 100.183C112.968 102.245 111.421 104.06 109.567 105.524C107.714 106.988 105.59 108.072 103.317 108.715V119.212C103.317 121.814 102.283 124.309 100.443 126.149C98.6035 127.989 96.1082 129.023 93.5063 129.023V150.458L89.1407 149.493C88.0669 149.254 86.9708 149.128 85.8706 149.117C82.0399 149.089 78.3409 150.514 75.5207 153.107C67.8225 147.816 61.7949 140.438 58.1469 131.838C54.4989 123.239 53.382 113.777 54.9277 104.565C56.4734 95.3527 60.6173 86.7734 66.8722 79.8358C73.127 72.8982 81.2328 67.8907 90.2362 65.4024C90.2362 48.0566 97.1268 31.4212 109.392 19.1559C121.657 6.89059 138.293 0 155.639 0C172.984 0 189.62 6.89059 201.885 19.1559C214.15 31.4212 221.041 48.0566 221.041 65.4024C231.381 68.2634 240.498 74.4355 246.995 82.9732C253.492 91.5109 257.011 101.943 257.012 112.672Z" fill="#A34F3E"/>
<path d="M88.1922 107.767C70.6153 112.672 64.0751 99.5917 64.0751 99.5917C64.0751 99.5917 77.8259 103.369 81.5702 90.0266C81.5702 90.0266 66.7566 101.227 62.0967 86.1025C67.5916 77.5889 75.5881 70.9861 84.9875 67.2012C92.3453 69.7192 100.766 75.3765 96.8417 88.1463C96.7763 88.1463 105.769 102.764 88.1922 107.767Z" fill="#C86E59"/>
<path d="M176.208 54.3662C178.529 59.7456 184.497 63.6206 191.61 63.6206C200.635 63.6206 207.96 57.3911 207.96 49.7226C207.943 47.8455 207.515 45.9949 206.707 44.3003C205.9 42.6057 204.731 41.1081 203.284 39.9123C204.697 35.1598 205.676 30.2893 206.211 25.3602C198.157 15.5421 187.42 8.28082 175.309 4.46275C163.197 0.644669 150.237 0.434933 138.008 3.85914C125.78 7.28334 114.813 14.1934 106.446 23.7458C98.079 33.2982 92.6738 45.0799 90.8901 57.6527C99.9484 74.0033 116.315 87.2473 145.828 84.2387C153.792 83.5212 161.609 81.6429 169.03 78.6632C170.419 80.9153 172.458 82.6932 174.879 83.762C177.3 84.8308 179.988 85.1403 182.588 84.6496C185.188 84.159 187.578 82.8913 189.443 81.0138C191.308 79.1364 192.559 76.7376 193.032 74.1341C191.246 76.0632 188.92 77.4093 186.357 77.9967C183.794 78.5842 181.114 78.3857 178.666 77.4273C176.218 76.4688 174.115 74.7948 172.632 72.6236C171.15 70.4525 170.356 67.8848 170.354 65.2557C170.35 64.4713 170.421 63.6883 170.567 62.9176C170.883 61.186 171.546 59.5361 172.515 58.0667C173.484 56.5973 174.74 55.3387 176.208 54.3662Z" fill="#C86E59"/>
<path d="M119.905 135.318L114.889 130.302C119.122 126.051 123.533 124.13 127.962 124.574C130.001 124.852 131.959 125.552 133.711 126.63C135.463 127.708 136.971 129.141 138.137 130.836L132.249 134.802C131.036 133.148 129.234 132.021 127.215 131.654C125.027 131.44 122.555 132.685 119.905 135.318Z" fill="#4C2013"/>
<path d="M193.153 135.318C190.503 132.685 188.048 131.44 185.842 131.654C183.823 132.021 182.022 133.148 180.809 134.802L174.921 130.836C176.087 129.141 177.594 127.708 179.346 126.63C181.099 125.552 183.057 124.852 185.095 124.574C189.524 124.13 193.989 126.051 198.169 130.302L193.153 135.318Z" fill="#4C2013"/>
<path d="M170.759 175.5V179.057C170.759 180.258 170.604 181.454 170.296 182.615C169.5 185.66 167.717 188.355 165.226 190.279C162.735 192.203 159.676 193.246 156.529 193.246C153.381 193.246 150.323 192.203 147.831 190.279C145.34 188.355 143.557 185.66 142.761 182.615C142.453 181.454 142.298 180.258 142.299 179.057V175.5H170.759Z" fill="#A82020"/>
<path d="M144.078 175.5H168.98V179.057C168.98 180.001 168.605 180.906 167.938 181.573C167.271 182.24 166.366 182.615 165.422 182.615H147.635C146.692 182.615 145.787 182.24 145.12 181.573C144.452 180.906 144.078 180.001 144.078 179.057V175.5Z" fill="#E5E5E5"/>
<path d="M202.776 150.597V164.827H184.988H170.758V150.597V143.482H202.776V150.597Z" fill="#FFEDE3"/>
<path d="M128.069 164.827H110.281V150.597V143.482H142.298V150.597V164.827H128.069Z" fill="#FFEDE3"/>
<path d="M124.511 150.598H131.626V164.828H124.511V150.598Z" fill="#1A1A1A"/>
<path d="M181.431 150.598H188.546V164.828H181.431V150.598Z" fill="#1A1A1A"/>
<path d="M199.218 147.04H224.121V154.155H199.218V147.04Z" fill="#4A017D"/>
<path d="M88.9365 147.04H113.839V154.155H88.9365V147.04Z" fill="#4A017D"/>
<path d="M142.299 168.385H110.282C109.338 168.385 108.433 168.01 107.766 167.343C107.099 166.675 106.724 165.771 106.724 164.827V143.482C106.724 142.539 107.099 141.634 107.766 140.967C108.433 140.3 109.338 139.925 110.282 139.925H142.299C143.242 139.925 144.147 140.3 144.814 140.967C145.481 141.634 145.856 142.539 145.856 143.482V164.827C145.856 165.771 145.481 166.675 144.814 167.343C144.147 168.01 143.242 168.385 142.299 168.385ZM113.839 161.27H138.741V147.04H113.839V161.27Z" fill="#F41671"/>
<path d="M202.776 168.385H170.759C169.815 168.385 168.91 168.01 168.243 167.343C167.576 166.675 167.201 165.771 167.201 164.827V143.482C167.201 142.539 167.576 141.634 168.243 140.967C168.91 140.3 169.815 139.925 170.759 139.925H202.776C203.719 139.925 204.624 140.3 205.291 140.967C205.959 141.634 206.333 142.539 206.333 143.482V164.827C206.333 165.771 205.959 166.675 205.291 167.343C204.624 168.01 203.719 168.385 202.776 168.385ZM174.316 161.27H199.218V147.04H174.316V161.27Z" fill="#F41671"/>
</svg>
