<svg width="24" height="24" viewBox="0 0 24 24" fill="none" xmlns="http://www.w3.org/2000/svg">
<path fill-rule="evenodd" clip-rule="evenodd" d="M17.25 11C17.25 10.5858 17.5858 10.25 18 10.25H22C22.4142 10.25 22.75 10.5858 22.75 11V19C22.75 19.4142 22.4142 19.75 22 19.75H19.8107L18.5303 21.0303C18.2374 21.3232 17.7626 21.3232 17.4697 21.0303L16.1893 19.75H11C10.5858 19.75 10.25 19.4142 10.25 19V15C10.25 14.5858 10.5858 14.25 11 14.25H17.25V11ZM18.75 11.75V15C18.75 15.4142 18.4142 15.75 18 15.75H11.75V18.25H16.5C16.6989 18.25 16.8897 18.329 17.0303 18.4697L18 19.4393L18.9697 18.4697C19.1103 18.329 19.3011 18.25 19.5 18.25H21.25V11.75H18.75Z" fill="#414853"/>
<path fill-rule="evenodd" clip-rule="evenodd" d="M1.25 3C1.25 2.58579 1.58579 2.25 2 2.25H18C18.4142 2.25 18.75 2.58579 18.75 3V15C18.75 15.4142 18.4142 15.75 18 15.75H8.81066L7.03033 17.5303C6.73744 17.8232 6.26256 17.8232 5.96967 17.5303L4.18934 15.75H2C1.58579 15.75 1.25 15.4142 1.25 15V3ZM2.75 3.75V14.25H4.5C4.69891 14.25 4.88968 14.329 5.03033 14.4697L6.5 15.9393L7.96967 14.4697C8.11032 14.329 8.30109 14.25 8.5 14.25H17.25V3.75H2.75Z" fill="#414853"/>
<path fill-rule="evenodd" clip-rule="evenodd" d="M5.25 11C5.25 10.5858 5.58579 10.25 6 10.25H9C9.41421 10.25 9.75 10.5858 9.75 11C9.75 11.4142 9.41421 11.75 9 11.75H6C5.58579 11.75 5.25 11.4142 5.25 11Z" fill="#414853"/>
<path fill-rule="evenodd" clip-rule="evenodd" d="M5.25 7C5.25 6.58579 5.58579 6.25 6 6.25H12C12.4142 6.25 12.75 6.58579 12.75 7C12.75 7.41421 12.4142 7.75 12 7.75H6C5.58579 7.75 5.25 7.41421 5.25 7Z" fill="#414853"/>
</svg>
