<svg width="24" height="24" viewBox="0 0 24 24" fill="none" xmlns="http://www.w3.org/2000/svg">
<path d="M10.4631 12.9456L10.4631 12.9456C10.4388 13.0352 10.418 13.1175 10.4041 13.1779C10.3979 13.205 10.3932 13.2272 10.3902 13.2435L10.4164 13.2588C10.4497 13.2782 10.4978 13.3059 10.5587 13.3408C10.6804 13.4105 10.8528 13.5088 11.059 13.6262C11.4715 13.8608 12.0193 14.1715 12.5678 14.4819C13.1163 14.7924 13.6655 15.1027 14.0806 15.3366C14.2882 15.4535 14.4623 15.5513 14.586 15.6205C14.6479 15.6551 14.6971 15.6824 14.7316 15.7015L14.7718 15.7235L14.7765 15.726C14.7796 15.7248 14.7838 15.723 14.7892 15.7203C14.8072 15.7112 14.8322 15.6953 14.8643 15.6716C14.928 15.6246 15.0138 15.5513 15.1169 15.455C15.6586 14.9486 16.2687 14.6337 17.0021 14.4819C17.4864 14.3816 18.2095 14.401 18.6863 14.5273C19.325 14.6963 20.121 15.1693 20.5289 15.6233C21.304 16.4863 21.6694 17.6237 21.5183 18.7107C21.1563 21.3145 18.4119 22.8029 16.072 21.6613C15.2349 21.2529 14.6812 20.6897 14.2699 19.8294C14.1377 19.5528 14.0544 19.3355 14.0043 19.0952C13.9543 18.8554 13.9378 18.5951 13.9366 18.2333C13.9349 17.6943 13.947 17.5578 14.0255 17.2849C14.0255 17.2849 14.0255 17.2849 14.0255 17.2849L14.0736 17.2987C14.1225 17.1287 14.1486 16.9757 14.1316 16.9588L10.4631 12.9456ZM10.4631 12.9456C10.529 12.7025 10.5613 12.3494 10.5613 11.9993C10.5613 11.6492 10.529 11.296 10.4631 11.053L10.4631 11.053M10.4631 12.9456L10.4631 11.053M3.02422 12.8117C3.36571 14.3035 4.51782 15.4334 6.01376 15.7434C6.19406 15.7808 6.45125 15.8015 6.70729 15.8051C6.96337 15.8087 7.22239 15.7953 7.40643 15.7632C8.1781 15.6282 8.96445 15.2138 9.48665 14.666L9.45046 14.6315L9.48665 14.666C9.54102 14.6089 9.59253 14.5573 9.63161 14.5201C9.64907 14.5035 9.66367 14.4901 9.67476 14.4806C9.68195 14.4844 9.6906 14.489 9.70071 14.4945C9.73424 14.5127 9.78274 14.5394 9.84419 14.5736C9.96705 14.6419 10.1411 14.7396 10.3494 14.857C10.766 15.0918 11.3191 15.4053 11.8726 15.7199C12.4261 16.0346 12.9799 16.3504 13.3976 16.5899C13.6065 16.7097 13.7813 16.8103 13.905 16.8822C13.9669 16.9181 14.0159 16.9468 14.05 16.9671C14.0656 16.9763 14.0778 16.9837 14.0867 16.9892L3.02422 12.8117L3.07295 12.8005L3.02422 12.8117ZM3.02422 12.8117C2.97442 12.5942 2.95 12.2957 2.95 11.9993C2.95 11.7029 2.97442 11.4044 3.02422 11.1869C3.02422 11.1869 3.02422 11.1869 3.02422 11.1869L3.07295 11.1981L3.02422 12.8117ZM10.4631 11.053C10.4388 10.9634 10.418 10.8811 10.4041 10.8207C10.3979 10.7936 10.3932 10.7714 10.3902 10.7551L10.4161 10.7399C10.4494 10.7206 10.4975 10.693 10.5584 10.6581C10.6801 10.5884 10.8527 10.4901 11.0592 10.3727C11.4722 10.1379 12.0209 9.82687 12.5702 9.51601C13.1196 9.20515 13.6696 8.89448 14.0853 8.66037C14.2931 8.54332 14.4673 8.44543 14.591 8.37623C14.6529 8.34163 14.7021 8.31424 14.7365 8.29523L14.7766 8.27327L14.7781 8.27245C14.7815 8.27402 14.7859 8.2762 14.7912 8.27919C14.8108 8.29012 14.8377 8.30823 14.8709 8.33319C14.937 8.38282 15.0233 8.45613 15.1169 8.54361C15.6586 9.04998 16.2687 9.36488 17.0021 9.51672C17.4824 9.61616 18.2068 9.59737 18.686 9.47305C19.1354 9.35653 19.8121 9.00641 20.1704 8.70517C22.2279 6.97524 21.9319 3.77068 19.5921 2.43727C18.8491 2.01388 17.9142 1.85415 17.0715 2.00651C15.5969 2.2731 14.427 3.35209 14.0262 4.8142M10.4631 11.053L14.0262 4.8142M14.0262 4.8142C13.9533 5.07988 13.9383 5.24589 13.9366 5.76527C13.9349 6.30434 13.947 6.44079 14.0255 6.71371M14.0262 4.8142L14.0255 6.71371M14.0255 6.71371C14.0496 6.79738 14.0679 6.87626 14.078 6.9356C14.0831 6.96547 14.0859 6.98912 14.0866 7.00543C14.0867 7.00676 14.0867 7.00799 14.0868 7.00914C14.0778 7.01461 14.0656 7.02199 14.0501 7.03121C14.016 7.05144 13.967 7.0801 13.9051 7.11603C13.7814 7.18787 13.6066 7.28851 13.3977 7.40827C12.98 7.64778 12.4263 7.96365 11.8729 8.27836C11.3194 8.59308 10.7663 8.90662 10.3499 9.14146C10.1416 9.25889 9.96762 9.35661 9.84483 9.42495C9.78342 9.45914 9.73494 9.4859 9.70145 9.50408C9.6914 9.50954 9.68278 9.51418 9.67562 9.51799L14.0255 6.71371ZM10.3663 13.2292C10.3663 13.2292 10.3664 13.2293 10.3664 13.2293L10.3663 13.2292C10.3659 13.2289 10.3659 13.229 10.3663 13.2292ZM18.7842 3.62772C19.3829 3.91639 19.8031 4.40744 20.0381 5.09758C20.0856 5.23702 20.1108 5.50544 20.1105 5.7791C20.1102 6.05298 20.0844 6.31838 20.0368 6.45219L20.0839 6.46894L20.0368 6.4522C19.8155 7.07521 19.4025 7.587 18.9034 7.86271C18.4196 8.12992 17.7578 8.22928 17.2101 8.11659C16.5596 7.9828 15.8771 7.43962 15.5813 6.81874C15.4869 6.62052 15.4277 6.46515 15.3918 6.30462C15.3559 6.14405 15.3427 5.9761 15.3427 5.75218C15.3427 5.08658 15.5637 4.56214 16.0482 4.07997C16.6331 3.49792 17.3787 3.26665 18.1982 3.41346L18.7842 3.62772ZM10.3663 10.7693C10.3658 10.7697 10.3656 10.7697 10.3662 10.7694L10.3663 10.7693ZM7.37164 9.67877C8.21237 9.90374 8.89115 10.5984 9.0883 11.4345C9.12394 11.5857 9.14222 11.7915 9.14222 11.9993C9.14222 12.2071 9.12394 12.4129 9.0883 12.5641C8.92362 13.2627 8.41186 13.8809 7.74845 14.182C7.40347 14.3385 7.14012 14.3912 6.71427 14.3877C6.07603 14.3823 5.52355 14.1483 5.0688 13.6904C4.79032 13.4099 4.57412 13.0581 4.46373 12.7073C4.40483 12.5201 4.37458 12.261 4.37458 11.9993C4.37458 11.7376 4.40483 11.4785 4.46373 11.2913C4.72953 10.4465 5.48521 9.78426 6.36397 9.62664C6.4839 9.60513 6.66978 9.60024 6.86083 9.61009C7.05164 9.61992 7.24234 9.64417 7.37164 9.67877ZM18.3678 15.9193C19.1479 16.1345 19.7392 16.7089 20.0368 17.5464C20.0844 17.6802 20.1102 17.9456 20.1105 18.2195C20.1108 18.4932 20.0856 18.7616 20.0381 18.901C19.8031 19.5912 19.3829 20.0822 18.7842 20.3709C18.2509 20.628 17.7679 20.6883 17.2037 20.5688C16.3579 20.3895 15.6192 19.6696 15.4004 18.8087C15.3692 18.686 15.3427 18.426 15.3427 18.2332C15.3427 18.0404 15.3692 17.7803 15.4004 17.6577C15.6132 16.8207 16.3084 16.1194 17.1424 15.9004C17.3 15.859 17.5207 15.8398 17.7466 15.8432C17.9723 15.8467 18.1988 15.8727 18.3678 15.9193Z" fill="#414853" stroke="#414853" stroke-width="0.1"/>
</svg>
