<svg width="350" height="350" viewBox="0 0 350 350" fill="none" xmlns="http://www.w3.org/2000/svg">
<path d="M278.374 349.804C254.812 347.844 209.796 329.385 211.295 311.361C212.795 293.337 260.243 282.571 283.805 284.532C307.367 286.492 325.252 302.693 323.753 320.718C322.253 338.742 301.936 351.765 278.374 349.804Z" fill="#8A37FF"/>
<path d="M304.301 295.11C279.594 308.877 222.579 320.568 212.047 301.668C201.516 282.768 241.456 240.434 266.163 226.667C290.869 212.9 319.435 217.061 329.967 235.961C340.498 254.86 329.007 281.343 304.301 295.11Z" fill="#C69EFF"/>
<path d="M89.2883 349.804C112.85 347.844 157.867 329.385 156.367 311.361C154.868 293.337 107.42 282.571 83.8579 284.532C60.2958 286.492 42.4109 302.693 43.91 320.718C45.4092 338.742 65.7262 351.765 89.2883 349.804Z" fill="#8A37FF"/>
<path d="M63.3624 295.11C88.0689 308.877 145.084 320.568 155.615 301.668C166.147 282.768 126.207 240.434 101.5 226.667C76.7937 212.9 48.2276 217.061 37.6962 235.961C27.1648 254.861 38.656 281.343 63.3624 295.11Z" fill="#C69EFF"/>
<path d="M252.191 350H115.471C106.036 350 99.0267 341.287 101.015 332.064C109.244 293.89 143.196 265.281 183.831 265.281C224.466 265.281 258.419 293.89 266.648 332.064C268.636 341.287 261.626 350 252.191 350Z" fill="#B0EBD8"/>
<path d="M141.386 332.064C148.206 300.425 172.697 275.357 204.016 267.702C197.548 266.121 190.788 265.281 183.831 265.281C143.196 265.281 109.244 293.89 101.015 332.064C99.0267 341.287 106.036 350 115.471 350H155.842C146.407 350 139.398 341.287 141.386 332.064Z" fill="#5FD9B3"/>
<path d="M229.122 278.393C216.022 270.09 200.489 265.281 183.832 265.281C167.175 265.281 151.641 270.09 138.542 278.393C144.683 297.552 162.633 311.424 183.832 311.424C205.03 311.424 222.98 297.552 229.122 278.393Z" fill="#FFDDCF"/>
<path d="M154.741 301.486C166.347 284.905 183.743 272.663 203.992 267.707C197.529 266.129 190.78 265.281 183.832 265.281C167.175 265.281 151.641 270.09 138.542 278.393C141.508 287.648 147.229 295.667 154.741 301.486Z" fill="#FFCBBE"/>
<path d="M183.831 128.166C228.339 128.166 264.42 99.4748 264.42 64.0828C264.42 28.6909 228.339 0 183.831 0C139.324 0 103.243 28.6909 103.243 64.0828C103.243 99.4748 139.324 128.166 183.831 128.166Z" fill="#EFE149"/>
<path d="M286.165 201.696C299.879 201.696 310.997 190.578 310.997 176.863C310.997 163.149 299.879 152.031 286.165 152.031C272.45 152.031 261.333 163.149 261.333 176.863C261.333 190.578 272.45 201.696 286.165 201.696Z" fill="#FFCBBE"/>
<path d="M81.4982 201.696C95.2127 201.696 106.33 190.578 106.33 176.863C106.33 163.149 95.2127 152.031 81.4982 152.031C67.7838 152.031 56.666 163.149 56.666 176.863C56.666 190.578 67.7838 201.696 81.4982 201.696Z" fill="#FFCBBE"/>
<path d="M286.605 176.929C286.605 225.413 253.033 266.055 207.866 276.877C200.156 278.724 190.722 275.295 182.445 275.295C169.791 275.295 159.055 277.415 147.86 273.231C108.841 258.65 81.0581 221.034 81.0581 176.929C81.0581 120.169 127.071 74.1553 183.832 74.1553C240.592 74.1553 286.605 120.169 286.605 176.929Z" fill="#FFDDCE"/>
<path d="M129.118 176.929C129.118 128.445 162.694 87.8087 207.861 76.9874C200.151 75.1403 192.107 74.1553 183.831 74.1553C127.071 74.1553 81.0571 120.169 81.0571 176.929C81.0571 233.69 127.071 279.703 183.831 279.703C192.106 279.703 200.156 278.724 207.866 276.877C162.699 266.056 129.118 225.414 129.118 176.929Z" fill="#FFCBBE"/>
<path d="M304.38 159.986C248.765 159.986 200.547 133.129 183.832 99.7113C168.008 133.129 113.125 159.986 63.2832 159.986C63.2832 93.4086 117.254 39.4375 183.832 39.4375C250.409 39.4375 304.38 93.4093 304.38 159.986Z" fill="#FFF57C"/>
<path d="M219.017 44.6533C207.887 41.2627 196.069 39.4375 183.832 39.4375C117.254 39.4375 63.2832 93.4086 63.2832 159.986C87.641 159.986 113.192 153.576 134.81 143.117C141.368 96.3146 174.811 58.1201 219.017 44.6533Z" fill="#EFE149"/>
<path d="M53.1455 293.243L103.318 345.453C106.106 348.358 109.96 350 113.987 350H138.148L69.1936 278.216L53.1455 293.243Z" fill="#E88F72"/>
<path d="M96.2584 293.579L74.421 299.925L67.2685 321.511C65.7995 325.944 59.8857 326.768 57.2614 322.906L44.4782 304.098L21.7378 303.966C17.0681 303.939 14.4568 298.569 17.319 294.88L31.2561 276.911L24.3546 255.243C22.9375 250.793 27.2373 246.651 31.6307 248.232L53.0272 255.934L71.502 242.674C75.2953 239.952 80.5644 242.761 80.4181 247.428L79.7051 270.158L98.0248 283.63C101.786 286.397 100.743 292.276 96.2584 293.579Z" fill="#FFF57C"/>
<path d="M53.0273 255.933L31.6308 248.231C27.2373 246.65 22.9375 250.793 24.3546 255.242L31.2562 276.91L17.3191 294.88C14.4576 298.569 17.0689 303.939 21.7378 303.966L44.4783 304.098L57.2615 322.906C59.8865 326.768 65.8002 325.943 67.2686 321.511C53.7553 306.51 46.6254 275.927 53.0273 255.933Z" fill="#EFE149"/>
<path d="M126.448 222.961C138.089 222.961 147.526 215.446 147.526 206.175C147.526 196.905 138.089 189.39 126.448 189.39C114.807 189.39 105.37 196.905 105.37 206.175C105.37 215.446 114.807 222.961 126.448 222.961Z" fill="#FF8E9E"/>
<path d="M240.698 222.961C252.339 222.961 261.775 215.446 261.775 206.175C261.775 196.905 252.339 189.39 240.698 189.39C229.057 189.39 219.62 196.905 219.62 206.175C219.62 215.446 229.057 222.961 240.698 222.961Z" fill="#FF8E9E"/>
<path d="M138.732 194.938C135.9 194.938 133.605 192.644 133.605 189.812V181.608C133.605 178.776 135.9 176.481 138.732 176.481C141.565 176.481 143.859 178.776 143.859 181.608V189.812C143.859 192.644 141.565 194.938 138.732 194.938Z" fill="#2B4D66"/>
<path d="M183.573 200.275C177.56 200.275 171.842 197.67 167.886 193.13C166.026 190.995 166.249 187.757 168.384 185.897C170.519 184.036 173.757 184.259 175.617 186.394C177.626 188.699 180.526 190.022 183.574 190.022C186.621 190.022 189.522 188.699 191.531 186.394C193.39 184.259 196.628 184.037 198.764 185.897C200.899 187.757 201.121 190.996 199.261 193.13C195.303 197.67 189.586 200.275 183.573 200.275Z" fill="#2B4D66"/>
<path d="M239.503 194.709C236.671 194.709 234.376 192.414 234.376 189.582C234.376 187.168 232.411 185.203 229.997 185.203C227.582 185.203 225.618 187.168 225.618 189.582C225.618 192.414 223.323 194.709 220.491 194.709C217.659 194.709 215.364 192.414 215.364 189.582C215.364 181.513 221.928 174.949 229.997 174.949C238.065 174.949 244.63 181.514 244.63 189.582C244.63 192.414 242.335 194.709 239.503 194.709Z" fill="#2B4D66"/>
</svg>
