<svg width="33" height="26" viewBox="0 0 33 26" fill="none" xmlns="http://www.w3.org/2000/svg">
<path d="M1.15706 23.1585L15.1964 0.90615C15.5508 0.344062 16.1883 0 16.8752 0C17.5621 0 18.1996 0.344062 18.5546 0.90615L32.5933 23.1585C32.9583 23.7373 32.9696 24.4589 32.6214 25.0479C32.2739 25.6362 31.6214 26 30.9139 26H2.83519C2.12831 26 1.47581 25.6362 1.12769 25.0479C0.780811 24.4589 0.791439 23.7373 1.15706 23.1585ZM16.8646 7.6972C16.0583 7.6972 15.3758 8.13206 15.3758 8.90261C15.3758 11.2537 15.6652 14.6328 15.6652 16.9839C15.6652 17.5968 16.3683 17.853 16.8646 17.853C17.5258 17.853 18.0846 17.5962 18.0846 16.9839C18.0846 14.6328 18.3739 11.2537 18.3739 8.90261C18.3739 8.13206 17.7127 7.6972 16.8646 7.6972ZM16.8439 22.2595C17.7533 22.2595 18.4358 21.5481 18.4358 20.7381C18.4358 19.9084 17.7533 19.2167 16.8439 19.2167C15.9964 19.2167 15.2727 19.9084 15.2727 20.7381C15.2727 21.5481 15.9964 22.2595 16.8439 22.2595Z" fill="#A4A0BD"/>
</svg>
