<svg width="350" height="350" viewBox="0 0 350 350" fill="none" xmlns="http://www.w3.org/2000/svg">
<path d="M307.072 239.937H298.72V192.67V154.423V90.5194C298.72 40.5269 258.193 0 208.201 0H141.798C91.8058 0 51.2789 40.5269 51.2789 90.5188V154.422V192.67V239.937H42.9268C27.1945 239.937 14.4414 252.69 14.4414 268.422C14.4414 284.154 27.1945 296.907 42.9268 296.907H132.138H217.86H307.072C322.804 296.907 335.557 284.154 335.557 268.422C335.558 252.69 322.804 239.937 307.072 239.937Z" fill="#544F57"/>
<path d="M118.567 192.672L199.428 296.912H42.9298C35.0623 296.912 27.9447 293.724 22.7836 288.571C17.6307 283.411 14.4424 276.292 14.4424 268.425C14.4424 252.698 27.1955 239.938 42.9298 239.938H51.2785V90.5189C51.2785 40.5318 91.8081 0.00292969 141.802 0.00292969H208.204C208.35 0.00292969 208.502 0.00292969 208.648 0.0104492C158.86 0.240137 118.567 40.6774 118.567 90.5189V192.672Z" fill="#454045"/>
<path d="M266.833 350H83.1709L87.6512 328.179C91.3364 310.213 105.336 296.557 122.707 292.88C125.757 292.23 128.915 291.894 132.142 291.894H217.864C221.083 291.894 224.241 292.23 227.291 292.88C244.662 296.558 258.669 310.213 262.354 328.179L266.833 350Z" fill="#80B4FB"/>
<path d="M149.538 291.893C147.626 291.893 145.753 292.229 143.941 292.879C133.62 296.557 125.309 310.212 123.115 328.178L120.454 349.999H83.167L87.6473 328.178C91.3325 310.212 105.332 296.556 122.703 292.879C125.754 292.229 128.911 291.893 132.138 291.893H149.538Z" fill="#5490F9"/>
<path d="M200.408 249.46V291.893C200.408 305.922 189.032 317.299 175.002 317.299C160.964 317.299 149.588 305.923 149.588 291.893V249.46H200.408Z" fill="#FFCBBE"/>
<path d="M183.299 315.915C180.7 316.809 177.909 317.298 175.004 317.298C160.966 317.298 149.59 305.922 149.59 291.892V249.459H166.181V291.892C166.181 303.024 173.337 312.482 183.299 315.915Z" fill="#EAAC9D"/>
<path d="M68.8521 214.128C50.5324 214.128 35.6807 199.277 35.6807 180.956C35.6807 178.435 35.9623 175.979 36.4948 173.619C40.798 154.561 68.8514 157.687 68.8514 177.224H281.146C281.146 157.687 309.2 154.561 313.503 173.619C314.036 175.98 314.317 178.435 314.317 180.956C314.317 199.276 299.466 214.128 281.146 214.128" fill="#EAAC9D"/>
<path d="M68.8564 193.011C67.1953 193.011 65.5622 192.23 64.5341 190.771C64.4056 190.592 59.0318 183.259 53.2548 185.588C50.5498 186.681 47.4723 185.372 46.3812 182.667C45.2895 179.962 46.5979 176.883 49.3036 175.792C60.1796 171.403 69.432 179.331 73.1836 184.706C74.8529 187.098 74.2678 190.39 71.8759 192.06C70.9537 192.702 69.8996 193.011 68.8564 193.011Z" fill="#DF9380"/>
<path d="M281.144 192.994C280.092 192.994 279.032 192.682 278.11 192.031C275.736 190.355 275.153 187.089 276.816 184.706C280.568 179.33 289.818 171.401 300.696 175.792C303.402 176.883 304.71 179.961 303.619 182.666C302.527 185.371 299.449 186.68 296.745 185.588C290.924 183.242 285.518 190.699 285.464 190.775C284.43 192.22 282.799 192.994 281.144 192.994Z" fill="#DF9380"/>
<path d="M149.588 249.46H200.408V288.552H149.588V249.46Z" fill="#EAAC9D"/>
<path d="M281.141 139.432V197.737C281.141 240.461 246.507 275.103 203.775 275.103H146.211C103.487 275.103 68.8457 240.469 68.8457 197.737V140.097C82.0192 139.715 100.147 137.468 119.674 133.499C159.691 125.365 205.625 109.989 226.995 88.6201C226.995 88.6194 248.135 131.817 281.141 139.432Z" fill="#FFCBBE"/>
<path d="M197.04 275.104H146.212C103.488 275.104 68.8467 240.469 68.8467 197.738V140.098C82.0202 139.716 100.148 137.468 119.675 133.5V197.738C119.675 240.461 154.309 275.104 197.04 275.104Z" fill="#EAAC9D"/>
<path d="M237.525 213.801C247.121 213.801 254.901 209.071 254.901 203.236C254.901 197.4 247.121 192.67 237.525 192.67C227.929 192.67 220.149 197.4 220.149 203.236C220.149 209.071 227.929 213.801 237.525 213.801Z" fill="#E490B7"/>
<path d="M112.473 213.801C122.07 213.801 129.849 209.071 129.849 203.236C129.849 197.4 122.07 192.67 112.473 192.67C102.877 192.67 95.0977 197.4 95.0977 203.236C95.0977 209.071 102.877 213.801 112.473 213.801Z" fill="#E490B7"/>
<path d="M185.336 190.954H164.663C161.746 190.954 159.382 188.59 159.382 185.673C159.382 182.756 161.746 180.392 164.663 180.392H185.336C188.253 180.392 190.617 182.756 190.617 185.673C190.617 188.59 188.253 190.954 185.336 190.954Z" fill="#EAAC9D"/>
<path d="M221.793 189.693C233.588 189.693 243.15 180.131 243.15 168.336C243.15 156.541 233.588 146.979 221.793 146.979C209.998 146.979 200.437 156.541 200.437 168.336C200.437 180.131 209.998 189.693 221.793 189.693Z" fill="white"/>
<path d="M149.553 168.333C149.553 175.94 145.578 182.614 139.591 186.391H116.799C110.813 182.614 106.837 175.94 106.837 168.333C106.837 156.543 116.402 146.979 128.191 146.979C139.988 146.979 149.553 156.543 149.553 168.333Z" fill="white"/>
<path d="M219.616 236.921C218.239 236.921 216.864 236.386 215.829 235.321L204.743 223.923L193.656 235.321C192.662 236.344 191.297 236.921 189.871 236.921C188.444 236.921 187.079 236.344 186.085 235.321L174.998 223.923L163.912 235.321C162.918 236.344 161.552 236.921 160.126 236.921C158.7 236.921 157.335 236.344 156.34 235.322L145.251 223.922L134.162 235.322C132.128 237.413 128.785 237.459 126.693 235.425C124.602 233.392 124.555 230.047 126.59 227.956L141.465 212.665C142.46 211.643 143.825 211.066 145.251 211.066C146.677 211.066 148.042 211.643 149.037 212.665L160.125 224.064L171.213 212.665C172.207 211.642 173.572 211.065 174.998 211.065C176.425 211.065 177.79 211.642 178.784 212.665L189.871 224.063L200.957 212.666C201.951 211.644 203.316 211.067 204.742 211.067C206.168 211.067 207.533 211.644 208.528 212.666L223.401 227.958C225.435 230.049 225.388 233.392 223.298 235.427C222.271 236.424 220.943 236.921 219.616 236.921Z" fill="#DD636E"/>
<path d="M252.907 64.5658C251.579 64.5658 250.252 64.0688 249.225 63.0701C247.134 61.0364 247.088 57.6923 249.122 55.6012L263.998 40.3099C264.992 39.2879 266.358 38.7109 267.783 38.7109C269.21 38.7109 270.574 39.2879 271.569 40.3099L282.658 51.7088L293.745 40.3099C294.74 39.2879 296.105 38.7109 297.531 38.7109C298.957 38.7109 300.322 39.2879 301.316 40.3105L312.403 51.7088L323.489 40.3105C325.523 38.2194 328.867 38.1729 330.958 40.2066C333.049 42.2403 333.096 45.5845 331.062 47.6756L316.19 62.9662C315.195 63.9889 313.83 64.5658 312.404 64.5658C310.978 64.5658 309.613 63.9889 308.619 62.9662L297.532 51.568L286.445 62.9669C285.45 63.9889 284.085 64.5658 282.659 64.5658C281.232 64.5658 279.868 63.9889 278.873 62.9669L267.785 51.5673L256.695 62.9669C255.658 64.0306 254.283 64.5658 252.907 64.5658Z" fill="#F4DD45"/>
<path d="M312.403 89.9613C310.976 89.9613 309.612 89.3844 308.617 88.3617L297.531 76.9635L286.443 88.3624C285.449 89.3844 284.084 89.9613 282.658 89.9613C281.231 89.9613 279.867 89.3844 278.872 88.3624L267.783 76.9628L256.694 88.3624C254.66 90.4528 251.317 90.4993 249.225 88.4656C247.134 86.4319 247.088 83.0878 249.122 80.9967L263.998 65.7054C264.992 64.6834 266.358 64.1064 267.783 64.1064C269.21 64.1064 270.574 64.6834 271.569 65.7054L282.658 77.1043L293.745 65.7054C294.74 64.6834 296.105 64.1064 297.531 64.1064C298.957 64.1064 300.322 64.6834 301.316 65.7061L312.403 77.1043L323.489 65.7061C325.523 63.6149 328.867 63.5685 330.958 65.6022C333.049 67.6358 333.096 70.98 331.062 73.0711L316.189 88.3624C315.195 89.3851 313.83 89.9613 312.403 89.9613Z" fill="#F4DD45"/>
<path d="M221.794 177.814C218.877 177.814 216.513 175.449 216.513 172.532V164.142C216.513 161.225 218.877 158.86 221.794 158.86C224.711 158.86 227.076 161.225 227.076 164.142V172.532C227.076 175.448 224.712 177.814 221.794 177.814Z" fill="#454045"/>
<path d="M128.196 177.814C125.278 177.814 122.914 175.449 122.914 172.532V164.142C122.914 161.225 125.279 158.86 128.196 158.86C131.112 158.86 133.477 161.225 133.477 164.142V172.532C133.477 175.448 131.112 177.814 128.196 177.814Z" fill="#454045"/>
</svg>
