<svg width="351" height="309" viewBox="0 0 351 309" fill="none" xmlns="http://www.w3.org/2000/svg">
<path d="M156.4 125.5C142.8 125.5 131.7 136.6 131.7 150.2V193.8L88.9001 230C81.8001 236 77.6001 244.9 77.6001 254.3V273.7L213.7 287.8V125.5H156.4Z" fill="#FC8A3D"/>
<path d="M325.1 212L296.3 182.8V150.2C296.3 136.6 285.2 125.5 271.6 125.5H213.8V287.7L350.3 273.6C350.3 250.6 341.2 228.4 325.1 212Z" fill="#FFCE71"/>
<path d="M156.4 218.9V281.9L214 287.7L271.6 281.7V121.5C271.6 107.9 260.5 96.7998 246.9 96.7998H181.1C167.5 96.7998 156.4 107.9 156.4 121.5V218.9Z" fill="#FFCE71"/>
<path d="M213.8 248.9V121.5C213.8 107.9 224.5 96.7998 238.1 96.7998H181C167.4 96.7998 156.3 107.9 156.3 121.3V281.8L213.7 287.7L238 285.2V273.6C224.5 273.6 213.8 262.6 213.8 248.9Z" fill="#FFB357"/>
<path d="M47.4003 227.1L19.3003 216.6C10.1003 213.1 0.300293 219.9 0.300293 229.8V273.7L28.4003 287.8L56.5003 273.7V240.3C56.5003 234.4 52.9003 229.1 47.4003 227.1Z" fill="#FC8A3D"/>
<path d="M318.6 308.8H32.0003C14.5003 308.8 0.300293 294.6 0.300293 277.1V273.6H350.3V277.1C350.3 294.6 336.1 308.8 318.6 308.8Z" fill="#FCE3A0"/>
<path d="M156.4 277.1V273.6H0.300293V277.1C0.300293 294.6 14.5003 308.8 32.0003 308.8H188.1C170.6 308.8 156.4 294.6 156.4 277.1Z" fill="#FFCE71"/>
<path d="M80.9002 120.7C114.148 120.7 141.1 93.7473 141.1 60.4998C141.1 27.2523 114.148 0.299805 80.9002 0.299805C47.6527 0.299805 20.7002 27.2523 20.7002 60.4998C20.7002 93.7473 47.6527 120.7 80.9002 120.7Z" fill="#FCE3A0"/>
<path d="M53.3002 60.4998C53.3002 32.9998 71.9002 9.6998 97.2002 2.5998C92.0002 1.0998 86.5002 0.299805 80.9002 0.299805C47.7002 0.299805 20.7002 27.2998 20.7002 60.4998C20.7002 93.6998 47.7002 120.7 80.9002 120.7C86.6002 120.7 92.0002 119.9 97.2002 118.4C71.9002 111.3 53.3002 87.9998 53.3002 60.4998Z" fill="#FFCE71"/>
<path d="M250.3 75.5995H259.3C272.6 75.5995 282 65.0995 282 53.0995V52.7995C281.9 41.3995 273.3 31.8995 262.3 30.3995C259 13.8995 239.5 6.49951 226 16.9995C212.6 6.59951 193 13.9995 189.8 30.5995C184.9 31.2995 180.4 33.4995 176.9 37.0995C163.1 51.0995 172.2 75.6995 193 75.6995H231.2" fill="#B9F0FF"/>
</svg>
