<svg width="387" height="375" viewBox="0 0 387 375" fill="none" xmlns="http://www.w3.org/2000/svg">
<path d="M62.632 42.6497C67.4548 30.3278 61.3757 16.4293 49.0538 11.6065C36.732 6.78369 22.8335 12.8628 18.0107 25.1847C13.1878 37.5065 19.267 51.405 31.5888 56.2278L22.5338 80.0196" stroke="black" stroke-width="8" stroke-linecap="round" stroke-linejoin="round"/>
<circle cx="16.4668" cy="94.874" r="4" fill="black"/>
<path d="M130.955 54.7853C121.458 63.9989 121.228 79.167 130.441 88.6642C139.655 98.1614 154.823 98.3912 164.32 89.1776C173.817 79.964 174.047 64.7959 164.834 55.2987L182.937 37.4018" stroke="black" stroke-width="8" stroke-linecap="round" stroke-linejoin="round"/>
<circle cx="194.617" cy="26.3989" r="4" transform="rotate(-155.507 194.617 26.3989)" fill="black"/>
<path d="M314.063 132.436C318.935 144.738 332.857 150.762 345.16 145.89C357.462 141.018 363.486 127.095 358.614 114.793C353.742 102.49 339.819 96.4667 327.517 101.339L317.922 77.7595" stroke="black" stroke-width="8" stroke-linecap="round" stroke-linejoin="round"/>
<circle cx="312.233" cy="62.7567" r="4" transform="rotate(137.02 312.233 62.7567)" fill="black"/>
<path d="M108.17 201.904C108.49 218.684 95.61 233.244 77.09 239.424C71.31 241.354 64.99 242.474 58.35 242.574C30.42 243.034 7.42999 225.564 6.99999 203.554C6.61999 183.674 24.79 166.884 48.9 163.494C51.48 163.124 54.12 162.924 56.82 162.874C84.76 162.434 107.75 179.904 108.17 201.904Z" fill="#FFD3BD"/>
<path d="M356.26 201.904C356.58 218.684 343.7 233.244 325.18 239.424C319.4 241.354 313.08 242.474 306.44 242.574C278.51 243.034 255.52 225.564 255.09 203.554C254.71 183.674 272.88 166.884 296.99 163.494C299.57 163.124 302.21 162.924 304.91 162.874C332.85 162.434 355.84 179.904 356.26 201.904Z" fill="#FFBE9D"/>
<path d="M275.61 374.434H85.6098C75.9898 374.434 68.6498 365.804 70.2098 356.324C71.3798 349.224 73.2898 342.504 75.6698 336.234C87.7498 304.264 111.93 284.004 111.93 284.004H249.29C249.29 284.004 273.47 304.264 285.55 336.234C287.93 342.504 289.84 349.224 291.01 356.324C292.57 365.804 285.23 374.434 275.61 374.434Z" fill="#8FD9A9"/>
<path d="M319.596 206.97C320.476 256.87 285.136 300.21 234.326 318.58C218.476 324.33 201.126 327.64 182.906 327.96C106.256 329.32 43.1763 277.36 42.0163 211.89C40.9663 152.75 90.8263 102.82 156.986 92.7397C164.056 91.6497 171.306 91.0297 178.706 90.8997C255.356 89.5497 318.436 141.51 319.596 206.97Z" fill="#FFBE9D"/>
<path d="M315.984 206.556C316.849 255.418 282.933 296.886 233 314.874C232.076 314.894 230.338 315.874 229.414 315.874C154.077 315.874 93 262.165 93 195.912C93 153.365 118.188 115.999 156.181 94.7009C163.128 93.6336 170.253 93.0265 177.526 92.8992C252.853 91.5773 314.844 142.457 315.984 206.556Z" fill="#FFD3BD"/>
<path d="M49.2637 109.788C49.2637 109.788 76.1749 103.429 94.5975 124.46L49.2637 109.788Z" fill="#4B5560"/>
<path d="M49.2637 109.788C49.2637 109.788 76.1749 103.429 94.5975 124.46" stroke="black" stroke-width="8" stroke-miterlimit="10" stroke-linecap="round" stroke-linejoin="round"/>
<path d="M297.514 137.012C310.144 153.679 317.884 173.272 318.909 194.448V194.51C319.053 197.508 316.039 200.155 313.014 199.69C265.702 192.494 230.661 169.881 214.75 157.856C210.906 154.951 205.308 157.96 205.462 162.829C205.636 168.465 206.2 175.082 207.676 180.665C208.783 184.863 205.39 188.988 200.982 188.978C160.271 188.885 137.369 162.002 127.681 146.596C125.148 142.564 119.428 142.409 117.131 146.307C97.3761 179.828 69.4192 194.272 50.0226 200.61C46.2191 201.851 41.8211 198.532 42.0056 194.53C42.0056 194.499 42.0056 194.468 42.0056 194.448C45.0504 131.749 106.972 82.8844 180.457 82.874C219.907 82.8844 256.024 96.9668 281.49 119.714" fill="#4C5661"/>
<path d="M137.08 234.554C137.25 243.414 130.57 251.114 120.97 254.374C117.98 255.394 114.7 255.984 111.26 256.044C96.7796 256.284 84.8696 247.054 84.6496 235.434C84.4496 224.934 93.8696 216.064 106.37 214.274C107.71 214.084 109.07 213.974 110.47 213.944C124.94 213.704 136.86 222.924 137.08 234.554Z" fill="#EDA1AB"/>
<path d="M278.68 234.554C278.85 243.414 272.17 251.114 262.57 254.374C259.58 255.394 256.3 255.984 252.86 256.044C238.38 256.284 226.47 247.054 226.25 235.434C226.05 224.934 235.47 216.064 247.97 214.274C249.31 214.084 250.67 213.974 252.07 213.944C266.55 213.704 278.46 222.924 278.68 234.554Z" fill="#EDA1AB"/>
<path d="M114.7 191.414C114.7 191.414 123.44 200.064 137.08 191.414" stroke="#231F20" stroke-width="12" stroke-miterlimit="10" stroke-linecap="round" stroke-linejoin="round"/>
<path d="M125.89 195.254V215.614" stroke="#231F20" stroke-width="12" stroke-miterlimit="10" stroke-linecap="round" stroke-linejoin="round"/>
<path d="M236.88 202.734V215.614" stroke="#231F20" stroke-width="12" stroke-miterlimit="10" stroke-linecap="round" stroke-linejoin="round"/>
<path d="M164.55 217.064C164.55 217.064 185.01 215.044 196.25 221.094" stroke="#231F20" stroke-width="12" stroke-miterlimit="10" stroke-linecap="round" stroke-linejoin="round"/>
</svg>
