<svg width="350" height="336" viewBox="0 0 350 336" fill="none" xmlns="http://www.w3.org/2000/svg">
<path d="M56.9963 172.703L48.0413 175.13C31.2864 179.676 15.8167 188.063 2.87622 199.637C-0.95874 203.068 -0.95874 209.07 2.87622 212.502C15.8235 224.075 31.2864 232.463 48.0413 237.009L56.9963 239.436V172.703Z" fill="#3B484A"/>
<path d="M148.488 152.858H195.759C227.895 152.858 253.946 126.807 253.946 94.6709C253.946 62.5352 227.895 36.4834 195.759 36.4834C163.623 36.4834 137.571 62.5352 137.571 94.6709V141.941C137.571 147.971 142.459 152.858 148.488 152.858Z" fill="#ABDFEB"/>
<path d="M148.488 152.858H195.759C227.895 152.858 253.946 126.807 253.946 94.6709C253.946 62.5352 227.895 36.4834 195.759 36.4834C163.623 36.4834 137.571 62.5352 137.571 94.6709V141.941C137.571 147.971 142.459 152.858 148.488 152.858Z" fill="#D9D9D9"/>
<path d="M77.6481 335.118C74.9616 335.118 72.2477 334.284 69.9303 332.548C64.2223 328.282 63.0534 320.195 67.319 314.48C77.1149 301.376 77.1149 288.586 77.1149 269.227C77.1149 262.097 82.8913 256.32 90.0212 256.32C97.151 256.32 102.927 262.097 102.927 269.227C102.927 290.172 102.927 309.955 87.9909 329.937C85.4616 333.327 81.5788 335.118 77.6481 335.118Z" fill="#3B484A"/>
<path d="M127.865 335.118C125.178 335.118 122.465 334.284 120.147 332.548C114.439 328.282 113.27 320.195 117.536 314.48C127.332 301.376 127.332 288.586 127.332 269.227C127.332 262.097 133.108 256.32 140.238 256.32C147.368 256.32 153.144 262.097 153.144 269.227C153.144 290.172 153.144 309.955 138.208 329.937C135.678 333.327 131.796 335.118 127.865 335.118Z" fill="#3B484A"/>
<path d="M178.082 335.118C175.395 335.118 172.681 334.284 170.364 332.548C164.656 328.282 163.487 320.195 167.753 314.48C177.548 301.376 177.549 288.586 177.549 269.227C177.549 262.097 183.325 256.32 190.455 256.32C197.585 256.32 203.361 262.097 203.361 269.227C203.361 290.172 203.361 309.955 188.424 329.937C185.895 333.327 182.012 335.118 178.082 335.118Z" fill="#3B484A"/>
<path d="M228.299 335.118C225.612 335.118 222.898 334.284 220.581 332.548C214.873 328.282 213.704 320.195 217.969 314.48C227.765 301.376 227.765 288.586 227.765 269.227C227.765 262.097 233.542 256.32 240.672 256.32C247.801 256.32 253.578 262.097 253.578 269.227C253.578 290.172 253.578 309.955 238.641 329.937C236.112 333.327 232.229 335.118 228.299 335.118Z" fill="#3B484A"/>
<path d="M206.915 285.619H111.417C67.4893 285.619 31.874 250.004 31.874 206.076C31.874 162.148 67.4893 126.533 111.417 126.533H206.908C250.836 126.533 286.451 162.148 286.451 206.076C286.458 250.004 250.843 285.619 206.915 285.619Z" fill="#FFCE1C"/>
<path d="M201.636 126.533H135.341C128.717 138.202 124.998 151.293 124.998 165.122C124.998 214.163 171.708 253.921 229.335 253.921C243.711 253.921 257.036 250.978 269.498 246.5C277.498 234.5 281.179 221.033 281.179 206.076C281.179 162.142 245.563 126.533 201.636 126.533Z" fill="#FAA330"/>
<path d="M111.417 126.533C109.873 126.533 108.341 126.581 106.824 126.67C76.0483 164.377 77.7094 247.536 120.892 285.619H193.941C150.704 247.495 149.09 164.179 179.982 126.533H111.417Z" fill="#3B484A"/>
<path d="M136.458 153.375H89.1875C57.0518 153.375 31 127.323 31 95.1875C31 76.5675 39.7462 59.99 53.3545 49.3393C63.2323 41.6083 75.6718 37 89.1875 37C121.323 37 147.375 63.0518 147.375 95.1875V142.458C147.368 148.487 142.487 153.375 136.458 153.375Z" fill="#F0F0F0"/>
<path d="M245.661 238.308C303.285 238.308 349.998 198.551 349.998 149.509C349.998 100.467 303.285 60.71 245.661 60.71C188.037 60.71 141.324 100.467 141.324 149.509C141.324 198.551 188.037 238.308 245.661 238.308Z" fill="#FFCE1C"/>
<path d="M199.177 164.199C210.337 164.199 219.384 156.995 219.384 148.107C219.384 139.22 210.337 132.016 199.177 132.016C188.017 132.016 178.97 139.22 178.97 148.107C178.97 156.995 188.017 164.199 199.177 164.199Z" fill="#F27281"/>
<path d="M308.723 164.199C319.883 164.199 328.93 156.995 328.93 148.107C328.93 139.22 319.883 132.016 308.723 132.016C297.563 132.016 288.516 139.22 288.516 148.107C288.516 156.995 297.563 164.199 308.723 164.199Z" fill="#F27281"/>
<path d="M220.573 135.721C217.743 135.721 215.446 133.424 215.446 130.594C215.446 128.119 213.43 126.103 210.955 126.103C208.48 126.103 206.464 128.119 206.464 130.594C206.464 133.424 204.167 135.721 201.337 135.721C198.507 135.721 196.21 133.424 196.21 130.594C196.21 122.459 202.827 115.849 210.955 115.849C219.083 115.849 225.7 122.466 225.7 130.594C225.7 133.424 223.403 135.721 220.573 135.721Z" fill="black"/>
<path d="M306.562 135.721C303.732 135.721 301.436 133.424 301.436 130.594C301.436 128.119 299.419 126.103 296.944 126.103C294.47 126.103 292.453 128.119 292.453 130.594C292.453 133.424 290.156 135.721 287.326 135.721C284.496 135.721 282.199 133.424 282.199 130.594C282.199 122.459 288.816 115.849 296.944 115.849C305.072 115.849 311.689 122.466 311.689 130.594C311.689 133.424 309.393 135.721 306.562 135.721Z" fill="black"/>
<path d="M253.947 151.615C248.553 151.615 243.426 149.277 239.878 145.209C238.019 143.077 238.238 139.836 240.377 137.977C242.517 136.118 245.75 136.336 247.61 138.476C249.209 140.315 251.52 141.368 253.947 141.368C256.373 141.368 258.684 140.315 260.284 138.476C262.143 136.343 265.383 136.118 267.516 137.977C269.649 139.836 269.874 143.077 268.015 145.209C264.467 149.277 259.34 151.615 253.947 151.615Z" fill="black"/>
<path d="M208.891 84.5744C206.396 84.5744 204.208 82.756 203.826 80.213C202.103 68.7833 202.349 20.3507 235.736 9.97377C238.436 9.13295 241.314 10.6437 242.155 13.3507C242.996 16.0578 241.485 18.9288 238.778 19.7697C228.1 23.0851 220.601 32.4093 216.499 47.4826C213.081 60.0333 213.109 73.0216 213.97 78.6818C214.394 81.4845 212.466 84.0958 209.664 84.5197C209.404 84.5538 209.144 84.5744 208.891 84.5744Z" fill="black"/>
<path d="M237.26 29.7363C245.471 29.7363 252.128 23.0796 252.128 14.8682C252.128 6.6567 245.471 0 237.26 0C229.048 0 222.392 6.6567 222.392 14.8682C222.392 23.0796 229.048 29.7363 237.26 29.7363Z" fill="black"/>
<path d="M282.425 84.5744C279.93 84.5744 277.743 82.756 277.36 80.213C275.637 68.7833 275.883 20.3507 309.27 9.97377C311.97 9.13295 314.848 10.6437 315.689 13.3507C316.53 16.0509 315.019 18.9288 312.312 19.7697C301.634 23.0851 294.135 32.4093 290.034 47.4826C286.616 60.0333 286.643 73.0216 287.504 78.6818C287.928 81.4845 286 84.0958 283.198 84.5197C282.938 84.5538 282.678 84.5744 282.425 84.5744Z" fill="black"/>
<path d="M310.794 29.7363C319.005 29.7363 325.662 23.0796 325.662 14.8682C325.662 6.6567 319.005 0 310.794 0C302.582 0 295.926 6.6567 295.926 14.8682C295.926 23.0796 302.582 29.7363 310.794 29.7363Z" fill="black"/>
</svg>
