<svg width="199" height="350" viewBox="0 0 199 350" fill="none" xmlns="http://www.w3.org/2000/svg">
<path d="M11.6665 224.37V326.662C11.6665 332.85 14.1248 338.785 18.5006 343.161C22.8763 347.536 28.8112 349.995 34.9994 349.995H139.998C146.186 349.995 152.121 347.536 156.497 343.161C160.872 338.785 163.331 332.85 163.331 326.662V224.364L11.6665 224.37Z" fill="#FFC239"/>
<path d="M163.331 244.996H60.2983C53.5891 244.998 47.1552 247.664 42.4111 252.408C37.667 257.152 35.0011 263.586 34.9995 270.295V347.294C35.0374 348.2 35.1289 349.104 35.2737 350H139.998C146.186 350 152.121 347.542 156.497 343.166C160.872 338.79 163.331 332.856 163.331 326.667V244.996Z" fill="#FFD55D"/>
<path d="M151.664 110.831H23.3329C10.4465 110.831 0 121.278 0 134.164V204.163C0 217.049 10.4465 227.496 23.3329 227.496H151.664C164.551 227.496 174.997 217.049 174.997 204.163V134.164C174.997 121.278 164.551 110.831 151.664 110.831Z" fill="#FFD55D"/>
<path d="M139.998 134.164H34.9995C28.5563 134.164 23.333 139.387 23.333 145.831V192.496C23.333 198.94 28.5563 204.163 34.9995 204.163H139.998C146.441 204.163 151.664 198.94 151.664 192.496V145.831C151.664 139.387 146.441 134.164 139.998 134.164Z" fill="#C5E9E9"/>
<path d="M29.166 110.831L34.4509 8.74985C34.5991 6.38305 35.6427 4.16141 37.3698 2.53624C39.0968 0.911074 41.3777 0.00425689 43.7491 0C46.1205 0.00425689 48.4014 0.911074 50.1285 2.53624C51.8555 4.16141 52.8991 6.38305 53.0473 8.74985L58.3322 110.831H29.166Z" fill="#434444"/>
<path d="M110.832 110.831V93.3315C110.832 90.2374 112.061 87.27 114.249 85.0821C116.436 82.8942 119.404 81.665 122.498 81.665H134.164C137.259 81.665 140.226 82.8942 142.414 85.0821C144.602 87.27 145.831 90.2374 145.831 93.3315V110.831H110.832Z" fill="#434444"/>
<path d="M69.9985 250.829H104.998V262.496H69.9985V250.829Z" fill="#393A3A"/>
<path d="M58.332 268.329H116.664V279.996H58.332V268.329Z" fill="#393A3A"/>
<path d="M40.8325 285.828H134.164V297.495H40.8325V285.828Z" fill="#393A3A"/>
<path d="M58.332 303.328H116.664V314.995H58.332V303.328Z" fill="#393A3A"/>
<path d="M69.9985 320.828H104.998V332.495H69.9985V320.828Z" fill="#393A3A"/>
<path d="M174.997 139.998H198.33V169.164H174.997V139.998Z" fill="#434444"/>
<path d="M139.998 134.164H122.498C125.592 134.164 128.56 135.393 130.747 137.581C132.935 139.769 134.165 142.736 134.165 145.831V192.496C134.165 195.591 132.935 198.558 130.747 200.746C128.56 202.934 125.592 204.163 122.498 204.163H139.998C143.092 204.163 146.059 202.934 148.247 200.746C150.435 198.558 151.664 195.591 151.664 192.496V145.831C151.664 142.736 150.435 139.769 148.247 137.581C146.059 135.393 143.092 134.164 139.998 134.164Z" fill="#B0D8D7"/>
<path d="M30.0703 93.3315H57.4282L56.8215 81.665H30.677L30.0703 93.3315Z" fill="#FFD55D"/>
</svg>
