<svg width="350" height="350" viewBox="0 0 350 350" fill="none" xmlns="http://www.w3.org/2000/svg">
<path d="M10.2539 277.539V318.555H175H339.746V277.539H175H10.2539Z" fill="#DFE7F4"/>
<path d="M175 31.4453H10.2539V72.4609H175H339.746V31.4453H175Z" fill="#DFE7F4"/>
<path d="M175 31.4453H339.746V72.4609H175V31.4453Z" fill="#C7CFE1"/>
<path d="M175 277.539H339.746V318.555H175V277.539Z" fill="#C7CFE1"/>
<path d="M175 72.4609H20.5078V277.539H175H329.492V72.4609H175Z" fill="#FF641A"/>
<path d="M175 72.4609H329.492V277.539H175V72.4609Z" fill="#F03800"/>
<path d="M0 267.285V328.809H175H350V267.285H175H0ZM55.3711 308.301H20.5078V287.793H55.3711V308.301ZM110.059 308.301H75.8789V287.793H110.059V308.301ZM164.746 308.301H130.566V287.793H164.746V308.301ZM294.629 287.793H329.492V308.301H294.629V287.793ZM239.941 287.793H274.121V308.301H239.941V287.793ZM185.254 287.793H219.434V308.301H185.254V287.793Z" fill="#404A80"/>
<path d="M175 21.1914H0V82.7148H175H350V21.1914H175ZM55.3711 62.207H20.5078V41.6992H55.3711V62.207ZM110.059 62.207H75.8789V41.6992H110.059V62.207ZM164.746 62.207H130.566V41.6992H164.746V62.207ZM219.434 62.207H185.254V41.6992H219.434V62.207ZM274.122 62.207H239.941V41.6992H274.122V62.207ZM329.492 62.207H294.561V41.6992H329.492V62.207Z" fill="#404A80"/>
<path d="M219.434 62.207H185.254V41.6992H219.434V62.207ZM274.122 62.207H239.941V41.6992H274.122V62.207ZM175 21.1914V82.7148H350V21.1914H175ZM329.492 62.207H294.561V41.6992H329.492V62.207Z" fill="#283366"/>
<path d="M350 267.285H175V328.809H350V267.285ZM219.434 308.301H185.254V287.793H219.434V308.301ZM274.121 308.301H239.941V287.793H274.121V308.301ZM329.492 308.301H294.629V287.793H329.492V308.301Z" fill="#283366"/>
<g clip-path="url(#clip0_834_3098)">
<path d="M222.754 160.786L184.047 122.098L183.826 121.409C183.258 119.638 182.971 117.795 182.971 115.93C182.971 106.043 191.014 98 200.9 98C206.621 98 211.893 100.725 215.244 105.268C217.353 104.419 219.583 103.977 221.818 103.977C231.705 103.977 239.748 112.02 239.748 121.906C239.748 125.703 238.564 129.332 236.372 132.365C238.564 135.399 239.748 139.028 239.748 142.824C239.748 151.765 233.072 159.403 224.218 160.59L222.754 160.786Z" fill="#FA6666"/>
<path d="M126.782 160.59C117.928 159.403 111.252 151.765 111.252 142.824C111.252 139.028 112.436 135.399 114.628 132.365C112.436 129.332 111.252 125.703 111.252 121.906C111.252 112.02 119.295 103.977 129.182 103.977C131.417 103.977 133.647 104.419 135.756 105.268C139.107 100.725 144.379 98 150.1 98C159.986 98 168.029 106.043 168.029 115.93C168.029 117.795 167.742 119.638 167.174 121.409L166.953 122.098L128.246 160.786L126.782 160.59Z" fill="#FD976C"/>
<path d="M175.5 116.527C146.664 116.527 123.205 139.987 123.205 168.822V198.705C123.205 227.541 146.664 251 175.5 251C204.336 251 227.795 227.541 227.795 198.705V168.822C227.795 139.987 204.336 116.527 175.5 116.527Z" fill="#F2FDE0"/>
<path d="M175.5 116.527V251C204.336 251 227.795 227.541 227.795 198.705V168.822C227.795 139.987 204.336 116.527 175.5 116.527Z" fill="#D3F3DB"/>
<path d="M189.825 176.335C194.391 175.702 199.461 172.71 201.619 169.375C202.964 167.297 205.739 166.702 207.818 168.047C209.896 169.392 210.491 172.167 209.146 174.246C205.604 179.718 198.165 184.229 191.057 185.215C188.604 185.555 186.341 183.843 186.001 181.391C185.661 178.939 187.373 176.675 189.825 176.335Z" fill="#3E322E"/>
<path d="M175.5 215.141C182.927 215.141 188.947 209.12 188.947 201.693C188.947 194.267 182.927 188.246 175.5 188.246C168.073 188.246 162.053 194.267 162.053 201.693C162.053 209.12 168.073 215.141 175.5 215.141Z" fill="#FF4949"/>
<path d="M143.182 168.047C145.26 166.702 148.035 167.297 149.38 169.375C151.538 172.71 156.609 175.702 161.174 176.335C163.626 176.675 165.338 178.939 164.998 181.391C164.658 183.843 162.394 185.555 159.943 185.215C152.834 184.229 145.395 179.718 141.854 174.246C140.509 172.167 141.103 169.392 143.182 168.047Z" fill="#3E322E"/>
<path d="M175.5 233.07C156.551 233.07 141.135 217.654 141.135 198.705C141.135 196.23 143.142 194.223 145.617 194.223C148.093 194.223 150.1 196.23 150.1 198.705C150.1 212.711 161.494 224.105 175.5 224.105C189.506 224.105 200.9 212.711 200.9 198.705C200.9 196.23 202.907 194.223 205.383 194.223C207.858 194.223 209.865 196.23 209.865 198.705C209.865 217.654 194.449 233.07 175.5 233.07Z" fill="#FF4949"/>
<path d="M188.947 201.693C188.947 194.279 182.915 188.246 175.5 188.246V215.141C182.915 215.141 188.947 209.108 188.947 201.693Z" fill="#CC2E43"/>
<path d="M205.383 194.223C202.907 194.223 200.9 196.23 200.9 198.705C200.9 212.711 189.506 224.105 175.5 224.105V233.07C194.449 233.07 209.865 217.654 209.865 198.705C209.865 196.23 207.858 194.223 205.383 194.223Z" fill="#CC2E43"/>
</g>
<defs>
<clipPath id="clip0_834_3098">
<rect width="153" height="153" fill="white" transform="translate(99 98)"/>
</clipPath>
</defs>
</svg>
