<svg width="114" height="114" viewBox="0 0 114 114" fill="none" xmlns="http://www.w3.org/2000/svg">
<circle cx="57" cy="57" r="41" fill="white"/>
<circle opacity="0.3" cx="57" cy="57" r="45" stroke="white" stroke-width="2"/>
<circle opacity="0.2" cx="57" cy="57" r="50.5" stroke="white"/>
<circle opacity="0.1" cx="57" cy="57" r="56.5" stroke="white"/>
<path d="M57.875 76.75H57.375V76.25V72.9958V72.536L57.8332 72.4976C65.815 71.8287 72.5 65.8715 72.5 57C72.5 56.497 72.128 56.125 71.625 56.125C71.122 56.125 70.75 56.497 70.75 57C70.75 64.6205 64.5567 70.7917 56.5 70.7917C48.4433 70.7917 42.25 64.6205 42.25 57C42.25 56.497 41.878 56.125 41.375 56.125C40.872 56.125 40.5 56.497 40.5 57C40.5 65.8715 47.185 71.8287 55.1668 72.4976L55.625 72.536V72.9958V76.25V76.75H55.125H46.9208C46.3961 76.75 46 77.1432 46 77.625C46 78.1068 46.3961 78.5 46.9208 78.5H66.0792C66.6039 78.5 67 78.1068 67 77.625C67 77.1432 66.6039 76.75 66.0792 76.75H57.875ZM47.75 48.75V48.25H48.25H51.9167C52.4197 48.25 52.7917 47.878 52.7917 47.375C52.7917 46.872 52.4197 46.5 51.9167 46.5H48.25H47.75V46V45.8625C47.75 41.0856 51.6955 37.25 56.5 37.25C61.3045 37.25 65.25 41.0856 65.25 45.8625V46V46.5H64.75H61.0833C60.5803 46.5 60.2083 46.872 60.2083 47.375C60.2083 47.878 60.5803 48.25 61.0833 48.25H64.75H65.25V48.75V53.3333V53.8333H64.75H61.0833C60.5803 53.8333 60.2083 54.2053 60.2083 54.7083C60.2083 55.2114 60.5803 55.5833 61.0833 55.5833H64.75H65.25V56.0833V56.6792C65.25 61.456 61.3045 65.2917 56.5 65.2917C51.6955 65.2917 47.75 61.456 47.75 56.6792V56.0833V55.5833H48.25H51.9167C52.4197 55.5833 52.7917 55.2114 52.7917 54.7083C52.7917 54.2053 52.4197 53.8333 51.9167 53.8333H48.25H47.75V53.3333V48.75ZM56.5 35.5C50.6748 35.5 46 40.1399 46 45.8625V56.725C46 62.4004 50.6734 67.0417 56.5 67.0417C62.3252 67.0417 67 62.4017 67 56.6792V45.8625C67 40.1399 62.3252 35.5 56.5 35.5Z" fill="#1475E6" stroke="#1475E6"/>
</svg>
