<svg width="392" height="350" viewBox="0 0 392 350" fill="none" xmlns="http://www.w3.org/2000/svg">
<path fill-rule="evenodd" clip-rule="evenodd" d="M146.729 22.7742C142.935 15.9811 137.303 10.0867 130.064 5.92651C108.738 -6.32349 81.5178 1.02651 69.2598 22.3526C57.5587 42.6208 45.8575 62.8811 34.1484 83.1413C39.0564 87.8186 42.62 94.1583 51.2746 94.1583C64.9803 94.1583 65.9348 78.2492 79.6325 78.2492C93.3303 78.2492 94.2928 94.1583 107.99 94.1583C121.688 94.1583 122.651 78.2492 136.348 78.2492C150.046 78.2492 151.009 94.1583 164.706 94.1583C173.258 94.1583 176.845 87.9617 181.665 83.3004L146.729 22.7742Z" fill="#FFF0D1"/>
<path fill-rule="evenodd" clip-rule="evenodd" d="M136.356 78.249C122.65 78.249 121.696 94.1581 107.998 94.1581C94.2922 94.1581 93.3376 78.249 79.6399 78.249C65.9422 78.249 64.9797 94.1581 51.2819 94.1581C42.6274 94.1581 39.0637 87.8183 34.1558 83.1411C22.8206 102.741 11.4933 122.333 0.166016 141.933V230.682C7.38874 226.705 14.6115 222.727 28.1183 222.727C55.1319 222.727 57.0092 238.637 84.0308 238.637C111.052 238.637 112.922 222.727 139.935 222.727C164.38 222.727 168.246 235.749 188.76 238.231C204.988 210.119 217.651 188.221 229.957 166.934L181.673 83.3002C176.852 87.9615 173.265 94.1581 164.714 94.1581C151.008 94.1581 150.061 78.249 136.356 78.249Z" fill="#F8C45D"/>
<path fill-rule="evenodd" clip-rule="evenodd" d="M279.316 81.9101C267.44 102.473 257.481 119.718 248.166 135.826C249.701 136.407 251.435 136.749 253.432 136.749C267.138 136.749 268.092 120.84 281.79 120.84C295.488 120.84 296.45 136.749 310.148 136.749C323.846 136.749 324.808 120.84 338.506 120.84C352.211 120.84 353.166 136.749 366.864 136.749C368.932 136.749 370.706 136.383 372.281 135.77L341.377 82.2522C338.331 76.8033 333.821 72.0863 328.022 68.7533C310.951 58.9295 289.132 64.8238 279.316 81.9101Z" fill="#FBF3D5"/>
<path fill-rule="evenodd" clip-rule="evenodd" d="M281.781 120.48C268.075 120.48 267.12 136.389 253.423 136.389C251.418 136.389 249.692 136.047 248.157 135.466C241.928 146.244 235.986 156.514 229.965 166.934C218.876 186.113 207.501 205.792 193.493 230.053C215.877 238.469 236.591 248.397 256.008 259.605C294.619 246.464 337.486 239.758 391.538 239.758V168.748L372.287 135.402C370.712 136.015 368.939 136.381 366.87 136.381C353.165 136.381 352.21 120.472 338.512 120.472C324.807 120.472 323.852 136.381 310.155 136.381C296.433 136.389 295.486 120.48 281.781 120.48Z" fill="#FFEB99"/>
<path d="M68.0742 174.03H48.0288C43.6379 174.03 40.0742 170.467 40.0742 166.076C40.0742 161.685 43.6379 158.121 48.0288 158.121H68.0742C72.4651 158.121 76.0288 161.685 76.0288 166.076C76.0288 170.467 72.4651 174.03 68.0742 174.03Z" fill="#EE8700"/>
<path d="M126.778 135.53H106.733C102.342 135.53 98.7783 131.967 98.7783 127.576C98.7783 123.185 102.342 119.621 106.733 119.621H126.778C131.169 119.621 134.733 123.185 134.733 127.576C134.733 131.967 131.169 135.53 126.778 135.53Z" fill="#EE8700"/>
<path d="M345.369 198.53H325.324C320.933 198.53 317.369 194.967 317.369 190.576C317.369 186.185 320.933 182.621 325.324 182.621H345.369C349.76 182.621 353.324 186.185 353.324 190.576C353.324 194.967 349.76 198.53 345.369 198.53Z" fill="#F8C45D"/>
<path d="M290.961 173.234H270.915C266.525 173.234 262.961 169.671 262.961 165.28C262.961 160.889 266.525 157.325 270.915 157.325H290.961C295.352 157.325 298.915 160.889 298.915 165.28C298.915 169.671 295.352 173.234 290.961 173.234Z" fill="#F8C45D"/>
<path d="M177.847 178.484H157.801C153.41 178.484 149.847 174.921 149.847 170.53C149.847 166.139 153.41 162.575 157.801 162.575H177.847C182.238 162.575 185.801 166.139 185.801 170.53C185.801 174.921 182.238 178.484 177.847 178.484Z" fill="#EE8700"/>
<path fill-rule="evenodd" clip-rule="evenodd" d="M193.319 230.053C139.944 209.984 77.1193 198.466 0 198.466V239.766C84.3023 239.766 145.759 257.679 195.682 286.793C213.993 276.118 233.856 266.939 255.834 259.604C236.417 248.396 215.695 238.477 193.319 230.053Z" fill="#3EAC92"/>
<path fill-rule="evenodd" clip-rule="evenodd" d="M195.848 286.793C145.925 257.679 84.4683 239.766 0.166016 239.766V291.136C80.149 291.136 129.817 314.912 170.171 350H275.871C268.027 342.157 260.009 334.592 251.729 327.345C234.491 312.279 216.124 298.613 195.848 286.793Z" fill="#39A087"/>
<path fill-rule="evenodd" clip-rule="evenodd" d="M256 259.604C234.029 266.938 214.159 276.11 195.848 286.793C216.124 298.613 234.491 312.279 251.72 327.345C286.84 305.072 330.295 291.136 391.529 291.136V239.766C338.147 239.766 293.927 246.949 256 259.604Z" fill="#7CD8A4"/>
<path fill-rule="evenodd" clip-rule="evenodd" d="M170.171 350C129.817 314.913 80.149 291.137 0.166016 291.137V334.091C0.166016 342.841 7.32511 350 16.0751 350H170.171Z" fill="#7CD8A4"/>
<path fill-rule="evenodd" clip-rule="evenodd" d="M391.166 287C327.22 287 278.666 303 245.666 327C254.322 334.633 262.195 341.739 270.377 350H374.552C383.69 350 391.166 342.459 391.166 333.243V287Z" fill="#3EAC92"/>
</svg>
