<svg width="24" height="24" viewBox="0 0 24 24" fill="none" xmlns="http://www.w3.org/2000/svg">
<path fill-rule="evenodd" clip-rule="evenodd" d="M11.0579 2.02394C8.72044 2.26371 6.59334 3.27064 4.93983 4.9202C1.02006 8.83054 1.02006 15.1743 4.93983 19.0846C6.53115 20.6721 8.46576 21.621 10.784 21.951C11.2489 22.0172 12.7865 22.0161 13.2693 21.9493C15.5372 21.6353 17.5336 20.6534 19.096 19.0835C20.2268 17.9472 21.0359 16.6338 21.5294 15.1335C21.8417 14.1839 21.9846 13.3799 22.0231 12.3547C22.1278 9.57364 21.0763 6.90439 19.0928 4.91683C17.5549 3.37569 15.6065 2.40257 13.4063 2.07682C12.9277 2.00594 11.5384 1.97467 11.0579 2.02394ZM13.465 3.50477C16.2221 4.00696 18.4841 5.68951 19.7242 8.16064C20.7021 10.1094 20.8983 12.3643 20.2732 14.4686C19.8029 16.0515 18.8197 17.5483 17.568 18.5864C15.9524 19.9263 14.0714 20.613 12.0168 20.613C9.70627 20.613 7.56846 19.7263 5.93072 18.0885C4.63666 16.7945 3.83298 15.23 3.49795 13.3527C3.3983 12.7943 3.3983 11.2106 3.49795 10.6521C3.83298 8.77485 4.63666 7.21034 5.93072 5.91629C7.32783 4.51918 9.01734 3.70082 11.0579 3.43275C11.5404 3.36939 12.9538 3.41166 13.465 3.50477ZM11.792 6.95606C11.6193 7.00866 11.4035 7.23343 11.3538 7.41261C11.3312 7.49375 11.3131 7.78909 11.3134 8.06894C11.3141 8.62048 11.3619 8.80221 11.5518 8.9763C11.8261 9.22777 12.2973 9.19794 12.5362 8.91399C12.6993 8.72017 12.7306 8.5516 12.7155 7.94933C12.7032 7.46154 12.6922 7.38819 12.6118 7.25876C12.4475 6.99469 12.094 6.86412 11.792 6.95606ZM11.6807 10.0412C11.5224 10.1377 11.4005 10.2961 11.3494 10.4715C11.3217 10.5666 11.3121 11.5933 11.3201 13.6071L11.3319 16.6013L11.4219 16.7461C11.6943 17.1842 12.3394 17.1842 12.6118 16.7461L12.7018 16.6013L12.7136 13.6071C12.7218 11.5466 12.7123 10.5678 12.6832 10.468C12.6326 10.2941 12.4793 10.1031 12.3273 10.0245C12.1684 9.94237 11.8284 9.95113 11.6807 10.0412Z" fill="#414853"/>
</svg>
