<svg width="297" height="350" viewBox="0 0 297 350" fill="none" xmlns="http://www.w3.org/2000/svg">
<path d="M90.2941 105.962C86.1407 107.393 81.613 105.187 80.1823 101.033L50.812 15.7998C49.3812 11.6464 51.5873 7.1187 55.7406 5.68794C59.8939 4.25718 64.4217 6.46324 65.8524 10.6166L95.2227 95.85C96.6535 100.003 94.4474 104.53 90.2941 105.962Z" fill="#169B62"/>
<path d="M34.352 24.2763C32.4439 18.7378 35.386 12.7019 40.9245 10.7939L70.5589 0.582383C76.0974 -1.32565 82.1333 1.61647 84.0413 7.15496C85.9494 12.6924 83.0072 18.7293 77.4688 20.6374L47.8344 30.8489C42.297 32.7559 36.26 29.8137 34.352 24.2763ZM231.18 59.2646L246.158 15.8C247.589 11.6466 245.383 7.1189 241.229 5.68814C237.076 4.25738 232.548 6.46344 231.118 10.6168L215.844 54.9416C209.493 53.688 202.929 53.0304 196.212 53.0304H100.758C45.1107 53.0304 0 98.1411 0 153.788V175C0 226.701 38.9401 269.307 89.0909 275.089V290.606C89.0909 323.408 115.682 350 148.485 350C181.287 350 207.879 323.408 207.879 290.606V275.089C258.029 269.307 296.97 226.701 296.97 175V153.788C296.97 110.436 269.59 73.4789 231.18 59.2646Z" fill="#1ED688"/>
<path d="M212.928 7.15398C214.836 1.6155 220.873 -1.32662 226.411 0.581407L256.045 10.7929C261.583 12.7009 264.526 18.7379 262.617 24.2753C260.709 29.8138 254.672 32.7559 249.135 30.8479L219.501 20.6364C213.962 18.7284 211.02 12.6914 212.928 7.15398ZM196.212 53.0305H168.881C128.136 101.426 123.673 156.759 123.673 216.364C123.673 263.864 131.515 309.311 155.696 349.566C185.097 346.008 207.879 320.967 207.879 290.606V275.089C258.029 269.307 296.969 226.701 296.969 175V153.788C296.969 98.1412 251.859 53.0305 196.212 53.0305Z" fill="#35E298"/>
<path d="M169.686 302.273C169.686 306.666 166.124 310.227 161.731 310.227H135.216C130.823 310.227 127.262 306.666 127.262 302.273C127.262 297.88 130.823 294.318 135.216 294.318H161.731C166.124 294.318 169.686 297.88 169.686 302.273ZM136.09 253.687C140.483 253.687 144.045 250.126 144.045 245.733C144.045 241.34 140.483 237.778 136.09 237.778C131.697 237.778 128.136 241.34 128.136 245.733C128.136 250.126 131.697 253.687 136.09 253.687ZM160.856 253.687C165.249 253.687 168.811 250.126 168.811 245.733C168.811 241.34 165.249 237.778 160.856 237.778C156.463 237.778 152.902 241.34 152.902 245.733C152.902 250.126 156.463 253.687 160.856 253.687Z" fill="#169B62"/>
<path d="M115.782 165.989C131.102 181.31 131.102 206.15 115.782 221.47C100.461 236.791 75.621 236.791 60.2995 221.47L41.8058 202.977C26.4853 187.656 26.4853 162.816 41.8058 147.494C57.1262 132.174 81.9666 132.174 97.2882 147.494L115.782 165.989ZM255.164 147.494C239.843 132.174 215.003 132.174 199.681 147.494L181.187 165.988C165.867 181.308 165.867 206.149 181.187 221.469C196.508 236.79 221.348 236.79 236.67 221.469L255.164 202.976C270.484 187.656 270.484 162.816 255.164 147.494Z" fill="#232E7A"/>
<path d="M97.2881 147.494C112.609 162.815 112.609 187.655 97.2881 202.977C81.9676 218.297 57.1272 218.297 41.8057 202.977C26.4842 187.656 26.4852 162.816 41.8057 147.494C57.1261 132.174 81.9666 132.174 97.2881 147.494ZM255.163 147.494C239.843 132.174 215.003 132.174 199.681 147.494C184.361 162.815 184.361 187.655 199.681 202.977C215.001 218.297 239.842 218.297 255.162 202.977C270.484 187.656 270.484 162.816 255.163 147.494Z" fill="#3342AE"/>
<path d="M95.4544 161.585C95.4544 170.371 88.3314 177.494 79.5453 177.494C70.7593 177.494 63.6362 170.371 63.6362 161.585C63.6362 152.799 70.7593 145.676 79.5453 145.676C88.3314 145.676 95.4544 152.798 95.4544 161.585ZM217.424 145.676C208.638 145.676 201.515 152.799 201.515 161.585C201.515 170.371 208.638 177.494 217.424 177.494C226.21 177.494 233.333 170.371 233.333 161.585C233.333 152.798 226.21 145.676 217.424 145.676Z" fill="#5766CE"/>
</svg>
