<svg width="20" height="14" viewBox="0 0 20 14" fill="none" xmlns="http://www.w3.org/2000/svg">
<path fill-rule="evenodd" clip-rule="evenodd" d="M0.149414 7C0.149414 6.58579 0.4852 6.25 0.899414 6.25H18.8994C19.3136 6.25 19.6494 6.58579 19.6494 7C19.6494 7.41421 19.3136 7.75 18.8994 7.75H0.899414C0.4852 7.75 0.149414 7.41421 0.149414 7Z" fill="#160647"/>
<path fill-rule="evenodd" clip-rule="evenodd" d="M7.42973 0.469669C7.72262 0.762562 7.72262 1.23744 7.42973 1.53033L1.96007 7L7.42973 12.4697C7.72262 12.7626 7.72262 13.2374 7.42973 13.5303C7.13683 13.8232 6.66196 13.8232 6.36907 13.5303L0.369083 7.53033C0.076191 7.23744 0.076191 6.76256 0.369083 6.46967L6.36907 0.469671C6.66196 0.176777 7.13683 0.176776 7.42973 0.469669Z" fill="#160647"/>
</svg>
