<svg width="350" height="350" viewBox="0 0 350 350" fill="none" xmlns="http://www.w3.org/2000/svg">
<g clip-path="url(#clip0_834_2653)">
<path d="M199.963 275.891C192.125 273.085 183.69 271.57 174.999 271.57C166.242 271.57 157.84 273.095 150.032 275.891L106.892 316.258L131.627 350H218.364L243.108 316.258C235.076 297.838 219.612 282.926 199.963 275.891Z" fill="#7CE3FF"/>
<path d="M174.999 271.57C166.242 271.57 157.84 273.095 150.032 275.891C131.121 282.663 115.236 297.12 106.892 316.258L131.627 350H144.287V345.834C144.323 313.565 163.578 285.798 191.222 273.363C185.978 272.189 180.541 271.57 174.999 271.57Z" fill="#55DAFE"/>
<path d="M150.033 275.891C154.417 287.389 163.186 296.496 175 302.812C186.814 296.496 195.578 287.388 199.963 275.891L150.033 275.891Z" fill="#FFCBBE"/>
<path d="M131.627 334.187C130.524 333.531 129.426 332.859 128.333 332.174C120.687 327.38 113.339 321.926 106.892 316.258C102.938 325.326 100.737 335.326 100.737 345.834V350H131.626V345.834V334.187H131.627Z" fill="#FFCBBE"/>
<path d="M35.934 173.642C55.0291 173.642 70.5087 158.163 70.5087 139.068C70.5087 119.973 55.0291 104.493 35.934 104.493C16.839 104.493 1.35938 119.973 1.35938 139.068C1.35938 158.163 16.839 173.642 35.934 173.642Z" fill="#FFCBBE"/>
<path d="M314.066 173.642C333.161 173.642 348.641 158.163 348.641 139.068C348.641 119.973 333.161 104.493 314.066 104.493C294.971 104.493 279.492 119.973 279.492 139.068C279.492 158.163 294.971 173.642 314.066 173.642Z" fill="#FFCBBE"/>
<path d="M174.999 0L35.9341 139.068L98.2601 224.277C121.989 256.718 159.77 275.892 199.963 275.892C204.726 275.027 209.405 273.92 213.986 272.585C271.812 255.728 314.066 202.335 314.066 139.067L174.999 0Z" fill="#FFDDCE"/>
<path d="M82.0334 139.067H35.9341C35.9341 202.335 78.189 255.728 136.014 272.584C148.385 276.191 161.464 278.132 175 278.132C183.398 278.132 191.731 277.386 199.963 275.891C134.131 264.908 82.0334 208.017 82.0334 139.067Z" fill="#FFCBBE"/>
<path d="M102.214 196.027C115.827 196.027 126.862 187.357 126.862 176.661C126.862 165.965 115.827 157.295 102.214 157.295C88.6016 157.295 77.5664 165.965 77.5664 176.661C77.5664 187.357 88.6016 196.027 102.214 196.027Z" fill="#FF8E9E"/>
<path d="M247.56 196.027C261.173 196.027 272.208 187.357 272.208 176.661C272.208 165.965 261.173 157.295 247.56 157.295C233.947 157.295 222.912 165.965 222.912 176.661C222.912 187.357 233.947 196.027 247.56 196.027Z" fill="#FF8E9E"/>
<path d="M291.278 62.7559L255.721 80.7228L244.743 112.691C263.548 129.15 288.176 139.054 314.066 139.059C314.064 110.882 305.683 84.6601 291.278 62.7559Z" fill="#E8B5B1"/>
<path d="M287.693 13.2922C278.743 19.1429 269.259 24.2281 259.328 28.476C253.347 23.9091 246.984 19.8154 240.296 16.2521L74.2256 43.2337L103.14 132.722C104.361 136.503 107.883 139.065 111.856 139.063L162.137 139.038C231.086 137.737 288.419 90.4866 306.507 27.0802C309.676 15.9718 297.361 6.97178 287.693 13.2922Z" fill="#D6948C"/>
<path d="M198.049 1.90141C190.552 0.650704 182.852 0 174.999 0C135.342 0 99.5601 16.6021 74.2256 43.2338C50.4975 68.1775 35.9348 101.92 35.9341 139.065L111.856 139.062C105.814 129.951 104.404 118.669 107.243 108.111C114.338 81.7183 130.326 58.8711 152.133 43.2155C166.399 32.9746 183.148 25.8063 201.526 22.7401L240.296 16.2521C227.302 9.32676 213.089 4.40986 198.049 1.90141Z" fill="#CE857A"/>
<path d="M125.705 151.747C122.788 151.747 120.423 154.112 120.423 157.029V166.501C120.423 169.418 122.788 171.783 125.705 171.783C128.621 171.783 130.986 169.418 130.986 166.501V157.029C130.986 154.112 128.621 151.747 125.705 151.747Z" fill="#313D40"/>
<path d="M224.296 151.747C221.379 151.747 219.015 154.112 219.015 157.029V166.501C219.015 169.418 221.379 171.783 224.296 171.783C227.213 171.783 229.578 169.418 229.578 166.501V157.029C229.578 154.112 227.213 151.747 224.296 151.747Z" fill="#313D40"/>
<path d="M191.467 162.237C189.268 160.321 185.932 160.55 184.015 162.749C181.739 165.361 178.454 166.858 175 166.858C171.547 166.858 168.262 165.361 165.986 162.749C164.069 160.55 160.733 160.322 158.533 162.237C156.334 164.154 156.105 167.49 158.021 169.689C162.305 174.604 168.493 177.422 175 177.422C181.507 177.422 187.695 174.604 191.978 169.689C193.895 167.49 193.666 164.154 191.467 162.237Z" fill="#313D40"/>
<path d="M243.744 316C236.374 322.48 227.825 328.681 219 333.935V349.742H249.899V345.576C249.9 335.068 247.699 325.068 243.744 316Z" fill="#FFDDCE"/>
</g>
<defs>
<clipPath id="clip0_834_2653">
<rect width="350" height="350" fill="white"/>
</clipPath>
</defs>
</svg>
