<svg width="69" height="69" viewBox="0 0 69 69" fill="none" xmlns="http://www.w3.org/2000/svg">
<circle cx="34.4999" cy="34.5001" r="24.3158" fill="#657AFF" stroke="#657AFF"/>
<circle opacity="0.3" cx="34.4998" cy="34.5001" r="26.8421" fill="#657AFF" stroke="#657AFF" stroke-width="2"/>
<circle opacity="0.2" cx="34.4998" cy="34.5" r="30.3684" fill="#657AFF" stroke="#657AFF"/>
<circle opacity="0.1" cx="34.5" cy="34.5" r="34" fill="#657AFF" stroke="#657AFF"/>
<path d="M35.6349 46.046H35.1349V45.546V43.5763V43.1165L35.5932 43.0781C40.3364 42.6806 44.2896 39.1477 44.2896 33.8946C44.2896 33.6992 44.1528 33.5624 43.9573 33.5624C43.7619 33.5624 43.6251 33.6992 43.6251 33.8946C43.6251 38.6204 39.7837 42.4396 34.8027 42.4396C29.8217 42.4396 25.9803 38.6204 25.9803 33.8946C25.9803 33.6992 25.8436 33.5624 25.6481 33.5624C25.4526 33.5624 25.3159 33.6992 25.3159 33.8946C25.3159 39.1477 29.269 42.6806 34.0122 43.0781L34.4705 43.1165V43.5763V45.546V46.046H33.9705H29.0048C28.7877 46.046 28.6448 46.2039 28.6448 46.3782C28.6448 46.5525 28.7877 46.7104 29.0048 46.7104H40.6006C40.8177 46.7104 40.9606 46.5525 40.9606 46.3782C40.9606 46.2039 40.8177 46.046 40.6006 46.046H35.6349ZM29.3093 28.9012V28.4012H29.8093H32.0286C32.224 28.4012 32.3608 28.2644 32.3608 28.069C32.3608 27.8735 32.224 27.7368 32.0286 27.7368H29.8093H29.3093V27.2368V27.1535C29.3093 24.1497 31.7893 21.7433 34.8027 21.7433C37.8161 21.7433 40.2961 24.1497 40.2961 27.1535V27.2368V27.7368H39.7961H37.5768C37.3814 27.7368 37.2446 27.8735 37.2446 28.069C37.2446 28.2644 37.3814 28.4012 37.5768 28.4012H39.7961H40.2961V28.9012V31.6753V32.1753H39.7961H37.5768C37.3814 32.1753 37.2446 32.3121 37.2446 32.5076C37.2446 32.703 37.3814 32.8398 37.5768 32.8398H39.7961H40.2961V33.3398V33.7005C40.2961 36.7043 37.8161 39.1107 34.8027 39.1107C31.7893 39.1107 29.3093 36.7043 29.3093 33.7005V33.3398V32.8398H29.8093H32.0286C32.224 32.8398 32.3608 32.703 32.3608 32.5076C32.3608 32.3121 32.224 32.1753 32.0286 32.1753H29.8093H29.3093V31.6753V28.9012ZM34.8027 21.0789C31.3838 21.0789 28.6448 23.801 28.6448 27.1535V33.7282C28.6448 37.0516 31.3824 39.7751 34.8027 39.7751C38.2216 39.7751 40.9606 37.053 40.9606 33.7005V27.1535C40.9606 23.801 38.2216 21.0789 34.8027 21.0789Z" fill="white" stroke="white"/>
</svg>
