<svg width="350" height="350" viewBox="0 0 350 350" fill="none" xmlns="http://www.w3.org/2000/svg">
<g clip-path="url(#clip0_834_2474)">
<path d="M289.509 291.336H272.5V280.711H289.509C300.196 280.711 308.891 272.016 308.891 261.329C308.891 256.151 306.875 251.284 303.215 247.623L297.105 241.514C285.405 229.813 285.405 210.776 297.105 199.077L305.199 190.983L312.712 198.496L304.618 206.59C297.06 214.147 297.06 226.444 304.618 234.001L310.727 240.11C316.394 245.777 319.516 253.312 319.516 261.329C319.516 277.874 306.055 291.336 289.509 291.336Z" fill="#FA4954"/>
<path d="M101.179 159.242H70.6323V124.351C70.6323 115.915 77.4703 109.077 85.9059 109.077C94.3414 109.077 101.179 115.915 101.179 124.351V159.242Z" fill="#ED4322"/>
<path d="M205.848 159.242H175.301V124.351C175.301 115.915 182.139 109.077 190.574 109.077C199.01 109.077 205.848 115.915 205.848 124.351V159.242Z" fill="#ED4322"/>
<path d="M101.179 159.242H70.6323V124.351C70.6323 115.915 77.4703 109.077 85.9059 109.077C94.3414 109.077 101.179 115.915 101.179 124.351V159.242Z" fill="#FA4954"/>
<path d="M205.848 159.242H175.301V124.351C175.301 115.915 182.139 109.077 190.574 109.077C199.01 109.077 205.848 115.915 205.848 124.351V159.242Z" fill="#FA4954"/>
<path d="M85.9058 109.076C83.7162 109.076 81.636 109.54 79.7534 110.37C85.1237 112.737 88.8746 118.104 88.8746 124.35V159.242H101.179V124.35C101.179 115.915 94.3413 109.076 85.9058 109.076Z" fill="#FA2A3B"/>
<path d="M190.574 109.076C188.385 109.076 186.304 109.54 184.422 110.37C189.792 112.737 193.543 118.104 193.543 124.35V159.242H205.848V124.35C205.848 115.915 199.009 109.076 190.574 109.076Z" fill="#FA2A3B"/>
<path d="M228.339 188.155V161.991C228.339 156.536 223.918 152.115 218.464 152.115H58.0159C52.5615 152.115 48.14 156.536 48.14 161.991V188.155C48.14 196.686 44.6975 204.856 38.5923 210.814L4.58145 244.005C1.65225 246.865 0 250.785 0 254.879V318.659C0 335.932 14.0027 349.935 31.2758 349.935H245.204C262.477 349.935 276.48 335.932 276.48 318.659V254.879C276.48 250.785 274.828 246.864 271.899 244.005L237.888 210.814C231.782 204.855 228.339 196.686 228.339 188.155Z" fill="#FC8086"/>
<path d="M271.898 244.005L237.887 210.813C231.782 204.855 228.34 196.685 228.34 188.154V161.99C228.34 156.535 223.918 152.114 218.464 152.114H181.403C186.858 152.114 191.279 156.535 191.279 161.99V188.154C191.279 196.685 194.722 204.855 200.827 210.813L234.838 244.005C237.768 246.865 239.419 250.785 239.419 254.878V318.659C239.419 335.932 225.416 349.935 208.144 349.935H245.204C262.478 349.935 276.48 335.932 276.48 318.659V254.878C276.48 250.785 274.828 246.865 271.898 244.005Z" fill="#FB636F"/>
<path d="M138.24 323.399C171.148 323.399 197.826 296.721 197.826 263.813C197.826 230.904 171.148 204.227 138.24 204.227C105.331 204.227 78.6538 230.904 78.6538 263.813C78.6538 296.721 105.331 323.399 138.24 323.399Z" fill="#E0DDE2"/>
<path d="M169.258 212.928C174.777 221.963 177.959 232.582 177.959 243.946C177.959 276.855 151.281 303.532 118.373 303.532C107.01 303.532 96.3907 300.35 87.355 294.83C97.8208 311.963 116.694 323.399 138.24 323.399C171.149 323.399 197.826 296.721 197.826 263.813C197.826 242.267 186.39 223.394 169.258 212.928Z" fill="#C8C1C9"/>
<path d="M138.24 282.236C148.415 282.236 156.663 273.988 156.663 263.813C156.663 253.638 148.415 245.389 138.24 245.389C128.065 245.389 119.816 253.638 119.816 263.813C119.816 273.988 128.065 282.236 138.24 282.236Z" fill="#FA4954"/>
<path d="M144.056 246.333C144.665 248.162 144.999 250.116 144.999 252.149C144.999 262.325 136.751 270.573 126.575 270.573C124.542 270.573 122.588 270.238 120.759 269.63C123.194 276.953 130.098 282.237 138.24 282.237C148.415 282.237 156.663 273.989 156.663 263.813C156.663 255.671 151.38 248.768 144.056 246.333Z" fill="#FA2A3B"/>
<path d="M138.186 232.178C141.904 232.178 144.918 229.164 144.918 225.446C144.918 221.728 141.904 218.714 138.186 218.714C134.468 218.714 131.454 221.728 131.454 225.446C131.454 229.164 134.468 232.178 138.186 232.178Z" fill="#8F818F"/>
<path d="M117.339 238.257C121.057 238.257 124.071 235.243 124.071 231.525C124.071 227.807 121.057 224.793 117.339 224.793C113.621 224.793 110.607 227.807 110.607 231.525C110.607 235.243 113.621 238.257 117.339 238.257Z" fill="#8F818F"/>
<path d="M159.054 238.257C162.772 238.257 165.786 235.243 165.786 231.525C165.786 227.807 162.772 224.793 159.054 224.793C155.336 224.793 152.322 227.807 152.322 231.525C152.322 235.243 155.336 238.257 159.054 238.257Z" fill="#8F818F"/>
<path d="M173.322 254.662C177.04 254.662 180.054 251.648 180.054 247.93C180.054 244.212 177.04 241.198 173.322 241.198C169.604 241.198 166.59 244.212 166.59 247.93C166.59 251.648 169.604 254.662 173.322 254.662Z" fill="#8F818F"/>
<path d="M103.117 254.662C106.835 254.662 109.849 251.648 109.849 247.93C109.849 244.212 106.835 241.198 103.117 241.198C99.3988 241.198 96.3848 244.212 96.3848 247.93C96.3848 251.648 99.3988 254.662 103.117 254.662Z" fill="#8F818F"/>
<path d="M109.086 296.061C112.804 296.061 115.818 293.047 115.818 289.329C115.818 285.611 112.804 282.597 109.086 282.597C105.368 282.597 102.354 285.611 102.354 289.329C102.354 293.047 105.368 296.061 109.086 296.061Z" fill="#8F818F"/>
<path d="M127.371 307.675C131.089 307.675 134.103 304.661 134.103 300.943C134.103 297.225 131.089 294.211 127.371 294.211C123.653 294.211 120.639 297.225 120.639 300.943C120.639 304.661 123.653 307.675 127.371 307.675Z" fill="#8F818F"/>
<path d="M149.104 307.675C152.822 307.675 155.836 304.661 155.836 300.943C155.836 297.225 152.822 294.211 149.104 294.211C145.386 294.211 142.372 297.225 142.372 300.943C142.372 304.661 145.386 307.675 149.104 307.675Z" fill="#8F818F"/>
<path d="M100.037 276.294C103.755 276.294 106.769 273.28 106.769 269.562C106.769 265.844 103.755 262.83 100.037 262.83C96.3192 262.83 93.3052 265.844 93.3052 269.562C93.3052 273.28 96.3192 276.294 100.037 276.294Z" fill="#8F818F"/>
<path d="M176.455 276.294C180.173 276.294 183.187 273.28 183.187 269.562C183.187 265.844 180.173 262.83 176.455 262.83C172.737 262.83 169.723 265.844 169.723 269.562C169.723 273.28 172.737 276.294 176.455 276.294Z" fill="#8F818F"/>
<path d="M345.759 143.123C337.077 117.585 320.087 89.2737 296.194 63.1235C272.3 36.9733 245.632 17.5059 220.979 6.56089C191.636 -6.46704 173.623 1.85435 158.061 16.0738C152.926 20.779 152.569 28.8358 157.266 33.9771L194.854 75.1137C199.578 80.2837 207.599 80.6454 212.769 75.9217L229.228 60.8834C231.477 58.8278 234.883 58.6719 237.296 60.5347C247.891 68.7146 258.274 78.2781 267.982 88.9018C277.689 99.5255 286.28 110.727 293.473 122.016C295.111 124.586 294.65 127.964 292.4 130.02L275.942 145.058C270.772 149.783 270.41 157.804 275.134 162.974L312.721 204.111C317.419 209.252 325.475 209.621 330.623 204.931C346.185 190.71 356.094 173.519 345.759 143.123Z" fill="#FB636F"/>
<path d="M345.759 143.124C337.077 117.585 320.087 89.2741 296.194 63.1239C272.3 36.9737 245.632 17.5063 220.979 6.56131C206.547 0.153305 194.859 -1.08126 184.852 1.00165C190.159 1.98875 195.889 3.78661 202.138 6.56131C226.791 17.5063 253.459 36.9744 277.353 63.1239C301.246 89.2741 318.236 117.585 326.918 143.124C337.048 172.919 327.724 190.024 312.694 204.081L312.721 204.11C317.419 209.252 325.475 209.621 330.623 204.931C346.185 190.711 356.094 173.52 345.759 143.124Z" fill="#FA4954"/>
</g>
<defs>
<clipPath id="clip0_834_2474">
<rect width="350" height="350" fill="white"/>
</clipPath>
</defs>
</svg>
