<svg width="34" height="33" viewBox="0 0 34 33" fill="none" xmlns="http://www.w3.org/2000/svg">
<rect opacity="0.2" x="0.5" y="0.498657" width="33" height="32" rx="4" fill="white"/>
<path d="M17.0828 26.4934C17.0828 24.5632 17.0828 22.6324 17.0828 20.6974C17.3008 20.6442 17.5189 20.6213 17.7108 20.5373C18.1192 20.3589 18.515 20.1524 18.9119 19.949C18.9917 19.9083 19.0418 19.8629 19.1268 19.9485C20.4568 21.2852 21.7904 22.6188 23.1224 23.9535C23.1266 23.9577 23.1276 23.965 23.1459 24.0067C22.8366 24.2445 22.5294 24.5022 22.2008 24.729C20.7906 25.7033 19.2327 26.2864 17.5241 26.458C17.4803 26.4621 17.4385 26.4814 17.3952 26.4934C17.2915 26.4934 17.1871 26.4934 17.0828 26.4934Z" fill="white"/>
<path d="M15.599 26.4934C15.2736 26.4408 14.9466 26.397 14.6227 26.3349C12.8353 25.9912 11.2566 25.2182 9.88697 24.0192C9.87758 24.0108 9.87288 23.9978 9.8781 24.0062C11.2409 22.6439 12.6001 21.2857 13.9754 19.9109C14.5241 20.312 15.1703 20.5806 15.9114 20.6901C15.9114 22.624 15.9114 24.559 15.9114 26.494C15.8071 26.4934 15.7033 26.4934 15.599 26.4934Z" fill="white"/>
<path d="M6.50052 15.6003C6.56676 15.2044 6.61787 14.8049 6.70132 14.4127C7.06223 12.7135 7.82005 11.2104 8.9633 9.90179C8.97581 9.88771 8.9925 9.87728 8.99094 9.87884C10.3538 11.2417 11.7129 12.6008 13.0637 13.9517C12.9073 14.2437 12.7153 14.5473 12.5787 14.8743C12.4426 15.2008 12.3617 15.5507 12.2496 15.9132C10.3491 15.9132 8.42453 15.9132 6.50052 15.9132C6.50052 15.8084 6.50052 15.7041 6.50052 15.6003Z" fill="white"/>
<path d="M6.50052 17.0836C8.41932 17.0836 10.3381 17.0836 12.2819 17.0836C12.3982 17.8059 12.6616 18.4673 13.0935 19.0363C11.7265 20.4033 10.3704 21.7593 8.98729 23.1425C8.75155 22.8368 8.49338 22.5312 8.2665 22.2031C7.29485 20.7986 6.71279 19.2465 6.53703 17.5452C6.53181 17.4946 6.51252 17.4455 6.5 17.3955C6.50052 17.2922 6.50052 17.1879 6.50052 17.0836Z" fill="white"/>
<path d="M26.5 15.9043C24.5405 15.9043 22.6113 15.9043 20.6659 15.9043C20.5559 15.1987 20.2982 14.554 19.8883 14.0007C21.2631 12.6264 22.6316 11.2578 24.0132 9.87624C25.5033 11.5828 26.3341 13.5918 26.5 15.9043Z" fill="white"/>
<path d="M26.499 17.0919C26.3357 19.4045 25.5028 21.4125 23.9986 23.1367C22.6207 21.7588 21.2558 20.3944 19.8763 19.0154C20.2893 18.4506 20.5569 17.8044 20.6649 17.0919C22.6103 17.0919 24.5395 17.0919 26.499 17.0919Z" fill="white"/>
<path d="M23.1407 9.00003C21.7627 10.379 20.4025 11.7403 19.0251 13.1187C18.4582 12.7025 17.8161 12.4225 17.0948 12.3145C17.0948 10.3811 17.0948 8.4524 17.0948 6.49918C19.397 6.65617 21.4034 7.49013 23.1407 9.00003Z" fill="white"/>
<path d="M9.87706 8.98177C11.5857 7.49222 13.5921 6.66295 15.8947 6.49866C15.8947 8.43779 15.8947 10.3649 15.8947 12.2754C15.551 12.3802 15.2021 12.46 14.8751 12.593C14.5528 12.7244 14.2529 12.9096 13.9587 13.0634C12.6131 11.7178 11.254 10.3582 9.87706 8.98177Z" fill="white"/>
</svg>
