<svg width="350" height="350" viewBox="0 0 350 350" fill="none" xmlns="http://www.w3.org/2000/svg">
<path d="M149.613 63.613C132.33 48.345 115.962 30.8381 96.9547 17.9353C92.6823 15.0348 86.8307 17.5053 85.9304 22.5899C81.7988 45.9339 82.3354 69.7087 83.7443 93.3726C84.0348 98.2542 89.0469 101.399 93.5709 99.5434C111.819 92.0587 129.486 83.1672 147.679 75.5213C152.519 73.4876 153.546 67.0884 149.613 63.613Z" fill="#FFD4BE"/>
<path d="M149.613 63.6132C132.33 48.3451 115.962 30.8383 96.9548 17.9355C93.718 15.7384 89.5802 16.6271 87.3701 19.3956C87.7728 19.8488 88.1549 20.3301 88.4878 20.8722C101.25 41.6698 110.681 64.8771 120.202 87.796C129.322 83.6145 138.433 79.4076 147.68 75.5214C152.519 73.4877 153.546 67.0886 149.613 63.6132Z" fill="#935D51"/>
<path d="M198.847 63.613C216.13 48.345 232.498 30.8381 251.505 17.9353C255.778 15.0348 261.629 17.5053 262.529 22.5899C266.661 45.9339 266.124 69.7087 264.716 93.3726C264.425 98.2542 259.413 101.399 254.889 99.5434C236.64 92.0587 218.974 83.1672 200.78 75.5213C195.941 73.4876 194.914 67.0884 198.847 63.613Z" fill="#FFC3A9"/>
<path d="M198.847 63.6132C216.13 48.3451 232.498 30.8383 251.505 17.9355C254.741 15.7384 258.88 16.6271 261.09 19.3956C260.687 19.8488 260.305 20.3301 259.972 20.8722C247.209 41.6698 237.779 64.8771 228.258 87.796C219.138 83.6145 210.027 79.4076 200.78 75.5214C195.942 73.4877 194.914 67.0886 198.847 63.6132Z" fill="#7C473E"/>
<path d="M303.862 161.664C303.805 161.321 303.747 160.978 303.691 160.636C293.111 97.3731 238.371 51.0186 174.231 51.0186C110.089 51.0186 55.3486 97.3744 44.7706 160.638C44.7132 160.979 44.6565 161.321 44.5991 161.664C43.5292 168.074 40.1954 173.873 35.255 178.097C16.1814 194.4 4.14672 218.699 4.34769 245.804C4.70658 294.372 44.7775 333.3 93.3461 333.3H255.114C303.682 333.3 343.753 294.372 344.113 245.805C344.314 218.699 332.279 194.401 313.206 178.097C308.265 173.873 304.932 168.075 303.862 161.664Z" fill="#FFD4BE"/>
<path d="M313.206 178.097C308.266 173.873 304.932 168.075 303.862 161.664C303.805 161.321 303.747 160.978 303.691 160.636C293.111 97.3731 238.371 51.0186 174.231 51.0186C167.327 51.0186 160.534 51.5586 153.891 52.5963C208.962 61.1966 253.57 104.182 263.011 160.636C263.068 160.978 263.125 161.321 263.182 161.664C264.252 168.075 267.586 173.874 272.526 178.097C291.6 194.4 303.635 218.699 303.434 245.805C303.074 294.372 263.002 333.299 214.434 333.299H255.114C303.683 333.299 343.754 294.371 344.114 245.805C344.314 218.699 332.28 194.4 313.206 178.097Z" fill="#FFC3A9"/>
<path d="M305.881 169.322C304.687 166.923 303.838 164.348 303.389 161.664C303.327 161.29 303.265 160.917 303.203 160.545C292.617 97.319 237.863 51.0171 173.758 51.0171C109.616 51.0171 54.8756 97.373 44.2977 160.636C44.2402 160.978 44.1835 161.32 44.1261 161.662C43.8075 163.574 43.2832 165.428 42.5791 167.205C87.1118 143.122 140.381 170.488 149.279 217.644C151.199 227.82 156.246 237.143 163.64 244.393L172.064 252.654L180.338 246.176C189.697 238.849 196.135 228.467 198.725 216.867C208.995 170.86 261.836 144.853 305.664 169.2L305.881 169.322Z" fill="#935D51"/>
<path d="M262.944 160.263C276.996 158.835 291.781 161.489 305.663 169.201L305.881 169.322C304.687 166.924 303.838 164.349 303.389 161.664C303.327 161.291 303.265 160.918 303.203 160.545C292.616 97.3194 237.863 51.0176 173.758 51.0176C167.129 51.0176 160.602 51.52 154.213 52.4784C154.122 52.5324 154.019 52.5755 153.891 52.5953C208.841 61.1765 253.37 103.993 262.944 160.263Z" fill="#7C473E"/>
<path d="M78.0561 267.712C92.5637 267.712 104.325 261.116 104.325 252.979C104.325 244.842 92.5637 238.246 78.0561 238.246C63.5484 238.246 51.7876 244.842 51.7876 252.979C51.7876 261.116 63.5484 267.712 78.0561 267.712Z" fill="#FF929F"/>
<path d="M270.404 267.712C284.911 267.712 296.672 261.116 296.672 252.979C296.672 244.842 284.911 238.246 270.404 238.246C255.896 238.246 244.135 244.842 244.135 252.979C244.135 261.116 255.896 267.712 270.404 267.712Z" fill="#FF929F"/>
<path d="M183.051 306.645H165.409C161.29 306.645 157.951 303.306 157.951 299.186V270.974H190.51V299.186C190.51 303.306 187.17 306.645 183.051 306.645Z" fill="#FDF4E7"/>
<path d="M183.051 306.645H174.217V270.974H190.51V299.186C190.51 303.306 187.17 306.645 183.051 306.645Z" fill="#FFDAB6"/>
<path d="M230.87 231.515C238.164 231.515 244.077 225.602 244.077 218.308C244.077 211.014 238.164 205.101 230.87 205.101C223.576 205.101 217.663 211.014 217.663 218.308C217.663 225.602 223.576 231.515 230.87 231.515Z" fill="#231F20"/>
<path d="M117.59 231.515C124.884 231.515 130.797 225.602 130.797 218.308C130.797 211.014 124.884 205.101 117.59 205.101C110.296 205.101 104.383 211.014 104.383 218.308C104.383 225.602 110.296 231.515 117.59 231.515Z" fill="#231F20"/>
<path d="M164.862 311.846H183.599C190.278 311.846 195.711 305.901 195.711 298.595V279.165C198.798 278.054 201.613 276.219 203.876 273.77L207.092 270.289C209.04 268.18 208.911 264.89 206.801 262.941C204.691 260.991 201.401 261.122 199.452 263.231L196.237 266.712C194.286 268.824 191.627 269.987 188.752 269.987C185.876 269.987 183.218 268.824 181.267 266.712L178.052 263.231C177.067 262.165 175.682 261.56 174.232 261.56C172.781 261.56 171.396 262.166 170.412 263.231L167.196 266.712C165.245 268.824 162.587 269.987 159.712 269.987C156.836 269.987 154.178 268.824 152.227 266.712L149.011 263.231C147.063 261.122 143.772 260.991 141.663 262.941C139.553 264.89 139.423 268.18 141.372 270.289L144.588 273.77C146.85 276.219 149.666 278.054 152.753 279.165V298.595C152.751 305.902 158.184 311.846 164.862 311.846ZM169.03 278.146V286.46C169.03 289.332 171.359 291.66 174.231 291.66C177.104 291.66 179.432 289.332 179.432 286.46V278.146C181.278 279.083 183.259 279.741 185.31 280.091V298.595C185.31 300.335 184.296 301.445 183.599 301.445H164.862C164.165 301.445 163.152 300.335 163.152 298.595V280.091C165.202 279.741 167.185 279.082 169.03 278.146Z" fill="#231F20"/>
</svg>
