<svg width="34" height="44" viewBox="0 0 34 44" fill="none" xmlns="http://www.w3.org/2000/svg">
<path d="M18.375 41.75H17.875V41.25V37.9958V37.536L18.3332 37.4976C26.315 36.8287 33 30.8715 33 22C33 21.497 32.628 21.125 32.125 21.125C31.622 21.125 31.25 21.497 31.25 22C31.25 29.6205 25.0567 35.7917 17 35.7917C8.94335 35.7917 2.75 29.6205 2.75 22C2.75 21.497 2.37802 21.125 1.875 21.125C1.37197 21.125 1 21.497 1 22C1 30.8715 7.68501 36.8287 15.6668 37.4976L16.125 37.536V37.9958V41.25V41.75H15.625H7.42083C6.89614 41.75 6.5 42.1432 6.5 42.625C6.5 43.1068 6.89614 43.5 7.42083 43.5H26.5792C27.1039 43.5 27.5 43.1068 27.5 42.625C27.5 42.1432 27.1039 41.75 26.5792 41.75H18.375ZM8.25 13.75V13.25H8.75H12.4167C12.9197 13.25 13.2917 12.878 13.2917 12.375C13.2917 11.872 12.9197 11.5 12.4167 11.5H8.75H8.25V11V10.8625C8.25 6.08562 12.1955 2.25 17 2.25C21.8045 2.25 25.75 6.08562 25.75 10.8625V11V11.5H25.25H21.5833C21.0803 11.5 20.7083 11.872 20.7083 12.375C20.7083 12.878 21.0803 13.25 21.5833 13.25H25.25H25.75V13.75V18.3333V18.8333H25.25H21.5833C21.0803 18.8333 20.7083 19.2053 20.7083 19.7083C20.7083 20.2114 21.0803 20.5833 21.5833 20.5833H25.25H25.75V21.0833V21.6792C25.75 26.456 21.8045 30.2917 17 30.2917C12.1955 30.2917 8.25 26.456 8.25 21.6792V21.0833V20.5833H8.75H12.4167C12.9197 20.5833 13.2917 20.2114 13.2917 19.7083C13.2917 19.2053 12.9197 18.8333 12.4167 18.8333H8.75H8.25V18.3333V13.75ZM17 0.5C11.1748 0.5 6.5 5.13993 6.5 10.8625V21.725C6.5 27.4004 11.1734 32.0417 17 32.0417C22.8252 32.0417 27.5 27.4017 27.5 21.6792V10.8625C27.5 5.13993 22.8252 0.5 17 0.5Z" fill="#1475E6" stroke="#1475E6"/>
</svg>
