<svg width="350" height="350" viewBox="0 0 350 350" fill="none" xmlns="http://www.w3.org/2000/svg">
<g clip-path="url(#clip0_834_2784)">
<path d="M8.20312 17.7734H343.164V203.308H8.20312V17.7734Z" fill="#671C80"/>
<path d="M175 17.7734H343.164V203.308H175V17.7734Z" fill="#471A52"/>
<path d="M298.6 216.979H51.3992L41.6211 196.472H308.379L298.6 216.979Z" fill="#471A52"/>
<path d="M308.376 196.472L298.601 216.979H175V196.472H308.376Z" fill="#26072D"/>
<path d="M92.2511 61.9268C60.1974 61.9268 35.2326 32.9027 41.6857 0H142.823C149.264 32.9943 124.238 61.9268 92.2511 61.9268Z" fill="#D9215E"/>
<path d="M256.177 61.9268C224.228 61.9268 199.097 32.8521 205.584 0H306.769C313.23 32.6778 288.3 61.9268 256.177 61.9268Z" fill="#F23866"/>
<path d="M174.214 61.9268C142.14 61.9268 117.199 32.8877 123.648 0H224.786C231.216 32.9424 206.261 61.9268 174.214 61.9268Z" fill="#F23866"/>
<path d="M174.214 61.9268V0H224.786C231.219 32.9424 206.261 61.9268 174.214 61.9268Z" fill="#D9215E"/>
<path d="M51.3994 17.7734V216.979H10.2539C4.59102 216.979 0 212.388 0 206.726V17.7734H51.3994Z" fill="#D9215E"/>
<path d="M0 60.9219V10.2539C0 4.59375 4.59375 0 10.2539 0H60.915C68.0586 36.3604 36.4697 68.0244 0 60.9219Z" fill="#F23866"/>
<path d="M298.601 17.7734V216.979H339.746C345.409 216.979 350 212.388 350 206.726V17.7734H298.601Z" fill="#F23866"/>
<path d="M350 60.9219V10.2539C350 4.59375 345.406 0 339.746 0H289.085C281.941 36.3604 313.53 68.0244 350 60.9219Z" fill="#D9215E"/>
<path d="M307.289 298.06C324.278 298.06 338.051 284.287 338.051 267.298C338.051 250.309 324.278 236.536 307.289 236.536C290.3 236.536 276.527 250.309 276.527 267.298C276.527 284.287 290.3 298.06 307.289 298.06Z" fill="#FDBBAB"/>
<path d="M220.494 298.06C237.483 298.06 251.255 284.287 251.255 267.298C251.255 250.309 237.483 236.536 220.494 236.536C203.504 236.536 189.732 250.309 189.732 267.298C189.732 284.287 203.504 298.06 220.494 298.06Z" fill="#A14E3D"/>
<path d="M132.289 298.06C149.278 298.06 163.051 284.287 163.051 267.298C163.051 250.309 149.278 236.536 132.289 236.536C115.3 236.536 101.527 250.309 101.527 267.298C101.527 284.287 115.3 298.06 132.289 298.06Z" fill="#C56D59"/>
<path d="M44.0845 298.06C61.0737 298.06 74.8462 284.287 74.8462 267.298C74.8462 250.309 61.0737 236.536 44.0845 236.536C27.0952 236.536 13.3228 250.309 13.3228 267.298C13.3228 284.287 27.0952 298.06 44.0845 298.06Z" fill="#FBCDBE"/>
<path d="M213.553 110.061L194.906 104.901L184.237 88.7618C180.192 82.6422 171.184 82.6286 167.13 88.7618L156.46 104.901L137.814 110.061C130.742 112.018 127.95 120.582 132.528 126.331L144.579 141.465L143.725 160.793C143.4 168.123 150.68 173.426 157.565 170.849L175.684 164.064L193.802 170.849C200.659 173.417 207.968 168.152 207.642 160.793L206.787 141.465L218.839 126.331C223.409 120.593 220.637 112.022 213.553 110.061Z" fill="#E7F4FD"/>
<path d="M218.839 126.335L206.787 141.463L207.642 160.795C207.97 168.15 200.662 173.421 193.799 170.851L175.684 164.062V84.1641C178.951 84.1641 182.212 85.7022 184.235 88.7647L194.906 104.904L213.555 110.059C220.637 112.021 223.412 120.593 218.839 126.335Z" fill="#D0E9FB"/>
<path d="M1.75 350C0.783398 350 0 349.217 0 348.25V332.119C0 307.927 19.2104 287.74 43.3993 287.37C68.0196 286.995 88.1686 306.914 88.1686 331.449V350H1.75Z" fill="#0BBFB0"/>
<path d="M176.373 350H88.2046V332.119C88.2046 307.927 107.415 287.74 131.604 287.37C156.224 286.995 176.373 306.914 176.373 331.449V350Z" fill="#FCD65E"/>
<path d="M264.578 350H176.41V332.119C176.41 307.927 195.62 287.74 219.809 287.37C244.429 286.995 264.578 306.914 264.578 331.449V350Z" fill="#F8C14C"/>
<path d="M348.305 350H264.578V332.676C264.578 309.237 283.19 289.679 306.626 289.321C330.479 288.958 350 308.256 350 332.028V348.305C350 349.241 349.241 350 348.305 350Z" fill="#0BBFB0"/>
</g>
<defs>
<clipPath id="clip0_834_2784">
<rect width="350" height="350" fill="white"/>
</clipPath>
</defs>
</svg>
