<svg width="309" height="351" viewBox="0 0 309 351" fill="none" xmlns="http://www.w3.org/2000/svg">
<path d="M264.643 155.047V175.089C264.643 232.478 220.55 279.796 164.433 284.88V326.137H214.587C220.159 326.137 224.657 330.634 224.657 336.207C224.657 341.779 220.062 346.179 214.489 346.179H94.2376C88.665 346.179 84.1678 341.681 84.1678 336.109C84.1678 330.536 88.665 326.039 94.2376 326.039H144.391V284.782C88.1762 279.796 44.084 232.478 44.084 175.089V155.047C44.084 149.475 48.5812 144.978 54.1538 144.978H87.5896V165.019H64.1259V175.089C64.1259 224.852 104.601 265.327 154.363 265.327C204.126 265.327 244.601 224.852 244.601 175.089V165.019H221.235V144.978H254.671C260.145 144.978 264.643 149.475 264.643 155.047Z" fill="#0097F0"/>
<path d="M264.643 155.047V175.089C264.643 232.478 220.55 279.796 164.433 284.88V326.137H214.587C220.159 326.137 224.657 330.634 224.657 336.207C224.657 341.779 220.062 346.179 214.489 346.179H154.363V265.327C204.126 265.327 244.601 224.852 244.601 175.089V165.019H221.235V144.978H254.671C260.145 144.978 264.643 149.475 264.643 155.047Z" fill="#0052C2"/>
<path d="M54.1538 34.6982C48.5812 34.6982 44.084 39.1954 44.084 44.7681V94.9217C44.084 100.494 48.5812 104.992 54.1538 104.992C59.7264 104.992 64.2237 100.494 64.2237 94.9217V44.7681C64.1259 39.1954 59.6287 34.6982 54.1538 34.6982Z" fill="#FDBF00" stroke="white" stroke-width="8" stroke-miterlimit="10" stroke-linecap="round" stroke-linejoin="round"/>
<path d="M14.0698 4C8.49721 4 4 8.49721 4 14.0698V125.034C4 130.606 8.49721 135.103 14.0698 135.103C19.6425 135.103 24.1397 130.606 24.1397 125.034V14.0698C24.0419 8.49721 19.5447 4 14.0698 4Z" fill="#FDBF00" stroke="white" stroke-width="8" stroke-miterlimit="10" stroke-linecap="round" stroke-linejoin="round"/>
<path d="M254.573 34.6982C249 34.6982 244.503 39.1954 244.503 44.7681V94.9217C244.503 100.494 249 104.992 254.573 104.992C260.145 104.992 264.643 100.494 264.643 94.9217V44.7681C264.643 39.1954 260.145 34.6982 254.573 34.6982Z" fill="#FE9022" stroke="white" stroke-width="8" stroke-miterlimit="10" stroke-linecap="round" stroke-linejoin="round"/>
<path d="M304.726 60.7039V14.0698C304.726 8.49721 300.229 4 294.754 4C289.28 4 284.685 8.49721 284.685 14.0698V125.034C284.685 130.606 289.182 135.103 294.754 135.103C300.327 135.103 304.824 130.606 304.824 125.034V83.581" fill="#FE9022"/>
<path d="M304.726 60.7039V14.0698C304.726 8.49721 300.229 4 294.754 4C289.28 4 284.685 8.49721 284.685 14.0698V125.034C284.685 130.606 289.182 135.103 294.754 135.103C300.327 135.103 304.824 130.606 304.824 125.034V83.581" stroke="white" stroke-width="8" stroke-miterlimit="10" stroke-linecap="round" stroke-linejoin="round"/>
<path d="M232.478 252.812C229.251 256.039 225.83 259.069 222.31 261.905" stroke="white" stroke-width="8" stroke-miterlimit="10" stroke-linecap="round" stroke-linejoin="round"/>
<path d="M189.461 279.6C181.444 282.24 173.037 284.098 164.433 284.88V326.137H214.587C220.159 326.137 224.657 330.634 224.657 336.207C224.657 341.779 220.062 346.179 214.489 346.179H94.2376C88.665 346.179 84.1678 341.681 84.1678 336.109C84.1678 330.536 88.665 326.039 94.2376 326.039H144.391V284.782C88.1762 279.796 44.084 232.478 44.084 175.089V155.047C44.084 149.475 48.5812 144.978 54.1538 144.978H87.5896V165.019H64.1259V175.089C64.1259 224.852 104.601 265.327 154.363 265.327C204.126 265.327 244.601 224.852 244.601 175.089V165.019H221.235V144.978H254.671C260.243 144.978 264.74 149.475 264.74 155.047V175.089C264.74 199.824 256.528 222.603 242.841 241.081" stroke="white" stroke-width="8" stroke-miterlimit="10" stroke-linecap="round" stroke-linejoin="round"/>
<path d="M154.363 4C115.648 4 84.1675 35.4805 84.1675 74.1955V175.089C84.1675 213.804 115.648 245.285 154.363 245.285C193.078 245.285 224.559 213.804 224.559 175.089V74.1955C224.559 35.4805 193.078 4 154.363 4Z" fill="#FFDA2D"/>
<path d="M224.559 74.1955V175.089C224.559 213.804 193.078 245.285 154.363 245.285V4C193.078 4 224.559 35.4805 224.559 74.1955Z" fill="#FDBF00"/>
<path d="M84.1675 103.721V175.089C84.1675 213.804 115.648 245.285 154.363 245.285C193.078 245.285 224.559 213.804 224.559 175.089V74.1955C224.559 35.4805 193.078 4 154.363 4C115.648 4 84.1675 35.4805 84.1675 74.1955V89.2514" stroke="white" stroke-width="8" stroke-miterlimit="10" stroke-linecap="round" stroke-linejoin="round"/>
</svg>
