<svg width="350" height="350" viewBox="0 0 350 350" fill="none" xmlns="http://www.w3.org/2000/svg">
<g clip-path="url(#clip0_834_2630)">
<path d="M350 99.9583C350 79.3118 337.654 60.6667 318.655 52.6058L212.751 7.67864C188.625 -2.55955 161.375 -2.55955 137.25 7.67864L133.924 9.08957C89.6363 50.3786 75.4805 100.5 75.4805 153.787C75.4805 231.236 113.073 326.548 176.9 349.999H329.492C340.819 349.999 350 340.817 350 329.491V99.9583Z" fill="#FF8B5E"/>
<path d="M133.923 9.08984L31.3448 52.6061C12.3457 60.667 0 79.312 0 99.9586V329.492C0 340.818 9.18203 350 20.5078 350H176.899C80.9156 260.422 64.9551 116.593 133.923 9.08984Z" fill="#F76D4A"/>
<path d="M307.575 132.575C237.56 115.211 164.017 113.525 90.6812 130.1C59.1402 194.797 74.638 263.899 120.135 308.276C139.212 326.885 162.922 340.052 188.64 347.042L199.521 349.999H307.575V132.575Z" fill="#464356"/>
<path d="M92.4335 132.576C75.1276 123.524 58.4049 122.772 42.4238 132.576V350H150.478L158.219 330.745C111.85 277.932 86.573 207.513 92.4335 132.576Z" fill="#323243"/>
<path d="M175 74.2418C188.179 74.2418 198.863 63.5577 198.863 50.3782C198.863 37.1987 188.179 26.5146 175 26.5146C161.82 26.5146 151.136 37.1987 151.136 50.3782C151.136 63.5577 161.82 74.2418 175 74.2418Z" fill="#F7EB49"/>
<path d="M118.922 266.728L83.2575 257.224C73.7631 254.685 64.2871 261.804 64.2871 271.797C64.2871 278.139 68.254 283.803 74.2143 285.967C85.8251 290.193 106.837 297.845 127.796 305.461C132.016 292.396 130.927 278.254 118.922 266.728Z" fill="#9D96F0"/>
<path d="M89.6356 282.361C96.9221 282.361 102.874 288.582 102.186 296.149C101.592 302.563 96.2043 307.576 89.6356 307.576C82.6712 307.576 77.0288 301.933 77.0288 294.969C77.0281 287.992 82.6917 282.361 89.6356 282.361Z" fill="#F7EB49"/>
<path d="M266.742 257.225L231.078 266.728C220.019 277.84 218.68 291.985 222.204 305.454L222.211 305.461C224.416 304.659 210.405 309.757 275.786 285.967C281.668 283.834 285.713 278.221 285.713 271.798C285.713 261.884 276.323 254.665 266.742 257.225Z" fill="#9D96F0"/>
<path d="M272.972 294.969C272.972 301.933 267.33 307.576 260.365 307.576C253.797 307.576 248.409 302.563 247.814 296.149C247.126 288.572 253.088 282.361 260.365 282.361C267.308 282.362 272.972 287.993 272.972 294.969Z" fill="#F7EB49"/>
<path d="M150.479 324.064H199.521V350H150.479V324.064Z" fill="#D8CBFF"/>
<path d="M163.086 169.696C168.161 177.081 167.58 184.152 161.339 190.908C153.764 190.908 156.043 190.908 148.485 190.908C142.64 190.908 137.879 186.157 137.879 180.302C137.879 174.448 142.631 169.696 148.485 169.696H163.086Z" fill="#9D96F0"/>
<path d="M201.515 169.696C207.37 169.696 212.121 174.448 212.121 180.302C212.121 186.147 207.37 190.908 201.515 190.908C193.957 190.908 196.235 190.908 188.661 190.908C182.451 184.044 182.079 176.966 186.915 169.696H201.515Z" fill="#9D96F0"/>
<path d="M190.174 209.236C180.694 214.104 170.107 214.105 159.826 209.236C159.937 207.892 163.747 161.662 163.524 164.358C164.013 158.384 169.004 153.788 175 153.788C180.984 153.788 185.98 158.365 186.475 164.358C186.432 163.836 187.041 171.239 190.174 209.236Z" fill="#D8CBFF"/>
<path d="M231.297 272.49C231.297 241.295 212.992 216.665 190.174 209.236C185.803 207.809 181.221 206.991 176.491 206.848C145.362 240.05 152.904 312.643 200.829 323.489C221.071 314.365 231.297 295.263 231.297 272.49Z" fill="#EEECFF"/>
<path d="M176.491 206.848C144.721 205.884 121.313 234.589 118.923 266.728C116.846 293.335 128.582 316.744 154.142 325.457C168.149 330.249 186.099 330.128 200.829 323.489C170.417 291.549 162.183 246.064 176.491 206.848Z" fill="#DED9F9"/>
<path d="M201.961 272.979C205.624 272.215 207.957 268.623 207.179 264.961C203.38 247.014 188.43 230.378 170.29 233.768C159.027 244.253 159.032 266.094 173.754 275.739C183.335 275.837 192.608 274.938 201.961 272.979Z" fill="#9D96F0"/>
<path d="M170.29 233.768C163.824 234.976 157.701 238.689 152.699 244.526C147.863 250.168 144.497 257.183 142.829 264.925C142.029 268.609 144.356 272.243 148.046 273C155.211 274.475 163.937 275.638 173.754 275.739C169.945 261.953 168.841 247.715 170.29 233.768Z" fill="#8278E3"/>
<path d="M323.485 116.667C323.485 107.878 316.364 100.758 307.575 100.758H96.8479C82.0194 105.177 79.3684 124.091 92.4333 132.576H307.575C316.353 132.576 323.485 125.463 323.485 116.667Z" fill="#5E566F"/>
<path d="M42.4244 100.758C33.6471 100.758 26.5151 107.871 26.5151 116.667C26.5151 125.456 33.6355 132.576 42.4244 132.576H92.4341C93.279 121.778 94.7638 111.16 96.8487 100.758H42.4244Z" fill="#464356"/>
</g>
<defs>
<clipPath id="clip0_834_2630">
<rect width="350" height="350" fill="white"/>
</clipPath>
</defs>
</svg>
