<svg width="350" height="350" viewBox="0 0 350 350" fill="none" xmlns="http://www.w3.org/2000/svg">
<path d="M307.747 147.888L265.493 196.127L307.747 244.367C319.414 244.367 328.873 234.908 328.873 223.24V169.014C328.873 157.346 319.415 147.888 307.747 147.888Z" fill="#DB3916"/>
<path d="M42.2537 147.888L84.5072 196.127L42.2537 244.367C30.5861 244.367 21.127 234.908 21.127 223.24V169.014C21.127 157.346 30.5854 147.888 42.2537 147.888Z" fill="#FC5A37"/>
<path d="M224.99 21.127H202.426L175 95.0706L248.944 52.8171L229.385 23.4791C228.406 22.0093 226.756 21.127 224.99 21.127Z" fill="#487ED2"/>
<path d="M120.615 23.4791L101.056 52.8171L175 95.0706L223.553 52.8171L202.426 21.127H125.01C123.243 21.127 121.594 22.0093 120.615 23.4791Z" fill="#73A7E6"/>
<path d="M265.493 52.8174H244.366V328.874H265.493C288.829 328.874 307.746 309.956 307.746 286.62V95.0709C307.746 71.735 288.829 52.8174 265.493 52.8174Z" fill="#73A7E6"/>
<path d="M286.62 286.62V95.0709C286.62 71.735 267.702 52.8174 244.366 52.8174H84.5069C61.171 52.8174 42.2534 71.735 42.2534 95.0709V286.62C42.2534 309.956 61.171 328.874 84.5069 328.874H244.366C267.702 328.874 286.62 309.956 286.62 286.62Z" fill="#A8CFFF"/>
<path d="M265.493 116.901H244.366V307.746H265.493C277.161 307.746 286.62 298.288 286.62 286.62V138.028C286.62 126.36 277.161 116.901 265.493 116.901Z" fill="#071E61"/>
<path d="M265.493 286.62V138.028C265.493 126.36 256.035 116.901 244.366 116.901H84.5071C72.8388 116.901 63.3804 126.36 63.3804 138.028V286.62C63.3804 298.288 72.8388 307.746 84.5071 307.746H244.366C256.035 307.746 265.493 298.288 265.493 286.62Z" fill="#12398F"/>
<path d="M238.38 244.366V276.056H206.69L185.563 260.211L206.69 244.366H238.38Z" fill="#487ED2"/>
<path d="M206.69 244.366V276.056H175L153.873 260.211L175 244.366H206.69Z" fill="#73A7E6"/>
<path d="M175 244.366V276.056H143.31L122.183 260.211L143.31 244.366H175Z" fill="#A8CFFF"/>
<path d="M111.62 244.366H143.31V276.056H111.62V244.366Z" fill="#73A7E6"/>
<path d="M116.549 148.592V212.676C134.246 212.676 148.592 198.331 148.592 180.634C148.592 162.938 134.246 148.592 116.549 148.592Z" fill="#FFC85F"/>
<path d="M127.465 180.634C127.465 162.938 122.577 148.592 116.549 148.592C98.8526 148.592 84.5068 162.938 84.5068 180.634C84.5068 198.331 98.8526 212.676 116.549 212.676C122.577 212.676 127.465 198.331 127.465 180.634Z" fill="#FFE278"/>
<path d="M233.451 148.592V212.676C251.147 212.676 265.493 198.331 265.493 180.634C265.493 162.938 251.147 148.592 233.451 148.592Z" fill="#FFC85F"/>
<path d="M244.366 180.634C244.366 162.938 239.479 148.592 233.45 148.592C215.754 148.592 201.408 162.938 201.408 180.634C201.408 198.331 215.754 212.676 233.45 212.676C239.479 212.676 244.366 198.331 244.366 180.634Z" fill="#FFE278"/>
<path d="M5.28169 228.521C2.36479 228.521 0 226.157 0 223.239V52.8168C0 49.8992 2.36479 47.5352 5.28169 47.5352C8.19859 47.5352 10.5634 49.8992 10.5634 52.8168V223.239C10.5634 226.157 8.19859 228.521 5.28169 228.521Z" fill="#12398F"/>
<path d="M344.718 228.521C341.801 228.521 339.437 226.157 339.437 223.239V52.8168C339.437 49.8992 341.801 47.5352 344.718 47.5352C347.635 47.5352 350 49.8992 350 52.8168V223.239C350 226.157 347.635 228.521 344.718 228.521Z" fill="#12398F"/>
</svg>
