<svg width="23" height="20" viewBox="0 0 23 20" fill="none" xmlns="http://www.w3.org/2000/svg">
<path d="M21.5 4C21.5 4.79565 21.1837 5.55873 20.6211 6.12134C20.0585 6.68395 19.2956 7 18.5 7C17.7044 7 16.9413 6.68395 16.3787 6.12134C15.8161 5.55873 15.5 4.79565 15.5 4C15.5 3.20435 15.8161 2.44127 16.3787 1.87866C16.9413 1.31605 17.7044 1 18.5 1C19.2956 1 20.0585 1.31605 20.6211 1.87866C21.1837 2.44127 21.5 3.20435 21.5 4Z" stroke="#657AFF" stroke-width="1.5" stroke-miterlimit="10"/>
<path d="M7.17969 8.66009L15.8197 5.34009" stroke="#657AFF" stroke-width="1.5" stroke-miterlimit="10"/>
<path d="M7.5 10C7.5 10.7956 7.1837 11.5587 6.62109 12.1213C6.05848 12.6839 5.29565 13 4.5 13C3.70435 13 2.94127 12.6839 2.37866 12.1213C1.81605 11.5587 1.5 10.7956 1.5 10C1.5 9.20435 1.81605 8.44127 2.37866 7.87866C2.94127 7.31605 3.70435 7 4.5 7C5.29565 7 6.05848 7.31605 6.62109 7.87866C7.1837 8.44127 7.5 9.20435 7.5 10Z" stroke="#657AFF" stroke-width="1.5" stroke-miterlimit="10"/>
<path d="M21.5 16C21.5 16.7956 21.1837 17.5587 20.6211 18.1213C20.0585 18.6839 19.2956 19 18.5 19C17.7044 19 16.9413 18.6839 16.3787 18.1213C15.8161 17.5587 15.5 16.7956 15.5 16C15.5 15.2044 15.8161 14.4413 16.3787 13.8787C16.9413 13.3161 17.7044 13 18.5 13C19.2956 13 20.0585 13.3161 20.6211 13.8787C21.1837 14.4413 21.5 15.2044 21.5 16Z" stroke="#657AFF" stroke-width="1.5" stroke-miterlimit="10"/>
<path d="M15.82 14.66L7.5 11.5" stroke="#657AFF" stroke-width="1.5" stroke-miterlimit="10"/>
</svg>
