<svg width="24" height="24" viewBox="0 0 24 24" fill="none" xmlns="http://www.w3.org/2000/svg">
<path fill-rule="evenodd" clip-rule="evenodd" d="M3.61864 2.07516C2.86452 2.27793 2.27302 2.87786 2.07408 3.64166C1.97531 4.02089 1.97531 9.26818 2.07408 9.64741C2.27561 10.4211 2.86831 11.0157 3.63782 11.2161C4.02869 11.318 9.26617 11.318 9.65704 11.2161C10.4266 11.0157 11.0193 10.4211 11.2208 9.64741C11.3196 9.26818 11.3196 4.02089 11.2208 3.64166C11.0193 2.868 10.4266 2.27338 9.65704 2.07293C9.27862 1.97437 3.98617 1.97629 3.61864 2.07516ZM14.3261 2.07516C13.572 2.27793 12.9805 2.87786 12.7816 3.64166C12.6828 4.02089 12.6828 9.26818 12.7816 9.64741C12.9831 10.4211 13.5758 11.0157 14.3453 11.2161C14.7362 11.318 19.9737 11.318 20.3645 11.2161C21.1341 11.0157 21.7268 10.4211 21.9283 9.64741C22.0271 9.26818 22.0271 4.02089 21.9283 3.64166C21.7268 2.868 21.1341 2.27338 20.3645 2.07293C19.9861 1.97437 14.6937 1.97629 14.3261 2.07516ZM9.56679 3.58317C9.87222 3.81619 9.86307 3.71496 9.84955 6.70918C9.8376 9.35184 9.83559 9.40653 9.74538 9.52735C9.69479 9.59508 9.59797 9.69189 9.53025 9.74248C9.40943 9.83269 9.35473 9.8347 6.71208 9.84666C3.71791 9.86017 3.81909 9.86932 3.58607 9.56389L3.45749 9.39534L3.44437 6.7596C3.43719 5.30989 3.44299 4.05917 3.45731 3.98011C3.4897 3.80129 3.67713 3.57349 3.85679 3.49452C3.9665 3.4463 4.51678 3.43661 6.69553 3.44464L9.39823 3.45459L9.56679 3.58317ZM20.2743 3.58317C20.5797 3.81619 20.5706 3.71496 20.5571 6.70918C20.5451 9.35184 20.5431 9.40653 20.4529 9.52735C20.4023 9.59508 20.3055 9.69189 20.2377 9.74248C20.1169 9.83269 20.0622 9.8347 17.4196 9.84666C14.4254 9.86017 14.5266 9.86932 14.2936 9.56389L14.165 9.39534L14.1519 6.7596C14.1447 5.30989 14.1505 4.05917 14.1648 3.98011C14.1972 3.80129 14.3846 3.57349 14.5643 3.49452C14.674 3.4463 15.2243 3.43661 17.403 3.44464L20.1057 3.45459L20.2743 3.58317ZM3.61864 12.7827C2.86452 12.9854 2.27302 13.5854 2.07408 14.3492C1.97531 14.7284 1.97531 19.9757 2.07408 20.3549C2.27561 21.1286 2.86831 21.7232 3.63782 21.9236C4.02869 22.0255 9.26617 22.0255 9.65704 21.9236C10.4266 21.7232 11.0193 21.1286 11.2208 20.3549C11.3196 19.9757 11.3196 14.7284 11.2208 14.3492C11.0193 13.5755 10.4266 12.9809 9.65704 12.7804C9.27862 12.6819 3.98617 12.6838 3.61864 12.7827ZM14.3261 12.7827C13.572 12.9854 12.9805 13.5854 12.7816 14.3492C12.6828 14.7284 12.6828 19.9757 12.7816 20.3549C12.9831 21.1286 13.5758 21.7232 14.3453 21.9236C14.7362 22.0255 19.9737 22.0255 20.3645 21.9236C21.1341 21.7232 21.7268 21.1286 21.9283 20.3549C22.0271 19.9757 22.0271 14.7284 21.9283 14.3492C21.7268 13.5755 21.1341 12.9809 20.3645 12.7804C19.9861 12.6819 14.6937 12.6838 14.3261 12.7827ZM9.56679 14.2907C9.87222 14.5237 9.86307 14.4225 9.84955 17.4167C9.8376 20.0593 9.83559 20.114 9.74538 20.2348C9.69479 20.3026 9.59797 20.3994 9.53025 20.45C9.40943 20.5402 9.35473 20.5422 6.71208 20.5542C3.71791 20.5677 3.81909 20.5768 3.58607 20.2714L3.45749 20.1028L3.44437 17.4671C3.43719 16.0174 3.44299 14.7667 3.45731 14.6876C3.4897 14.5088 3.67713 14.281 3.85679 14.202C3.9665 14.1538 4.51678 14.1441 6.69553 14.1521L9.39823 14.1621L9.56679 14.2907ZM20.2743 14.2907C20.5797 14.5237 20.5706 14.4225 20.5571 17.4167C20.5451 20.0593 20.5431 20.114 20.4529 20.2348C20.4023 20.3026 20.3055 20.3994 20.2377 20.45C20.1169 20.5402 20.0622 20.5422 17.4196 20.5542C14.4254 20.5677 14.5266 20.5768 14.2936 20.2714L14.165 20.1028L14.1519 17.4671C14.1447 16.0174 14.1505 14.7667 14.1648 14.6876C14.1972 14.5088 14.3846 14.281 14.5643 14.202C14.674 14.1538 15.2243 14.1441 17.403 14.1521L20.1057 14.1621L20.2743 14.2907Z" fill="black"/>
</svg>
