<svg width="350" height="350" viewBox="0 0 350 350" fill="none" xmlns="http://www.w3.org/2000/svg">
<g clip-path="url(#clip0_834_2501)">
<path d="M48.0349 131.281C21.9476 124.737 -6.87684 89.0878 1.4671 39.1342C3.07081 29.5345 14.7316 25.6483 21.7753 32.3653C37.8733 47.7147 58.4863 56.4462 85.9613 57.2173L48.0349 131.281Z" fill="#D3D3FF"/>
<path d="M301.965 131.282C328.053 124.737 356.877 89.088 348.533 39.1344C346.929 29.5347 335.269 25.6485 328.225 32.3648C312.127 47.7142 291.514 56.4458 264.04 57.2168L301.965 131.282Z" fill="#D3D3FF"/>
<path d="M244.65 335.272C257.977 335.272 267.599 322.506 263.922 309.696C252.827 271.047 217.215 242.769 175 242.769C132.785 242.769 97.1737 271.047 86.0782 309.696C82.4005 322.505 92.0235 335.272 105.35 335.272H244.65Z" fill="#E3986D"/>
<path d="M175 285.147C199.46 285.147 222.826 281.059 243.703 273.336C226.773 254.569 202.266 242.77 175 242.77C147.734 242.77 123.227 254.568 106.297 273.336C127.174 281.059 150.54 285.147 175 285.147Z" fill="#E17858"/>
<path d="M175 277.006C165.74 277.006 155.587 279.119 147.763 283.414C152.411 290.863 157.346 297.241 162.233 302.728C169.022 310.351 180.98 310.351 187.768 302.728C192.654 297.241 197.59 290.863 202.237 283.414C194.414 279.119 184.261 277.006 175 277.006Z" fill="#EEECFF"/>
<path d="M147.763 283.415C156.635 284.56 165.739 285.147 175 285.147C184.261 285.147 193.365 284.561 202.237 283.415C208.778 272.932 214.748 260.326 219.2 245.066H130.8C135.252 260.326 141.222 272.932 147.763 283.415Z" fill="#D3D3FF"/>
<path d="M43.2813 193.419C62.9145 193.419 78.8303 179.166 78.8303 161.584C78.8303 144.003 62.9145 129.75 43.2813 129.75C23.6482 129.75 7.73242 144.003 7.73242 161.584C7.73242 179.166 23.6482 193.419 43.2813 193.419Z" fill="#00B662"/>
<path d="M306.719 193.419C326.352 193.419 342.268 179.166 342.268 161.584C342.268 144.003 326.352 129.75 306.719 129.75C287.086 129.75 271.17 144.003 271.17 161.584C271.17 179.166 287.086 193.419 306.719 193.419Z" fill="#00B662"/>
<path d="M311.538 154.17C311.538 221.625 250.408 264.02 175 264.02C99.5921 264.02 38.4624 221.626 38.4624 154.17C38.4624 86.7147 99.5921 32.0312 175 32.0312C250.408 32.0312 311.538 86.7147 311.538 154.17Z" fill="#00CD8D"/>
<path d="M298.208 54.2807C278.599 19.8289 226 4.54651 184.877 21.9679C178.576 24.6373 171.425 24.6373 165.124 21.9679C150.2 15.6453 133.764 13.6342 117.942 15.2796C85.9615 32.0318 94.0054 90.7764 150.364 91.0909C158.567 89.5733 165.887 87.0959 171.666 83.6007C173.726 82.3552 176.275 82.3552 178.335 83.6007C206.061 100.367 269.165 93.8075 295.841 69.423C300.082 65.5456 301.051 59.2743 298.208 54.2807Z" fill="#5972A4"/>
<path d="M117.941 15.2798C90.1668 18.168 64.2839 32.3327 51.7912 54.2809C48.9488 59.2745 49.9181 65.5458 54.1592 69.4231C75.274 88.7244 119.211 96.8537 150.363 91.091C112.815 83.782 102.718 33.1612 117.941 15.2798Z" fill="#3B5A9A"/>
<path d="M118.093 188.888C129.69 188.888 139.091 181.402 139.091 172.167C139.091 162.932 129.69 155.445 118.093 155.445C106.497 155.445 97.0962 162.932 97.0962 172.167C97.0962 181.402 106.497 188.888 118.093 188.888Z" fill="white"/>
<path d="M231.906 188.888C243.503 188.888 252.904 181.402 252.904 172.167C252.904 162.932 243.503 155.445 231.906 155.445C220.31 155.445 210.909 162.932 210.909 172.167C210.909 181.402 220.31 188.888 231.906 188.888Z" fill="white"/>
<path d="M199.544 161.509C199.544 150.894 188.556 149.896 175 149.896C161.445 149.896 150.456 150.894 150.456 161.509C150.456 172.123 161.444 180.728 175 180.728C188.556 180.728 199.544 172.123 199.544 161.509Z" fill="#3B4456"/>
<path d="M138.606 142.032C138.31 142.032 138.011 142.006 137.709 141.953L122.833 139.33C120.045 138.839 118.182 136.179 118.675 133.39C119.167 130.601 121.823 128.743 124.614 129.231L139.491 131.854C142.279 132.346 144.141 135.005 143.649 137.793C143.21 140.282 141.047 142.032 138.606 142.032Z" fill="#3B4456"/>
<path d="M211.394 142.032C208.953 142.032 206.79 140.281 206.351 137.794C205.859 135.006 207.721 132.346 210.509 131.855L225.386 129.232C228.176 128.743 230.833 130.602 231.325 133.391C231.817 136.179 229.955 138.839 227.167 139.331L212.291 141.954C211.989 142.006 211.69 142.032 211.394 142.032Z" fill="#3B4456"/>
<path d="M130.331 161.131C127.498 161.131 125.204 158.835 125.204 156.004V147.553C125.204 144.722 127.498 142.426 130.331 142.426C133.163 142.426 135.458 144.722 135.458 147.553V156.004C135.458 158.835 133.163 161.131 130.331 161.131Z" fill="#3B4456"/>
<path d="M219.669 161.131C216.837 161.131 214.542 158.835 214.542 156.004V147.553C214.542 144.722 216.837 142.426 219.669 142.426C222.502 142.426 224.796 144.722 224.796 147.553V156.004C224.796 158.835 222.501 161.131 219.669 161.131Z" fill="#3B4456"/>
</g>
<defs>
<clipPath id="clip0_834_2501">
<rect width="350" height="350" fill="white"/>
</clipPath>
</defs>
</svg>
