<svg width="330" height="326" viewBox="0 0 330 326" fill="none" xmlns="http://www.w3.org/2000/svg">
<g clip-path="url(#clip0_834_2011)">
<path d="M311.805 33.5239C313.957 27.906 315.164 21.8151 315.203 15.4539C315.232 9.64292 310.714 4.82617 304.903 4.82617H291.051H258.686H256.475H243.125C237.44 4.82617 232.826 9.44021 232.826 15.1257V66.604H263.715C277.856 66.604 290.675 60.8799 299.99 51.6229" fill="#F39E31"/>
<path d="M258.695 107.146H232.632V11.5532C232.632 7.83593 235.699 4.82617 239.487 4.82617H258.695V107.146Z" fill="#F9BC35"/>
<path d="M147.707 33.5239C149.86 27.906 151.066 21.8151 151.105 15.4539C151.134 9.64292 146.616 4.82617 140.805 4.82617H126.954H94.5879H92.3774H79.0276C73.3421 4.82617 68.728 9.44021 68.728 15.1257V66.604H99.617C113.758 66.604 126.577 60.8799 135.892 51.6229" fill="#F39E31"/>
<path d="M94.5972 107.146H68.5347V11.5532C68.5347 7.83593 71.6016 4.82617 75.3894 4.82617H94.5972V107.146Z" fill="#F9BC35"/>
<path d="M289.458 210.749H42.3469C36.6614 210.749 32.0474 215.353 32.0474 221.049V310.279C32.0474 315.964 36.6614 320.578 42.3469 320.578H289.458C295.144 320.578 299.758 315.974 299.758 310.279V221.049C299.758 215.363 295.144 210.749 289.458 210.749Z" fill="#FFEBCC"/>
<path d="M289.459 210.749H165.903V320.578H289.459C295.144 320.578 299.758 315.974 299.758 310.279V221.049C299.758 215.363 295.144 210.749 289.459 210.749Z" fill="#FFDBB2"/>
<path d="M160.121 184.619C159.571 184.156 159.02 183.683 158.47 183.21C158.991 183.751 159.532 184.223 160.121 184.619Z" fill="black"/>
<path d="M227.671 226.204C227.681 226.204 227.691 226.204 227.691 226.204C227.681 226.194 227.671 226.204 227.671 226.204Z" fill="black"/>
<path d="M231.117 320.578H100.698C148.75 293.126 165.913 210.749 165.913 210.749C165.913 210.749 183.065 293.126 231.117 320.578Z" fill="#5C5F66"/>
<path d="M165.903 210.749C165.903 210.749 183.065 293.116 231.117 320.578H165.903" fill="#53565C"/>
<path d="M248.965 236.242C242.478 236.242 237.266 234.254 233.077 232.661C230.972 231.86 228.8 231.03 227.681 231.03C226.349 231.03 225.036 231.377 223.704 232.082C218.704 234.717 212.96 236.107 207.091 236.107C201.222 236.107 195.469 234.717 190.469 232.082C189.147 231.387 187.815 231.03 186.502 231.03C185.189 231.03 183.847 231.387 182.525 232.082C177.525 234.717 171.781 236.107 165.912 236.107C160.044 236.107 154.29 234.717 149.29 232.082C147.968 231.387 146.636 231.03 145.323 231.03C144.01 231.03 142.668 231.387 141.346 232.082C136.346 234.717 130.602 236.107 124.734 236.107C118.865 236.107 113.112 234.717 108.111 232.082C106.789 231.387 105.457 231.03 104.144 231.03C102.831 231.03 101.49 231.387 100.167 232.082C95.1671 234.717 89.4237 236.107 83.5548 236.107C77.6859 236.107 71.9328 234.717 66.9327 232.082C65.6102 231.387 64.2782 231.03 62.9654 231.03C61.6526 231.03 60.3109 231.387 58.9884 232.082C53.7952 234.823 48.2256 236.204 42.4629 236.204C22.7229 236.204 6.66064 220.17 6.66064 200.459C6.66064 197.467 7.53905 194.571 9.19933 192.071C30.0204 160.825 51.7006 124.675 69.2107 72.1157C71.2185 66.1117 76.8461 61.9803 83.2362 61.8355H83.5451C90.2635 61.8355 95.0126 66.4785 98.8352 70.2141C99.9935 71.3435 101.084 72.4053 102.088 73.2258C108.111 78.0812 114.675 82.2512 121.606 85.6297C135.39 92.348 150.719 95.9002 165.922 95.9002C181.965 95.9002 197.284 92.2515 211.464 85.0698C213.549 84.0176 215.624 82.869 217.632 81.6624C220.316 80.0503 222.97 78.2935 225.509 76.4402C228.549 74.2104 231.513 71.7779 234.312 69.2103L234.708 68.8338L235.171 68.4091C238.685 65.1368 242.324 61.7583 248.087 61.7583C249.264 61.7583 250.5 61.9127 251.755 62.2023C259.023 63.9205 261.668 69.2103 263.155 73.6216C280.655 125.534 302.084 161.24 322.645 192.09C324.305 194.59 325.184 197.486 325.184 200.479C325.184 210.286 321.313 219.398 314.285 226.145C307.606 232.555 298.532 236.223 289.391 236.223C283.619 236.223 278.059 234.833 272.856 232.091C271.533 231.396 270.201 231.039 268.888 231.039C267.576 231.039 266.234 231.396 264.911 232.091C259.641 234.843 254.284 236.242 248.965 236.242Z" fill="#50B9FF"/>
<path d="M238.424 72.2401L162.309 203.674L83.0142 69.5005C104.176 89.5267 132.381 100.572 162.309 100.572C190.8 100.572 217.619 90.4914 238.424 72.2401Z" fill="#4DA6FF"/>
<path d="M237.98 72.3672L165.903 203.886V100.717C192.882 100.717 218.279 90.6303 237.98 72.3672Z" fill="#4596E6"/>
<path d="M251.089 236.494C244.773 236.494 239.697 234.558 235.617 233.007C233.596 232.236 231.519 231.447 230.419 231.419H230.354C219.788 231.409 183.064 208.149 161.539 189.813C157.591 186.458 155.42 182.173 155.41 177.765C155.401 173.649 157.3 169.654 160.627 166.807C162.319 165.36 164.058 163.771 165.74 162.23L167.038 161.046C181.833 147.578 196.317 131.658 210.097 113.745C218.933 102.261 236.238 74.715 236.416 74.4425L236.745 73.9162L237.648 73.0798C241.069 69.8938 244.613 66.6045 250.224 66.6045C251.371 66.6045 252.574 66.7549 253.796 67.0368C260.874 68.7097 263.45 73.8598 264.897 78.1547C281.939 128.698 302.806 163.461 322.827 193.497C324.444 195.932 325.299 198.751 325.299 201.664C325.299 211.213 321.53 220.085 314.687 226.654C308.183 232.894 299.347 236.465 290.445 236.465C284.824 236.465 279.41 235.112 274.344 232.443C273.056 231.766 271.759 231.419 270.481 231.419C269.202 231.419 267.896 231.766 266.608 232.443C261.485 235.131 256.268 236.494 251.089 236.494Z" fill="#48A7E6"/>
<path d="M118.235 121.322C106.384 106.158 95.5441 90.2895 85.716 74.3651C81.1221 66.9318 69.9297 68.2867 67.192 76.5922C50.6633 126.825 30.3946 163.119 6.55284 199.366C5.4299 201.074 4.82666 203.097 4.82666 205.148C4.82666 228.7 29.6614 243.79 50.1343 232.876C54.2178 230.696 58.5332 230.705 62.5981 232.876C71.4053 237.572 82.5791 237.572 91.3678 232.876C95.4513 230.696 99.7667 230.705 103.832 232.876C112.639 237.572 123.813 237.572 132.601 232.876C136.685 230.696 141 230.705 145.065 232.876C153.872 237.572 165.046 237.572 173.835 232.876C177.918 230.696 182.234 230.705 186.299 232.876C195.106 237.572 206.28 237.572 215.068 232.876C217.101 231.791 219.198 231.252 221.286 231.252C221.296 231.252 221.296 231.252 221.305 231.252C231.402 231.243 237.202 216.627 223.987 210.549C192.164 195.914 153.362 165.355 131.562 137.719" fill="#50B9FF"/>
</g>
<defs>
<clipPath id="clip0_834_2011">
<rect width="330" height="325.405" fill="white"/>
</clipPath>
</defs>
</svg>
