<svg width="316" height="350" viewBox="0 0 316 350" fill="none" xmlns="http://www.w3.org/2000/svg">
<path d="M187.123 291L200.389 320.744L187.123 349.765H128.851L117.823 321.875L128.851 291H187.123Z" fill="#E2E2E2"/>
<path d="M128.851 291V349.765H78C78 326.244 90.5391 309.853 100.636 300.468C108.187 293.449 118.542 291 128.851 291Z" fill="#007DCF"/>
<path d="M127.22 291C117.981 291 108.732 293.214 101.842 299.369C91.5686 308.546 78 325.297 78 349.765H92.0845C92.0845 310.392 127.22 291 127.22 291Z" fill="#155AC7"/>
<path d="M237.981 349.765H187.123V291C197.432 291 207.788 293.449 215.34 300.467C225.439 309.852 237.981 326.243 237.981 349.765Z" fill="#007DCF"/>
<path d="M98.144 349.766V329.754C98.144 326.837 100.509 324.473 103.426 324.473C106.343 324.473 108.707 326.837 108.707 329.754V349.766H98.144Z" fill="#155AC7"/>
<path d="M207.274 349.766V329.754C207.274 326.837 209.639 324.473 212.556 324.473C215.473 324.473 217.838 326.837 217.838 329.754V349.766H207.274Z" fill="#155AC7"/>
<path d="M187 255V290.777C187 303.883 178.362 314.952 166.55 318.672C163.818 319.557 160.909 320 158 320C141.957 320 129 306.982 129 290.865V255.089L187 255Z" fill="#FFCBBE"/>
<path d="M66.5999 177.7C66.5999 192.8 55.5999 205.3 41.0999 207.6C39.4999 207.9 37.8999 208 36.1999 208C19.3999 208 5.8999 194.4 5.8999 177.7C5.8999 161 19.4999 147.4 36.1999 147.4C37.8999 147.4 39.4999 147.5 41.0999 147.8C55.4999 150.1 66.5999 162.6 66.5999 177.7Z" fill="#FFDDCE"/>
<path d="M248.5 177.7C248.5 192.8 259.5 205.3 274 207.6C275.6 207.9 277.2 208 278.9 208C295.7 208 309.2 194.4 309.2 177.7C309.2 161 295.6 147.4 278.9 147.4C277.2 147.4 275.6 147.5 274 147.8C259.5 150.1 248.5 162.6 248.5 177.7Z" fill="#FFDDCE"/>
<path d="M66.6001 177.7C66.6001 192.8 55.6001 205.3 41.1001 207.6C38.5001 198.1 37.1001 188 37.1001 177.7C37.1001 167.4 38.5001 157.3 41.1001 147.8C55.5001 150.1 66.6001 162.6 66.6001 177.7Z" fill="#FFCBBE"/>
<path d="M248.5 177.7C248.5 192.8 259.5 205.3 274 207.6C276.6 198.1 278 188 278 177.7C278 167.4 276.6 157.3 274 147.8C259.5 150.1 248.5 162.6 248.5 177.7Z" fill="#FFCBBE"/>
<path d="M36.1999 188.5C42.1646 188.5 46.9999 183.665 46.9999 177.7C46.9999 171.736 42.1646 166.9 36.1999 166.9C30.2352 166.9 25.3999 171.736 25.3999 177.7C25.3999 183.665 30.2352 188.5 36.1999 188.5Z" fill="#FFCBBE"/>
<path d="M278.8 188.5C284.765 188.5 289.6 183.665 289.6 177.7C289.6 171.736 284.765 166.9 278.8 166.9C272.835 166.9 268 171.736 268 177.7C268 183.665 272.835 188.5 278.8 188.5Z" fill="#FFCBBE"/>
<path d="M271.5 161.8C271.5 218.5 230.1 265.6 175.8 274.3C169.8 275.3 163.7 275.8 157.5 275.8C94.5 275.8 43.5 224.8 43.5 161.8V98H271.5V161.8Z" fill="#FFDDCE"/>
<path d="M177.6 274C177 274.1 176.4 274.2 175.8 274.3C169.8 275.3 163.7 275.8 157.5 275.8C94.5 275.8 43.5 224.8 43.5 161.8V97H83.7V161.7C83.7 217.9 124.3 264.5 177.6 274Z" fill="#FFCBBE"/>
<path d="M246.7 161.8H271.5V102.2H248.8L246.7 161.8Z" fill="#21386B"/>
<path d="M68.4001 161.8H43.6001V102.2H66.3001L68.4001 161.8Z" fill="#21386B"/>
<path d="M199.1 172.7C208.158 172.7 215.5 165.358 215.5 156.3C215.5 147.243 208.158 139.9 199.1 139.9C190.043 139.9 182.7 147.243 182.7 156.3C182.7 165.358 190.043 172.7 199.1 172.7Z" fill="#2B4D66"/>
<path d="M206 160.4C209.866 160.4 213 157.266 213 153.4C213 149.534 209.866 146.4 206 146.4C202.134 146.4 199 149.534 199 153.4C199 157.266 202.134 160.4 206 160.4Z" fill="white"/>
<path d="M116 172.7C125.058 172.7 132.4 165.358 132.4 156.3C132.4 147.243 125.058 139.9 116 139.9C106.943 139.9 99.6001 147.243 99.6001 156.3C99.6001 165.358 106.943 172.7 116 172.7Z" fill="#2B4D66"/>
<path d="M122.8 160.4C126.666 160.4 129.8 157.266 129.8 153.4C129.8 149.534 126.666 146.4 122.8 146.4C118.934 146.4 115.8 149.534 115.8 153.4C115.8 157.266 118.934 160.4 122.8 160.4Z" fill="white"/>
<path d="M157.5 201.8C157.5 201.8 132.1 182.6 106.5 192.2C80.8998 201.8 69.7998 235.4 47.2998 235.4C47.3998 235.4 129.4 250.4 157.5 201.8Z" fill="#21386B"/>
<path d="M157.5 201.8C157.5 201.8 182.9 182.6 208.5 192.2C234.1 201.8 245.2 235.4 267.7 235.4C267.7 235.4 185.7 250.4 157.5 201.8Z" fill="#21386B"/>
<path d="M273.6 65.0998L268.8 93.6998L157.5 108L46.4001 93.7998L41.6001 65.1998L157.6 52.2998L273.6 65.0998Z" fill="#007DCF"/>
<path d="M68.5001 93.7998L63.7001 65.1998L168.7 53.4998L157.6 52.2998L41.6001 65.1998L46.4001 93.7998L157.5 108L168.6 106.6L68.5001 93.7998Z" fill="#155AC7"/>
<path d="M281.7 16.9L273.5 65.1H41.4998L33.2998 16.9C31.7998 8 40.8998 0 52.5998 0H262.4C274.2 0 283.2 8 281.7 16.9Z" fill="#E2E2E2"/>
<path d="M74.6998 0H52.5998C40.8998 0 31.7998 8 33.2998 16.9L41.4998 65.1H63.5998L55.3998 16.9C53.8998 8 62.9998 0 74.6998 0Z" fill="#C1BFC5"/>
<path d="M307.2 93.7998H7.9C3.6 93.7998 0 96.4998 0 99.8998V111.3C0 114.7 3.5 117.4 7.9 117.4H307.2C311.5 117.4 315.1 114.7 315.1 111.3V99.8998C315.1 96.4998 311.5 93.7998 307.2 93.7998Z" fill="#FC5C70"/>
<path d="M22.1 111.3V99.8998C22.1 96.4998 25.6 93.7998 30 93.7998H7.9C3.6 93.7998 0 96.4998 0 99.8998V111.3C0 114.7 3.5 117.4 7.9 117.4H30C25.6 117.3 22.1 114.6 22.1 111.3Z" fill="#F5334C"/>
</svg>
