<svg width="350" height="273" viewBox="0 0 350 273" fill="none" xmlns="http://www.w3.org/2000/svg">
<path d="M177.71 1.88867C175.71 1.88867 173.51 3.18867 171.11 5.38867C169.31 7.08867 167.31 9.28865 165.31 11.9886C163.91 13.7886 162.61 15.6887 161.21 17.8887C160.51 18.9887 159.81 20.0887 159.11 21.1887C157.71 23.3887 156.21 25.7887 154.81 28.2887C140.41 53.1887 125.51 87.1887 121.31 91.7887C120.11 93.0887 118.81 94.0887 117.61 94.8887C113.81 97.1887 109.81 97.5887 106.11 97.8887C104.41 97.9887 102.81 98.0887 101.21 98.3887C98.7098 98.7887 96.3098 99.7887 94.1098 101.289C93.0098 101.989 91.9098 102.889 90.9098 103.789C90.4098 104.289 89.9098 104.789 89.4098 105.289C88.9098 105.789 88.5098 106.389 88.0098 106.989C87.5098 107.589 87.1098 108.289 86.6098 108.989C86.5098 109.189 86.4098 109.389 86.2098 109.589C85.8098 110.089 85.5098 110.689 85.1098 111.189C85.0098 111.389 84.9098 111.589 84.7098 111.789C84.3098 112.389 83.9098 113.089 83.5098 113.689C83.4098 113.789 83.3098 113.989 83.2098 114.089C82.8098 114.789 82.3098 115.589 81.9098 116.289C81.9098 116.389 81.8098 116.489 81.8098 116.589C81.4098 117.289 81.0098 117.989 80.6098 118.689C69.9098 137.289 57.1098 165.989 45.6098 193.789C37.9098 212.089 34.0098 231.789 34.0098 251.689C34.0098 263.289 43.4098 272.789 55.1098 272.789H216.81H278.31C303.61 272.789 324.11 252.289 324.11 226.989V219.289C324.11 202.189 320.21 185.189 312.11 170.189C308.61 163.689 304.91 158.489 301.01 155.089C300.91 154.989 300.71 154.889 300.51 154.689C300.21 154.389 299.91 154.189 299.61 153.989C299.01 153.589 298.51 153.189 297.91 152.889C296.81 152.289 295.81 151.589 294.81 150.789C294.51 150.589 294.21 150.389 294.01 150.189C276.81 137.489 263.81 111.689 254.11 94.8887C249.71 85.7887 245.31 79.2887 240.91 79.2887C240.01 79.2887 238.91 79.7887 237.81 80.4886C235.21 81.9886 232.01 85.1887 228.31 89.5887C215.61 81.5887 215.11 38.8887 203.91 38.8887C198.31 38.8887 194.01 23.8887 188.51 13.0887C188.51 13.0887 188.51 13.0886 188.51 12.9886C188.51 12.9886 188.51 12.9886 188.41 12.9886C187.91 12.9886 186.91 9.88872 186.11 8.68872C184.51 6.08872 182.71 3.98867 180.81 2.88867C179.91 2.18867 178.91 1.88867 177.71 1.88867C177.81 1.88867 177.81 1.88867 177.71 1.88867Z" fill="#424242"/>
<path d="M81.81 114.988C81.81 114.888 81.91 114.788 81.91 114.688C82.41 113.988 82.81 113.188 83.21 112.488C83.31 112.388 83.41 112.188 83.51 112.088C83.91 111.388 84.31 110.788 84.71 110.188C84.81 109.988 84.91 109.788 85.11 109.588C85.51 108.988 85.81 108.488 86.21 107.988C86.31 107.788 86.41 107.588 86.61 107.388C87.11 106.688 87.51 106.088 88.01 105.388C88.41 104.788 88.91 104.188 89.41 103.688C89.91 103.188 90.41 102.588 90.91 102.188C91.91 101.188 93.01 100.388 94.11 99.6882C96.31 98.1882 98.71 97.2882 101.21 96.7882C102.81 96.4882 104.41 96.3882 106.11 96.2882C109.91 95.9882 113.81 95.5882 117.61 93.2882C118.91 92.4882 120.11 91.4882 121.31 90.1882C125.61 85.6882 140.41 51.5882 154.81 26.6882C156.31 24.1882 157.71 21.7883 159.11 19.5883C159.81 18.4883 160.51 17.3882 161.21 16.2882C162.61 14.1882 164.01 12.1882 165.31 10.3882C167.31 7.68819 169.31 5.48822 171.11 3.78822C173.61 1.58822 175.91 0.288193 177.81 0.388193C178.81 0.388193 179.81 0.688217 180.81 1.28822C182.71 2.38822 184.51 4.48827 186.11 7.08827C186.91 8.38827 187.71 9.78819 188.51 11.3882C188.11 11.8882 188.11 11.8882 188.51 11.3882C188.51 11.3882 188.51 11.3882 188.51 11.4882C194.01 22.3882 198.31 37.2882 203.91 37.2882C215.11 37.2882 215.51 80.0882 228.31 87.9882C232.01 83.5882 235.21 80.3882 237.81 78.8882C239.01 78.1882 240.01 77.6882 240.91 77.6882C245.21 77.6882 249.61 84.1882 254.11 93.2882C264.61 111.288 278.91 139.788 298.01 151.188C299.01 151.788 300.11 152.588 301.11 153.388C297.41 160.688 291.11 168.488 281.31 165.288C264.41 159.688 256.01 165.588 247.41 176.688C246.41 177.888 245.41 178.888 244.31 179.588C235.51 185.388 222.91 176.288 218.01 172.788C212.51 168.988 218.31 149.388 201.31 156.388C201.31 156.388 200.71 156.588 200.51 156.688C183.31 164.188 172.51 139.988 173.61 113.388C174.71 86.7882 135.91 104.488 127.01 111.088C120.21 116.188 93.31 118.088 80.71 116.988C81.01 116.388 81.41 115.688 81.81 114.988Z" fill="#7C7C7C"/>
<path d="M344.61 230.089C338.31 219.689 327.31 211.688 316.31 211.688C308.01 211.688 300.51 215.488 294.61 221.688C293.91 222.388 293.01 222.388 292.31 221.688C290.81 220.088 288.91 219.089 287.01 219.089C285.11 219.089 283.31 219.988 281.81 221.488C281.21 222.088 280.41 222.089 279.71 221.589C275.91 218.589 271.51 216.888 266.71 216.888C260.01 216.888 253.91 220.288 249.51 225.788C248.81 226.588 247.71 226.588 247.01 225.788C245.41 223.888 243.41 222.688 241.31 222.688C239.01 222.688 236.81 224.088 235.11 226.288C234.41 227.188 233.51 226.788 232.61 226.388C214.51 219.288 201.11 225.589 198.51 238.089C198.21 239.489 198.01 240.989 198.01 242.589C197.31 258.889 208.31 272.488 221.81 272.488H319.41C329.41 272.488 341.81 268.488 347.01 259.188C352.11 250.288 350.21 239.189 344.61 230.089Z" fill="#3EDC81"/>
<path d="M74.1096 272.589C74.1096 272.589 59.3096 174.289 97.8096 166.889C97.8096 166.889 112.01 159.489 119.91 151.489C127.81 143.489 141.51 141.889 148.91 156.289C156.31 170.589 170.01 155.389 174.71 174.189C179.41 192.989 191.01 186.589 184.71 221.089C178.41 255.389 187.21 272.589 187.21 272.589" fill="black"/>
<path d="M1.30975 246.789C-2.39025 257.189 1.70975 270.289 14.1098 272.589H52.6098C59.3098 272.589 68.2097 269.589 71.5098 263.289C74.8098 257.089 73.5098 249.589 69.8098 243.389C65.5098 236.289 58.0098 230.889 50.4098 230.889C44.8098 230.889 39.6098 233.489 35.6098 237.689C35.2098 238.189 34.5098 238.189 34.0098 237.689C32.9098 236.589 31.7097 235.889 30.4097 235.889C29.1098 235.889 27.9097 236.489 26.9097 237.589C26.5098 237.989 25.9097 237.989 25.5097 237.689C22.9097 235.689 19.9097 234.489 16.6098 234.489C15.1098 234.489 13.6097 234.789 12.2097 235.189" fill="#3EDC81"/>
</svg>
