<svg width="350" height="350" viewBox="0 0 350 350" fill="none" xmlns="http://www.w3.org/2000/svg">
<g clip-path="url(#clip0_834_2374)">
<path d="M253.927 335.733C258.936 341.641 254.297 350 246.552 350H103.447C95.7017 350 91.0629 341.641 96.0715 335.733C110.57 318.632 130.523 306.304 153.247 301.442V263.743H196.753V301.442C219.476 306.304 239.429 318.632 253.927 335.733Z" fill="#61A2F9"/>
<path d="M165.268 263.739V301.442C152.45 307.566 141.607 325.552 135.132 350H103.447C95.7017 350 91.063 341.641 96.0715 335.733C110.57 318.631 130.523 306.302 153.245 301.442V263.739H165.268Z" fill="#5490F9"/>
<path d="M197.338 287.172H151.847C146.875 287.172 142.846 283.142 142.846 278.171V272.742C142.846 267.771 146.875 263.741 151.847 263.741H197.339C202.31 263.741 206.34 267.771 206.34 272.742V278.171C206.339 283.142 202.309 287.172 197.338 287.172Z" fill="#61A2F9"/>
<path d="M178.502 287.175H151.846C146.875 287.175 142.846 283.146 142.846 278.175V272.746C142.846 267.775 146.875 263.739 151.846 263.739H178.502C173.531 263.739 169.502 267.775 169.502 272.746V278.175C169.502 283.146 173.53 287.175 178.502 287.175Z" fill="#5490F9"/>
<path d="M271.697 214.647C287.08 214.647 299.551 202.176 299.551 186.793C299.551 171.41 287.08 158.939 271.697 158.939C256.314 158.939 243.843 171.41 243.843 186.793C243.843 202.176 256.314 214.647 271.697 214.647Z" fill="#FFCBBE"/>
<path d="M78.3029 214.647C93.6861 214.647 106.157 202.176 106.157 186.793C106.157 171.41 93.6861 158.939 78.3029 158.939C62.9197 158.939 50.4492 171.41 50.4492 186.793C50.4492 202.176 62.9197 214.647 78.3029 214.647Z" fill="#FFCBBE"/>
<path d="M93.2579 194.632C91.3465 194.632 89.4926 193.623 88.4973 191.835C86.7897 188.763 83.8537 187.059 79.5231 186.624C75.9794 186.268 72.9121 186.967 72.8827 186.974C69.9624 187.689 67.0174 185.905 66.3017 182.986C65.5853 180.068 67.3702 177.121 70.2891 176.405C70.7758 176.286 75.2028 175.253 80.6114 175.797C88.524 176.592 94.5396 180.309 98.0082 186.546C99.469 189.172 98.5236 192.485 95.8972 193.946C95.0605 194.41 94.1527 194.631 93.2579 194.632Z" fill="#EAAC9D"/>
<path d="M256.748 194.631C255.854 194.631 254.946 194.41 254.108 193.944C251.483 192.484 250.537 189.171 251.998 186.545C255.467 180.307 261.483 176.591 269.396 175.796C274.802 175.252 279.23 176.284 279.718 176.404C282.636 177.12 284.422 180.067 283.705 182.985C282.99 185.896 280.055 187.679 277.147 186.978C277.039 186.953 273.857 186.235 270.224 186.65C266.032 187.13 263.182 188.826 261.509 191.833C260.514 193.622 258.66 194.631 256.748 194.631Z" fill="#EAAC9D"/>
<path d="M92.2537 130.677L101.901 72.9922H245.923L257.748 133.511V189.023C257.748 231.135 223.609 265.273 181.497 265.273H168.502C126.39 265.273 92.251 231.135 92.251 189.023L92.2537 130.677Z" fill="#FFDDCE"/>
<path d="M198.828 263.288C193.259 264.589 187.459 265.271 181.503 265.271H168.509C126.391 265.271 92.2539 231.134 92.2539 189.023V130.677C92.2539 85.2262 129.098 48.3818 174.549 48.3818H175.456C183.577 48.3818 191.417 49.5562 198.828 51.7567C164.761 61.8186 139.905 93.3473 139.905 130.677V189.023C139.905 225.171 165.063 255.448 198.828 263.288Z" fill="#FFCBBE"/>
<path d="M214.302 184.114C219.398 184.114 223.529 178.455 223.529 171.473C223.529 164.491 219.398 158.831 214.302 158.831C209.206 158.831 205.075 164.491 205.075 171.473C205.075 178.455 209.206 184.114 214.302 184.114Z" fill="#2B4D66"/>
<path d="M135.697 184.114C140.793 184.114 144.925 178.455 144.925 171.473C144.925 164.491 140.793 158.831 135.697 158.831C130.601 158.831 126.47 164.491 126.47 171.473C126.47 178.455 130.601 184.114 135.697 184.114Z" fill="#2B4D66"/>
<path d="M225.074 149.57C223.722 149.57 222.37 149.055 221.339 148.023C219.313 145.998 216.621 144.882 213.756 144.882C210.893 144.882 208.2 145.998 206.175 148.023C204.112 150.085 200.768 150.086 198.705 148.023C196.642 145.961 196.642 142.616 198.704 140.553C202.725 136.533 208.07 134.318 213.756 134.318C219.442 134.318 224.788 136.533 228.808 140.553C230.87 142.616 230.87 145.96 228.807 148.023C227.777 149.055 226.426 149.57 225.074 149.57Z" fill="#AA7A63"/>
<path d="M146.765 149.57C145.413 149.57 144.061 149.055 143.03 148.023C141.004 145.998 138.312 144.882 135.447 144.882C132.582 144.882 129.89 145.998 127.864 148.023C125.802 150.086 122.458 150.086 120.394 148.023C118.332 145.96 118.332 142.616 120.395 140.553C124.415 136.533 129.761 134.318 135.446 134.318C141.133 134.318 146.478 136.533 150.498 140.553C152.561 142.616 152.561 145.96 150.498 148.023C149.468 149.055 148.116 149.57 146.765 149.57Z" fill="#AA7A63"/>
<path d="M175 222.813C165.246 222.813 156.5 216.296 153.729 206.964C152.899 204.168 154.493 201.228 157.289 200.398C160.088 199.567 163.025 201.162 163.855 203.958C165.305 208.84 169.888 212.25 175 212.25C180.106 212.25 184.689 208.838 186.146 203.953C186.98 201.157 189.924 199.569 192.717 200.4C195.513 201.233 197.103 204.175 196.269 206.971C193.488 216.298 184.742 222.813 175 222.813Z" fill="#EAA598"/>
<path d="M257.748 61.6366V133.511C257.748 142.174 245.457 143.84 243.137 135.508C243.13 135.493 243.13 135.48 243.122 135.465L218.555 45.4785H241.59C250.512 45.4785 257.748 52.7137 257.748 61.6366Z" fill="#986B54"/>
<path d="M92.2515 61.6357C92.2515 52.7121 99.4852 45.4783 108.41 45.4783C111.925 45.4783 115.146 46.4962 117.847 48.2202C124.433 20.5682 149.295 0.00292969 178.963 0.00292969H256.452C274.629 0.00292969 289.364 14.7378 289.364 32.9145C289.364 61.0793 266.532 83.9106 238.368 83.9106H147.175C131.693 83.9106 118.124 94.2705 114.046 109.207L92.2515 61.6357Z" fill="#AA7A63"/>
<path d="M221.136 83.9125H147.173C137.983 83.9125 129.461 87.5615 123.203 93.6578C121.881 94.9409 120.661 96.3375 119.567 97.8202C117.085 101.167 115.187 105.006 114.041 109.204L106.876 135.466C106.861 135.509 106.855 135.55 106.841 135.586C104.472 143.834 92.251 142.146 92.251 133.512V61.6369C92.251 52.714 99.4861 45.4788 108.409 45.4788C110.167 45.4788 111.854 45.7317 113.429 46.2027C115.019 46.6737 116.495 47.356 117.845 48.2207C124.433 20.5666 149.296 0 178.961 0H203.051C184.875 0 170.137 14.7376 170.137 32.9137C170.137 46.9977 175.846 59.7454 185.071 68.9773C194.304 78.2024 207.052 83.9125 221.136 83.9125Z" fill="#986B54"/>
</g>
<defs>
<clipPath id="clip0_834_2374">
<rect width="350" height="350" fill="white"/>
</clipPath>
</defs>
</svg>
