<svg width="34" height="33" viewBox="0 0 34 33" fill="none" xmlns="http://www.w3.org/2000/svg">
<rect opacity="0.2" x="0.5" y="0.498657" width="33" height="32" rx="4" fill="white"/>
<path fill-rule="evenodd" clip-rule="evenodd" d="M16.5 26.4987C22.0228 26.4987 26.5 22.0215 26.5 16.4987C26.5 10.9758 22.0228 6.49866 16.5 6.49866C10.9772 6.49866 6.5 10.9758 6.5 16.4987C6.5 22.0215 10.9772 26.4987 16.5 26.4987ZM17.8585 20.095C17.9715 20.0948 18.0859 20.0946 18.2022 20.0946L15.3821 14.2899L13.5403 10.4987L12.7428 12.148L12.7356 12.1629C11.4564 14.8088 10.1826 17.4435 8.90039 20.0951C9.03488 20.0951 9.16653 20.0947 9.29613 20.0943H9.29652H9.29691H9.29702C9.63588 20.0933 9.96064 20.0923 10.2852 20.0985C10.4252 20.1011 10.4939 20.0599 10.5503 19.9415C10.7682 19.4829 10.9891 19.0254 11.21 18.5679C11.4055 18.163 11.601 17.7582 11.7945 17.3524C11.8448 17.2479 11.9026 17.2084 12.03 17.2092C13.018 17.2145 14.0061 17.2162 14.9936 17.2084C15.1671 17.2071 15.2555 17.2522 15.3269 17.4032C15.7316 18.258 16.1476 19.1075 16.565 19.9571C16.5918 20.0113 16.6576 20.0877 16.707 20.0886C17.085 20.0963 17.463 20.0957 17.8585 20.095ZM13.8687 14.4121L14.5842 15.8833H12.509L12.545 15.8088L12.5455 15.8078L12.5459 15.8071C12.7082 15.4722 12.8659 15.1466 13.0232 14.8211L13.5435 13.7433L13.8687 14.4121ZM22.6785 14.3477V14.7942C22.1976 14.5369 21.7125 14.3803 21.1772 14.3529C20.6408 14.3256 20.1355 14.4145 19.6528 14.6258C19.1686 14.838 18.7757 15.1509 18.4603 15.5496C17.6913 16.5215 17.6917 17.9113 18.4574 18.8849C18.8673 19.4065 19.399 19.777 20.0645 19.9636C20.9699 20.217 21.8376 20.1068 22.679 19.6438V20.0842H24.1004V14.3477H22.6785ZM22.678 17.2184C22.679 18.0727 21.9245 18.7682 20.9981 18.7678C20.1007 18.7691 19.3186 18.1252 19.3181 17.2197C19.3181 16.3367 20.0617 15.678 20.9967 15.6685C21.9156 15.6589 22.6771 16.3684 22.678 17.2184Z" fill="white"/>
</svg>
