<svg width="34" height="33" viewBox="0 0 34 33" fill="none" xmlns="http://www.w3.org/2000/svg">
<rect opacity="0.2" x="0.5" y="0.498657" width="33" height="32" rx="4" fill="white"/>
<path d="M16.7022 26.4651C16.5721 26.4651 16.442 26.4651 16.3119 26.4651C15.5818 26.0995 14.8521 25.7338 14.122 25.3686C11.7644 24.1898 9.40557 23.0129 7.05148 21.8271C6.89002 21.7459 6.72503 21.6217 6.62667 21.4744C6.36371 21.0813 6.52517 20.5875 6.97231 20.3618C7.95165 19.8672 8.93452 19.3793 9.91581 18.8883C9.98126 18.8554 10.0447 18.8189 10.1325 18.7715C10.0369 18.7209 9.97499 18.6868 9.9119 18.6555C8.95411 18.1762 7.9975 17.6938 7.03658 17.2196C6.71837 17.0628 6.51223 16.8399 6.51223 16.4695C6.51184 16.1 6.71602 15.877 7.03502 15.7198C8.00181 15.2437 8.96391 14.7581 9.92757 14.2753C9.98831 14.2451 10.0455 14.2087 10.1255 14.1636C10.0397 14.117 9.9793 14.0817 9.91699 14.0504C8.94706 13.5656 7.97752 13.0804 7.00641 12.598C6.6784 12.435 6.49107 12.1861 6.51263 11.8099C6.53222 11.4678 6.73287 11.2624 7.02914 11.1147C10.0099 9.62865 12.9902 8.14181 15.9643 6.64243C16.344 6.4508 16.6716 6.4508 17.0498 6.64204C19.3036 7.78088 21.5648 8.90443 23.8233 10.0339C24.5663 10.4054 25.2991 10.7996 26.0547 11.1441C26.583 11.3847 26.5806 12.2218 26.2283 12.4601C26.1319 12.5251 26.0308 12.5859 25.9269 12.638C24.9809 13.1122 24.0341 13.5836 23.0877 14.0566C23.0273 14.0868 22.9697 14.1233 22.8906 14.1683C22.9768 14.215 23.0371 14.2502 23.0994 14.2812C24.0631 14.7632 25.0272 15.2449 25.9908 15.7269C26.2667 15.8648 26.4564 16.0439 26.4725 16.3923C26.4905 16.7901 26.3424 17.0429 25.9897 17.2157C25.0221 17.6899 24.0608 18.177 23.0975 18.6594C23.0324 18.6919 22.9697 18.7292 22.8843 18.7762C22.9815 18.8267 23.0442 18.8601 23.1077 18.8918C24.0655 19.3715 25.0244 19.848 25.9791 20.3336C26.1143 20.4025 26.2534 20.4946 26.3459 20.6118C26.6492 20.9966 26.487 21.5704 26.0155 21.8071C24.5769 22.5293 23.1359 23.2473 21.6961 23.9676C20.0309 24.7996 18.3666 25.6323 16.7022 26.4651ZM9.05287 11.8581C9.14026 11.9059 9.18964 11.9345 9.24058 11.96C11.6041 13.1412 13.968 14.3204 16.3295 15.5055C16.4608 15.5713 16.558 15.5697 16.6885 15.5039C18.8874 14.3999 21.0894 13.3015 23.2907 12.2014C23.5031 12.0952 23.7143 11.9871 23.9577 11.864C23.8605 11.8123 23.7951 11.7754 23.728 11.7417C21.3818 10.5688 19.0351 9.39743 16.6916 8.21941C16.5509 8.14886 16.4487 8.15709 16.3146 8.22489C14.633 9.07099 12.9487 9.91159 11.2647 10.753C10.5397 11.1159 9.81471 11.4776 9.05287 11.8581ZM9.05326 16.4648C9.1336 16.5083 9.1771 16.5338 9.22177 16.5561C11.6013 17.7467 13.9813 18.9361 16.3593 20.1294C16.4718 20.1858 16.5584 20.178 16.6669 20.1235C19.034 18.9365 21.4029 17.7526 23.7712 16.5679C23.8252 16.5408 23.8762 16.5079 23.9479 16.4664C23.8656 16.4217 23.8103 16.3896 23.7531 16.361C22.9345 15.9518 22.1138 15.5466 21.2983 15.1316C21.1686 15.0658 21.071 15.0618 20.9389 15.1285C19.6179 15.7951 18.2909 16.4495 16.971 17.1177C16.6454 17.2827 16.3511 17.2749 16.0274 17.1106C14.7083 16.4405 13.3829 15.7825 12.0571 15.1249C11.9858 15.0897 11.8729 15.0654 11.809 15.0967C10.8999 15.5403 9.99576 15.9945 9.05326 16.4648ZM9.0564 21.0727C9.11871 21.1091 9.14496 21.1264 9.17318 21.1405C11.5763 22.342 13.9786 23.5447 16.3844 24.74C16.4553 24.7753 16.5768 24.7678 16.6505 24.7314C19.0391 23.5432 21.4245 22.3491 23.8099 21.1554C23.8519 21.1342 23.8891 21.104 23.9471 21.0656C23.0164 20.6008 22.1123 20.1459 21.2027 19.7018C21.1396 19.6709 21.0271 19.6987 20.955 19.7348C19.6292 20.3916 18.3039 21.0488 16.9844 21.7185C16.6524 21.887 16.3542 21.8843 16.0231 21.7158C14.7043 21.0448 13.3774 20.3896 12.0555 19.7242C11.9462 19.6689 11.858 19.6638 11.7475 19.7222C11.4434 19.8825 11.133 20.031 10.8254 20.185C10.247 20.475 9.66814 20.7658 9.0564 21.0727Z" fill="white"/>
</svg>
