<svg width="24" height="24" viewBox="0 0 24 24" fill="none" xmlns="http://www.w3.org/2000/svg">
<path fill-rule="evenodd" clip-rule="evenodd" d="M11.7984 1.25391C11.9329 1.21466 12.0757 1.21468 12.2102 1.25396L21.0223 3.82815C21.3357 3.91968 21.551 4.20695 21.551 4.53337V9.81242C21.551 15.6773 17.7977 20.8841 12.2335 22.7381C12.0828 22.7883 11.9198 22.7883 11.7691 22.7381C6.20345 20.8842 2.44897 15.6763 2.44897 9.80997V4.53337C2.44897 4.20688 2.66443 3.91957 2.97784 3.8281L11.7984 1.25391ZM3.91836 5.0843V9.80997C3.91836 14.9617 7.16383 19.5443 12.0012 21.2641C16.8372 19.5442 20.0816 14.9628 20.0816 9.81242V5.08415L12.0041 2.72455L3.91836 5.0843Z" fill="#414853"/>
<path fill-rule="evenodd" clip-rule="evenodd" d="M17.4175 8.29682C17.7044 8.58374 17.7044 9.04892 17.4175 9.33584L11.5399 15.2134C11.253 15.5003 10.7879 15.5003 10.5009 15.2134L7.07236 11.7848C6.78545 11.4979 6.78545 11.0327 7.07236 10.7458C7.35928 10.4589 7.82446 10.4589 8.11138 10.7458L11.0204 13.6549L16.3785 8.29682C16.6654 8.00991 17.1306 8.00991 17.4175 8.29682Z" fill="#414853"/>
</svg>
