<svg width="350" height="350" viewBox="0 0 350 350" fill="none" xmlns="http://www.w3.org/2000/svg">
<g clip-path="url(#clip0_834_2808)">
<path d="M175 350C271.65 350 350 271.65 350 175C350 78.3502 271.65 0 175 0C78.3502 0 0 78.3502 0 175C0 271.65 78.3502 350 175 350Z" fill="#00ADFF"/>
<path d="M245 68.542C271.25 68.542 293.125 90.417 293.125 116.667C293.125 138.542 277.083 158.959 255.208 163.334C272.708 207.084 253.75 256.667 210 275.625C166.25 294.584 116.667 274.167 97.7082 230.417C88.9582 208.542 88.9582 185.209 97.7082 164.792C69.9999 157.5 52.4999 132.709 58.3332 106.459C62.7082 84.5837 83.1249 68.542 105 68.542C131.25 68.542 151.667 88.9587 153.125 113.75C160.417 112.292 167.708 110.834 175 110.834C182.292 110.834 189.583 112.292 196.875 113.75C196.875 88.9587 218.75 68.542 245 68.542Z" fill="white"/>
</g>
<defs>
<clipPath id="clip0_834_2808">
<rect width="350" height="350" fill="white"/>
</clipPath>
</defs>
</svg>
