<svg width="350" height="350" viewBox="0 0 350 350" fill="none" xmlns="http://www.w3.org/2000/svg">
<g clip-path="url(#clip0_834_2755)">
<path d="M283.097 143.629L194.553 55.1264L194.047 53.5493C192.748 49.499 192.09 45.2826 192.09 41.0156C192.09 18.3996 210.489 0 233.105 0C246.192 0 258.252 6.23437 265.917 16.627C270.741 14.6829 275.844 13.6719 280.957 13.6719C303.573 13.6719 321.973 32.0715 321.973 54.6875C321.973 63.3719 319.264 71.6734 314.249 78.6133C319.264 85.5531 321.973 93.8547 321.973 102.539C321.973 122.993 306.7 140.464 286.447 143.179L283.097 143.629Z" fill="#FF4949"/>
<path d="M63.553 143.179C43.3002 140.464 28.0273 122.993 28.0273 102.539C28.0273 93.8547 30.7357 85.5531 35.7513 78.6133C30.7357 71.6734 28.0273 63.3719 28.0273 54.6875C28.0273 32.0715 46.427 13.6719 69.043 13.6719C74.1556 13.6719 79.2586 14.6829 84.0827 16.627C91.7479 6.23437 103.808 0 116.895 0C139.511 0 157.91 18.3996 157.91 41.0156C157.91 45.2826 157.252 49.499 155.953 53.5493L155.447 55.1264L66.9033 143.629L63.553 143.179Z" fill="#FF8856"/>
<path d="M175 42.3828C109.036 42.3828 55.3711 96.0477 55.3711 162.012V230.371C55.3711 296.335 109.036 350 175 350C240.964 350 294.629 296.335 294.629 230.371V162.012C294.629 96.0477 240.964 42.3828 175 42.3828Z" fill="#F2FDE0"/>
<path d="M175 42.3828V350C240.964 350 294.629 296.335 294.629 230.371V162.012C294.629 96.0477 240.964 42.3828 175 42.3828Z" fill="#D3F3DB"/>
<path d="M207.771 179.198C218.215 177.75 229.814 170.905 234.75 163.276C237.827 158.522 244.175 157.161 248.93 160.238C253.684 163.315 255.045 169.664 251.968 174.418C243.866 186.937 226.85 197.256 210.588 199.511C204.978 200.289 199.801 196.372 199.023 190.764C198.245 185.155 202.162 179.976 207.771 179.198Z" fill="#3E322E"/>
<path d="M175 267.969C191.989 267.969 205.762 254.196 205.762 237.207C205.762 220.218 191.989 206.445 175 206.445C158.011 206.445 144.238 220.218 144.238 237.207C144.238 254.196 158.011 267.969 175 267.969Z" fill="#FF4949"/>
<path d="M101.07 160.239C105.825 157.162 112.173 158.523 115.25 163.277C120.187 170.906 131.785 177.751 142.229 179.199C147.839 179.977 151.755 185.156 150.977 190.765C150.199 196.373 145.021 200.29 139.412 199.512C123.15 197.257 106.134 186.938 98.0323 174.419C94.9554 169.664 96.3158 163.316 101.07 160.239Z" fill="#3E322E"/>
<path d="M175 308.984C131.653 308.984 96.3867 273.718 96.3867 230.371C96.3867 224.708 100.978 220.117 106.641 220.117C112.304 220.117 116.895 224.708 116.895 230.371C116.895 262.41 142.961 288.477 175 288.477C207.039 288.477 233.105 262.41 233.105 230.371C233.105 224.708 237.696 220.117 243.359 220.117C249.022 220.117 253.613 224.708 253.613 230.371C253.613 273.718 218.347 308.984 175 308.984Z" fill="#FF4949"/>
<path d="M205.762 237.207C205.762 220.245 191.962 206.445 175 206.445V267.969C191.962 267.969 205.762 254.169 205.762 237.207Z" fill="#CC2E43"/>
<path d="M243.359 220.117C237.696 220.117 233.105 224.708 233.105 230.371C233.105 262.41 207.039 288.477 175 288.477V308.984C218.347 308.984 253.613 273.718 253.613 230.371C253.613 224.708 249.022 220.117 243.359 220.117Z" fill="#CC2E43"/>
</g>
<defs>
<clipPath id="clip0_834_2755">
<rect width="350" height="350" fill="white"/>
</clipPath>
</defs>
</svg>
