<svg width="276" height="350" viewBox="0 0 276 350" fill="none" xmlns="http://www.w3.org/2000/svg">
<path d="M23.8 93.7002V175.4H22.3C10 175.4 0 185.4 0 197.7C0 210 10 220 22.3 220H23.8C25 264.5 61.4 300.2 106.2 300.2H169.7C215.2 300.2 252.1 263.3 252.1 217.8V93.7002H23.8Z" fill="#FFDDCE"/>
<path d="M253.2 175.4H252.1V93.7002H219.5V217.8C219.5 263.3 182.6 300.2 137.1 300.2H169.7C214.5 300.2 250.9 264.5 252.1 220H253.2C259.7 220 265.5 217.2 269.6 212.8C273.3 208.8 275.5 203.5 275.5 197.7C275.5 185.4 265.5 175.4 253.2 175.4Z" fill="#FFCBBE"/>
<path d="M71.3 252.4C78.0931 252.4 83.6 246.893 83.6 240.1C83.6 233.307 78.0931 227.8 71.3 227.8C64.5069 227.8 59 233.307 59 240.1C59 246.893 64.5069 252.4 71.3 252.4Z" fill="#E8979F"/>
<path d="M204.6 252.4C211.393 252.4 216.9 246.893 216.9 240.1C216.9 233.307 211.393 227.8 204.6 227.8C197.807 227.8 192.3 233.307 192.3 240.1C192.3 246.893 197.807 252.4 204.6 252.4Z" fill="#E8979F"/>
<path d="M189.9 350V347.1C189.9 336.2 184.5 325.7 175.7 319.4C171.2 316.2 166 314.1 160.5 313.3C153.4 312.3 153.3 312.5 153.3 305.1V300.2H122.5V305.1C122.5 312.5 122.4 312.3 115.3 313.3C109.8 314.1 104.6 316.2 100.1 319.4C91.1999 325.8 85.8999 336.2 85.8999 347.1V350H189.9Z" fill="#F3D1BB"/>
<path d="M189.9 347.1V350H86V347.1C86 336.2 91.4 325.7 100.2 319.4C103.1 317.3 106.2 315.7 109.6 314.6C111.5 314 113.4 313.5 115.4 313.2C118.3 312.8 120 312.6 121 312L122.3 312.3L125.6 314.2C133.1 318.5 142.4 318.5 149.9 314.3L153.4 312.3L154.7 312C155.7 312.6 157.5 312.8 160.3 313.2C162.3 313.5 164.2 313.9 166.1 314.6C169.4 315.7 172.6 317.3 175.5 319.4C184.6 325.8 189.9 336.2 189.9 347.1Z" fill="#32B2AC"/>
<path d="M99.7 223.8C96.5 223.8 94 221.2 94 218.1V201.6C94 198.4 96.6 195.9 99.7 195.9C102.9 195.9 105.4 198.5 105.4 201.6V218C105.4 221.2 102.8 223.8 99.7 223.8Z" fill="#2B4D66"/>
<path d="M176.2 223.8C173 223.8 170.5 221.2 170.5 218.1V201.6C170.5 198.4 173.1 195.9 176.2 195.9C179.3 195.9 181.9 198.5 181.9 201.6V218C182 221.2 179.4 223.8 176.2 223.8Z" fill="#2B4D66"/>
<path d="M113.4 190H90.4002C87.2002 190 84.7002 187.4 84.7002 184.3C84.7002 181.1 87.3002 178.6 90.4002 178.6H113.5C116.7 178.6 119.2 181.2 119.2 184.3C119.2 187.5 116.6 190 113.4 190Z" fill="#FFB000"/>
<path d="M185.5 190H162.4C159.2 190 156.7 187.4 156.7 184.3C156.7 181.1 159.3 178.6 162.4 178.6H185.5C188.7 178.6 191.2 181.2 191.2 184.3C191.3 187.5 188.7 190 185.5 190Z" fill="#FFB000"/>
<path d="M206.9 36.9C172.4 26 147.5 7.1 140 0.9C138.6 -0.3 136.6 -0.3 135.2 0.9C127.7 7 103.5 25.3 69.1003 36.1C42.5003 44.5 24.3003 69.1 24.3003 97V127.2L42.6003 127.8V143L24.3003 143.6V161.8H46.3003C47.9003 161.8 49.4003 160.8 49.9003 159.2L59.5003 131C63.3003 119.8 73.8003 112.3 85.6003 112.4L190.8 113C202.5 113.1 212.8 120.5 216.6 131.6L226.2 160C226.7 161.6 228.2 162.6 229.8 162.6H251.8V97.8C251.7 69.9 233.5 45.3 206.9 36.9Z" fill="#FFE000"/>
<path d="M251.7 97.8V162.6H229.7C228.1 162.6 226.6 161.6 226.1 160L219 139C218.9 138.6 218.8 138.2 218.8 137.8V97.8C218.8 69.8 200.6 45.3 173.9 36.9C151.5 29.8 133.2 19.4 121 11.2C127.7 6.8 132.5 3.1 135.2 0.9C136.6 -0.3 138.6 -0.3 140 0.9C147.6 7.1 172.4 26 206.9 36.9C233.5 45.3 251.7 69.8 251.7 97.8Z" fill="#FFB000"/>
</svg>
