<svg width="350" height="350" viewBox="0 0 350 350" fill="none" xmlns="http://www.w3.org/2000/svg">
<path d="M350 175C350 204.292 342.802 231.909 330.08 256.163C313.988 286.843 289.058 312.163 258.672 328.733C233.816 342.289 205.311 350 175 350C78.3535 350 0 271.646 0 175C0 78.3535 78.3535 0 175 0C224.376 0 268.98 20.4531 300.795 53.3408C312.382 65.3105 322.273 78.9414 330.08 93.8301C342.802 118.091 350 145.708 350 175Z" fill="#73D4FF"/>
<path d="M234.165 171.548L191.939 213.773C187.264 218.442 181.132 220.787 175.007 220.787C168.882 220.787 162.75 218.442 158.074 213.773L115.842 171.548L175 112.376L234.165 171.548Z" fill="#FFDC00"/>
<path d="M175 112V216.78C168.5 216.78 163.192 213.751 158.687 209.272L118 168.764L175 112Z" fill="#FEC108"/>
<path d="M330.08 0V256.163C330.08 309.5 293 328.733 258.672 328.733C219.823 328.46 188.296 296.769 188.296 257.858V230.535H217.581V257.858C217.581 280.8 236.243 299.455 259.185 299.455C282.126 299.455 300.788 280.8 300.788 257.858V0H330.08Z" fill="#7F8E94"/>
<path d="M269.186 299.455C292.127 299.455 310.789 280.793 310.789 257.852V0H300.788V257.852C297.5 284 279.5 297 258.5 299.455C260.147 299.653 267.497 299.455 269.186 299.455Z" fill="#545C60"/>
<path d="M197.886 258.5V231.519H188.002V258.5C187.5 297.5 216 329.5 258.063 328.519C259.725 328.519 261.373 328.458 263.002 328.343C226.674 325.804 197.886 295.447 197.886 258.5Z" fill="#545C60"/>
<path d="M318.944 86.6655L316.155 86.3032C222.441 74.1489 127.559 74.1489 33.8447 86.3032L31.0557 86.6655C13.2891 88.9692 0 104.097 0 122.007V183.298C0 194.482 7.73145 204.182 18.6348 206.677L87.0352 222.325C92.5928 223.596 98.2734 224.239 103.975 224.239C112.998 224.239 121.338 219.426 125.856 211.606L161.957 149.078C167.754 139.036 182.246 139.036 188.043 149.078L224.144 211.606C228.655 219.419 236.995 224.239 246.025 224.239C251.727 224.239 257.407 223.596 262.965 222.325L331.358 206.677C342.262 204.182 349.993 194.482 349.993 183.298V122.007C350 104.097 336.704 88.9692 318.944 86.6655Z" fill="#0377BC"/>
<path d="M158.635 113.538L114.851 195.282C111.48 202.022 103.913 205.57 96.5781 203.841L80.042 199.944L30.8643 188.371C24.541 186.888 20.0703 181.241 20.0703 174.747V125.05C20.0703 115.021 27.7881 106.675 37.7891 105.889L96.667 101.391L148.155 97.4531C156.775 96.79 162.716 105.916 158.635 113.538Z" fill="#99EBFA"/>
<path d="M330.825 125.05V174.747C330.825 181.241 326.362 186.881 320.038 188.371L266.574 200.949L254.324 203.834C246.983 205.564 239.415 202.023 236.045 195.276L192.268 113.532C188.18 105.909 194.134 96.7903 202.747 97.4466L283.008 103.585L313.107 105.889C323.108 106.668 330.825 115.022 330.825 125.05Z" fill="#99EBFA"/>
<path d="M223.932 245.902H181.077C175.752 245.902 171.432 241.582 171.432 236.257C171.432 230.932 175.745 226.611 181.077 226.611H223.932C229.257 226.611 233.577 230.932 233.577 236.257C233.57 241.589 229.257 245.902 223.932 245.902Z" fill="#3F51B5"/>
<path d="M329.157 28.0478H300.132C296.905 28.0478 294.287 25.4297 294.287 22.2031V18.1768C294.287 14.9502 296.905 12.332 300.132 12.332H329.157C332.384 12.332 335.002 14.9502 335.002 18.1768V22.2031C335.002 25.4365 332.384 28.0478 329.157 28.0478Z" fill="#FFC144"/>
<path d="M107.584 278.51C115.274 278.51 121.509 272.275 121.509 264.585C121.509 256.895 115.274 250.66 107.584 250.66C99.8935 250.66 93.6592 256.895 93.6592 264.585C93.6592 272.275 99.8935 278.51 107.584 278.51Z" fill="#0377BC"/>
<path d="M267 252C270.866 252 274 248.866 274 245C274 241.134 270.866 238 267 238C263.134 238 260 241.134 260 245C260 248.866 263.134 252 267 252Z" fill="#0377BC"/>
<path d="M155.682 316.046C166.268 316.046 174.85 307.464 174.85 296.878C174.85 286.292 166.268 277.71 155.682 277.71C145.095 277.71 136.514 286.292 136.514 296.878C136.514 307.464 145.095 316.046 155.682 316.046Z" fill="#C1F5FF"/>
<path d="M331 125V174.5C331 180.999 329.345 186.328 320.255 188.135L266 201L282.552 103.463L312.345 105.678C325.586 106.785 331 114.963 331 125Z" fill="#33D6F5"/>
<path d="M158.5 114L115 195C111.74 201.795 103.5 206 95.0002 203.5L78.877 199.853L96.0002 101.5L144.88 97.3383C160.125 95.1621 162 108.5 158.5 114Z" fill="#33D6F5"/>
</svg>
