<svg width="297" height="350" viewBox="0 0 297 350" fill="none" xmlns="http://www.w3.org/2000/svg">
<path d="M223.361 200.285C263.867 200.285 296.702 167.449 296.702 126.944V95.4242C296.702 67.5876 274.136 45.0215 246.3 45.0215H242.635C230.202 45.0215 220.124 34.9433 220.124 22.5107C220.124 10.0782 210.046 0 197.613 0H191.967C167.879 0 148.351 19.5275 148.351 43.6167C148.351 19.5275 128.824 0 104.735 0H99.089C86.6564 0 76.5782 10.0782 76.5782 22.5107C76.5782 34.9433 66.5 45.0215 54.0675 45.0215H50.4027C22.5661 45.0215 0 67.5876 0 95.4242V126.944C0 167.45 32.8364 200.285 73.3414 200.285H223.361Z" fill="#EFECEF"/>
<path d="M221.992 127.454C228.443 127.454 234.457 123.225 239.542 126.429C248.845 132.267 255.028 142.619 255.028 154.415V183.892H214.59" fill="#DDDAEC"/>
<path d="M62.7614 95.4241V126.945C62.7614 167.452 95.5992 200.29 136.106 200.29H73.3455C32.8385 200.29 0 167.452 0 126.945V95.4241C0 67.5861 22.5702 45.0228 50.4014 45.0228H54.0702C60.2813 45.0228 65.9155 42.5017 69.9856 38.4315C74.0558 34.3539 76.5769 28.7341 76.5769 22.5161C76.5769 10.0795 86.6544 0.00195312 99.091 0.00195312H104.732C116.774 0.00195312 127.683 4.88213 135.577 12.777C137.119 14.3191 138.549 15.981 139.845 17.7419C139.514 19.2772 139.338 20.8755 139.338 22.5168C139.338 28.7355 136.817 34.3546 132.746 38.4322C128.676 42.5023 123.041 45.0234 116.83 45.0234H113.161C85.3316 45.0228 62.7614 67.5861 62.7614 95.4241Z" fill="#DDDAEC"/>
<path d="M149.819 265.296H146.891C105.019 265.296 71.0742 299.24 71.0742 341.113C71.0742 346.021 75.0532 350 79.9616 350H216.748C221.656 350 225.635 346.021 225.635 341.113C225.636 299.24 191.692 265.296 149.819 265.296Z" fill="#B3E59F"/>
<path d="M166.969 267.246C133.356 275.021 108.307 305.141 108.307 341.113V350H79.9616C75.0532 350 71.0742 346.021 71.0742 341.113C71.0742 299.239 105.018 265.296 146.891 265.296H149.813C155.715 265.296 161.462 265.972 166.969 267.246Z" fill="#95D6A4"/>
<path d="M127.981 323.581C116.729 323.581 107.607 314.46 107.607 303.208V265.27H148.355V303.208C148.355 314.46 139.233 323.581 127.981 323.581Z" fill="#DDDAEC"/>
<path d="M168.729 323.581C157.477 323.581 148.355 314.46 148.355 303.208V265.27H189.103V303.208C189.103 314.46 179.981 323.581 168.729 323.581Z" fill="#EFECEF"/>
<path d="M239.541 173.965H243.197C255.619 173.965 265.683 184.028 265.683 196.443C265.683 202.647 263.168 208.274 259.098 212.344C255.028 216.408 249.408 218.929 243.197 218.929H238.26H58.4499H53.513C41.0907 218.929 31.0269 208.858 31.0269 196.442C31.0269 190.238 33.5411 184.618 37.6112 180.548C41.6813 176.478 47.3012 173.964 53.5123 173.964H57.1675" fill="#EAAC9D"/>
<path d="M239.541 126.429V203.62C239.541 228.802 229.337 251.591 212.83 268.098C196.33 284.598 173.534 294.803 148.351 294.803C97.9922 294.803 57.168 253.979 57.168 203.62V128.669C60.1539 127.592 63.3723 127 66.7314 127H108.295C130.414 127 148.351 109.063 148.351 86.9431V79.2246H148.942C165.914 79.2246 180.548 89.2598 187.231 103.718C192.154 114.373 202.611 121.38 214.344 121.38H221.992C228.443 121.38 234.457 123.225 239.541 126.429Z" fill="#FFDDCE"/>
<path d="M173.534 291.282C165.534 293.577 157.09 294.803 148.351 294.803C97.9922 294.803 57.168 253.979 57.168 203.62V128.669C60.1539 127.592 63.3723 127 66.7314 127H107.534V203.62C107.534 245.247 135.422 280.353 173.534 291.282Z" fill="#FFCBBE"/>
<path d="M148.355 252.562C138.783 252.562 129.21 248.918 121.922 241.631C119.859 239.568 119.859 236.224 121.922 234.161C123.985 232.099 127.328 232.099 129.392 234.161C139.848 244.617 156.862 244.617 167.319 234.161C169.382 232.099 172.725 232.099 174.789 234.161C176.851 236.223 176.851 239.568 174.789 241.631C167.5 248.918 157.927 252.562 148.355 252.562Z" fill="#EAAC9D"/>
<path d="M156.551 226.578H140.159C137.241 226.578 134.877 224.213 134.877 221.296C134.877 218.379 137.242 216.015 140.159 216.015H156.551C159.469 216.015 161.833 218.379 161.833 221.296C161.833 224.212 159.469 226.578 156.551 226.578Z" fill="#FFCBBE"/>
<path d="M186.298 149.757C186.203 149.757 186.11 149.754 186.015 149.749L172.667 149.046C169.754 148.893 167.517 146.407 167.671 143.494C167.824 140.58 170.318 138.35 173.223 138.497L186.571 139.2C189.484 139.353 191.721 141.839 191.568 144.752C191.419 147.571 189.088 149.757 186.298 149.757Z" fill="#EFECEF"/>
<path d="M110.413 149.757C107.624 149.757 105.291 147.572 105.144 144.753C104.991 141.84 107.227 139.355 110.14 139.201L123.488 138.498C126.416 138.35 128.887 140.582 129.04 143.495C129.193 146.408 126.956 148.894 124.044 149.047L110.696 149.75C110.601 149.754 110.506 149.757 110.413 149.757Z" fill="#EFECEF"/>
<path d="M104.956 222.95C123.165 222.95 137.927 208.188 137.927 189.979C137.927 171.77 123.165 157.009 104.956 157.009C86.7472 157.009 71.9858 171.77 71.9858 189.979C71.9858 208.188 86.7472 222.95 104.956 222.95Z" fill="#D3EFFB"/>
<path d="M122.176 161.869L90.5786 219.651C79.5673 214.314 71.9849 203.03 71.9849 189.98C71.9849 171.772 86.745 157.012 104.953 157.012C111.268 157.011 117.168 158.787 122.176 161.869Z" fill="#B1E4F9"/>
<path d="M191.754 222.95C209.963 222.95 224.724 208.188 224.724 189.979C224.724 171.77 209.963 157.009 191.754 157.009C173.545 157.009 158.783 171.77 158.783 189.979C158.783 208.188 173.545 222.95 191.754 222.95Z" fill="#D3EFFB"/>
<path d="M208.973 161.869L177.376 219.651C166.365 214.314 158.782 203.03 158.782 189.98C158.782 171.772 173.542 157.012 191.751 157.012C198.065 157.011 203.966 158.787 208.973 161.869Z" fill="#B1E4F9"/>
<path d="M116.686 180.585C111.505 180.585 107.289 184.801 107.289 189.982C107.289 195.163 111.505 199.378 116.686 199.378C121.867 199.378 126.082 195.163 126.082 189.982C126.083 184.801 121.867 180.585 116.686 180.585Z" fill="#454045"/>
<path d="M179.925 180.585C174.744 180.585 170.529 184.801 170.529 189.982C170.529 195.163 174.744 199.378 179.925 199.378C185.106 199.378 189.321 195.163 189.321 189.982C189.322 184.801 185.106 180.585 179.925 180.585Z" fill="#454045"/>
<path d="M243.129 170.088C240.987 168.106 237.646 168.236 235.665 170.377L228.218 178.426C223.308 162.964 208.82 151.728 191.753 151.728C173.41 151.728 158.048 164.708 154.353 181.965C150.43 180.868 146.279 180.868 142.357 181.965C138.662 164.708 123.3 151.728 104.956 151.728C87.8896 151.728 73.4015 162.964 68.4913 178.426L61.0456 170.378C59.0659 168.237 55.7231 168.107 53.5814 170.088C51.4404 172.069 51.3105 175.41 53.2916 177.552L66.7666 192.116C67.8788 212.218 84.581 228.232 104.956 228.232C125.047 228.232 141.559 212.659 143.082 192.952C146.396 191.28 150.313 191.28 153.627 192.952C155.151 212.659 171.662 228.232 191.753 228.232C212.128 228.232 228.83 212.218 229.942 192.116L243.418 177.551C245.4 175.411 245.27 172.069 243.129 170.088ZM104.956 217.669C89.6882 217.669 77.2673 205.247 77.2673 189.979C77.2673 174.712 89.6882 162.29 104.956 162.29C120.224 162.29 132.645 174.712 132.645 189.979C132.645 205.247 120.224 217.669 104.956 217.669ZM191.753 217.669C176.485 217.669 164.065 205.247 164.065 189.979C164.065 174.712 176.485 162.29 191.753 162.29C207.022 162.29 219.442 174.712 219.442 189.979C219.442 205.247 207.022 217.669 191.753 217.669Z" fill="#21386B"/>
</svg>
