<svg width="34" height="33" viewBox="0 0 34 33" fill="none" xmlns="http://www.w3.org/2000/svg">
<rect opacity="0.2" x="0.5" y="0.498657" width="33" height="32" rx="4" fill="white"/>
<path d="M15.7976 6.49866C16.2663 6.49866 16.735 6.49866 17.2041 6.49866C17.2537 6.51118 17.3028 6.52788 17.3529 6.53519C17.7255 6.58895 18.1023 6.62235 18.4708 6.69646C23.2081 7.64788 26.614 11.9123 26.4971 16.743C26.4913 16.981 26.4569 17.2185 26.436 17.4533C26.3984 17.4533 26.3854 17.4559 26.3744 17.4528C26.3249 17.4382 26.2758 17.4204 26.2262 17.4058C24.9116 17.0149 23.5859 16.9601 22.2645 17.3427C20.0589 17.9815 18.5157 19.3791 17.6071 21.485C17.5731 21.5633 17.5006 21.6619 17.4286 21.6791C17.2214 21.7287 17.0058 21.7559 16.7918 21.7663C14.627 21.8738 12.6756 20.7131 11.7326 18.7628C11.7106 18.7179 11.6845 18.6751 11.6527 18.6182C11.2957 18.7753 10.9481 18.9277 10.5739 19.0921C11.9716 21.8075 14.1698 23.0736 17.201 22.9306C16.9834 24.1127 17.0904 25.2761 17.4682 26.419C17.4113 26.4331 17.3805 26.4441 17.3487 26.4477C16.6008 26.5349 15.854 26.5161 15.1108 26.407C13.3223 26.1445 11.7122 25.4592 10.3036 24.3257C8.3423 22.7475 7.11219 20.7235 6.65553 18.2409C6.59185 17.8969 6.55115 17.5488 6.5 17.2028C6.5 16.7341 6.5 16.2655 6.5 15.7963C6.51305 15.7331 6.53027 15.671 6.53914 15.6074C6.58664 15.2733 6.61743 14.9357 6.68162 14.6048C7.02973 12.8157 7.81362 11.238 9.02703 9.88056C10.5651 8.16091 12.4669 7.07483 14.7413 6.65627C15.0915 6.59208 15.4453 6.55085 15.7976 6.49866ZM14.7444 14.753C14.7256 14.1612 14.6035 13.6101 14.2627 13.1247C13.602 12.1842 12.4512 12.1581 11.7493 13.0668C11.0233 14.0067 11.063 15.6183 11.8349 16.5191C12.4721 17.2633 13.4867 17.268 14.127 16.5285C14.5712 16.016 14.7194 15.4007 14.7444 14.753ZM18.2573 14.7306C18.2751 15.3187 18.3962 15.8699 18.7375 16.3558C19.4003 17.2983 20.5453 17.327 21.251 16.4189C21.9827 15.4779 21.9383 13.8501 21.1565 12.9514C20.5208 12.2208 19.5115 12.2202 18.8768 12.9514C18.4322 13.4639 18.2813 14.0782 18.2573 14.7306Z" fill="white"/>
<path d="M25.9235 18.5723C23.4695 21.0262 21.0213 23.4739 18.5773 25.918C17.9385 24.3252 18.1952 21.9161 19.822 20.1547C21.5657 18.267 24.0833 17.886 25.9235 18.5723Z" fill="white"/>
<path d="M12.3453 14.7233C12.4298 14.4341 12.4794 14.1288 12.6067 13.86C12.7925 13.4676 13.1626 13.4629 13.3598 13.8449C13.6652 14.4367 13.6646 15.05 13.3578 15.6408C13.1636 16.015 12.8197 16.0045 12.6067 15.6387C12.446 15.3615 12.3938 15.0557 12.3995 14.7389C12.3813 14.7337 12.3635 14.7285 12.3453 14.7233Z" fill="white"/>
<path d="M19.4311 14.7259C19.4285 14.4086 19.4817 14.1032 19.6482 13.8287C19.858 13.4822 20.1868 13.4707 20.3773 13.824C20.7019 14.4253 20.7009 15.05 20.3815 15.6522C20.1884 16.016 19.8554 16.0003 19.6404 15.6449C19.5031 15.419 19.4311 15.1016 19.4311 14.7259Z" fill="white"/>
</svg>
