<svg width="350" height="350" viewBox="0 0 350 350" fill="none" xmlns="http://www.w3.org/2000/svg">
<path d="M331.64 350C350.867 350 357.127 324.166 340.029 315.373C302.958 296.308 242.851 283.914 175 283.914C107.149 283.914 47.0414 296.308 9.97157 315.373C-7.12697 324.166 -0.867454 350 18.3599 350H331.64Z" fill="#F1EFF6"/>
<path d="M119.364 299.916C119.364 317.779 123.701 335.032 131.614 350H18.3577C-0.864897 350 -7.12372 324.169 9.97138 315.371C37.5733 301.178 77.9332 290.678 124.758 286.245C123.763 287.261 122.884 288.414 122.136 289.663C120.366 292.634 119.364 296.182 119.364 299.916Z" fill="#9330A0"/>
<path d="M331.642 350H218.4C226.306 335.039 230.636 317.793 230.636 299.943V299.916C230.636 294.618 228.619 289.69 225.242 286.245C272.067 290.678 312.426 301.178 340.028 315.371C357.123 324.169 350.865 350 331.642 350Z" fill="#9330A0"/>
<path d="M340.029 315.372C330.599 310.522 319.67 306.107 307.51 302.215C309.234 303.263 310.929 304.323 312.564 305.406C329.663 316.73 323.403 349.999 304.176 349.999H331.641C350.868 349.999 357.127 324.165 340.029 315.372Z" fill="#4A1C7A"/>
<path d="M47.8917 107.382L16.1034 75.5942C10.161 69.6518 0 73.8607 0 82.2648V95.7357C0 173.57 30.9194 248.216 85.9566 303.253C97.2863 314.582 131.614 350 131.614 350C131.614 350 131.614 293.836 175 293.836V142.934H133.722C101.53 142.934 70.6554 130.146 47.8917 107.382Z" fill="#FF4A4A"/>
<path d="M47.8916 107.383L47.6953 107.187C44.0965 119.243 42.1543 132.014 42.1543 145.241V183.664C42.1543 245.555 84.4789 297.56 141.764 312.317C148.086 302.117 158.343 293.836 175 293.836V142.935H133.722C101.529 142.935 70.6553 130.147 47.8916 107.383Z" fill="#E42331"/>
<path d="M302.108 107.382L333.897 75.5942C339.839 69.6518 350.001 73.8607 350.001 82.2648V95.7357C350.001 173.57 319.081 248.216 264.044 303.253C252.714 314.582 218.386 350 218.386 350C218.386 350 218.386 293.836 175 293.836V142.934H216.278C248.471 142.934 279.345 130.146 302.108 107.382Z" fill="#A20F59"/>
<path d="M307.846 183.664V145.241C307.846 132.015 305.903 119.244 302.305 107.187L302.108 107.383C279.345 130.147 248.471 142.935 216.279 142.935H175V293.836C191.657 293.836 201.914 302.117 208.236 312.317C265.52 297.561 307.846 245.555 307.846 183.664Z" fill="#840D47"/>
<path d="M112.039 278.014C105.208 292.638 105.208 309.102 112.039 323.726C113.486 326.825 116.872 328.843 120.625 328.843H120.637C136.498 328.843 151.399 322.042 160.714 310.551L164.594 305.765C166.96 302.846 166.959 298.896 164.59 295.978L160.683 291.164C151.366 279.688 136.475 272.897 120.626 272.897C116.872 272.898 113.486 274.915 112.039 278.014Z" fill="#FEC551"/>
<path d="M237.961 278.015C236.513 274.915 233.128 272.898 229.375 272.898C213.526 272.898 198.635 279.689 189.318 291.164L185.41 295.978C183.041 298.895 183.04 302.846 185.407 305.766L189.287 310.552C198.602 322.042 213.503 328.843 229.364 328.843H229.376C233.128 328.843 236.513 326.825 237.962 323.727C244.793 309.102 244.793 292.638 237.961 278.015Z" fill="#FEC551"/>
<path d="M175 323.943C187.743 323.943 198.073 313.613 198.073 300.87C198.073 288.127 187.743 277.797 175 277.797C162.257 277.797 151.927 288.127 151.927 300.87C151.927 313.613 162.257 323.943 175 323.943Z" fill="#FFE076"/>
<path d="M86.9314 232.909L71.3077 218.999C52.9004 202.61 42.3716 179.138 42.3716 154.492V129.483C42.3716 123.444 49.5088 120.242 54.019 124.258L86.9314 153.562V232.909Z" fill="#F1EFF6"/>
<path d="M263.069 232.909L278.693 218.999C297.1 202.61 307.629 179.138 307.629 154.492V129.483C307.629 123.444 300.492 120.242 295.982 124.258L263.069 153.562V232.909Z" fill="url(#paint0_linear_834_2194)"/>
<path d="M175.001 288.709C115.046 288.709 66.4429 240.107 66.4429 180.152V148.754C66.4429 88.799 115.046 40.1963 175.001 40.1963C234.956 40.1963 283.558 88.799 283.558 148.754V180.152C283.558 240.107 234.956 288.709 175.001 288.709Z" fill="#F1EFF6"/>
<path d="M175 40.1963C170.348 40.1963 165.765 40.49 161.268 41.0576C214.739 47.8071 256.093 93.4505 256.093 148.754V180.152C256.093 235.454 214.739 281.098 161.268 287.848C165.766 288.416 170.349 288.709 175 288.709C234.955 288.709 283.558 240.107 283.558 180.152V148.754C283.558 88.799 234.955 40.1963 175 40.1963Z" fill="#D4D1EC"/>
<path d="M127.61 182.325C115.217 182.325 105.133 172.242 105.133 159.848C105.133 156.366 107.957 153.543 111.439 153.543C114.921 153.543 117.744 156.366 117.744 159.848C117.744 165.288 122.17 169.714 127.609 169.714C133.049 169.714 137.475 165.288 137.475 159.848C137.475 156.366 140.298 153.543 143.78 153.543C147.262 153.543 150.086 156.366 150.086 159.848C150.086 172.242 140.004 182.325 127.61 182.325Z" fill="#4A1C7A"/>
<path d="M222.39 182.325C209.996 182.325 199.914 172.242 199.914 159.848C199.914 156.366 202.737 153.543 206.219 153.543C209.701 153.543 212.525 156.366 212.525 159.848C212.525 165.288 216.95 169.714 222.39 169.714C227.83 169.714 232.255 165.288 232.255 159.848C232.255 156.366 235.078 153.543 238.56 153.543C242.043 153.543 244.866 156.366 244.866 159.848C244.867 172.242 234.784 182.325 222.39 182.325Z" fill="#4A1C7A"/>
<path d="M133.397 85.1248C145.217 85.1248 156.535 92.5942 166.988 98.9196C171.955 101.925 178.047 101.925 183.013 98.9196C193.466 92.5942 204.785 85.1248 216.604 85.1248C242.286 85.1248 265.605 118.618 282.803 136.168C282.803 136.168 311.673 0 175 0C38.3273 0 67.1975 136.168 67.1975 136.168C84.3955 118.618 107.715 85.1248 133.397 85.1248Z" fill="#9330A0"/>
<path d="M282.8 136.167C275.498 128.714 267.092 118.392 257.875 108.976C257.566 74.7449 243.998 5.88824 161.268 0.439216C165.646 0.15098 170.224 0 175 0C311.672 0 282.8 136.167 282.8 136.167Z" fill="#4A1C7A"/>
<path d="M239.499 215.711C237.431 217.428 235.203 219.06 232.828 220.598C232.828 220.598 225.651 227.375 221.647 229.177C216.972 231.282 206.622 232.001 206.622 232.001C196.896 234.642 186.212 236.101 175 236.101C163.786 236.101 153.1 234.642 143.373 232C143.373 232 132.9 231.236 128.177 229.098C124.24 227.316 117.174 220.6 117.174 220.6C114.799 219.061 112.57 217.428 110.501 215.711C108.012 213.644 104.327 216.053 105.29 219.141C114.189 247.671 142.03 268.489 175 268.489C207.97 268.489 235.812 247.672 244.71 219.141C245.673 216.053 241.988 213.644 239.499 215.711Z" fill="#FF4A4A"/>
<path d="M143.38 231.997C141.774 235.461 139.454 238.513 136.545 240.867L134.081 242.868C132.576 244.079 130.55 244.079 129.045 242.86L126.565 240.851C120.747 236.126 117.275 228.618 117.174 220.597C124.623 225.422 133.509 229.323 143.38 231.997Z" fill="white"/>
<path d="M232.827 220.596C232.726 228.625 229.246 236.141 223.419 240.866L220.956 242.867C219.459 244.078 217.425 244.078 215.92 242.859L213.448 240.85C210.547 238.496 208.226 235.452 206.621 231.997C216.492 229.323 225.379 225.422 232.827 220.596Z" fill="white"/>
<defs>
<linearGradient id="paint0_linear_834_2194" x1="270.006" y1="177.691" x2="306.246" y2="177.691" gradientUnits="userSpaceOnUse">
<stop stop-color="#F8F6F7"/>
<stop offset="0.1788" stop-color="#F8F6F7"/>
<stop offset="1" stop-color="#E7E6F5"/>
</linearGradient>
</defs>
</svg>
