<svg width="312" height="350" viewBox="0 0 312 350" fill="none" xmlns="http://www.w3.org/2000/svg">
<path fill-rule="evenodd" clip-rule="evenodd" d="M150.79 32.9226C150.79 14.74 165.53 0 183.713 0H228.072C246.254 0 260.994 14.74 260.994 32.9226V158.375H250.598V32.9226C250.598 20.4818 240.512 10.3966 228.072 10.3966H183.713C171.272 10.3966 161.187 20.4818 161.187 32.9226V37.0813H150.79V32.9226Z" fill="#6A829A"/>
<path fill-rule="evenodd" clip-rule="evenodd" d="M40.3525 348.965C47.4645 353.072 60.0375 344.604 68.4269 330.046C69.8602 327.571 71.0787 325.076 72.0802 322.62C62.2769 320.007 52.8472 319.28 40.7053 318.966C34.1839 332.266 33.8692 345.212 40.3525 348.965Z" fill="#FFDC00"/>
<path fill-rule="evenodd" clip-rule="evenodd" d="M243.551 330.046C251.96 344.604 264.513 353.072 271.625 348.965C278.108 345.212 277.794 332.266 271.271 318.966C261.782 319.87 250.132 320.439 239.896 322.62C240.899 325.076 242.117 327.57 243.551 330.046Z" fill="#FEC108"/>
<path fill-rule="evenodd" clip-rule="evenodd" d="M298.776 211.6L290.308 288.729C288.265 307.255 275.063 322.619 256.419 322.619H55.5783C36.9351 322.619 23.7126 307.255 21.6694 288.729L13.2017 211.6L153.965 205.549L298.776 211.6Z" fill="#00BCD4"/>
<path fill-rule="evenodd" clip-rule="evenodd" d="M298.776 211.6L290.308 288.729C288.265 307.255 275.062 322.619 256.418 322.619H236.223C254.867 322.619 268.089 307.255 270.132 288.729L278.599 211.6H298.776Z" fill="#00838F"/>
<path fill-rule="evenodd" clip-rule="evenodd" d="M256.025 151.562C271.625 151.562 284.296 164.214 284.296 179.833C284.296 181.66 284.119 183.467 283.785 185.195L168.758 191.246L34.4979 185.195C34.0855 169.91 46.3445 157.279 61.649 157.279C65.1651 157.319 67.503 157.73 70.7849 158.988C74.7536 160.521 74.4978 159.028 75.559 155.412C78.1519 146.591 86.1476 139.264 94.8114 136.494C97.8369 135.531 100.745 135.119 103.927 135.099C117.915 135.217 130.37 144.764 133.14 158.595C134.005 162.838 134.771 161.856 138.189 160.088C142.904 157.671 148.758 156.61 154.024 156.571C160.978 156.611 167.619 158.319 173.512 162.092C177.069 164.351 176.951 163.33 177.383 159.518C178.817 146.847 188.935 136.022 201.136 132.681C204.043 131.876 206.832 131.542 209.858 131.522C222.923 131.621 235.241 139.303 240.054 151.601C241.782 156.021 242.627 154.902 246.517 153.291C249.582 152.013 252.725 151.582 256.025 151.562Z" fill="#A4E7FF"/>
<path fill-rule="evenodd" clip-rule="evenodd" d="M256.026 151.562C271.625 151.562 284.296 164.214 284.296 179.833C284.296 181.66 284.119 183.467 283.785 185.195H266.968C267.302 183.467 267.479 181.659 267.479 179.833C267.479 167.161 259.149 156.453 247.656 152.858C250.368 151.916 253.137 151.582 256.026 151.562Z" fill="#2ECEFB"/>
<path fill-rule="evenodd" clip-rule="evenodd" d="M13.2016 211.6H298.776C306.044 211.6 311.998 205.667 311.998 198.398C311.998 191.148 306.044 185.195 298.776 185.195H235.26L197.009 190.579L155.989 185.195H13.2016C5.933 185.195 0 191.148 0 198.398C0.000693108 205.666 5.933 211.6 13.2016 211.6Z" fill="#F5F5F5"/>
<path fill-rule="evenodd" clip-rule="evenodd" d="M278.6 211.6H298.776C306.044 211.6 311.998 205.667 311.998 198.398C311.998 191.148 306.044 185.195 298.776 185.195H278.6C285.868 185.195 291.802 191.148 291.802 198.398C291.801 205.666 285.868 211.6 278.6 211.6Z" fill="#CFD8DC"/>
<path fill-rule="evenodd" clip-rule="evenodd" d="M155.988 34.4326C174.063 34.4326 188.955 48.0085 191.037 65.4935C191.39 68.4995 190.054 69.5995 187.245 69.7374H124.731C121.725 69.7374 120.587 68.4795 120.939 65.513C123.023 48.0085 137.934 34.4326 155.988 34.4326Z" fill="#6A829A"/>
<path fill-rule="evenodd" clip-rule="evenodd" d="M155.989 34.4326C174.063 34.4326 188.955 48.0085 191.037 65.4935C191.39 68.4995 190.054 69.5995 187.245 69.7374H167.069C169.878 69.5995 171.213 68.4995 170.86 65.4935C169.171 51.4075 159.171 39.8555 145.891 35.8868C149.093 34.9434 152.491 34.4326 155.989 34.4326Z" fill="#516980"/>
<path fill-rule="evenodd" clip-rule="evenodd" d="M235.26 185.195V271.087C235.26 278.965 228.816 285.409 220.938 285.409H170.31C162.433 285.409 155.989 278.965 155.989 271.087V185.195H235.26Z" fill="#E91E63"/>
<path fill-rule="evenodd" clip-rule="evenodd" d="M235.26 185.195V271.087C235.26 278.965 228.815 285.409 220.937 285.409H200.762C208.64 285.409 215.083 278.965 215.083 271.087V185.195H235.26Z" fill="#AD1457"/>
</svg>
