<svg width="286" height="340" viewBox="0 0 286 340" fill="none" xmlns="http://www.w3.org/2000/svg">
<path d="M57.4523 150.324C57.4523 150.324 -71.8153 246.67 57.4523 311.707C56.6525 309.294 100.006 169.595 100.006 169.595L57.4523 150.324Z" fill="#FCA00E"/>
<path d="M228.405 150.324C228.405 150.324 357.673 246.67 228.405 311.707C229.205 309.294 185.852 169.595 185.852 169.595L228.405 150.324Z" fill="#FFB641"/>
<path d="M246.994 263.854C246.994 321.604 200.182 339.378 142.432 339.378C84.6816 339.378 37.8691 321.604 37.8691 263.854C37.8691 206.104 84.6885 130 142.432 130C200.182 130 246.994 206.104 246.994 263.854Z" fill="#FFDE76"/>
<path d="M142.795 130C85.2045 130 38 206.044 38 263.718C38 306.196 62.345 327.896 100.195 335C91.8034 317.386 88.5926 299.295 88.1699 282.712C87.3314 249.847 112.18 221.727 144.881 218.778C187.181 214.962 211.333 192.917 221 181.762C201.892 152.222 173.935 130 142.795 130Z" fill="#FFB641"/>
<path d="M241.428 112.731C241.428 167.282 197.199 183.203 142.648 183.203C88.0977 183.203 43.8691 167.282 43.8691 112.731C43.8691 58.1807 88.0908 0 142.648 0C197.206 0 241.428 58.1807 241.428 112.731Z" fill="#FFDE76"/>
<path d="M172.867 144.348C89.2573 105.946 107.441 8 107.441 8C70.3065 26.6991 44 69.861 44 111.46C44 166.319 85.566 185.491 145.506 183.911C148.638 183.911 151.968 183.487 155.022 183.384C173.836 166.424 173.29 144.128 172.867 144.348Z" fill="#FFB641"/>
<path d="M142.929 114.675L101.271 127.109C101.271 127.109 106.753 150.324 142.929 150.324C179.104 150.324 184.587 127.109 184.587 127.109L142.929 114.675Z" fill="#FF3B00"/>
<path d="M188.428 135.23C188.271 135.23 188.114 135.23 187.95 135.223C185.653 135.141 164.988 134.054 147.365 121.504C144.753 119.644 141.103 119.644 138.485 121.504C120.855 134.054 100.197 135.141 97.8998 135.223C90.7221 135.476 84.7065 129.878 84.4536 122.707C84.2006 115.536 89.7993 109.52 96.9702 109.26C97.059 109.26 111.975 108.495 123.425 100.346C135.094 92.0408 150.769 92.0408 162.438 100.346C173.888 108.495 188.797 109.26 188.948 109.267C196.112 109.527 201.69 115.543 201.43 122.714C201.177 129.72 195.387 135.23 188.428 135.23Z" fill="#FB6B44"/>
<path d="M203.208 92.834V84.3232C203.208 81.4932 200.911 79.1963 198.081 79.1963C195.251 79.1963 192.954 81.4932 192.954 84.3232V92.834C192.954 95.6641 195.251 97.9609 198.081 97.9609C200.911 97.9609 203.208 95.6709 203.208 92.834Z" fill="black"/>
<path d="M92.9307 92.834V84.3232C92.9307 81.4932 90.6338 79.1963 87.8037 79.1963C84.9736 79.1963 82.6768 81.4932 82.6768 84.3232V92.834C82.6768 95.6641 84.9736 97.9609 87.8037 97.9609C90.6338 97.9609 92.9307 95.6709 92.9307 92.834Z" fill="black"/>
</svg>
