<svg width="21" height="28" viewBox="0 0 21 28" fill="none" xmlns="http://www.w3.org/2000/svg">
<path d="M11.6349 26.046H11.1349V25.546V23.5763V23.1165L11.5932 23.0781C16.3364 22.6806 20.2896 19.1477 20.2896 13.8946C20.2896 13.6992 20.1528 13.5624 19.9573 13.5624C19.7619 13.5624 19.6251 13.6992 19.6251 13.8946C19.6251 18.6204 15.7837 22.4396 10.8027 22.4396C5.82171 22.4396 1.98034 18.6204 1.98034 13.8946C1.98034 13.6992 1.84356 13.5624 1.6481 13.5624C1.45264 13.5624 1.31586 13.6992 1.31586 13.8946C1.31586 19.1477 5.26897 22.6806 10.0122 23.0781L10.4705 23.1165V23.5763V25.546V26.046H9.97047H5.00479C4.78767 26.046 4.64481 26.2039 4.64481 26.3782C4.64481 26.5525 4.78767 26.7104 5.00479 26.7104H16.6006C16.8177 26.7104 16.9606 26.5525 16.9606 26.3782C16.9606 26.2039 16.8177 26.046 16.6006 26.046H11.6349ZM5.30929 8.90123V8.40123H5.80929H8.02859C8.22404 8.40123 8.36082 8.26445 8.36082 8.06899C8.36082 7.87353 8.22404 7.73675 8.02859 7.73675H5.80929H5.30929V7.23675V7.15353C5.30929 4.14967 7.78935 1.74333 10.8027 1.74333C13.8161 1.74333 16.2961 4.14967 16.2961 7.15353V7.23675V7.73675H15.7961H13.5768C13.3814 7.73675 13.2446 7.87353 13.2446 8.06899C13.2446 8.26445 13.3814 8.40123 13.5768 8.40123H15.7961H16.2961V8.90123V11.6753V12.1753H15.7961H13.5768C13.3814 12.1753 13.2446 12.3121 13.2446 12.5076C13.2446 12.703 13.3814 12.8398 13.5768 12.8398H15.7961H16.2961V13.3398V13.7005C16.2961 16.7043 13.8161 19.1107 10.8027 19.1107C7.78935 19.1107 5.30929 16.7043 5.30929 13.7005V13.3398V12.8398H5.80929H8.02859C8.22404 12.8398 8.36082 12.703 8.36082 12.5076C8.36082 12.3121 8.22404 12.1753 8.02859 12.1753H5.80929H5.30929V11.6753V8.90123ZM10.8027 1.07886C7.38379 1.07886 4.64481 3.80102 4.64481 7.15353V13.7282C4.64481 17.0516 7.3824 19.7751 10.8027 19.7751C14.2216 19.7751 16.9606 17.053 16.9606 13.7005V7.15353C16.9606 3.80102 14.2216 1.07886 10.8027 1.07886Z" fill="white" stroke="white"/>
</svg>
