<svg width="337" height="350" viewBox="0 0 337 350" fill="none" xmlns="http://www.w3.org/2000/svg">
<path d="M108.114 107.654C108.824 109.516 112.414 118.927 107.271 124.098C103.386 128.003 96.2526 127.748 91.8809 125.152C87.8327 122.749 84.7133 115.352 82.7744 106.92C74.0449 120.682 71.2476 127.696 70.0414 132.458C69.5847 134.259 69.1711 136.067 68.8718 138.521C66.1644 160.709 81.9291 175.386 78.3142 179.439C75.8235 182.231 65.2422 178.736 55.9909 172.12C36.3127 158.046 24.7463 131.351 23.3528 103.349C23.2613 103.456 23.1712 103.561 23.0834 103.662C21.7726 105.163 15.1473 112.75 8.16779 110.636C2.89583 109.039 -0.2265 102.62 0.0128349 97.5415C0.389037 89.5608 14.7191 77.1937 26.4949 70.6043C29.6406 57.5579 39.6114 18.643 66.2991 16.0088C86.1903 14.0458 107.741 31.3724 110.651 49.4447C112.221 59.1967 107.105 69.4508 96.2841 86.2957C101.374 93.7978 106.313 102.934 108.114 107.654Z" fill="#04D481"/>
<path d="M40.7195 98.1322C40.7195 126.143 48.0262 152.447 60.8383 175.243C59.2149 174.306 57.5835 173.259 55.9909 172.12C36.3127 158.047 24.7463 131.351 23.3528 103.349C23.2613 103.457 23.1712 103.562 23.0834 103.663C21.7726 105.164 15.1473 112.751 8.16779 110.637C2.89583 109.04 -0.2265 102.621 0.0128349 97.5423C0.389037 89.5615 14.7191 77.1944 26.4948 70.605C29.5294 58.0205 38.9139 21.3679 63.5259 16.4238C49.0531 40.2497 40.7195 68.2175 40.7195 98.1322Z" fill="#01988C"/>
<path d="M88.8807 61.5439C85.672 67.359 81.6582 67.8589 78.1231 65.9083C74.5887 63.9578 72.8716 60.2945 76.0803 54.4802C79.289 48.6659 86.2085 42.9007 89.7429 44.8512C93.2773 46.8018 92.0894 55.7289 88.8807 61.5439ZM67.7995 32.7425C64.2643 30.7919 57.3456 36.5565 54.1369 42.3715C50.9282 48.1865 52.6445 51.849 56.1797 53.7996C59.7148 55.7501 63.7286 55.2495 66.9373 49.4352C70.146 43.6201 71.3339 34.693 67.7995 32.7425ZM58.5525 67.0918C54.5102 67.0918 51.2334 70.3693 51.2334 74.4109C51.2334 78.4533 54.5102 81.73 58.5525 81.73C62.5949 81.73 65.8716 78.4533 65.8716 74.4109C65.8716 70.3686 62.5949 67.0918 58.5525 67.0918Z" fill="#012D4E"/>
<path d="M336.679 151.369V215.109C336.679 219.845 332.038 223.19 327.545 221.692L318.637 218.722V220.415C318.637 225.672 315.667 230.477 310.965 232.828L298.513 239.054V249.94C298.513 297.845 259.679 336.679 211.774 336.679H207.698C187.661 336.679 167.6 334.92 148.653 341.437C144.491 342.868 140.288 344.25 136.012 345.378C120.368 339.64 105.745 331.783 92.4912 322.156C109.447 308.51 121.315 288.509 124.189 265.203L125.035 258.338V86.7395C125.034 38.8345 163.869 0 211.774 0C259.679 0 298.513 38.8345 298.513 86.7395V143.201L312.305 136.305C314.644 135.136 317.222 134.527 319.837 134.527C329.139 134.527 336.679 142.068 336.679 151.369Z" fill="#B0DDE9"/>
<path d="M277.464 225.678C277.464 244.14 271.985 261.939 261.58 278.126C252.964 291.53 240.969 303.827 225.911 314.48C195.128 336.254 154.814 348.756 111.727 350C88.8071 350 43.6873 346.276 79.6473 330.739C99.6804 319.787 115.157 301.084 121.598 278.127C122.769 273.953 123.642 269.638 124.189 265.204L125.035 258.339V239.749L111.196 232.829C106.494 230.478 103.524 225.672 103.524 220.416V219.186L96.0033 221.692C91.5101 223.191 86.8698 219.846 86.8698 215.109V151.37C86.8698 142.068 94.4099 134.528 103.711 134.528C106.325 134.528 108.905 135.137 111.243 136.306L125.035 143.202V86.7403C125.035 38.8345 163.869 0 211.774 0C215.964 0 220.084 0.297156 224.115 0.871706C181.971 9.44605 150.256 46.7142 150.256 91.3901V274.137L149.764 278.126L149.354 281.448C149.34 281.558 149.326 281.669 149.312 281.779C148.231 290.297 159.212 294.582 164.138 287.549C166.251 284.532 168.226 281.387 170.054 278.126C179.561 261.169 185.068 241.084 185.068 219.573C185.068 215.38 188.595 212.011 192.844 212.268C196.75 212.505 199.713 215.923 199.706 219.835C199.668 240.502 195.136 260.397 186.629 278.126C181.547 288.714 175.048 298.529 167.24 307.274C163.347 311.635 159.213 315.635 154.874 319.259C150.491 322.919 154.157 330.031 159.685 328.601C195.605 319.315 225.395 301.223 243.573 278.126C255.784 262.611 262.755 244.84 262.825 225.964C262.84 222.07 265.723 218.655 269.607 218.377C273.892 218.072 277.464 221.458 277.464 225.678Z" fill="#81ADE2"/>
<path d="M170.71 79.4531C174.028 64.487 185.595 47.2146 194.692 49.2317C203.79 51.2489 206.974 71.7907 203.656 86.7568C200.338 101.723 191.775 105.446 182.677 103.429C173.579 101.413 167.391 94.4192 170.71 79.4531ZM255.277 79.4531C251.959 64.487 240.392 47.2146 231.294 49.2317C222.197 51.2489 219.013 71.7907 222.331 86.7568C225.649 101.723 234.212 105.446 243.31 103.429C252.408 101.413 258.595 94.4192 255.277 79.4531Z" fill="#463B83"/>
<path d="M204.566 120.738C179.163 125.41 166.509 169.85 174.192 176.363C179.32 180.71 190.64 165.731 214.081 165.019C238.827 164.266 252.699 180.155 256.166 176.363C261.884 170.11 234.865 115.166 204.566 120.738Z" fill="#463B83"/>
<path d="M186.863 103.934C185.492 103.918 184.091 103.743 182.677 103.43C173.58 101.413 167.392 94.4202 170.71 79.4541C174.028 64.488 185.595 47.2156 194.692 49.2327C195.555 49.4238 196.364 49.7817 197.12 50.2852C191.291 58.4651 186.461 69.1758 184.249 79.1547C181.75 90.4247 183.1 98.4662 186.863 103.934ZM233.056 75.7755C231.213 67.4573 230.673 58.0215 231.393 49.2108C231.361 49.2174 231.328 49.2247 231.295 49.232C222.197 51.2491 219.013 71.791 222.331 86.7571C225.649 101.723 234.212 105.446 243.31 103.429C245.782 102.881 248.039 101.965 249.95 100.622C242.39 97.5696 236.198 89.9431 233.056 75.7755ZM231.399 130.156C223.404 123.266 214.149 118.975 204.565 120.738C179.162 125.409 166.508 169.85 174.191 176.363C177.248 178.954 182.506 174.677 191.221 170.649C195.138 150.295 211.1 134.228 231.399 130.156Z" fill="#012D4E"/>
<path d="M36.5953 182.978C36.5953 187.021 33.3185 190.297 29.2761 190.297C25.2338 190.297 21.957 187.021 21.957 182.978C21.957 178.936 25.2338 175.659 29.2761 175.659C33.3185 175.659 36.5953 178.936 36.5953 182.978Z" fill="#B0DDE9"/>
<path d="M322.041 80.5105C322.041 84.5529 318.764 87.8296 314.721 87.8296C310.679 87.8296 307.402 84.5529 307.402 80.5105C307.402 76.4682 310.679 73.1914 314.721 73.1914C318.764 73.1914 322.041 76.4682 322.041 80.5105Z" fill="#FDF7BD"/>
</svg>
