<svg width="277" height="362" viewBox="0 0 277 362" fill="none" xmlns="http://www.w3.org/2000/svg">
<path d="M20.5102 331.32C24.9202 333.83 30.0202 335.27 35.4402 335.27H224.46V315.27H35.4402C29.7902 315.27 25.2002 310.67 25.2002 305.02C25.2002 299.37 29.8002 294.78 35.4402 294.78H117.4C134.34 294.78 148.12 281 148.12 264.06V229.83H128.12V264.06C128.12 269.97 123.31 274.78 117.4 274.78H35.4402C18.7602 274.78 5.2002 288.35 5.2002 305.02C5.2002 310.84 6.8502 316.29 9.7202 320.9" fill="#B82F6F"/>
<path d="M231.4 303.4L205.04 294.35C197.49 291.76 189.63 297.37 189.63 305.35V345.17C189.63 353.15 197.49 358.76 205.04 356.17L264.14 335.88C274.26 332.41 274.26 318.1 264.14 314.63L251.23 310.2" fill="#FF258C"/>
<path d="M24.8 11.31C26.53 9.69996 28.36 8.18996 30.27 6.79996C36.47 2.27996 45.04 6.78996 45.01 14.46C45.01 14.52 45.01 14.58 45.01 14.63C45.01 42.08 69.82 64.34 100.43 64.34C108.22 64.34 115.63 62.9 122.35 60.3C120.94 93.02 95.22 119.09 63.71 119.09C31.28 119.1 5 91.5 5 57.46C5 46.48 7.74 36.17 12.53 27.24" fill="#B82F6F"/>
<path d="M153.87 60.31C155.28 93.03 181 119.1 212.51 119.1C244.94 119.1 271.22 91.5 271.22 57.46C271.22 36.47 261.22 17.93 245.95 6.79996C239.75 2.27996 231.18 6.78996 231.21 14.46C231.21 14.52 231.21 14.58 231.21 14.63C231.21 42.08 206.4 64.34 175.79 64.34C168 64.3499 160.59 62.91 153.87 60.31Z" fill="#882A61"/>
<path d="M100.69 33.5797C103.36 32.6397 106.07 31.8097 108.83 31.0697C118.17 28.5697 127.99 27.2397 138.12 27.2397C200.59 27.2397 251.24 77.8797 251.24 140.36C251.24 202.84 200.6 253.48 138.12 253.48C75.64 253.48 25 202.83 25 140.36C25 98.1397 48.13 61.3297 82.4 41.8897" fill="#FF6179"/>
<path d="M252 140C252 202.403 200.962 252.999 138 252.999V26.9995C200.962 26.9995 252 77.5959 252 140Z" fill="#FF258C"/>
<path d="M110.23 126.72L89.8198 106.31C85.8198 102.31 85.8198 95.8198 89.8198 91.8198C93.8198 87.8198 100.31 87.8198 104.31 91.8198L124.72 112.23C128.72 116.23 128.72 122.72 124.72 126.72C120.72 130.73 114.23 130.73 110.23 126.72Z" fill="black"/>
<path d="M166 126.72L186.41 106.31C190.41 102.31 190.41 95.8198 186.41 91.8198C182.41 87.8198 175.92 87.8198 171.92 91.8198L151.51 112.23C147.51 116.23 147.51 122.72 151.51 126.72C155.51 130.73 161.99 130.73 166 126.72Z" fill="black"/>
<path d="M178.97 196.49C170.56 196.49 163.72 189.65 163.72 181.25V175.84H112.5V181.25C112.5 189.66 105.66 196.49 97.2604 196.49C88.8504 196.49 82.0104 189.65 82.0104 181.25V175.84H76.6104C68.2004 175.84 61.3604 169 61.3604 160.59C61.3604 152.18 68.2004 145.34 76.6104 145.34H199.61C208.02 145.34 214.85 152.18 214.85 160.59C214.85 169 208.01 175.84 199.61 175.84H194.21V181.25C194.21 189.65 187.38 196.49 178.97 196.49Z" fill="#DDFCFF"/>
<path d="M199.61 150.34C205.27 150.34 209.85 154.93 209.85 160.59C209.85 166.25 205.26 170.83 199.61 170.83H189.21V181.24C189.21 186.9 184.62 191.48 178.97 191.48C173.32 191.48 168.73 186.89 168.73 181.24V170.83H107.5V181.24C107.5 186.9 102.91 191.48 97.2601 191.48C91.6101 191.48 87.0201 186.89 87.0201 181.24V170.83H76.6201C70.9601 170.83 66.3801 166.24 66.3801 160.59C66.3801 154.93 70.9701 150.34 76.6201 150.34H199.61ZM199.61 140.34H76.6101C65.4501 140.34 56.3701 149.42 56.3701 160.59C56.3701 171.75 65.4501 180.83 76.6101 180.83H77.0101V181.24C77.0101 192.4 86.0901 201.48 97.2501 201.48C108.41 201.48 117.49 192.4 117.49 181.24V180.83H158.72V181.24C158.72 192.4 167.8 201.48 178.96 201.48C190.12 201.48 199.2 192.4 199.2 181.24V180.83H199.6C210.76 180.83 219.84 171.75 219.84 160.59C219.86 149.43 210.77 140.34 199.61 140.34Z" fill="#882A61"/>
<path d="M107.5 160.59V181.24C107.5 186.9 102.91 191.48 97.26 191.48C91.6 191.48 87.02 186.89 87.02 181.24V160.59C87.02 154.93 91.61 150.35 97.26 150.35C102.91 150.34 107.5 154.93 107.5 160.59Z" fill="#DDFCFF"/>
<path d="M189.22 160.59V181.24C189.22 186.9 184.63 191.48 178.98 191.48C173.32 191.48 168.74 186.89 168.74 181.24V160.59C168.74 154.93 173.33 150.35 178.98 150.35C184.63 150.34 189.22 154.93 189.22 160.59Z" fill="#A5F1FF"/>
<path d="M199.61 170.83H76.6101C70.9501 170.83 66.3701 166.24 66.3701 160.59C66.3701 154.93 70.9601 150.35 76.6101 150.35H199.61C205.27 150.35 209.85 154.94 209.85 160.59C209.86 166.25 205.27 170.83 199.61 170.83Z" fill="#DDFCFF"/>
<path d="M209.86 160.59C209.86 163.42 208.71 165.98 206.86 167.84C205 169.69 202.44 170.84 199.61 170.84H138.36V150.35H199.61C205.27 150.35 209.86 154.93 209.86 160.59Z" fill="#A5F1FF"/>
</svg>
