<svg width="286" height="351" viewBox="0 0 286 351" fill="none" xmlns="http://www.w3.org/2000/svg">
<path d="M175.97 318.7H109.07C60.9698 318.7 22.0698 279.7 22.0698 231.7V65H263.07V231.6C263.07 279.7 224.07 318.7 175.97 318.7Z" fill="#FFDDCE"/>
<path d="M263.07 93.4004V231.7C263.07 279.7 224.17 318.7 176.07 318.7H141.67C189.67 318.7 228.67 279.8 228.67 231.7V93.4004H263.07Z" fill="#FFCBBE"/>
<path d="M80.3695 261.9C87.3283 261.9 92.9695 256.259 92.9695 249.3C92.9695 242.341 87.3283 236.7 80.3695 236.7C73.4107 236.7 67.7695 242.341 67.7695 249.3C67.7695 256.259 73.4107 261.9 80.3695 261.9Z" fill="#E8979F"/>
<path d="M204.769 261.9C211.728 261.9 217.369 256.259 217.369 249.3C217.369 242.341 211.728 236.7 204.769 236.7C197.811 236.7 192.169 242.341 192.169 249.3C192.169 256.259 197.811 261.9 204.769 261.9Z" fill="#E8979F"/>
<path d="M107.27 216.6C103.97 216.5 101.37 213.6 101.37 210.3V198.3C101.37 195 103.97 192 107.27 191.9C110.67 191.8 113.47 194.6 113.47 198V210.5C113.47 213.9 110.67 216.7 107.27 216.6Z" fill="#2B4D66"/>
<path d="M177.57 216.6C174.27 216.5 171.67 213.6 171.67 210.3V198.3C171.67 195 174.27 192 177.57 191.9C180.97 191.8 183.77 194.6 183.77 198V210.5C183.77 213.9 180.97 216.7 177.57 216.6Z" fill="#2B4D66"/>
<path d="M165.17 285.2C168.17 283.2 170.97 280.8 173.37 278C173.87 277.4 174.87 277.3 175.47 277.8C176.37 276.7 177.17 275.6 177.97 274.4C176.47 274.2 174.97 273.9 173.47 273.5C169.97 272.8 165.97 272 161.77 272C158.07 272 155.47 273.6 152.67 275.3C149.87 277.1 146.87 278.9 142.67 278.9C138.47 278.9 135.47 277.1 132.67 275.3C129.97 273.6 127.37 272 123.57 272C119.27 272 115.37 272.8 111.87 273.5C110.27 273.8 108.77 274.1 107.37 274.4C108.07 275.4 108.77 276.4 109.47 277.3C109.57 277.2 109.77 277.1 109.87 277.1C110.47 276.9 111.17 277.1 111.57 277.6C119.27 286.8 130.67 292.1 142.67 292.1C146.37 292.1 150.07 291.6 153.57 290.6L165.17 285.2ZM153.47 290.6C154.27 290.4 154.97 290.2 155.67 289.9L153.47 290.6Z" fill="#FF3B33"/>
<path d="M119.57 259.5C117.47 260.8 115.47 262.4 113.37 264C109.47 267 105.37 270.1 100.67 271.4C101.47 271.6 102.37 271.7 103.37 271.7C105.67 271.7 108.17 271.2 111.17 270.6C114.77 269.8 118.97 269 123.47 269C128.07 269 131.27 271 134.17 272.8C136.77 274.4 139.27 275.9 142.57 275.9C145.87 275.9 148.37 274.4 150.97 272.8C153.87 271 157.07 269 161.67 269C166.27 269 170.37 269.9 173.97 270.6C176.97 271.2 179.47 271.7 181.77 271.7C182.77 271.7 183.67 271.6 184.47 271.4C179.77 270.1 175.77 267 171.77 264C166.57 260 161.77 256.3 155.77 256.3C152.17 256.3 150.57 257.4 148.77 258.5C147.17 259.5 145.47 260.6 142.57 260.6C139.77 260.6 138.07 259.5 136.37 258.5C134.57 257.4 132.97 256.3 129.37 256.3C127.77 256.3 126.27 256.6 124.77 257L119.57 259.5ZM124.77 257C122.97 257.6 121.27 258.4 119.57 259.5L124.77 257Z" fill="#FF3B33"/>
<path d="M271.47 289.8C242.07 266.9 271.47 238.9 271.47 238.9C291.47 222.9 284.17 203.5 279.37 183.3C273.27 157.7 276.57 125.6 276.57 99.3C276.57 96.7 276.47 94.2 276.27 91.7C275.47 81 273.17 70.8 269.57 61.3C269.47 61.1 269.37 60.9 269.37 60.7C269.37 60.6 269.27 60.6 269.27 60.5C255.27 24.9 222.77 0 184.87 0H100.27C49.6697 0 8.56971 44.4 8.56971 99.3C8.56971 125 7.26971 152.3 2.76971 178.3C-0.730289 198.6 -4.13029 224.3 14.1697 239C14.1697 239 43.5697 267.1 14.1697 289.9C14.1697 289.9 -20.2303 318.9 20.3697 349.6C22.2697 351 24.8697 349.2 24.1697 346.9C20.9697 337 18.4697 318.9 34.8697 304C34.8697 304 71.1697 269.7 38.9697 220.6C30.3697 207.5 31.0697 188.2 40.5697 175.3C52.3697 159.2 78.0697 158.9 94.9697 149.1C125.67 131.3 140.47 101.8 142.67 67.1C141.17 91.5 154.07 119 171.47 135.3C184.17 147.2 200.07 155.1 216.37 160.7C243.77 170.1 266.57 190.6 246.87 220.6C214.67 269.7 250.97 304 250.97 304C267.37 318.9 264.87 336.9 261.67 346.9C260.97 349.1 263.57 351 265.47 349.6C305.97 318.8 271.47 289.8 271.47 289.8Z" fill="#F2B844"/>
<path d="M265.37 349.5C263.47 350.9 260.87 349.1 261.57 346.8C264.77 336.9 267.27 318.8 250.87 303.9C250.87 303.9 214.57 269.6 246.77 220.5C262.37 196.6 251.17 178.7 232.07 167.7C226.47 142.4 229.67 111.2 229.67 85.5C229.67 82.9 229.57 80.4 229.37 77.9C228.57 67.2 226.27 57 222.67 47.5C222.57 47.3 222.47 47.1 222.47 46.9C222.47 46.8 222.37 46.7 222.37 46.7C214.67 27.1 201.27 10.7 184.47 0H184.87C222.77 0 255.27 24.9 269.27 60.4C269.27 60.5 269.37 60.5 269.37 60.6C269.47 60.8 269.57 61 269.57 61.3C273.17 70.8 275.47 81 276.27 91.7C276.47 94.2 276.57 96.8 276.57 99.3C276.57 125.6 273.27 157.7 279.37 183.3C284.17 203.6 291.47 223 271.47 238.9C271.47 238.9 242.07 267 271.47 289.8C271.47 289.8 305.97 318.8 265.37 349.5Z" fill="#E59E2C"/>
</svg>
