<svg width="350" height="350" viewBox="0 0 350 350" fill="none" xmlns="http://www.w3.org/2000/svg">
<g clip-path="url(#clip0_834_2811)">
<path d="M308.301 339.746H41.6992C36.0363 339.746 31.4453 335.155 31.4453 329.492V226.953C31.4453 221.29 36.0363 216.699 41.6992 216.699H308.301C313.964 216.699 318.555 221.29 318.555 226.953V329.492C318.555 335.155 313.964 339.746 308.301 339.746Z" fill="#E6935C"/>
<path d="M328.809 339.746V216.699C328.809 211.036 324.218 206.445 318.555 206.445H175V350H318.555C324.218 350 328.809 345.409 328.809 339.746Z" fill="#DC7D41"/>
<path d="M318.555 206.445H31.4453C25.7824 206.445 21.1914 211.036 21.1914 216.699V339.746C21.1914 345.409 25.7824 350 31.4453 350H318.555C324.218 350 328.809 345.409 328.809 339.746V216.699C328.809 211.036 324.218 206.445 318.555 206.445ZM222.852 288.477H185.254V267.969H222.852H260.449V288.477H222.852ZM127.148 288.477H89.5508V267.969H127.148H164.746V288.477H127.148ZM41.6992 288.477V267.969H69.043V288.477H41.6992ZM280.957 267.969H308.301V288.477H280.957V267.969ZM308.301 247.461H270.703H233.105V226.953H308.301V247.461ZM212.598 247.461H175H137.402V226.953H212.598V247.461ZM41.6992 226.953H116.895V247.461H79.2969H41.6992V226.953ZM41.6992 308.984H79.2969H116.895V329.492H41.6992V308.984ZM137.402 308.984H175H212.598V329.492H137.402V308.984ZM308.301 329.492H233.105V308.984H270.703H308.301V329.492Z" fill="#B95D2E"/>
<path d="M328.809 339.746V216.699C328.809 211.036 324.218 206.445 318.555 206.445H175V226.953H212.598V247.461H175V308.984H212.598V329.492H175V350H318.555C324.218 350 328.809 345.409 328.809 339.746ZM185.254 288.477V267.969H222.852H260.449V288.477H222.852H185.254ZM308.301 329.492H233.105V308.984H270.703H308.301V329.492ZM308.301 288.477H280.957V267.969H308.301V288.477ZM308.301 247.461H270.703H233.105V226.953H308.301V247.461Z" fill="#8F4C19"/>
<path d="M38.2812 75.1953H10.9375C5.27461 75.1953 0.683594 70.6043 0.683594 64.9414C0.683594 59.2785 5.27461 54.6875 10.9375 54.6875H28.0273V37.5977C28.0273 31.9348 32.6184 27.3438 38.2812 27.3438H311.719C317.382 27.3438 321.973 31.9348 321.973 37.5977C321.973 43.2605 317.382 47.8516 311.719 47.8516H48.5352V64.9414C48.5352 70.6043 43.9441 75.1953 38.2812 75.1953Z" fill="#5A697D"/>
<path d="M311.719 27.3438H175V47.8516H311.719C317.382 47.8516 321.973 43.2605 321.973 37.5977C321.973 31.9348 317.382 27.3438 311.719 27.3438Z" fill="#414664"/>
<path d="M216.016 61.5234C210.353 61.5234 205.762 56.9324 205.762 51.2695V23.9258C205.762 18.2629 210.353 13.6719 216.016 13.6719C221.679 13.6719 226.27 18.2629 226.27 23.9258V51.2695C226.27 56.9324 221.679 61.5234 216.016 61.5234Z" fill="#B95D2E"/>
<path d="M195.508 61.5234C189.845 61.5234 185.254 56.9324 185.254 51.2695V23.9258C185.254 18.2629 189.845 13.6719 195.508 13.6719C201.171 13.6719 205.762 18.2629 205.762 23.9258V51.2695C205.762 56.9324 201.171 61.5234 195.508 61.5234Z" fill="#8F4C19"/>
<path d="M175 95.7031C169.337 95.7031 164.746 91.1121 164.746 85.4492V23.9258C164.746 18.2629 169.337 13.6719 175 13.6719C180.663 13.6719 185.254 18.2629 185.254 23.9258V85.4492C185.254 91.1121 180.663 95.7031 175 95.7031Z" fill="#DC7D41"/>
<path d="M198.926 143.555H151.074C145.971 143.555 141.645 139.802 140.923 134.751L134.088 86.8991C133.667 83.9563 134.544 80.9765 136.492 78.7309C138.439 76.4853 141.266 75.1953 144.238 75.1953H205.762C208.735 75.1953 211.56 76.4853 213.508 78.7309C215.456 80.9765 216.333 83.9569 215.913 86.8991L209.077 134.751C208.355 139.802 204.029 143.555 198.926 143.555Z" fill="#48B8FF"/>
<path d="M277.539 185.938C271.876 185.938 267.285 181.346 267.285 175.684V10.2539C267.285 4.59102 271.876 0 277.539 0C283.202 0 287.793 4.59102 287.793 10.2539V175.684C287.793 181.346 283.202 185.938 277.539 185.938Z" fill="#C1E1FA"/>
<path d="M72.4609 185.938C66.798 185.938 62.207 181.346 62.207 175.684V10.2539C62.207 4.59102 66.798 0 72.4609 0C78.1238 0 82.7148 4.59102 82.7148 10.2539V175.684C82.7148 181.346 78.1238 185.938 72.4609 185.938Z" fill="#DCF2FF"/>
<path d="M185.254 85.4492V23.9258C185.254 18.2629 180.663 13.6719 175 13.6719V95.7031C180.663 95.7031 185.254 91.1121 185.254 85.4492Z" fill="#B95D2E"/>
<path d="M205.762 75.1953H175V143.555H198.926C204.029 143.555 208.355 139.802 209.077 134.751L215.913 86.8991C216.333 83.9563 215.456 80.9765 213.508 78.7309C211.56 76.4853 208.735 75.1953 205.762 75.1953Z" fill="#3296F5"/>
<path d="M212.598 95.7031H137.402C131.739 95.7031 127.148 91.1121 127.148 85.4492C127.148 79.7863 131.739 75.1953 137.402 75.1953H212.598C218.261 75.1953 222.852 79.7863 222.852 85.4492C222.852 91.1121 218.261 95.7031 212.598 95.7031Z" fill="#C1E1FA"/>
<path d="M212.598 75.1953H175V95.7031H212.598C218.261 95.7031 222.852 91.1121 222.852 85.4492C222.852 79.7863 218.261 75.1953 212.598 75.1953Z" fill="#A3C8EB"/>
<path d="M339.746 226.953H10.2539C4.59102 226.953 0 222.362 0 216.699V175.684C0 170.021 4.59102 165.43 10.2539 165.43H339.746C345.409 165.43 350 170.021 350 175.684V216.699C350 222.362 345.409 226.953 339.746 226.953Z" fill="#DC7D41"/>
<path d="M339.746 165.43H175V226.953H339.746C345.409 226.953 350 222.362 350 216.699V175.684C350 170.021 345.409 165.43 339.746 165.43Z" fill="#B95D2E"/>
</g>
<defs>
<clipPath id="clip0_834_2811">
<rect width="350" height="350" fill="white"/>
</clipPath>
</defs>
</svg>
