<svg width="350" height="350" viewBox="0 0 350 350" fill="none" xmlns="http://www.w3.org/2000/svg">
<path d="M344.531 164.062C344.531 251.651 268.63 344.531 175 344.531C81.3702 344.531 5.46875 251.651 5.46875 164.062C5.46875 76.4736 81.3702 5.46875 175 5.46875C268.63 5.46875 344.531 76.4736 344.531 164.062Z" fill="#FFCC80"/>
<path d="M92.9688 278.906C76.4773 278.911 60.0352 277.102 43.9395 273.511C75.0313 314.986 122.195 344.531 175 344.531C268.63 344.531 344.531 251.651 344.531 164.062C344.531 131.558 334.072 101.342 316.138 76.1875C305.314 189.929 209.546 278.906 92.9688 278.906Z" fill="#FFB74D"/>
<path d="M175 300.781C154.694 300.781 135.22 292.715 120.862 278.357C106.504 263.998 98.4375 244.524 98.4375 224.219V134.481C98.4376 131.988 99.2896 129.57 100.852 127.627C102.415 125.684 104.594 124.333 107.03 123.799C121.406 120.645 151.102 114.844 175 114.844C198.898 114.844 228.594 120.645 242.97 123.799C245.406 124.333 247.585 125.684 249.148 127.627C250.71 129.57 251.562 131.988 251.562 134.481V224.219C251.562 244.524 243.496 263.998 229.138 278.357C214.78 292.715 195.306 300.781 175 300.781Z" fill="#E27484"/>
<path d="M248.828 142.188C249.743 142.188 250.652 142.21 251.563 142.228V134.481C251.563 131.988 250.712 129.569 249.149 127.626C247.586 125.683 245.406 124.333 242.97 123.799C228.594 120.645 198.898 114.844 175 114.844C151.102 114.844 121.406 120.645 107.03 123.799C104.594 124.333 102.414 125.683 100.851 127.626C99.2885 129.569 98.4368 131.988 98.4376 134.481V224.219C98.4206 236.241 101.247 248.097 106.687 258.818C119.846 192.327 178.473 142.188 248.828 142.188Z" fill="#D8667C"/>
<path d="M229.476 278.018C222.354 285.229 213.872 290.954 204.52 294.862C195.169 298.77 185.135 300.782 175 300.782C164.865 300.782 154.831 298.77 145.48 294.862C136.128 290.954 127.646 285.229 120.524 278.018C122.965 257.059 146.426 240.625 175 240.625C203.574 240.625 227.035 257.059 229.476 278.018Z" fill="#EF5350"/>
<path d="M334.255 105.633C337.513 108.891 340.097 112.758 341.86 117.015C343.624 121.272 344.531 125.834 344.531 130.441C344.531 135.049 343.624 139.611 341.861 143.868C340.097 148.125 337.513 151.992 334.255 155.25C330.997 158.508 327.129 161.093 322.873 162.856C318.616 164.619 314.054 165.527 309.446 165.527C300.141 165.527 291.217 161.83 284.638 155.251C270.936 141.549 267.969 88.9639 267.969 88.9639C267.969 88.9639 320.554 91.9307 334.255 105.633Z" fill="#2196F3"/>
<path d="M15.7451 105.633C9.16532 112.212 5.46881 121.136 5.46875 130.441C5.46869 139.746 9.16507 148.67 15.7447 155.25C22.3244 161.83 31.2484 165.527 40.5535 165.527C49.8586 165.527 58.7826 161.83 65.3624 155.251C79.0643 141.549 82.0311 88.9639 82.0311 88.9639C82.0311 88.9639 29.4463 91.9307 15.7451 105.633Z" fill="#2196F3"/>
<path d="M337.14 108.912C335.328 115.026 332.277 120.701 328.178 125.585C324.079 130.469 319.019 134.458 313.313 137.303C307.607 140.148 301.376 141.789 295.008 142.123C288.641 142.457 282.273 141.478 276.3 139.246C278.498 146.045 281.237 151.847 284.64 155.251C290.952 161.559 299.432 165.224 308.351 165.5C317.271 165.777 325.961 162.643 332.652 156.737C339.343 150.832 343.531 142.598 344.365 133.713C345.199 124.828 342.615 115.959 337.14 108.912Z" fill="#1E88E5"/>
<path d="M60.1562 142.187C49.7763 142.186 39.6624 138.904 31.2602 132.809C22.858 126.715 16.5978 118.12 13.3744 108.253C7.68166 115.224 4.88557 124.116 5.56434 133.091C6.24311 142.066 10.3448 150.436 17.0213 156.472C23.6978 162.507 32.4384 165.746 41.4358 165.519C50.4332 165.292 58.9992 161.616 65.3624 155.251C68.5753 152.038 71.1955 146.691 73.3277 140.386C69.0391 141.581 64.608 142.187 60.1562 142.187Z" fill="#1E88E5"/>
<path d="M289.844 125.781C295.884 125.781 300.781 120.884 300.781 114.844C300.781 108.803 295.884 103.906 289.844 103.906C283.803 103.906 278.906 108.803 278.906 114.844C278.906 120.884 283.803 125.781 289.844 125.781Z" fill="#90CAF9"/>
<path d="M60.1562 125.781C66.1969 125.781 71.0938 120.884 71.0938 114.844C71.0938 108.803 66.1969 103.906 60.1562 103.906C54.1156 103.906 49.2188 108.803 49.2188 114.844C49.2188 120.884 54.1156 125.781 60.1562 125.781Z" fill="#90CAF9"/>
<path d="M229.688 121.078V136.719C229.688 139.62 228.535 142.402 226.484 144.453C224.433 146.504 221.651 147.656 218.75 147.656H131.25C128.349 147.656 125.567 146.504 123.516 144.453C121.465 142.402 120.312 139.62 120.312 136.719V121.078C135.857 118.111 157.062 114.844 175 114.844C192.938 114.844 214.143 118.111 229.688 121.078Z" fill="#F5F5F5"/>
<path d="M229.688 121.078C214.143 118.111 192.938 114.844 175 114.844C157.062 114.844 135.857 118.111 120.312 121.078V136.719C120.312 139.62 121.465 142.402 123.516 144.453C125.567 146.504 128.349 147.656 131.25 147.656H140.638C152.898 137.412 167.117 129.774 182.428 125.21C197.739 120.646 213.82 119.252 229.688 121.112V121.078Z" fill="#E5E5E5"/>
<path d="M153.125 273.438C159.166 273.438 164.062 268.541 164.062 262.5C164.062 256.459 159.166 251.562 153.125 251.562C147.084 251.562 142.188 256.459 142.188 262.5C142.188 268.541 147.084 273.438 153.125 273.438Z" fill="#FF8F8F"/>
<path d="M196.511 243.931C195.665 251.162 193.309 258.135 189.594 264.397C185.88 270.659 180.891 276.07 174.951 280.28C169.011 284.49 162.252 287.404 155.113 288.833C147.974 290.262 140.614 290.175 133.511 288.576C148.289 298.097 165.892 302.244 183.366 300.322C200.84 298.399 217.121 290.524 229.476 278.017C227.687 262.662 214.61 249.745 196.511 243.931Z" fill="#E53935"/>
<path d="M98.4375 82.0312C98.4375 83.4817 99.0137 84.8727 100.039 85.8982C101.065 86.9238 102.456 87.5 103.906 87.5C105.357 87.5 106.748 86.9238 107.773 85.8982C108.799 84.8727 109.375 83.4817 109.375 82.0312C109.375 77.68 111.104 73.507 114.18 70.4303C117.257 67.3535 121.43 65.625 125.781 65.625C130.132 65.625 134.305 67.3535 137.382 70.4303C140.459 73.507 142.188 77.68 142.188 82.0312C142.188 83.4817 142.764 84.8727 143.789 85.8982C144.815 86.9238 146.206 87.5 147.656 87.5C149.107 87.5 150.498 86.9238 151.523 85.8982C152.549 84.8727 153.125 83.4817 153.125 82.0312C153.125 74.7792 150.244 67.8242 145.116 62.6963C139.988 57.5684 133.033 54.6875 125.781 54.6875C118.529 54.6875 111.574 57.5684 106.446 62.6963C101.318 67.8242 98.4375 74.7792 98.4375 82.0312Z" fill="#231F20"/>
<path d="M196.875 82.0312C196.875 83.4817 197.451 84.8727 198.477 85.8982C199.502 86.9238 200.893 87.5 202.344 87.5C203.794 87.5 205.185 86.9238 206.211 85.8982C207.236 84.8727 207.812 83.4817 207.812 82.0312C207.812 77.68 209.541 73.507 212.618 70.4303C215.695 67.3535 219.868 65.625 224.219 65.625C228.57 65.625 232.743 67.3535 235.82 70.4303C238.896 73.507 240.625 77.68 240.625 82.0312C240.625 83.4817 241.201 84.8727 242.227 85.8982C243.252 86.9238 244.643 87.5 246.094 87.5C247.544 87.5 248.935 86.9238 249.961 85.8982C250.986 84.8727 251.562 83.4817 251.562 82.0312C251.562 74.7792 248.682 67.8242 243.554 62.6963C238.426 57.5684 231.471 54.6875 224.219 54.6875C216.967 54.6875 210.012 57.5684 204.884 62.6963C199.756 67.8242 196.875 74.7792 196.875 82.0312Z" fill="#231F20"/>
</svg>
