<svg width="350" height="289" viewBox="0 0 350 289" fill="none" xmlns="http://www.w3.org/2000/svg">
<path d="M94.9927 94.5951L5.99796 225.623C2.71517 230.457 6.17771 237.004 12.0243 237.004H256.001C261.847 237.004 265.31 230.467 262.027 225.623L140.044 45.9966C137.149 41.7394 130.876 41.7394 127.991 45.9966L105.825 79.0989" fill="#D3E8FF"/>
<path d="M250.58 232.7H134.017V47.1133C136.202 47.1133 138.397 48.135 139.779 50.169L256.341 221.82C259.491 226.446 256.171 232.7 250.58 232.7Z" fill="#9ECAFF"/>
<path d="M258.46 7.78598H256.086V5.4114C256.086 2.42188 253.664 0 250.674 0C247.685 0 245.263 2.42188 245.263 5.4114V7.78598H242.888C239.899 7.78598 237.477 10.2079 237.477 13.1974C237.477 16.1869 239.899 18.6088 242.888 18.6088H245.263V20.9834C245.263 23.9729 247.685 26.3947 250.674 26.3947C253.664 26.3947 256.086 23.9729 256.086 20.9834V18.6088H258.46C261.45 18.6088 263.872 16.1869 263.872 13.1974C263.872 10.2079 261.44 7.78598 258.46 7.78598Z" fill="#FF8D00"/>
<path d="M221.811 46.0155H219.436V43.6409C219.436 40.6514 217.014 38.2295 214.025 38.2295C211.035 38.2295 208.613 40.6514 208.613 43.6409V46.0155H206.239C203.249 46.0155 200.827 48.4374 200.827 51.4269C200.827 54.4164 203.249 56.8383 206.239 56.8383H208.613V59.2128C208.613 62.2024 211.035 64.6242 214.025 64.6242C217.014 64.6242 219.436 62.2024 219.436 59.2128V56.8383H221.811C224.8 56.8383 227.222 54.4164 227.222 51.4269C227.222 48.4374 224.791 46.0155 221.811 46.0155Z" fill="#FF0026"/>
<path d="M243.986 254.828H241.611V252.453C241.611 249.464 239.189 247.042 236.2 247.042C233.21 247.042 230.788 249.464 230.788 252.453V254.828H228.414C225.424 254.828 223.002 257.25 223.002 260.239C223.002 263.229 225.424 265.651 228.414 265.651H230.788V268.025C230.788 271.015 233.21 273.437 236.2 273.437C239.189 273.437 241.611 271.015 241.611 268.025V265.651H243.986C246.975 265.651 249.397 263.229 249.397 260.239C249.397 257.25 246.975 254.828 243.986 254.828Z" fill="#00ADED"/>
<path d="M46.7062 172.322L27.4163 175.151C23.7929 175.747 20.4912 172.947 20.4912 169.276V133.26C20.4912 129.58 23.7835 126.789 27.4163 127.385L37.8512 129.107L53.1677 131.065L97.4901 138.927C101.388 139.57 104.245 142.938 104.245 146.883V155.653C104.245 159.608 101.388 162.975 97.4901 163.609L63.9337 169.134" fill="#BFDCFF"/>
<path d="M163.089 151.273H345.137V97.083L163.089 139.901V151.273Z" fill="#00BF59"/>
<path d="M163.089 151.272H345.137V205.453L163.089 162.635V151.272Z" fill="#00ADED"/>
<path d="M345.27 252.717V276.274C345.27 281.846 339.206 285.299 334.419 282.451L166.883 182.757C164.452 181.309 162.957 178.689 162.957 175.86V170.014L345.27 252.717Z" fill="#7881F1"/>
<path d="M345.27 205.453V252.717L162.957 170.014V160.544L345.27 205.453Z" fill="#009BEC"/>
<path d="M345.27 49.8184V97.0829L162.957 142.001V132.522L345.27 49.8184Z" fill="#FF9400"/>
<path d="M345.27 26.2618V49.8184L162.957 132.522V126.675C162.957 123.847 164.452 121.226 166.883 119.788L334.419 20.0936C339.206 17.246 345.27 20.6896 345.27 26.2618Z" fill="#FF0026"/>
</svg>
