<svg width="24" height="24" viewBox="0 0 24 24" fill="none" xmlns="http://www.w3.org/2000/svg">
<path fill-rule="evenodd" clip-rule="evenodd" d="M2.40144 21.6054C2.92757 22.1315 3.76939 22.1315 4.24291 21.6054L11.3457 14.5026C10.2935 13.4503 8.66245 13.4503 7.61018 14.5026L2.34882 19.7639C1.8753 20.2374 1.8753 21.0793 2.40144 21.6054ZM2.40144 2.3488C1.8753 2.87493 1.8753 3.71675 2.40144 4.19027L19.7639 21.5527C20.2901 22.0789 21.1319 22.0789 21.6054 21.5527C22.1315 21.0266 22.1315 20.1848 21.6054 19.7113L13.8712 11.9771L21.6054 4.24294C22.1315 3.7168 22.1315 2.87499 21.6054 2.40146C21.0793 1.87533 20.2374 1.87533 19.7639 2.40146L12.0297 10.1356L4.29553 2.40146C3.76939 1.87533 2.92757 1.87528 2.40144 2.3488Z" fill="white"/>
</svg>
