<svg width="350" height="350" viewBox="0 0 350 350" fill="none" xmlns="http://www.w3.org/2000/svg">
<path d="M98.9064 274.846C123.5 274.846 143.438 254.909 143.438 230.315C143.438 205.721 123.5 185.783 98.9064 185.783C74.3124 185.783 54.375 205.721 54.375 230.315C54.375 254.909 74.3124 274.846 98.9064 274.846Z" fill="#365E7D"/>
<path d="M251.088 274.846C275.682 274.846 295.62 254.909 295.62 230.315C295.62 205.721 275.682 185.783 251.088 185.783C226.494 185.783 206.557 205.721 206.557 230.315C206.557 254.909 226.494 274.846 251.088 274.846Z" fill="#365E7D"/>
<path d="M196.784 301.366C219.552 306.238 239.543 318.593 254.065 335.731C259.072 341.641 254.433 350 246.688 350H103.307C95.5622 350 90.9231 341.641 95.9302 335.731C110.452 318.593 130.443 306.238 153.211 301.366H196.784Z" fill="#FF87AF"/>
<path d="M155.265 328.618L175 350L194.735 328.618L191.508 313.975L175 314.44H156.849L155.265 328.618Z" fill="#5490F9"/>
<path d="M165.244 301.366C152.399 307.507 141.526 325.514 135.04 350H103.312C95.5655 350 90.9266 341.639 95.9351 335.73C110.459 318.594 130.446 306.241 153.216 301.366H165.244Z" fill="#FF6196"/>
<path d="M196.789 263.606V301.367L175.001 314.444L168.895 310.782L153.212 301.367V263.606H196.789Z" fill="#FFDDCE"/>
<path d="M196.789 263.606V279.226C191.853 280.226 186.74 280.754 181.508 280.754H168.895V310.782L153.212 301.367V263.606H196.789Z" fill="#FFCBBE"/>
<path d="M175 314.441L145.108 335.915L136.917 306.302L153.211 297.846L175 314.441Z" fill="#FFC0D5"/>
<path d="M175 314.441L196.789 297.846L213.082 306.302L204.892 335.915L175 314.441Z" fill="#FFC0D5"/>
<path d="M181.565 0.000976562H168.431C105.145 0.000976562 53.8413 51.304 53.8413 114.59C53.8413 177.876 105.144 229.18 168.431 229.18H181.565C244.851 229.18 296.155 177.877 296.155 114.59C296.154 51.3047 244.851 0.000976562 181.565 0.000976562Z" fill="#365E7D"/>
<path d="M154.045 195.612C168.749 210.316 187.425 221.034 208.32 226.034C199.735 228.091 190.777 229.175 181.566 229.175H168.426C136.785 229.175 108.138 216.351 87.4049 195.612C66.6653 174.88 53.8418 146.232 53.8418 114.591C53.8411 51.3023 105.143 0 168.425 0H181.566C190.777 0 199.735 1.08486 208.319 3.14111C157.939 15.1901 120.482 60.5138 120.482 114.591C120.482 146.232 133.305 174.88 154.045 195.612Z" fill="#2B4D66"/>
<path d="M78.1531 214.437C93.5601 214.437 106.05 201.947 106.05 186.54C106.05 171.133 93.5601 158.644 78.1531 158.644C62.7462 158.644 50.2563 171.133 50.2563 186.54C50.2563 201.947 62.7462 214.437 78.1531 214.437Z" fill="#FFCBBE"/>
<path d="M271.846 214.437C287.253 214.437 299.743 201.947 299.743 186.54C299.743 171.133 287.253 158.644 271.846 158.644C256.44 158.644 243.95 171.133 243.95 186.54C243.95 201.947 256.44 214.437 271.846 214.437Z" fill="#FFCBBE"/>
<path d="M95.6472 194.164C93.7919 194.164 91.992 193.185 91.0261 191.449C89.3684 188.467 86.5185 186.813 82.3151 186.391C78.8773 186.045 75.8975 186.723 75.8688 186.73C73.0332 187.424 70.1758 185.692 69.4806 182.859C68.7854 180.026 70.5183 177.166 73.3511 176.471C73.8241 176.355 78.1198 175.353 83.3705 175.88C91.0507 176.651 96.8906 180.259 100.258 186.314C101.676 188.863 100.758 192.079 98.2093 193.497C97.3965 193.949 96.516 194.164 95.6472 194.164Z" fill="#EAAC9D"/>
<path d="M254.348 194.164C253.479 194.164 252.598 193.949 251.785 193.497C249.236 192.079 248.32 188.863 249.737 186.314C253.105 180.259 258.944 176.651 266.624 175.879C271.876 175.353 276.172 176.355 276.644 176.471C279.477 177.166 281.21 180.026 280.515 182.859C279.821 185.685 276.975 187.414 274.148 186.735C274.05 186.712 270.962 186.014 267.428 186.417C263.359 186.883 260.592 188.529 258.969 191.448C258.003 193.185 256.204 194.164 254.348 194.164Z" fill="#EAAC9D"/>
<path d="M257.874 128.712V188.776C257.874 230.951 223.684 265.141 181.508 265.141H168.494C126.319 265.141 92.1211 230.951 92.1211 188.776V128.712H92.1279C111.1 128.712 126.142 124.184 137.91 117.839C165.381 103.037 175.001 78.3467 175.001 78.3467C175.001 78.3467 194.628 128.712 257.874 128.712Z" fill="#FFDDCE"/>
<path d="M197.896 263.373C192.621 264.535 187.135 265.141 181.508 265.141H168.494C126.319 265.141 92.1211 230.951 92.1211 188.775V128.712H92.1279C111.1 128.712 126.142 124.184 137.91 117.839V188.775C137.91 225.324 163.593 255.88 197.896 263.373Z" fill="#FFCBBE"/>
<path d="M135.637 162.057C133.639 162.057 131.792 162.94 130.278 164.423L126.786 161.938C124.409 160.247 121.111 160.804 119.42 163.181C117.729 165.557 118.285 168.855 120.662 170.546L126.4 174.628C126.4 174.658 126.397 174.687 126.397 174.718C126.397 181.699 130.542 187.379 135.638 187.379C140.734 187.379 144.88 181.699 144.88 174.718C144.88 167.736 140.733 162.057 135.637 162.057Z" fill="#2B4D66"/>
<path d="M230.581 163.181C228.89 160.803 225.592 160.247 223.215 161.939L219.723 164.423C218.209 162.94 216.362 162.057 214.364 162.057C209.268 162.057 205.122 167.736 205.122 174.718C205.122 181.699 209.267 187.379 214.364 187.379C219.46 187.379 223.605 181.699 223.605 174.718C223.605 174.688 223.602 174.658 223.602 174.628L229.34 170.546C231.716 168.856 232.272 165.558 230.581 163.181Z" fill="#2B4D66"/>
<path d="M124.849 149.253C123.497 149.253 122.145 148.737 121.114 147.706C119.051 145.643 119.051 142.299 121.114 140.236C125.139 136.211 130.491 133.994 136.183 133.994C141.876 133.994 147.227 136.211 151.252 140.236C153.316 142.299 153.315 145.643 151.252 147.706C149.189 149.769 145.845 149.769 143.783 147.706C141.753 145.675 139.054 144.558 136.183 144.558C133.312 144.558 130.613 145.676 128.583 147.706C127.552 148.737 126.2 149.253 124.849 149.253Z" fill="#365E7D"/>
<path d="M225.947 149.253C224.596 149.253 223.244 148.737 222.213 147.706C220.183 145.676 217.484 144.558 214.613 144.558C211.742 144.558 209.044 145.675 207.013 147.706C204.951 149.768 201.607 149.769 199.544 147.706C197.481 145.643 197.481 142.299 199.544 140.236C203.569 136.211 208.92 133.994 214.613 133.994C220.305 133.994 225.657 136.211 229.682 140.236C231.745 142.298 231.745 145.643 229.682 147.706C228.651 148.737 227.299 149.253 225.947 149.253Z" fill="#365E7D"/>
<path d="M175 215.314C165.246 215.314 156.49 208.792 153.706 199.453C152.873 196.657 154.463 193.715 157.258 192.882C160.054 192.05 162.995 193.64 163.829 196.435C165.289 201.331 169.883 204.751 175 204.751C180.124 204.751 184.717 201.333 186.17 196.44C187.001 193.644 189.941 192.05 192.737 192.88C195.534 193.711 197.127 196.651 196.297 199.447C193.522 208.79 184.764 215.314 175 215.314Z" fill="#DD636E"/>
<path d="M257.867 108.916C223.888 79.8948 178.48 71.529 137.91 83.8316C121.502 88.8103 105.882 97.1768 92.1284 108.916C95.8328 86.3951 114.417 66.212 137.91 55.6484C149.481 50.4374 162.234 47.5711 174.994 47.902C213.663 46.895 252.332 75.3038 257.867 108.916Z" fill="#FF87AF"/>
<path d="M137.91 55.6494V83.8326C121.501 88.8112 105.882 97.1777 92.1279 108.917C95.8323 86.3954 114.417 66.2123 137.91 55.6494Z" fill="#FF6196"/>
</svg>
