<svg width="24" height="25" viewBox="0 0 24 25" fill="none" xmlns="http://www.w3.org/2000/svg">
<path d="M22 6.71953V3.92914C22.0002 3.4958 21.8036 3.08581 21.4657 2.81454C21.1278 2.54327 20.685 2.44006 20.2619 2.53395L14.7429 3.75772C13.6944 3.99172 12.9486 4.92156 12.9476 5.99575V15.7335C12.9582 16.1889 12.6449 16.5881 12.2 16.6859L10.9524 16.9621C9.69239 17.216 8.75702 18.2799 8.66667 19.562V19.7096C8.66666 21.2488 9.9131 22.4974 11.4524 22.5C11.6573 22.4988 11.8616 22.4764 12.0619 22.4333L13.1476 22.1905C14.4255 21.9086 15.335 20.7753 15.3333 19.4668V10.1194C15.3227 9.66404 15.6361 9.26489 16.081 9.16708L20.881 8.10997C21.5332 7.96521 21.9981 7.38767 22 6.71953Z" fill="white"/>
<path d="M6.7619 10.1194H8.66667C9.19265 10.1194 9.61905 10.5458 9.61905 11.0718C9.61905 11.5977 9.19265 12.0241 8.66667 12.0241H6.7619V13.9288C6.7619 14.4548 6.33551 14.8812 5.80952 14.8812C5.28354 14.8812 4.85714 14.4548 4.85714 13.9288V12.0241H2.95238C2.4264 12.0241 2 11.5977 2 11.0718C2 10.5458 2.4264 10.1194 2.95238 10.1194H4.85714V8.21472C4.85714 7.68876 5.28354 7.26237 5.80952 7.26237C6.33551 7.26237 6.7619 7.68876 6.7619 8.21472V10.1194Z" fill="white"/>
</svg>
