<svg width="303" height="339" viewBox="0 0 303 339" fill="none" xmlns="http://www.w3.org/2000/svg">
<path d="M34.9952 152.481V234.155H23.3324C10.4459 234.155 0 223.709 0 210.823V175.821C0 162.934 10.4459 152.488 23.3324 152.488H34.9952V152.481Z" fill="#FFD2BA"/>
<path d="M303 175.432V210.574C303 223.512 292.555 234 279.669 234H268V152H279.669C292.548 152 303 162.495 303 175.432Z" fill="#FFD2BA"/>
<path d="M279.669 152H268V152.834C278.288 155.508 285.486 164.92 285.5 175.708V211.272C285.486 222.06 278.281 231.472 268 234.146V234.98H279.669C293.156 235.54 303 224.366 303 211.272V175.708C303.007 162.621 292.555 152 279.669 152Z" fill="#FFBC98"/>
<path d="M69 86.7786C58.405 107.02 58.405 126.432 58.405 145.788C57.733 164.197 49.2021 181.41 35 193V82C40.3215 85.1604 46.3836 86.8132 52.5555 86.7786H69Z" fill="#91562D"/>
<path d="M268 82V193C253.798 181.417 245.26 164.197 244.595 145.788C244.595 126.432 244.595 107.02 234 86.7786H250.445C256.616 86.8062 262.679 85.1534 268 82Z" fill="#91562D"/>
<path d="M268 191.908V262.513C268 304.759 234.094 339 192.277 339H110.723C68.8991 339 35 304.752 35 262.513V191.908C49.1371 180.359 57.6358 163.19 58.298 144.835C58.298 125.536 58.2979 106.182 68.8445 86H234.162C244.709 106.182 244.709 125.536 244.709 144.835C245.364 163.19 253.863 180.352 268 191.908Z" fill="#FFD2BA"/>
<path d="M245 141.766C245 122.161 243.964 102.501 233.106 82H215.115C225.973 102.501 225.973 122.161 225.973 141.766C226.661 160.41 235.404 177.844 249.958 189.582V261.304C249.958 304.218 215.052 339 172 339H189.991C233.301 339 269.548 306.743 267.949 261.304V189.582C253.402 177.844 246 166 245 141.766Z" fill="#FFBC98"/>
<path d="M285.354 52.5031C285.361 65 278.682 76.5465 267.853 82.7813C262.548 85.9055 256.504 87.5394 250.352 87.5052H52.0021C45.8494 87.5325 39.806 85.8987 34.501 82.7813C23.6723 76.5465 16.9932 65 17 52.5031V0L26.7418 5.8314C39.4437 13.4676 53.9846 17.501 68.8058 17.501H250.352C269.671 17.5284 285.32 33.1836 285.354 52.5031Z" fill="#A0522D"/>
<path d="M105 199.154C121.11 199.154 134.17 186.094 134.17 169.983C134.17 153.873 121.11 140.812 105 140.812C88.8893 140.812 75.8291 153.873 75.8291 169.983C75.8291 186.094 88.8893 199.154 105 199.154Z" fill="#F5F5F5"/>
<path d="M104.769 141C101.789 141.041 98.8292 141.538 96 142.478C108.166 146.217 116.456 157.399 116.456 170.059C116.456 182.719 108.16 193.901 96 197.64C106.968 201.1 118.949 197.831 126.608 189.291C134.26 180.751 136.151 168.54 131.438 158.107C126.724 147.674 116.277 140.973 104.769 141Z" fill="#CFD8DC"/>
<path d="M198.343 199.154C214.453 199.154 227.513 186.094 227.513 169.983C227.513 153.873 214.453 140.812 198.343 140.812C182.232 140.812 169.172 153.873 169.172 169.983C169.172 186.094 182.232 199.154 198.343 199.154Z" fill="#F5F5F5"/>
<path d="M97.9935 164.151C101.214 164.151 103.825 161.54 103.825 158.32C103.825 155.099 101.214 152.488 97.9935 152.488C94.7729 152.488 92.1621 155.099 92.1621 158.32C92.1621 161.54 94.7729 164.151 97.9935 164.151Z" fill="black"/>
<path d="M191.994 181.652C195.214 181.652 197.825 179.041 197.825 175.821C197.825 172.6 195.214 169.989 191.994 169.989C188.773 169.989 186.162 172.6 186.162 175.821C186.162 179.041 188.773 181.652 191.994 181.652Z" fill="black"/>
<path d="M198.343 287.828V304.16C198.343 310.606 193.12 315.829 186.674 315.829C180.227 315.829 175.004 310.606 175.004 304.16V296.284C167.306 297.693 159.492 298.376 151.672 298.328C77.5861 298.328 77.5861 245.825 102.258 245.825C126.931 245.825 134.171 257.495 151.672 257.495C169.173 257.495 176.351 245.825 201.085 245.825C218.64 245.825 223.72 272.48 198.343 287.828Z" fill="#EF314C"/>
<path d="M200.443 245.222C194.852 245.921 192.027 246.96 189.221 247.539C201.055 252.654 202.875 278.835 182.103 292.734V304.25C182.097 307.14 179.733 309.432 178 311.593C180.104 315.649 186.416 316.808 191.313 315.469C196.936 313.331 198.314 309.238 198.295 304.25V287.519C223 275 221 245.222 200.443 245.222Z" fill="#BB193B"/>
<path d="M233.345 222.486C230.125 222.486 227.514 219.875 227.514 216.655V210.824C227.514 207.604 230.125 204.992 233.345 204.992C236.565 204.992 239.176 207.604 239.176 210.824V216.655C239.176 219.875 236.565 222.486 233.345 222.486Z" fill="#02A9F4"/>
<path d="M250.846 234.156H245.015C241.795 234.156 239.184 231.544 239.184 228.325C239.184 225.105 241.795 222.493 245.015 222.493H250.846C254.066 222.493 256.678 225.105 256.678 228.325C256.678 231.544 254.066 234.156 250.846 234.156Z" fill="#02A9F4"/>
<path d="M233.345 251.657C230.125 251.657 227.514 249.046 227.514 245.826V239.994C227.514 236.775 230.125 234.163 233.345 234.163C236.565 234.163 239.176 236.775 239.176 239.994V245.826C239.176 249.046 236.565 251.657 233.345 251.657Z" fill="#02A9F4"/>
<path d="M221.675 234.156H215.844C212.624 234.156 210.013 231.544 210.013 228.325C210.013 225.105 212.624 222.493 215.844 222.493H221.675C224.895 222.493 227.507 225.105 227.507 228.325C227.507 231.544 224.895 234.156 221.675 234.156Z" fill="#02A9F4"/>
<path d="M197.999 141C194.941 141.041 191.904 141.538 189 142.478C201.487 146.217 209.994 157.399 209.994 170.059C209.994 182.719 201.48 193.901 189 197.64C200.256 201.1 212.553 197.831 220.413 189.291C228.267 180.751 230.207 168.54 225.37 158.107C220.533 147.674 209.811 140.973 197.999 141Z" fill="#CFD8DC"/>
</svg>
