<svg width="312" height="347" viewBox="0 0 312 347" fill="none" xmlns="http://www.w3.org/2000/svg">
<path d="M268.847 99.2827C282.447 112.883 293.347 129.083 300.647 147.183C307.447 163.983 311.247 182.383 311.247 201.683C311.247 212.083 310.147 222.283 308.047 232.083C302.047 260.283 287.747 285.483 267.847 304.983C258.247 314.383 247.347 322.483 235.347 328.983C214.947 340.083 191.447 346.383 166.647 346.383C164.247 346.383 161.847 346.283 159.447 346.183C114.347 343.983 74.647 321.083 49.647 286.683C32.347 262.783 22.0469 233.483 22.0469 201.683C22.0469 200.083 22.047 198.483 22.147 196.983C23.147 164.583 34.9469 134.783 53.9469 111.183C78.2469 80.9826 114.547 60.6826 155.547 57.5826C159.247 57.2826 162.947 57.1826 166.647 57.1826C199.147 57.1826 229.247 67.9826 253.347 86.0826C258.847 89.9826 263.947 94.4827 268.847 99.2827Z" fill="#FCBC1D"/>
<path opacity="0.25" d="M179.047 338.283C162.147 332.283 146.647 323.283 133.347 311.883C102.347 285.383 82.647 245.983 82.647 201.983C82.647 162.983 98.1468 127.583 123.247 101.583C137.047 87.2828 153.847 75.7828 172.547 68.0828C180.347 64.8828 188.547 62.3828 196.947 60.5828C187.147 58.4828 177.047 57.3828 166.647 57.3828C147.247 57.3828 128.847 61.1828 111.947 68.0828C93.2469 75.7828 76.447 87.1828 62.647 101.583C37.547 127.583 22.0469 162.983 22.0469 201.983C22.0469 245.983 41.6469 285.383 72.7469 311.883C86.1469 323.283 101.547 332.383 118.447 338.283C133.547 343.583 149.747 346.483 166.647 346.483C177.047 346.483 187.147 345.383 196.947 343.283C190.847 342.083 184.847 340.383 179.047 338.283Z" fill="black"/>
<path opacity="0.25" d="M234.547 167.583C232.447 157.483 235.547 147.983 241.547 143.383C243.147 142.183 245.047 141.283 247.147 140.883C256.747 138.883 266.647 147.683 269.247 160.483C271.847 173.283 266.247 185.283 256.647 187.183C253.547 187.783 250.447 187.383 247.547 185.983C241.447 183.183 236.347 176.283 234.547 167.583Z" fill="black"/>
<path d="M234.547 167.583C232.447 157.483 235.547 147.983 241.547 143.383C247.647 146.283 252.847 153.083 254.647 161.783C256.747 171.883 253.647 181.383 247.647 185.983C241.447 183.183 236.347 176.283 234.547 167.583Z" fill="#FCBC1D"/>
<path d="M269.747 136.582C268.347 136.582 266.947 135.882 266.147 134.682C260.747 126.382 254.347 118.682 247.147 111.782C245.447 110.182 245.347 107.482 246.947 105.782C248.547 104.082 251.247 103.982 252.947 105.582C260.647 112.882 267.447 121.082 273.247 129.982C274.547 131.982 273.947 134.582 271.947 135.882C271.347 136.382 270.547 136.582 269.747 136.582Z" fill="white"/>
<path d="M249.547 298.783C248.447 298.783 247.247 298.282 246.447 297.482C244.847 295.782 244.947 293.082 246.647 291.482C271.547 268.182 285.847 235.382 285.847 201.382C285.847 193.982 285.147 186.582 283.847 179.382C283.447 177.082 284.947 174.882 287.247 174.482C289.547 174.082 291.747 175.582 292.147 177.882C293.547 185.582 294.247 193.482 294.247 201.382C294.247 237.682 278.947 272.782 252.347 297.682C251.547 298.382 250.547 298.783 249.547 298.783Z" fill="white"/>
<path d="M231.647 312.683C230.247 312.683 228.947 311.983 228.047 310.783C226.747 308.783 227.347 306.183 229.247 304.883C231.447 303.483 233.547 301.983 235.647 300.483C237.547 299.083 240.147 299.483 241.547 301.383C242.947 303.283 242.547 305.883 240.647 307.283C238.447 308.883 236.147 310.483 233.847 311.983C233.247 312.483 232.447 312.683 231.647 312.683Z" fill="white"/>
<path opacity="0.25" d="M190.847 207.083C190.847 222.283 178.547 234.583 163.347 234.583C160.347 234.583 157.547 234.083 154.847 233.183C165.847 229.583 173.747 219.283 173.747 207.083C173.747 194.883 165.847 184.583 154.847 180.983C157.547 180.083 160.447 179.583 163.347 179.583C178.547 179.683 190.847 191.983 190.847 207.083Z" fill="black"/>
<path d="M102.147 272.282C100.547 274.382 98.6472 275.982 96.2472 277.082C85.9472 281.982 72.3472 274.782 65.8472 261.082C59.3472 247.382 62.4472 232.382 72.6472 227.482C74.2472 226.782 75.8472 226.282 77.4472 226.082C86.8472 224.882 97.4472 231.882 102.947 243.482C108.047 253.982 107.347 265.382 102.147 272.282Z" fill="#FCBC1D"/>
<path opacity="0.25" d="M102.147 272.282C92.7465 273.482 82.1465 266.482 76.6465 254.882C71.6465 244.282 72.3464 232.982 77.5464 226.082C86.9464 224.882 97.5464 231.882 103.046 243.482C108.046 253.982 107.347 265.382 102.147 272.282Z" fill="black"/>
<path d="M110.847 124.682L101.747 133.782L76.4468 108.482L92.1469 105.982L110.847 124.682Z" fill="#F2F2F2" stroke="black" stroke-width="10" stroke-miterlimit="10" stroke-linecap="round" stroke-linejoin="round"/>
<path d="M101.747 133.783L76.9468 158.583L51.5467 133.183L22.3468 103.983C20.9468 102.583 19.6468 101.183 18.4468 99.6829C9.94676 89.1829 5.24674 75.9829 5.54674 62.3829C13.3467 62.2829 20.9467 63.6829 28.0467 66.5829C33.3467 68.6829 38.3468 71.683 42.8468 75.283C44.3468 76.483 45.7468 77.7829 47.1468 79.1829L76.4468 108.483L101.747 133.783Z" fill="#F2F2F2" stroke="black" stroke-width="10" stroke-miterlimit="10" stroke-linecap="round" stroke-linejoin="round"/>
<path d="M77.0464 158.583L67.9464 167.683L49.1465 148.883L51.6465 133.183L77.0464 158.583Z" fill="#F2F2F2" stroke="black" stroke-width="10" stroke-miterlimit="10" stroke-linecap="round" stroke-linejoin="round"/>
<path d="M42.8468 75.283L18.4468 99.6829C9.94676 89.1829 5.24674 75.9829 5.54674 62.3829C13.3467 62.2829 20.9467 63.6829 28.0467 66.5829C33.3467 68.6829 38.3468 71.583 42.8468 75.283Z" fill="#F24125" stroke="black" stroke-width="10" stroke-miterlimit="10" stroke-linecap="round" stroke-linejoin="round"/>
<path d="M229.046 118.283L264.546 56.583L302.046 78.183L285.046 107.483L247.646 85.983" fill="#F24125"/>
<path d="M229.047 122.483C228.347 122.483 227.647 122.283 226.947 121.883C224.947 120.683 224.247 118.083 225.347 116.083L243.947 83.8831C243.947 83.8831 243.947 83.8831 243.947 83.7831C243.947 83.7831 243.947 83.783 243.947 83.683L260.847 54.3831C262.047 52.3831 264.647 51.6831 266.647 52.7831L304.047 74.3831C305.047 74.9831 305.746 75.8831 306.047 76.9831C306.347 78.0831 306.147 79.183 305.647 80.183L288.746 109.583C287.546 111.583 284.947 112.283 282.947 111.183L249.147 91.683L232.647 120.283C231.947 121.783 230.547 122.483 229.047 122.483ZM253.447 84.3831L283.547 101.683L296.246 79.683L266.147 62.3831L253.447 84.3831Z" fill="black"/>
<path d="M185.647 22.9824C185.647 25.0824 185.247 27.0824 184.647 28.9824C182.147 21.7824 175.347 16.5824 167.347 16.5824C159.347 16.5824 152.447 21.7824 150.047 28.8824C149.347 26.9824 149.047 24.9824 149.047 22.8824C149.047 12.7824 157.247 4.48242 167.447 4.48242C177.347 4.68242 185.647 12.8824 185.647 22.9824Z" fill="#1AA5E2"/>
<path d="M152.747 34.3828C156.147 38.6828 161.347 41.4828 167.247 41.4828C173.147 41.4828 178.347 38.6828 181.747 34.3828C195.647 43.9828 189.947 82.4828 189.947 82.4828C188.147 82.8828 186.447 83.1828 184.647 83.4828C182.147 83.8828 179.647 84.1828 177.147 84.3828C174.247 84.6828 171.247 84.7828 168.347 84.7828C167.947 84.7828 167.647 84.7828 167.247 84.7828C166.847 84.7828 166.547 84.7828 166.147 84.7828C163.247 84.7828 160.247 84.5828 157.347 84.3828C154.847 84.1828 152.347 83.8828 149.847 83.4828C148.047 83.1828 146.347 82.8828 144.547 82.4828C144.647 82.4828 138.947 43.9828 152.747 34.3828Z" fill="#1AA5E2"/>
<path d="M184.747 37.2828L182.947 35.4828L181.347 33.9828L181.647 34.2828L178.147 31.9828L178.447 31.6827C179.447 30.4827 180.147 29.0828 180.647 27.5828C181.147 26.0828 181.447 24.5828 181.447 22.9828C181.447 15.1828 175.147 8.88281 167.347 8.88281C159.547 8.88281 153.247 15.1828 153.247 22.9828C153.247 24.5828 153.547 26.1828 154.047 27.5828C154.547 29.0828 155.347 30.3827 156.247 31.6827L149.547 36.8828C148.047 34.8828 146.747 32.6828 145.947 30.3828C145.147 27.9828 144.747 25.4828 144.747 22.9828C144.747 10.4828 154.847 0.382812 167.347 0.382812C179.847 0.382812 189.947 10.4828 189.947 22.9828C189.947 25.5828 189.547 28.0828 188.647 30.3828C187.847 32.6828 186.647 34.8828 185.147 36.8828C184.947 36.9828 184.847 37.1828 184.747 37.2828Z" fill="black"/>
<path d="M153.947 30.3828L145.947 27.5828C149.147 18.4828 157.647 12.3828 167.247 12.3828C176.847 12.3828 185.447 18.4828 188.547 27.5828L180.547 30.3828C178.547 24.6828 173.247 20.8828 167.247 20.8828C161.247 20.8828 155.847 24.6828 153.947 30.3828Z" fill="black"/>
<path d="M167.247 88.9824H166.147C163.147 88.9824 160.147 88.7824 156.947 88.5824C154.247 88.3824 151.647 87.9824 149.147 87.5824C147.347 87.2824 145.547 86.9824 143.647 86.5824C141.947 86.1824 140.547 84.7824 140.347 83.0824C139.747 78.8824 134.747 41.6824 150.347 30.8824C152.147 29.5824 154.747 29.9824 156.147 31.7824C158.847 35.2824 162.947 37.1823 167.247 37.1823C171.647 37.1823 175.647 35.1824 178.347 31.7824C179.747 29.9824 182.247 29.5824 184.147 30.8824C199.747 41.6824 194.747 78.8824 194.147 83.0824C193.847 84.8824 192.547 86.2824 190.847 86.5824C188.947 86.9824 187.147 87.2824 185.347 87.5824H185.247C182.747 87.9824 180.147 88.2824 177.547 88.5824C174.347 88.8824 171.347 88.9824 168.347 88.9824H167.247ZM148.447 78.8824C149.147 78.9824 149.847 79.0823 150.547 79.1823C152.847 79.5823 155.347 79.8824 157.747 80.0824C160.647 80.3824 163.547 80.4824 166.247 80.4824H168.347C171.047 80.4824 173.847 80.2824 176.747 80.0824C179.147 79.8824 181.647 79.5823 183.947 79.1823H184.047C184.747 79.0823 185.347 78.9824 186.047 78.8824C187.447 66.3824 187.247 48.2824 181.747 40.3824C177.747 43.7824 172.647 45.6823 167.247 45.6823C161.847 45.6823 156.747 43.7824 152.747 40.3824C147.147 48.1824 146.947 66.3824 148.447 78.8824Z" fill="black"/>
<path d="M153.347 114.283C151.747 114.283 150.147 113.283 149.447 111.683C143.547 97.983 145.647 83.283 145.747 82.683C146.047 80.383 148.247 78.783 150.547 79.083C152.847 79.383 154.447 81.5831 154.147 83.8831C154.147 84.1831 152.347 96.8831 157.247 108.283C158.147 110.383 157.147 112.883 155.047 113.883C154.447 114.183 153.847 114.283 153.347 114.283Z" fill="black"/>
<path d="M181.147 114.283C180.547 114.283 180.047 114.183 179.447 113.883C177.347 112.983 176.347 110.483 177.247 108.283C182.147 96.8831 180.447 84.0831 180.347 83.8831C180.047 81.5831 181.647 79.383 183.947 79.083C186.247 78.783 188.447 80.383 188.747 82.683C188.847 83.283 190.947 97.983 185.047 111.683C184.347 113.383 182.847 114.283 181.147 114.283Z" fill="black"/>
<path d="M127.847 67.7833C127.547 67.7833 127.247 67.7832 126.947 67.6832C124.647 67.1832 123.147 64.9832 123.647 62.6832C129.547 33.5832 149.247 32.2833 150.047 32.2833C152.447 32.1833 154.347 33.9833 154.447 36.2833C154.547 38.5833 152.747 40.5832 150.447 40.6832C149.747 40.7832 136.347 42.0832 131.847 64.3832C131.547 66.3832 129.747 67.7833 127.847 67.7833Z" fill="black"/>
<path d="M207.847 67.7833C205.847 67.7833 204.147 66.3832 203.747 64.3832C199.147 41.9832 185.747 40.7832 185.147 40.6832C182.847 40.5832 181.047 38.5833 181.147 36.2833C181.247 33.9833 183.247 32.1833 185.647 32.2833C186.447 32.2833 206.147 33.5832 212.047 62.6832C212.547 64.9832 211.047 67.1832 208.747 67.6832C208.447 67.7832 208.147 67.7833 207.847 67.7833Z" fill="black"/>
<path d="M173.947 32.6829C173.647 32.6829 173.347 32.6829 173.147 32.5829C172.847 32.4829 172.647 32.483 172.347 32.383C172.047 32.283 171.847 32.183 171.647 31.983C171.447 31.783 171.247 31.683 171.047 31.483C170.247 30.683 169.847 29.583 169.847 28.483C169.847 28.183 169.847 27.8829 169.947 27.6829C170.047 27.3829 170.047 27.183 170.147 26.883C170.247 26.583 170.347 26.3829 170.547 26.1829C170.747 25.9829 170.847 25.7829 171.047 25.5829C171.247 25.3829 171.447 25.1829 171.647 25.0829C171.847 24.8829 172.147 24.7829 172.347 24.6829C172.647 24.5829 172.847 24.483 173.147 24.483C174.547 24.183 175.947 24.6829 176.947 25.6829C177.147 25.8829 177.347 26.083 177.447 26.283C177.547 26.483 177.747 26.783 177.847 26.983C177.947 27.283 178.047 27.483 178.047 27.783C178.147 28.083 178.147 28.3829 178.147 28.5829C178.147 28.8829 178.147 29.183 178.047 29.383C177.947 29.683 177.947 29.8829 177.847 30.1829C177.747 30.4829 177.647 30.683 177.447 30.883C177.247 31.083 177.147 31.283 176.947 31.483C176.747 31.683 176.547 31.883 176.347 31.983C176.147 32.183 175.847 32.283 175.647 32.383C175.347 32.483 175.147 32.5829 174.847 32.5829C174.447 32.6829 174.247 32.6829 173.947 32.6829Z" fill="white"/>
<path d="M179.347 77.5823C179.247 77.5823 179.047 77.5823 178.947 77.5823C176.647 77.3823 174.947 75.2823 175.147 72.9823C176.447 58.8823 174.447 49.5823 174.347 49.4823C173.847 47.1823 175.247 44.8823 177.547 44.3823C179.847 43.8823 182.147 45.2823 182.647 47.5823C182.747 47.9823 185.047 58.2824 183.547 73.7824C183.347 75.9824 181.447 77.5823 179.347 77.5823Z" fill="white"/>
</svg>
