<svg width="350" height="350" viewBox="0 0 350 350" fill="none" xmlns="http://www.w3.org/2000/svg">
<g clip-path="url(#clip0_834_3054)">
<path d="M230.182 349.317H29.7737C21.2582 349.317 14.3555 342.414 14.3555 333.899V214.636C14.3555 146.618 36.3239 80.4214 76.9898 25.8995C103.426 -9.54331 156.53 -9.54331 182.966 25.8995C223.631 80.4214 245.6 146.618 245.6 214.636V333.899C245.6 342.414 238.697 349.317 230.182 349.317Z" fill="#7F7979"/>
<path d="M171.961 81.1425C151.015 56.2741 108.94 56.2741 87.9938 81.1425C55.7741 119.394 38.3691 165.839 38.3691 213.559V267.377C58.5352 296.298 92.0446 315.231 129.976 315.231C167.91 315.231 201.42 296.301 221.586 267.377V349.317H38.3691H221.586V213.559C221.586 165.839 204.181 119.394 171.961 81.1425Z" fill="#454243"/>
<path d="M208.61 161.205C208.61 117.813 173.467 82.6318 130.088 82.5704C86.693 82.5116 51.3438 117.81 51.3438 161.205C51.3438 173.099 53.9873 184.375 58.7164 194.48C64.4923 206.827 67.5898 220.259 67.5898 233.89V238.873C67.5898 245.672 72.9197 251.418 79.7156 251.605C86.7678 251.797 92.5437 246.139 92.5437 239.132V241.226C92.5437 248.024 97.8762 253.773 104.672 253.958C111.722 254.153 117.5 248.492 117.5 241.485V243.581C117.5 250.379 122.83 256.126 129.626 256.313C136.678 256.505 142.457 250.847 142.457 243.84V241.485C142.457 248.492 148.233 254.15 155.285 253.958C162.081 253.771 167.411 248.024 167.411 241.226V239.129C167.411 246.139 173.189 251.797 180.239 251.602C187.037 251.418 192.367 245.669 192.367 238.87V233.893C192.367 220.189 195.555 206.717 201.329 194.287C206.002 184.231 208.61 173.024 208.61 161.205Z" fill="#FEFAAD"/>
<path d="M129.485 204.528L127.384 215.733C126.738 219.183 123.125 221.207 119.846 219.957L112.492 217.156C108.542 215.653 107.597 210.494 110.756 207.687L120.209 199.281C124.222 195.716 130.473 199.252 129.485 204.528Z" fill="#DAD571"/>
<path d="M126.999 205.631L125.407 214.123C124.916 216.734 122.179 218.267 119.695 217.322L114.122 215.199C111.132 214.058 110.413 210.152 112.806 208.024L119.97 201.658C123.012 198.955 127.746 201.636 126.999 205.631Z" fill="#454243"/>
<path d="M130.473 204.528L132.572 215.733C133.221 219.183 136.831 221.207 140.11 219.957L147.464 217.156C151.413 215.653 152.359 210.494 149.202 207.687L139.747 199.281C135.734 195.716 129.482 199.252 130.473 204.528Z" fill="#DAD571"/>
<path d="M132.956 205.631L134.55 214.123C135.039 216.734 137.776 218.267 140.259 217.322L145.832 215.199C148.825 214.058 149.541 210.152 147.148 208.024L139.984 201.658C136.945 198.955 132.208 201.636 132.956 205.631Z" fill="#454243"/>
<path d="M129.979 315.23C92.0446 315.23 58.5352 296.301 38.3691 267.376V349.316H221.588V267.376C201.42 296.298 167.913 315.23 129.979 315.23Z" fill="url(#paint0_linear_834_3054)"/>
<path d="M83.9189 288.661C83.9189 292.784 86.5278 296.458 90.4211 297.817C116.032 306.765 143.923 306.765 169.534 297.817C173.427 296.458 176.036 292.784 176.036 288.661C176.036 288.661 175.801 269.798 175.678 269.192C174.938 265.512 172.057 262.551 168.37 261.856C168.332 261.846 168.295 261.838 168.257 261.835C168.159 261.816 168.06 261.8 167.964 261.787C167.886 261.776 167.809 261.765 167.731 261.76C167.675 261.755 167.619 261.747 167.56 261.744C167.44 261.731 167.32 261.72 167.2 261.717C167.176 261.712 167.149 261.709 167.125 261.712C167.064 261.707 167.008 261.704 166.946 261.704C166.861 261.699 166.775 261.699 166.69 261.699C164.15 261.699 161.862 262.727 160.198 264.385C159.993 264.596 159.798 264.812 159.608 265.037C159.421 265.264 159.245 265.501 159.08 265.744C158.583 266.476 158.19 267.285 157.923 268.147C157.838 268.433 157.76 268.727 157.699 269.026C157.688 269.082 157.678 269.135 157.667 269.189C157.566 269.739 157.512 270.302 157.512 270.877V269.336C157.512 269.288 157.512 269.237 157.509 269.189C157.445 264.74 154.273 260.932 150.022 260.121C149.985 260.115 149.945 260.107 149.907 260.099C149.779 260.081 149.645 260.059 149.515 260.043C149.408 260.024 149.296 260.016 149.183 260.006C149.069 259.992 148.951 259.984 148.836 259.982C148.815 259.979 148.796 259.974 148.775 259.979C148.714 259.971 148.655 259.968 148.593 259.968C148.508 259.966 148.42 259.966 148.337 259.966H148.332C147.696 259.966 147.079 260.03 146.484 260.15C146.187 260.211 145.894 260.289 145.605 260.377C144.743 260.644 143.934 261.036 143.202 261.533C142.959 261.699 142.724 261.875 142.497 262.059C142.27 262.249 142.051 262.444 141.846 262.652C140.182 264.313 139.157 266.607 139.157 269.141V267.413C139.157 266.778 139.09 266.158 138.97 265.56C138.908 265.264 138.831 264.97 138.743 264.681C138.476 263.822 138.083 263.012 137.586 262.278C137.421 262.035 137.247 261.8 137.06 261.573C136.871 261.346 136.676 261.13 136.465 260.922C134.807 259.258 132.513 258.235 129.979 258.235C129.893 258.235 129.805 258.235 129.722 258.238C129.661 258.238 129.602 258.241 129.544 258.249C129.519 258.246 129.493 258.249 129.469 258.251C129.346 258.257 129.226 258.265 129.103 258.278C129.052 258.283 128.999 258.286 128.948 258.291C128.863 258.302 128.78 258.313 128.694 258.326C128.596 258.339 128.499 258.353 128.403 258.372C128.374 258.374 128.345 258.38 128.313 258.388C124.005 259.194 120.801 263.082 120.801 267.603V269.143C120.801 266.609 119.776 264.313 118.112 262.652C117.906 262.446 117.687 262.249 117.46 262.059C117.233 261.875 116.998 261.699 116.755 261.533C116.024 261.036 115.215 260.644 114.352 260.377C114.064 260.289 113.77 260.211 113.474 260.15C112.878 260.03 112.261 259.966 111.626 259.966H111.621C111.538 259.966 111.45 259.966 111.364 259.968C111.303 259.968 111.244 259.971 111.183 259.979C111.161 259.976 111.143 259.979 111.121 259.982C111.006 259.987 110.889 259.992 110.774 260.006C110.662 260.016 110.55 260.027 110.443 260.043C110.312 260.062 110.179 260.081 110.05 260.102C110.013 260.107 109.973 260.115 109.936 260.121C105.684 260.932 102.512 264.74 102.448 269.192C102.445 269.237 102.445 269.288 102.445 269.336V270.877C102.445 270.302 102.389 269.739 102.291 269.192C102.28 269.135 102.269 269.082 102.258 269.026C102.197 268.727 102.12 268.433 102.034 268.147C101.767 267.285 101.375 266.479 100.878 265.744C100.712 265.501 100.536 265.264 100.349 265.039C100.16 264.812 99.9647 264.596 99.7591 264.385C98.0955 262.727 95.8044 261.701 93.2676 261.701C93.1822 261.701 93.0967 261.701 93.0113 261.704C92.9499 261.704 92.8938 261.707 92.8324 261.715C92.8083 261.709 92.7816 261.715 92.7576 261.717C92.6374 261.72 92.5173 261.731 92.3971 261.744C92.3384 261.747 92.2823 261.755 92.2262 261.76C92.1488 261.768 92.0713 261.779 91.9939 261.787C91.8951 261.803 91.799 261.819 91.7002 261.835C91.6628 261.838 91.6254 261.846 91.588 261.856C87.9003 262.551 85.0191 265.512 84.2794 269.192C84.1539 269.8 83.9189 288.661 83.9189 288.661Z" fill="#FEFAAD"/>
<path d="M117.228 184.047C107.62 193.655 90.6773 192.29 79.3847 180.998C68.0947 169.708 66.7302 152.765 76.3379 143.157C85.9429 133.549 102.886 134.914 114.179 146.206C125.469 157.499 126.836 174.439 117.228 184.047Z" fill="url(#paint1_radial_834_3054)"/>
<path d="M142.729 184.047C152.337 193.655 169.277 192.29 180.57 180.998C191.86 169.708 193.225 152.765 183.62 143.157C174.012 133.549 157.069 134.914 145.776 146.206C134.486 157.499 133.122 174.439 142.729 184.047Z" fill="url(#paint2_radial_834_3054)"/>
<path d="M262.54 124.356C262.521 124.39 262.508 124.417 262.487 124.452C261.945 125.269 261.395 126.113 260.831 126.97H260.826C255.883 134.492 250.073 143.387 244.409 152.054C244.142 152.458 243.88 152.864 243.621 153.261C243.181 153.926 242.748 154.586 242.315 155.251C242.043 155.678 241.768 156.103 241.485 156.522C240.382 158.217 239.285 159.897 238.214 161.545C237.704 162.314 237.21 163.075 236.716 163.83C236.518 164.14 236.318 164.442 236.12 164.744C231.439 171.913 227.282 178.282 224.363 182.717C224.136 183.054 223.925 183.374 223.72 183.692C223.169 184.528 222.675 185.275 222.238 185.935C222.195 186.004 222.147 186.071 222.107 186.135C221.997 186.298 221.893 186.45 221.789 186.6C221.784 186.613 221.77 186.635 221.762 186.648C221.679 186.774 221.605 186.896 221.522 187.006C221.46 187.102 221.407 187.19 221.343 187.281C221.343 187.286 221.343 187.286 221.338 187.286C221.185 187.521 221.049 187.727 220.918 187.919C220.849 188.021 220.788 188.111 220.726 188.199C220.691 188.256 220.657 188.304 220.625 188.352C220.577 188.426 220.529 188.496 220.48 188.557C220.464 188.584 220.446 188.611 220.432 188.64C220.403 188.68 220.368 188.72 220.342 188.763C220.294 188.832 220.253 188.894 220.211 188.947C220.163 189.017 220.109 189.086 220.061 189.161C220 189.249 219.938 189.34 219.874 189.428C218.633 191.172 217.418 192.955 216.232 194.774C215.834 195.377 215.436 195.983 215.052 196.592C214.112 198.061 213.191 199.559 212.293 201.076C211.941 201.65 211.607 202.227 211.271 202.811C210.913 203.42 210.563 204.032 210.219 204.651C210.17 204.731 210.13 204.814 210.082 204.897C209.692 205.591 209.308 206.296 208.929 207.004C208.544 207.711 208.168 208.424 207.805 209.137C206.315 212 204.915 214.929 203.626 217.914C202.971 219.404 202.349 220.908 201.759 222.43V222.438C200.256 226.262 198.923 230.179 197.804 234.179C181.54 292.122 199.102 299.206 163.168 338.192C159.846 341.795 156.559 345.522 153.328 349.317H104.088C136.513 319.952 181.107 271.836 177.203 221.506C177.08 219.85 177.003 218.176 176.989 216.489C176.984 215.37 177.003 214.237 177.046 213.111C177.067 212.55 177.099 211.978 177.128 211.41C177.195 210.269 177.291 209.132 177.417 208C177.67 205.719 178.02 203.441 178.479 201.177C178.712 200.053 178.973 198.921 179.262 197.794C181.684 188.37 186.084 179.318 192.742 171.742C192.742 171.737 192.742 171.737 192.747 171.737C193.236 171.187 193.73 170.637 194.237 170.103C194.386 169.945 194.648 169.614 195.011 169.142C195.086 169.045 195.163 168.949 195.246 168.84C195.252 168.832 195.26 168.827 195.26 168.819C195.356 168.696 195.452 168.565 195.553 168.429C195.876 167.996 196.248 167.489 196.667 166.912C196.734 166.816 196.803 166.72 196.878 166.624C197.69 165.497 198.656 164.14 199.748 162.589C199.911 162.362 200.077 162.129 200.248 161.889C202.149 159.192 204.392 155.985 206.835 152.466C207.036 152.177 207.233 151.889 207.441 151.595C207.57 151.408 207.708 151.216 207.839 151.024C208.614 149.905 209.417 148.754 210.227 147.579C210.934 146.556 211.655 145.512 212.389 144.457C212.854 143.785 213.321 143.104 213.794 142.417C213.898 142.268 214 142.124 214.104 141.971C214.392 141.555 214.681 141.136 214.969 140.716C215.257 140.297 215.551 139.878 215.84 139.453C216.128 139.034 216.424 138.61 216.713 138.19C216.884 137.937 217.062 137.683 217.233 137.429C217.527 137.01 217.816 136.585 218.104 136.166C218.681 135.33 219.257 134.492 219.834 133.653C220.416 132.818 220.993 131.974 221.565 131.143C221.853 130.724 222.141 130.305 222.422 129.894C225.565 125.322 228.612 120.876 231.357 116.876C231.754 116.291 232.147 115.722 232.531 115.159C234.315 112.558 235.941 110.176 237.349 108.117C237.349 108.117 237.349 108.112 237.354 108.112C237.48 107.925 237.608 107.741 237.733 107.557C240.518 103.471 246.099 102.464 250.147 105.29L258.15 110.892L260.161 112.296C264.057 115.028 265.114 120.355 262.54 124.356Z" fill="#F19615"/>
<path d="M260.161 112.296C258.74 114.267 257.189 116.449 255.533 118.796C254.876 119.723 254.209 120.671 253.523 121.645C253.242 122.043 252.962 122.449 252.673 122.86C244.959 133.867 235.688 147.365 227.802 158.752C223.896 164.399 220.336 169.534 217.482 173.582C215.257 176.712 213.466 179.203 212.264 180.781H212.259C211.661 181.577 211.201 182.141 210.913 182.448H210.905C210.886 182.482 210.865 182.496 210.838 182.525C210.838 182.538 210.825 182.544 210.817 182.552C210.069 183.348 209.327 184.157 208.592 184.974C204.456 189.62 200.75 194.515 197.722 199.62C193.153 207.327 190.146 215.501 189.591 224.003C189.452 226.04 189.452 228.107 189.612 230.187C190.92 247.034 186.789 263.649 179.489 279.385C179.489 279.385 179.489 279.385 179.481 279.393V279.398C167.032 306.274 145.36 330.609 125.821 349.317H104.088C136.513 319.952 181.107 271.836 177.203 221.506C177.08 219.85 177.003 218.176 176.989 216.489C176.984 215.37 177.003 214.237 177.046 213.111C177.067 212.55 177.099 211.978 177.128 211.41C177.195 210.269 177.291 209.132 177.417 208C177.67 205.719 178.02 203.441 178.479 201.177C178.712 200.053 178.973 198.921 179.262 197.794C181.684 188.37 186.084 179.318 192.742 171.742C192.742 171.737 192.742 171.737 192.747 171.737C193.236 171.187 193.73 170.637 194.237 170.103C194.386 169.945 194.648 169.614 195.011 169.142C195.086 169.045 195.163 168.949 195.246 168.84C195.252 168.832 195.26 168.827 195.26 168.819C195.356 168.696 195.452 168.565 195.553 168.429C195.876 167.996 196.248 167.489 196.667 166.912C196.734 166.816 196.803 166.72 196.878 166.624C197.69 165.497 198.656 164.14 199.748 162.589C199.911 162.362 200.077 162.129 200.248 161.889C202.149 159.192 204.392 155.985 206.835 152.466C207.036 152.177 207.233 151.889 207.441 151.595C207.57 151.408 207.708 151.216 207.839 151.024C208.614 149.905 209.417 148.754 210.227 147.579C210.934 146.556 211.655 145.512 212.39 144.457C212.854 143.785 213.321 143.104 213.794 142.417C213.898 142.268 214 142.124 214.104 141.971C214.392 141.555 214.681 141.136 214.969 140.716C215.257 140.297 215.551 139.878 215.84 139.453C216.128 139.034 216.424 138.61 216.713 138.19C216.884 137.937 217.063 137.683 217.233 137.429C217.527 137.01 217.816 136.585 218.104 136.166C218.681 135.33 219.257 134.492 219.834 133.653C220.416 132.818 220.993 131.974 221.565 131.143C221.853 130.724 222.141 130.305 222.422 129.894C225.565 125.322 228.612 120.876 231.357 116.876C231.754 116.291 232.147 115.722 232.531 115.159C234.315 112.558 235.941 110.176 237.349 108.117C237.349 108.117 237.349 108.112 237.354 108.112C237.48 107.925 237.608 107.741 237.733 107.557C240.518 103.471 246.099 102.464 250.147 105.29L258.15 110.892L260.161 112.296Z" fill="#FFB92D"/>
<path d="M330.075 301.401C307.906 265.031 273.945 227.647 231.012 194.554C224.935 189.868 218.675 185.27 212.243 180.77C206.814 176.973 201.364 173.315 195.893 169.803L236.783 111.351C236.839 111.271 236.898 111.188 236.956 111.11C242.575 114.341 248.126 117.864 253.579 121.677C260.049 126.203 266.183 131.001 271.956 136.024C325.848 182.88 348.815 249.421 330.075 301.401Z" fill="#F5F5F5"/>
<path d="M231.012 194.555C273.945 227.648 307.906 265.032 330.075 301.401C335.466 268.503 302.149 216.758 246.38 172.589C240.404 167.852 234.166 163.206 227.696 158.68C222.243 154.864 216.766 151.237 211.292 147.801C211.255 147.844 211.223 147.889 211.191 147.934L195.893 169.804C201.364 173.315 206.814 176.974 212.243 180.771C218.675 185.27 224.935 189.869 231.012 194.555Z" fill="#CFD8DC"/>
<path d="M330.142 222.563L274.461 232.409C270.103 228.099 265.598 223.832 260.946 219.602L325.004 208.277C326.964 213.017 328.678 217.784 330.142 222.563Z" fill="url(#paint3_linear_834_3054)"/>
<path d="M214.456 189.075L194.936 175.422C192.57 173.766 191.993 170.503 193.649 168.135L234.157 110.227C235.813 107.858 239.076 107.284 241.444 108.94L260.964 122.593C263.33 124.248 263.907 127.512 262.251 129.88L221.743 187.788C220.087 190.157 216.824 190.733 214.456 189.075Z" fill="#F5F5F5"/>
</g>
<defs>
<linearGradient id="paint0_linear_834_3054" x1="129.978" y1="213.201" x2="129.978" y2="422.592" gradientUnits="userSpaceOnUse">
<stop stop-color="#3D3B3C" stop-opacity="0"/>
<stop offset="0.1334" stop-color="#3B393A" stop-opacity="0.133333"/>
<stop offset="1" stop-color="#323031"/>
</linearGradient>
<radialGradient id="paint1_radial_834_3054" cx="0" cy="0" r="1" gradientUnits="userSpaceOnUse" gradientTransform="translate(96.7821 163.603) scale(26.8448 26.8448)">
<stop stop-color="#FFF465"/>
<stop offset="0.1568" stop-color="#FFB92D"/>
<stop offset="0.1873" stop-color="#E8AA2D"/>
<stop offset="0.2512" stop-color="#BD8D2E"/>
<stop offset="0.3203" stop-color="#98742F"/>
<stop offset="0.3939" stop-color="#785F30"/>
<stop offset="0.4734" stop-color="#5E4E30"/>
<stop offset="0.561" stop-color="#4B4031"/>
<stop offset="0.6611" stop-color="#3D3731"/>
<stop offset="0.7845" stop-color="#343231"/>
<stop offset="1" stop-color="#323031"/>
</radialGradient>
<radialGradient id="paint2_radial_834_3054" cx="0" cy="0" r="1" gradientUnits="userSpaceOnUse" gradientTransform="translate(163.173 163.603) scale(26.8448 26.8448)">
<stop stop-color="#FFF465"/>
<stop offset="0.1568" stop-color="#FFB92D"/>
<stop offset="0.1873" stop-color="#E8AA2D"/>
<stop offset="0.2512" stop-color="#BD8D2E"/>
<stop offset="0.3203" stop-color="#98742F"/>
<stop offset="0.3939" stop-color="#785F30"/>
<stop offset="0.4734" stop-color="#5E4E30"/>
<stop offset="0.561" stop-color="#4B4031"/>
<stop offset="0.6611" stop-color="#3D3731"/>
<stop offset="0.7845" stop-color="#343231"/>
<stop offset="1" stop-color="#323031"/>
</radialGradient>
<linearGradient id="paint3_linear_834_3054" x1="280.404" y1="224.678" x2="323.058" y2="214.566" gradientUnits="userSpaceOnUse">
<stop offset="0.0013" stop-color="#E7EEED" stop-opacity="0"/>
<stop offset="0.7731" stop-color="#F9FBFA" stop-opacity="0.772549"/>
<stop offset="1" stop-color="white"/>
</linearGradient>
<clipPath id="clip0_834_3054">
<rect width="350" height="350" fill="white"/>
</clipPath>
</defs>
</svg>
