<svg width="340" height="341" viewBox="0 0 340 341" fill="none" xmlns="http://www.w3.org/2000/svg">
<path d="M266.124 2.72002C262.214 -0.862012 255.85 1.47588 255.187 6.73271C254.168 14.8675 251.242 25.3812 243.107 30.1116L279.399 59.9505C279.399 59.9505 287.302 22.1204 266.124 2.72002Z" fill="#F9D171"/>
<path d="M268.396 13.2789C268.405 13.1836 268.414 13.0827 268.423 12.9768C268.75 9.15923 267.85 4.56056 265 1.99995C262.5 -0.245846 256 0.5 255 7.99993C254.5 15.5001 250.522 25.9227 242.5 30.5001L256.942 42.0001C264.607 35.9675 267.411 23.201 268.396 13.2789Z" fill="#FFA93F"/>
<path d="M73.0975 2.72002C77.0077 -0.862012 83.3719 1.47588 84.035 6.73271C85.0536 14.8675 87.9794 25.3812 96.1141 30.1116L59.8221 59.9505C59.8221 59.9505 51.9198 22.1204 73.0975 2.72002Z" fill="#F9D171"/>
<path d="M78.202 12.0346C80.3437 8.48721 83.312 3.21868 79.5723 1.43376C77.6615 0.521749 74.9932 1.06404 72.9742 2.90851C51.4287 22.6054 59.4683 61 59.4683 61L72.1118 50.6278C71.441 40.2373 70.5605 24.6913 78.202 12.0346Z" fill="#FFA93F"/>
<path d="M22.3477 157.185C22.3477 137.524 26.333 118.322 34.1807 100.118C41.707 82.6797 52.4189 66.957 66.0225 53.3877C79.6055 39.8389 95.335 29.168 112.767 21.6826C130.923 13.8828 150.05 9.9248 169.607 9.9248C189.165 9.9248 208.285 13.8828 226.448 21.6826C243.88 29.1748 259.609 39.8389 273.192 53.3877C286.796 66.957 297.515 82.6797 305.034 100.118C312.889 118.322 316.867 137.518 316.867 157.185H22.3477Z" fill="#5C576E"/>
<path d="M95.0204 56.7474C109.369 42.4864 125.985 31.2546 144.399 23.3758C159.086 17.0872 175.366 12.9418 191 11.4524C186.212 10.9991 179.838 10 175 10C154.34 10 134.187 12.2902 115 20.5C96.5861 28.386 79.9703 39.6106 65.6219 53.8716C51.2518 68.1541 39.9363 84.7032 31.9858 103.058C23.6887 122.219 20 145.299 20 166H48.8845C48.8845 145.306 53.0945 125.095 61.3843 105.934C69.3276 87.579 80.6503 71.0299 95.0204 56.7474Z" fill="#423E4F"/>
<path d="M3.05859 123.839C3.51659 121.85 5.62889 120.729 7.53612 121.46C34.0459 131.591 43.0762 148.489 43.0762 148.489L51.6963 203.321C-11.3242 203.327 -0.653328 139.897 3.05859 123.839Z" fill="#F9475E"/>
<path d="M250.716 296.587C239.977 279.531 226.421 270.87 226.421 270.87H112.801C112.801 270.87 99.2451 279.531 88.5059 296.587C81.4717 307.757 75.6611 322.522 75.6611 340.809H111.844H116.971H122.098H217.138H222.265H227.392H263.574C263.567 322.522 257.75 307.75 250.716 296.587Z" fill="#F9475E"/>
<path d="M137 268H116.103C116.103 268 101.161 277.04 90.2179 294.843C83.0504 306.501 76 321.913 76 341H96.8967C96.8967 321.913 103.954 306.501 111.115 294.843C122.058 277.04 137 268 137 268Z" fill="#E92740"/>
<path d="M336.336 123.839C335.878 121.85 333.766 120.729 331.858 121.46C305.349 131.591 296.318 148.489 296.318 148.489L287.698 203.321C350.719 203.327 340.048 139.897 336.336 123.839Z" fill="#F9475E"/>
<path d="M296.619 157.096C296.612 151.798 296.031 146.507 294.938 141.326C276.535 54.4682 208.354 44.2007 169.614 83.5483C130.868 44.2007 62.6865 54.4682 44.291 141.326C43.1904 146.507 42.6094 151.798 42.6094 157.096V157.185C42.6094 226.372 100.523 284.19 169.621 284.19C238.712 284.19 296.633 226.365 296.633 157.185C296.619 157.151 296.619 157.124 296.619 157.096Z" fill="#FD5C6F"/>
<path d="M95.9639 209.78C110.971 209.78 123.137 200.091 123.137 188.138C123.137 176.185 110.971 166.495 95.9639 166.495C80.9567 166.495 68.791 176.185 68.791 188.138C68.791 200.091 80.9567 209.78 95.9639 209.78Z" fill="#FFA1AC"/>
<path d="M243.258 209.78C258.265 209.78 270.431 200.091 270.431 188.138C270.431 176.185 258.265 166.495 243.258 166.495C228.251 166.495 216.085 176.185 216.085 188.138C216.085 200.091 228.251 209.78 243.258 209.78Z" fill="#FFA1AC"/>
<path d="M188.235 163.112C186.103 161.252 182.862 161.471 181.003 163.611C174.987 170.508 164.282 170.529 158.253 163.611C156.394 161.478 153.153 161.252 151.021 163.112C148.888 164.971 148.662 168.211 150.522 170.344C160.611 181.924 178.61 181.958 188.734 170.344C190.587 168.211 190.368 164.971 188.235 163.112Z" fill="black"/>
<path d="M124.088 147.3L101.809 141.332C99.075 140.6 96.2654 142.221 95.5272 144.955C94.7957 147.689 96.4158 150.499 99.1502 151.237L107.948 153.596C107.162 154.498 106.683 155.674 106.683 156.959V166.556C106.683 169.387 108.98 171.683 111.81 171.683C114.64 171.683 116.937 169.387 116.937 166.556C116.903 156.535 117.013 156.87 116.842 155.981C121.114 157.075 121.62 157.383 122.755 157.383C125.017 157.383 127.089 155.872 127.704 153.582C128.442 150.847 126.822 148.038 124.088 147.3Z" fill="black"/>
<path d="M237.441 141.332L215.162 147.3C212.428 148.031 210.801 150.841 211.539 153.582C212.155 155.872 214.226 157.383 216.488 157.383C217.616 157.383 217.972 157.116 222.402 155.981C222.231 156.87 222.34 156.542 222.306 166.556C222.306 169.387 224.603 171.683 227.433 171.683C230.263 171.683 232.56 169.387 232.56 166.556V156.959C232.56 155.674 232.081 154.498 231.295 153.596L240.093 151.237C242.827 150.506 244.454 147.696 243.716 144.955C242.985 142.221 240.175 140.6 237.441 141.332Z" fill="black"/>
<path d="M63.7838 156.623V156.713C63.7838 223.622 117.169 278.031 183 283.5C179.545 283.786 176.048 283.939 172.53 283.939C119.5 286.5 71.1689 251.485 51.9592 203.685C43.0128 186.352 42.4426 159.749 43.2757 148.613C43.5619 145.913 43.9947 143.227 44.5601 140.569C57.8715 77.9398 94.1259 56.2067 130.968 62.5005C102.188 67.302 76.2157 90.1455 65.5009 140.569C64.3841 145.844 63.7908 151.23 63.7838 156.623Z" fill="#F9475E"/>
<path d="M117.696 301.871V336.871" stroke="#E92740" stroke-width="8" stroke-linecap="round"/>
<path d="M222.696 301.871V336.871" stroke="#E92740" stroke-width="8" stroke-linecap="round"/>
</svg>
