<svg width="350" height="350" viewBox="0 0 350 350" fill="none" xmlns="http://www.w3.org/2000/svg">
<path d="M60.1562 109.375V49.2188C60.1562 47.7683 60.7324 46.3774 61.758 45.3518C62.7836 44.3262 64.1746 43.75 65.625 43.75C67.0754 43.75 68.4664 44.3262 69.492 45.3518C70.5176 46.3774 71.0938 47.7683 71.0938 49.2188V109.375C71.0938 110.825 70.5176 112.216 69.492 113.242C68.4664 114.268 67.0754 114.844 65.625 114.844C64.1746 114.844 62.7836 114.268 61.758 113.242C60.7324 112.216 60.1562 110.825 60.1562 109.375Z" fill="#96E4F4"/>
<path d="M278.906 109.375V49.2188C278.906 47.7683 279.482 46.3774 280.508 45.3518C281.534 44.3262 282.925 43.75 284.375 43.75C285.825 43.75 287.216 44.3262 288.242 45.3518C289.268 46.3774 289.844 47.7683 289.844 49.2188V109.375C289.844 110.825 289.268 112.216 288.242 113.242C287.216 114.268 285.825 114.844 284.375 114.844C282.925 114.844 281.534 114.268 280.508 113.242C279.482 112.216 278.906 110.825 278.906 109.375Z" fill="#96E4F4"/>
<path d="M142.188 98.4375V82.0312C142.188 80.5808 142.764 79.1899 143.789 78.1643C144.815 77.1387 146.206 76.5625 147.656 76.5625C149.107 76.5625 150.498 77.1387 151.523 78.1643C152.549 79.1899 153.125 80.5808 153.125 82.0312V98.4375C153.125 99.8879 152.549 101.279 151.523 102.304C150.498 103.33 149.107 103.906 147.656 103.906C146.206 103.906 144.815 103.33 143.789 102.304C142.764 101.279 142.188 99.8879 142.188 98.4375Z" fill="#96E4F4"/>
<path d="M196.875 98.4375V82.0312C196.875 80.5808 197.451 79.1899 198.477 78.1643C199.502 77.1387 200.893 76.5625 202.344 76.5625C203.794 76.5625 205.185 77.1387 206.211 78.1643C207.236 79.1899 207.812 80.5808 207.812 82.0312V98.4375C207.812 99.8879 207.236 101.279 206.211 102.304C205.185 103.33 203.794 103.906 202.344 103.906C200.893 103.906 199.502 103.33 198.477 102.304C197.451 101.279 196.875 99.8879 196.875 98.4375Z" fill="#96E4F4"/>
<path d="M339.062 142.188C339.062 181.562 157.226 200.867 55.8904 172.266C-42.4377 144.648 30.9529 98.4375 175 98.4375C265.617 98.4375 339.062 118.016 339.062 142.188Z" fill="#89DBF5"/>
<path d="M339.062 142.188V202.344C339.062 212.68 325.609 222.195 303.078 229.688C205.68 262.172 10.9375 242.977 10.9375 202.344V142.188C10.9375 153.836 28.0547 164.445 55.8906 172.266C157.391 200.867 339.062 181.508 339.062 142.188Z" fill="#01408D"/>
<path d="M339.062 202.344V257.031C339.062 278.195 282.734 295.859 207.812 299.906C107.68 305.047 10.9375 285.305 10.9375 257.031V202.344C10.9375 212.68 24.3906 222.195 46.9219 229.688C150 261 339.062 242.977 339.062 202.344Z" fill="#0256A2"/>
<path d="M207.812 273.438V299.906C185.953 301.055 164.047 301.055 142.188 299.906V273.438C142.188 271.987 142.764 270.596 143.789 269.571C144.815 268.545 146.206 267.969 147.656 267.969H202.344C203.794 267.969 205.185 268.545 206.211 269.571C207.236 270.596 207.812 271.987 207.812 273.438Z" fill="#FEA944"/>
<path d="M213.281 49.2188H136.719C133.698 49.2188 131.25 51.6672 131.25 54.6875V76.5625C131.25 79.5828 133.698 82.0312 136.719 82.0312H213.281C216.302 82.0312 218.75 79.5828 218.75 76.5625V54.6875C218.75 51.6672 216.302 49.2188 213.281 49.2188Z" fill="#01408D"/>
<path d="M65.625 76.5625H27.3438L65.625 49.2188V76.5625Z" fill="#000C5D"/>
<path d="M284.375 76.5625H322.656L284.375 49.2188V76.5625Z" fill="#037DC7"/>
<path d="M169.531 158.594V120.312C169.531 118.862 170.107 117.471 171.133 116.446C172.159 115.42 173.55 114.844 175 114.844C176.45 114.844 177.841 115.42 178.867 116.446C179.893 117.471 180.469 118.862 180.469 120.312V158.594C180.469 160.044 179.893 161.435 178.867 162.461C177.841 163.486 176.45 164.062 175 164.062C173.55 164.062 172.159 163.486 171.133 162.461C170.107 161.435 169.531 160.044 169.531 158.594Z" fill="#01408D"/>
<path d="M76.562 125.781C79.7886 125.781 78.312 125.234 111.617 158.594C112.513 159.64 112.981 160.986 112.928 162.362C112.874 163.738 112.304 165.044 111.33 166.018C110.356 166.992 109.05 167.563 107.674 167.616C106.298 167.669 104.952 167.201 103.906 166.305L72.7339 135.133C71.966 134.371 71.4411 133.399 71.2257 132.339C71.0104 131.279 71.1141 130.179 71.5239 129.178C71.9336 128.177 72.631 127.32 73.5277 126.716C74.4245 126.111 75.4805 125.786 76.562 125.781Z" fill="#01408D"/>
<path d="M242.265 167.891C241.19 167.886 240.141 167.565 239.247 166.967C238.354 166.369 237.656 165.521 237.242 164.529C236.827 163.537 236.715 162.445 236.918 161.39C237.121 160.334 237.63 159.361 238.383 158.594L269.555 127.422C270.584 126.392 271.981 125.813 273.437 125.813C274.894 125.813 276.29 126.392 277.32 127.422C278.35 128.452 278.928 129.848 278.928 131.305C278.928 132.761 278.35 134.158 277.32 135.187C243.961 168.492 245.437 167.891 242.265 167.891Z" fill="#01408D"/>
<path d="M169.531 226.953V210.547C169.531 209.096 170.107 207.705 171.133 206.68C172.159 205.654 173.55 205.078 175 205.078C176.45 205.078 177.841 205.654 178.867 206.68C179.893 207.705 180.469 209.096 180.469 210.547V226.953C180.469 228.404 179.893 229.795 178.867 230.82C177.841 231.846 176.45 232.422 175 232.422C173.55 232.422 172.159 231.846 171.133 230.82C170.107 229.795 169.531 228.404 169.531 226.953Z" fill="#80D6F6"/>
<path d="M224.219 224.219V207.812C224.219 206.362 224.795 204.971 225.821 203.946C226.846 202.92 228.237 202.344 229.688 202.344C231.138 202.344 232.529 202.92 233.554 203.946C234.58 204.971 235.156 206.362 235.156 207.812V224.219C235.156 225.669 234.58 227.06 233.554 228.086C232.529 229.111 231.138 229.688 229.688 229.688C228.237 229.688 226.846 229.111 225.821 228.086C224.795 227.06 224.219 225.669 224.219 224.219Z" fill="#80D6F6"/>
<path d="M114.844 224.219V207.812C114.844 206.362 115.42 204.971 116.446 203.946C117.471 202.92 118.862 202.344 120.312 202.344C121.763 202.344 123.154 202.92 124.179 203.946C125.205 204.971 125.781 206.362 125.781 207.812V224.219C125.781 225.669 125.205 227.06 124.179 228.086C123.154 229.111 121.763 229.688 120.312 229.688C118.862 229.688 117.471 229.111 116.446 228.086C115.42 227.06 114.844 225.669 114.844 224.219Z" fill="#80D6F6"/>
<path d="M65.625 213.281V196.875C65.625 195.425 66.2012 194.034 67.2268 193.008C68.2524 191.982 69.6433 191.406 71.0938 191.406C72.5442 191.406 73.9351 191.982 74.9607 193.008C75.9863 194.034 76.5625 195.425 76.5625 196.875V213.281C76.5625 214.732 75.9863 216.123 74.9607 217.148C73.9351 218.174 72.5442 218.75 71.0938 218.75C69.6433 218.75 68.2524 218.174 67.2268 217.148C66.2012 216.123 65.625 214.732 65.625 213.281Z" fill="#80D6F6"/>
<path d="M27.3438 202.344V185.938C27.3438 184.487 27.9199 183.096 28.9455 182.071C29.9711 181.045 31.3621 180.469 32.8125 180.469C34.2629 180.469 35.6539 181.045 36.6795 182.071C37.7051 183.096 38.2812 184.487 38.2812 185.938V202.344C38.2812 203.794 37.7051 205.185 36.6795 206.211C35.6539 207.236 34.2629 207.812 32.8125 207.812C31.3621 207.812 29.9711 207.236 28.9455 206.211C27.9199 205.185 27.3438 203.794 27.3438 202.344Z" fill="#80D6F6"/>
<path d="M273.438 213.281V196.875C273.438 195.425 274.014 194.034 275.039 193.008C276.065 191.982 277.456 191.406 278.906 191.406C280.357 191.406 281.748 191.982 282.773 193.008C283.799 194.034 284.375 195.425 284.375 196.875V213.281C284.375 214.732 283.799 216.123 282.773 217.148C281.748 218.174 280.357 218.75 278.906 218.75C277.456 218.75 276.065 218.174 275.039 217.148C274.014 216.123 273.438 214.732 273.438 213.281Z" fill="#80D6F6"/>
<path d="M311.719 202.344V185.938C311.719 184.487 312.295 183.096 313.321 182.071C314.346 181.045 315.737 180.469 317.188 180.469C318.638 180.469 320.029 181.045 321.054 182.071C322.08 183.096 322.656 184.487 322.656 185.938V202.344C322.656 203.794 322.08 205.185 321.054 206.211C320.029 207.236 318.638 207.812 317.188 207.812C315.737 207.812 314.346 207.236 313.321 206.211C312.295 205.185 311.719 203.794 311.719 202.344Z" fill="#80D6F6"/>
<path d="M294.109 172.266C229.687 190.477 120.312 190.477 55.8906 172.266C120.312 154.055 229.687 154.055 294.109 172.266Z" fill="#FDEB9F"/>
</svg>
