<svg width="308" height="350" viewBox="0 0 308 350" fill="none" xmlns="http://www.w3.org/2000/svg">
<path d="M237.889 283.345C182.208 293.35 125.182 293.35 69.5017 283.345C43.1261 278.606 26.6358 252.101 34.1125 226.366C40.306 205.047 46.4996 183.728 52.6939 162.409C118.665 181.575 188.727 181.575 254.697 162.409C260.891 183.728 267.084 205.048 273.279 226.366C280.755 252.101 264.264 278.605 237.889 283.345Z" fill="#DF8A57"/>
<path d="M240.313 350C252.485 350 262.292 339.604 261.315 327.367C261.282 326.947 261.238 326.557 261.185 326.198C257.675 301.537 244.524 279.18 225.049 263.16L85.9282 260.305C64.5763 276.38 50.0413 299.785 46.2292 325.782C46.1369 326.38 46.0724 327.064 46.0344 327.815C45.4227 339.897 55.0667 350 67.0634 350H90.2076H128.03H171H240.313Z" fill="#FF71A8"/>
<path d="M82.3257 263.123C101.856 278.843 126.675 288.257 153.697 288.257C180.708 288.257 205.523 278.869 225.049 263.16C206.184 247.772 181.386 238.256 153.671 238.289C125.972 238.258 101.187 247.748 82.3257 263.123Z" fill="#FD4990"/>
<path d="M289.206 163.538C290.768 155.23 291.595 146.662 291.595 137.9C291.595 61.7401 229.856 0 153.695 0C77.5352 0 15.7959 61.7393 15.7959 137.9C15.7959 146.662 16.6226 155.23 18.1851 163.538H289.206Z" fill="#92A3C7"/>
<path d="M206.076 10.3076C189.925 3.66926 172.24 0 153.695 0C77.536 0 15.7959 61.7393 15.7959 137.9C15.7959 146.662 16.6226 155.23 18.1851 163.538H94.6737C95.3754 92.2018 141.813 31.8163 206.076 10.3076Z" fill="#6B7790"/>
<path d="M27.4872 114.767C22.3703 114.42 17.4606 115.123 12.9491 116.682C5.15807 119.376 0 126.804 0 135.047V167.711C0 175.81 4.95703 183.209 12.5835 185.936C16.4414 187.316 20.5974 188.068 24.9295 188.068C46.0803 188.068 63.0519 170.173 61.529 148.697C60.2451 130.602 45.5859 115.995 27.4872 114.767Z" fill="#525E77"/>
<path d="M279.903 114.767C285.02 114.42 289.93 115.123 294.441 116.682C302.232 119.376 307.39 126.804 307.39 135.047V167.711C307.39 175.81 302.433 183.209 294.807 185.936C290.949 187.316 286.793 188.068 282.461 188.068C261.31 188.068 244.338 170.173 245.861 148.697C247.145 130.602 261.803 115.995 279.903 114.767Z" fill="#525E77"/>
<path d="M266.935 133.985C267.385 138.095 267.615 142.271 267.615 146.5C267.615 209.416 216.611 260.42 153.695 260.42C132.688 260.42 112.659 251.54 98.553 235.972L86.1514 222.285L75.4502 154.689L102.029 89.7622L210.905 69.4062L266.935 133.985Z" fill="#FFDDCE"/>
<path d="M40.4554 133.985C40.0059 138.095 39.7754 142.27 39.7754 146.5C39.7754 202.953 80.8413 249.806 134.728 258.839C109.831 231.163 94.6738 194.549 94.6738 154.392C94.6738 146.318 95.2862 138.388 96.4676 130.645L66.0641 117.457L40.4554 133.985Z" fill="#FFCBBE"/>
<path d="M96.4682 130.646C116.689 123.642 134.071 110.561 146.432 93.5882C150.038 88.6358 157.351 88.6358 160.958 93.5882C179.826 119.497 210.396 136.336 244.9 136.336C252.46 136.336 259.828 135.52 266.928 133.986C260.696 76.9581 212.382 32.5801 153.696 32.5801C153.49 32.5801 153.284 32.5809 153.078 32.5816L122.562 41.3158L82.957 105.845L96.4682 130.646Z" fill="#EAAA83"/>
<path d="M153.078 32.5879C94.671 32.8984 46.6726 77.1592 40.4619 133.986C47.5621 135.52 54.9301 136.336 62.4899 136.336C74.3903 136.336 85.8211 134.332 96.4672 130.644C102.49 91.1509 123.307 56.5285 153.078 32.5879Z" fill="#DF8A57"/>
<path d="M92.1609 203.69C104.7 203.69 114.866 195.595 114.866 185.609C114.866 175.623 104.7 167.528 92.1609 167.528C79.6214 167.528 69.4561 175.623 69.4561 185.609C69.4561 195.595 79.6214 203.69 92.1609 203.69Z" fill="#FFA1AC"/>
<path d="M215.229 203.69C227.768 203.69 237.934 195.595 237.934 185.609C237.934 175.623 227.768 167.528 215.229 167.528C202.689 167.528 192.524 175.623 192.524 185.609C192.524 195.595 202.689 203.69 215.229 203.69Z" fill="#FFA1AC"/>
<path d="M105.393 174.026C102.178 174.026 99.5713 171.42 99.5713 168.204V158.922C99.5713 155.706 102.178 153.101 105.393 153.101C108.608 153.101 111.215 155.706 111.215 158.922V168.204C111.215 171.419 108.608 174.026 105.393 174.026Z" fill="#475066"/>
<path d="M201.997 174.026C198.782 174.026 196.175 171.42 196.175 168.204V158.922C196.175 155.706 198.782 153.101 201.997 153.101C205.212 153.101 207.819 155.706 207.819 158.922V168.204C207.819 171.419 205.212 174.026 201.997 174.026Z" fill="#475066"/>
<path d="M153.695 179.551C147.132 179.551 140.891 176.709 136.571 171.752C134.458 169.328 134.711 165.651 137.135 163.538C139.558 161.425 143.236 161.679 145.349 164.103C147.456 166.521 150.498 167.908 153.695 167.908C156.892 167.908 159.933 166.521 162.04 164.103C164.152 161.679 167.83 161.426 170.254 163.538C172.679 165.651 172.931 169.328 170.819 171.752C166.499 176.709 160.258 179.551 153.695 179.551Z" fill="#475066"/>
<path d="M105.393 153.101C102.178 153.101 99.5713 155.706 99.5713 158.922V168.204C99.5713 171.42 102.178 174.026 105.393 174.026C108.608 174.026 111.215 171.42 111.215 168.204V158.922C111.215 155.706 108.608 153.101 105.393 153.101Z" fill="#2B4D66"/>
<path d="M201.997 153.101C198.782 153.101 196.175 155.706 196.175 158.922V168.204C196.175 171.42 198.782 174.026 201.997 174.026C205.212 174.026 207.819 171.42 207.819 168.204V158.922C207.819 155.706 205.212 153.101 201.997 153.101Z" fill="#2B4D66"/>
<path d="M170.254 163.538C167.83 161.425 164.152 161.678 162.04 164.102C159.932 166.52 156.891 167.907 153.694 167.907C150.498 167.907 147.456 166.52 145.348 164.102C143.235 161.679 139.558 161.425 137.134 163.538C134.71 165.65 134.458 169.327 136.571 171.752C140.89 176.708 147.131 179.55 153.694 179.55C160.257 179.55 166.498 176.708 170.818 171.752C172.931 169.327 172.679 165.65 170.254 163.538Z" fill="#2B4D66"/>
</svg>
