<svg width="350" height="350" viewBox="0 0 350 350" fill="none" xmlns="http://www.w3.org/2000/svg">
<g clip-path="url(#clip0_834_2577)">
<path d="M95.4544 206.818H254.545V318.181C254.545 335.754 240.299 349.999 222.726 349.999H127.272C109.699 349.999 95.4536 335.754 95.4536 318.181V206.818H95.4544Z" fill="#9696CD"/>
<path d="M159.091 206.818H254.546V318.181C254.546 335.754 240.3 349.999 222.727 349.999H190.909C173.336 349.999 159.09 335.754 159.09 318.181L159.091 206.818Z" fill="#666689"/>
<path d="M127.275 302.275H190.912C199.698 302.275 206.821 309.398 206.821 318.184V318.185C206.821 326.971 199.698 334.094 190.912 334.094H127.275C118.489 334.094 111.366 326.971 111.366 318.185V318.184C111.366 309.398 118.489 302.275 127.275 302.275Z" fill="#666689"/>
<path d="M159.088 318.182H190.904C199.69 318.182 206.813 325.304 206.813 334.09V334.091C206.813 342.877 199.69 350 190.904 350H159.088C150.302 350 143.179 342.877 143.179 334.091V334.09C143.179 325.304 150.302 318.182 159.088 318.182Z" fill="#3D4165"/>
<path d="M175 334.09C104.709 334.09 47.7271 261.2 47.7271 190.909H302.272C302.273 261.2 245.291 334.09 175 334.09Z" fill="#A3A3C6"/>
<path d="M55.682 111.366C68.8614 111.366 79.5456 122.05 79.5456 135.23V182.957C79.5456 196.136 68.8614 206.821 55.682 206.821C42.5025 206.821 31.8184 196.136 31.8184 182.957V135.23C31.8184 122.05 42.5025 111.366 55.682 111.366Z" fill="#A3A3C6"/>
<path d="M294.318 111.366C307.498 111.366 318.182 122.05 318.182 135.23V182.957C318.182 196.136 307.498 206.821 294.318 206.821C281.139 206.821 270.455 196.136 270.455 182.957V135.23C270.455 122.05 281.139 111.366 294.318 111.366Z" fill="#A3A3C6"/>
<path d="M286.363 127.273C295.15 127.273 302.273 134.395 302.273 143.182V174.998C302.273 183.784 295.15 190.907 286.364 190.907H286.363C277.577 190.907 270.455 183.784 270.455 174.998V143.182C270.455 134.395 277.577 127.273 286.363 127.273Z" fill="#A3A3C6"/>
<path d="M175 15.9097H175.008C236.511 15.9097 286.369 65.7674 286.369 127.271V190.912C286.369 252.415 236.511 302.273 175.008 302.273H175C113.497 302.273 63.6392 252.415 63.6392 190.912V127.271C63.6392 65.7674 113.497 15.9097 175 15.9097Z" fill="#EF91A3"/>
<path d="M63.6367 127.273V190.909C63.6472 229.696 83.8708 265.675 117.002 285.845C120.389 286.155 123.806 286.363 127.273 286.363C188.777 286.363 238.636 236.504 238.636 175V111.364C238.626 72.5768 218.402 36.5979 185.271 16.428C181.884 16.1185 178.467 15.9097 175 15.9097C113.495 15.9089 63.6367 65.7682 63.6367 127.273Z" fill="#FFCAD4"/>
<path d="M159.088 222.727H190.904C199.69 222.727 206.813 229.85 206.813 238.636V238.637C206.813 247.423 199.69 254.545 190.904 254.545H159.088C150.302 254.545 143.179 247.423 143.179 238.637V238.636C143.179 229.85 150.302 222.727 159.088 222.727Z" fill="white"/>
<path d="M159.088 175H190.904C199.69 175 206.813 182.123 206.813 190.909V190.91C206.813 199.696 199.69 206.818 190.904 206.818H159.088C150.302 206.818 143.179 199.696 143.179 190.91V190.909C143.179 182.123 150.302 175 159.088 175Z" fill="#EF91A3"/>
<path d="M81.4754 190.909C90.4257 190.909 99.0099 187.353 105.339 181.024L120.683 165.681C124.902 161.461 130.625 159.09 136.591 159.09C149.017 159.09 159.09 149.017 159.09 136.592V120.683C159.09 114.715 161.461 108.993 165.68 104.774L168.41 102.044C172.629 97.8251 175 92.1023 175 86.1357V15.9096C175 7.12254 167.877 0 159.09 0C97.5863 0 47.7271 49.8593 47.7271 111.363V157.16C47.7271 175.799 62.8364 190.909 81.4754 190.909Z" fill="#E4E4FF"/>
<path d="M87.5002 95.4521H135.224C139.618 95.4521 143.179 99.0138 143.179 103.407C143.179 107.8 139.618 111.362 135.224 111.362H87.5002C83.1071 111.362 79.5454 107.8 79.5454 103.407C79.5454 99.013 83.1071 95.4521 87.5002 95.4521Z" fill="#DBE2E8"/>
<path d="M182.954 46.9121C178.561 46.9121 174.999 50.4737 174.999 54.8669V86.1349C174.999 92.1023 172.628 97.8244 168.409 102.044L165.68 104.773C161.46 108.993 159.09 114.715 159.09 120.682V136.591C159.09 149.016 149.016 159.09 136.591 159.09C130.623 159.09 124.901 161.46 120.682 165.68L112.291 174.07L111.58 174.781L111.578 174.784L111.324 175.038L111.271 175.09L111.269 175.092L111.151 175.21L111.096 175.265L111.031 175.33L111.027 175.334L110.972 175.391L110.891 175.471L110.792 175.571L110.79 175.573C110.629 175.734 110.47 175.893 110.312 176.051L110.29 176.073L110.192 176.171L110.159 176.203L110.072 176.29L110.03 176.332L110.012 176.351L109.998 176.364C109.882 176.48 109.766 176.596 109.652 176.71L109.62 176.742L109.592 176.77L109.528 176.835L109.472 176.89L109.436 176.926L109.412 176.95L109.197 177.166L109.173 177.189L109.138 177.225L109.112 177.25L109.079 177.283L109.053 177.31L109.05 177.313L108.933 177.43L108.906 177.456C108.854 177.508 108.804 177.559 108.753 177.609L108.737 177.626C108.681 177.681 108.628 177.735 108.573 177.789L108.544 177.818C108.432 177.93 108.322 178.04 108.214 178.148L108.201 178.161L108.034 178.328L107.758 178.604L107.734 178.628L107.687 178.675L107.674 178.688L107.505 178.857L107.494 178.868L107.374 178.988L107.314 179.048L107.247 179.116L107.194 179.168L107.084 179.278L107.074 179.288L106.745 179.617L106.715 179.647L106.509 179.853L106.475 179.887L106.446 179.916L106.355 180.007L106.08 180.281L105.995 180.366L105.949 180.413L105.935 180.427L105.915 180.446L105.875 180.486L105.62 180.741L105.575 180.786L105.55 180.812L105.516 180.846L105.48 180.882L105.456 180.905L105.367 180.995L105.336 181.026C99.0069 187.355 90.4227 190.91 81.4724 190.91H81.4187H81.4038H81.365H81.3456H81.3121H81.2889H81.2584H81.2338H81.2047H81.1823H81.151H81.1279H81.0973H81.0757H81.0436H81.0205H80.9907H80.9668L80.937 190.91L80.9131 190.909L80.884 190.908H80.8601L80.8296 190.907L80.8072 190.907L80.7751 190.906L80.7543 190.905L80.7207 190.904L80.7013 190.904L80.6655 190.903L80.6491 190.902L80.6141 190.901L80.5939 190.901L80.5596 190.9L80.5417 190.899L80.5037 190.898L80.488 190.898L80.447 190.896H80.4351L80.3881 190.895H80.3821C80.3105 190.892 80.2382 190.89 80.1674 190.887H80.1592L80.1144 190.886L80.1032 190.885L80.0607 190.883L80.0473 190.883L80.0078 190.881L79.9929 190.88L79.9556 190.879L79.9362 190.878L79.9026 190.877L79.8825 190.876L79.8497 190.875L79.828 190.874L79.7967 190.872L79.7736 190.872L79.746 190.87L79.7192 190.869L79.6938 190.867L79.6662 190.866L79.6416 190.864L79.6133 190.863L79.5894 190.861L79.5588 190.86L79.5394 190.859L79.5059 190.857L79.488 190.856L79.4529 190.854L79.4373 190.853L79.4 190.851L79.3866 190.85L79.3463 190.848L79.3396 190.847C78.9376 190.822 78.5394 190.79 78.1412 190.751C77.8876 190.727 77.6363 190.715 77.3865 190.715C72.9934 190.72 69.4362 194.286 69.4414 198.679C69.4466 202.771 72.5541 206.19 76.6258 206.587C78.2202 206.742 79.8348 206.821 81.4709 206.821C94.6481 206.857 107.292 201.62 116.584 192.277L131.928 176.934C133.161 175.694 134.839 174.999 136.587 175.004C157.789 174.98 174.971 157.798 174.995 136.596V120.683C174.99 118.934 175.685 117.256 176.925 116.023L179.654 113.293C186.88 106.107 190.931 96.3269 190.903 86.1349V54.8669C190.909 50.4737 187.348 46.9121 182.954 46.9121C182.955 46.9121 182.954 46.9121 182.954 46.9121Z" fill="#3D4165"/>
<path d="M98.1889 56.5515C93.7958 56.5515 90.2341 52.9899 90.2349 48.5967C90.2349 46.449 91.1037 44.3923 92.6429 42.8948C108.28 27.6616 128.681 18.2698 150.422 16.2966C154.756 16.0244 158.547 19.1856 159.06 23.4974C159.456 27.8757 156.229 31.7453 151.851 32.1435C133.744 33.7841 116.754 41.6077 103.735 54.2979C102.252 55.7469 100.261 56.5552 98.1889 56.5515Z" fill="white"/>
<path d="M71.5907 119.318C67.1998 119.32 63.6389 115.763 63.6359 111.373C63.6359 111.37 63.6359 111.367 63.6359 111.364C63.6143 99.0005 66.0163 86.7525 70.7047 75.3121C72.3692 71.2448 77.0159 69.2977 81.0832 70.9622C85.1504 72.6267 87.0975 77.2734 85.433 81.3406C81.5224 90.8659 79.5223 101.068 79.5447 111.364C79.5469 115.755 75.9898 119.316 71.5996 119.319C71.5966 119.318 71.5937 119.318 71.5907 119.318Z" fill="white"/>
<path d="M167.045 31.0034C162.652 31.0034 159.09 34.5651 159.09 38.9582V86.1358C159.095 87.8845 158.4 89.5625 157.16 90.7959L154.43 93.5253C147.204 100.713 143.153 110.492 143.181 120.684V136.592C143.176 140.23 140.228 143.178 136.591 143.182C126.399 143.155 116.619 147.206 109.432 154.432L94.0895 169.775C90.7516 173.131 86.2093 175.013 81.4754 174.999C80.8795 174.999 80.2904 174.971 79.7095 174.914C79.4477 174.889 79.1882 174.876 78.9302 174.876C74.5371 174.882 70.9799 178.448 70.9858 182.842C70.9911 186.933 74.0986 190.353 78.1703 190.749C78.5596 190.787 78.9503 190.818 79.3441 190.843L79.3508 190.843L79.3911 190.846L79.4045 190.846L79.4418 190.849L79.4574 190.849L79.4925 190.852L79.5104 190.852L79.5439 190.855L79.5633 190.855L79.5939 190.857L79.6178 190.858L79.6461 190.86L79.6707 190.861L79.6983 190.863L79.7237 190.864L79.7505 190.866L79.7781 190.867L79.8012 190.868L79.8325 190.869L79.8542 190.87L79.887 190.872L79.9071 190.872L79.9407 190.874L79.9601 190.875L79.9973 190.876L80.0123 190.877L80.0518 190.878L80.0652 190.879L80.1077 190.881L80.1189 190.881L80.1636 190.883H80.1718C80.2442 190.886 80.3143 190.888 80.3866 190.89H80.3926L80.4396 190.892H80.4515L80.4925 190.893L80.5082 190.894L80.5462 190.895L80.5641 190.896L80.5984 190.896L80.6185 190.897L80.6536 190.898L80.67 190.898L80.7058 190.899L80.7252 190.9L80.7587 190.901L80.7796 190.901L80.8117 190.902L80.8341 190.903L80.8646 190.904H80.8885L80.9176 190.904L80.9414 190.905L80.9713 190.906H80.9951H81.025H81.0481H81.0801H81.1018H81.1323H81.1555H81.1868H81.2092H81.2382H81.2629H81.2934H81.3165H81.3501H81.3695H81.4083H81.4232H81.4769C90.4272 190.906 99.0114 187.35 105.34 181.021L105.371 180.991C105.391 180.971 105.421 180.941 105.461 180.901L105.484 180.877L105.52 180.841L105.555 180.807L105.58 180.782L105.625 180.737L105.88 180.482L105.92 180.442L105.939 180.422L105.953 180.408L106 180.362L106.085 180.277C106.17 180.192 106.261 180.1 106.359 180.003L106.45 179.912L106.479 179.882L106.514 179.848C106.58 179.782 106.649 179.713 106.719 179.643L106.75 179.613C106.854 179.507 106.965 179.398 107.079 179.284L107.088 179.274L107.199 179.164L107.251 179.111L107.319 179.044L107.379 178.984L107.499 178.864L107.51 178.853C107.566 178.797 107.622 178.741 107.678 178.684L107.692 178.671L107.739 178.624L107.763 178.6C107.853 178.51 107.945 178.418 108.039 178.324L108.206 178.157L108.218 178.144L108.549 177.814L108.578 177.785L108.741 177.621L108.757 177.605L108.91 177.452L108.937 177.425L109.054 177.308L109.057 177.305L109.083 177.279L109.117 177.246L109.142 177.22L109.177 177.185L109.201 177.161C109.273 177.09 109.344 177.018 109.417 176.946L109.441 176.922L109.476 176.886L109.532 176.83L109.596 176.766L109.625 176.738L109.657 176.706L110.003 176.36L110.016 176.346L110.035 176.328L110.077 176.286L110.164 176.199L110.197 176.166L110.294 176.069L110.317 176.046L110.794 175.569L110.796 175.567L110.895 175.467C110.922 175.44 110.949 175.413 110.976 175.386L111.032 175.33L111.036 175.326L111.101 175.261L111.156 175.206L111.274 175.088L111.276 175.086L111.328 175.034L111.582 174.779L111.585 174.777C111.82 174.541 112.057 174.304 112.296 174.066C116.356 170.006 120.686 165.675 120.686 165.675C124.906 161.456 130.628 159.085 136.595 159.085C149.021 159.085 159.094 149.012 159.094 136.586V120.683C159.094 114.715 161.465 108.993 165.684 104.774L168.413 102.045C172.633 97.8252 175.004 92.1024 175.004 86.1358V38.9582C175 34.5651 171.438 31.0034 167.045 31.0034Z" fill="#A3A3C6"/>
<path d="M95.4542 111.366H127.27C136.057 111.366 143.179 118.489 143.179 127.275V127.276C143.179 136.062 136.057 143.185 127.27 143.185H95.4542C86.668 143.185 79.5454 136.062 79.5454 127.276V127.275C79.5454 118.489 86.668 111.366 95.4542 111.366Z" fill="#666689"/>
<path d="M222.727 143.181C231.513 143.181 238.636 136.059 238.636 127.273C238.636 118.486 231.513 111.364 222.727 111.364C213.941 111.364 206.818 118.486 206.818 127.273C206.818 136.059 213.941 143.181 222.727 143.181Z" fill="#EF91A3"/>
<path d="M159.091 270.455H190.909C208.482 270.455 222.727 284.7 222.727 302.271C222.727 319.843 208.482 334.088 190.909 334.088H159.091C141.519 334.088 127.273 319.843 127.273 302.271C127.273 284.699 141.519 270.455 159.091 270.455Z" fill="#E4E4FF"/>
<path d="M159.088 302.275H190.904C199.69 302.275 206.813 309.397 206.813 318.184V318.184C206.813 326.971 199.69 334.093 190.904 334.093H159.088C150.302 334.093 143.179 326.971 143.179 318.184V318.184C143.179 309.397 150.302 302.275 159.088 302.275Z" fill="#A3A3C6"/>
<path d="M159.088 270.455H190.904C199.69 270.455 206.813 277.577 206.813 286.363V286.364C206.813 295.15 199.69 302.273 190.904 302.273H159.088C150.302 302.273 143.179 295.15 143.179 286.364V286.363C143.179 277.577 150.302 270.455 159.088 270.455Z" fill="white"/>
</g>
<defs>
<clipPath id="clip0_834_2577">
<rect width="350" height="350" fill="white"/>
</clipPath>
</defs>
</svg>
