<svg width="350" height="350" viewBox="0 0 350 350" fill="none" xmlns="http://www.w3.org/2000/svg">
<g clip-path="url(#clip0_834_2604)">
<path d="M334.963 182.519C334.963 275.015 259.979 350 167.48 350C74.9843 350 0 275.015 0 182.519C0 90.0207 74.9843 15.0391 167.48 15.0391C259.979 15.0391 334.963 90.0207 334.963 182.519Z" fill="#162680"/>
<path d="M18.3396 258.796C15.2421 218.622 29.0154 177.379 59.6756 146.719C75.5425 130.852 96.7766 119.592 119.471 115.007C176.466 103.501 222.822 137.32 222.822 189.564C222.822 210.953 210.205 229.015 189.072 237.877C185.526 239.365 183.86 243.442 185.345 246.988C186.832 250.534 190.909 252.203 194.456 250.713C220.539 239.776 236.74 216.344 236.74 189.564C236.74 158.794 223.233 138.513 211.903 126.914C169.085 83.0942 92.9874 93.7246 49.833 136.876C24.9352 161.774 10.1819 193.033 5.57031 225.471C8.65449 237.124 12.9537 248.286 18.3396 258.796Z" fill="#B26CDE"/>
<path d="M103.386 119.455C100.09 117.554 98.0743 113.711 98.8968 109.599C99.2119 108.072 99.8661 106.739 100.747 105.634C81.7829 112.01 64.0255 122.681 49.833 136.876C24.9352 161.774 10.1819 193.032 5.57031 225.471C8.65449 237.124 12.9537 248.286 18.3396 258.796C15.2421 218.622 29.0154 177.379 59.6756 146.719C71.7213 134.673 86.8618 125.284 103.386 119.455Z" fill="#9D4AD3"/>
<path d="M192.074 344.643C101.898 344.643 43.606 267.979 61.5877 203.858C65.9643 188.245 76.7763 166.407 103.423 151.023C119.554 141.71 138.281 139.835 156.148 145.747C159.795 146.954 161.777 150.89 160.57 154.54C159.363 158.191 155.424 160.169 151.777 158.962C141.838 155.675 126.59 153.72 110.382 163.08C38.8555 204.373 75.4278 304.506 154.853 325.788C191.705 335.666 230.197 330.595 263.24 311.518C373.92 247.616 355.412 69.3368 228.817 13.3249C225.303 11.7708 223.714 7.65855 225.268 4.14445C226.825 0.627689 230.937 -0.958461 234.449 0.595645C371.178 61.0909 390.957 253.856 270.198 323.575C246.046 337.519 219.236 344.64 192.074 344.643Z" fill="#B26CDE"/>
<path d="M224.366 330.691C224.707 329.033 225.452 327.607 226.448 326.45C203.174 332.304 178.672 332.173 154.85 325.788C75.4278 304.506 38.8555 204.373 110.382 163.077C114.021 160.976 117.613 159.448 121.106 158.375C117.341 156.671 114.929 152.543 115.813 148.107C116.04 147.01 116.441 146.009 116.975 145.122C112.315 146.545 107.773 148.511 103.423 151.023C76.7763 166.407 65.9643 188.245 61.5877 203.858C43.606 267.979 101.898 344.643 192.074 344.643C204.344 344.643 216.539 343.185 228.451 340.304C225.396 338.331 223.578 334.63 224.366 330.691Z" fill="#9D4AD3"/>
<path d="M200.082 41.2398C176.202 27.4504 150.759 20.8708 125.466 20.3555C108.502 24.7374 92.5845 31.7175 78.1543 40.8339C115.669 29.6107 156.479 32.1368 193.123 53.2934C246.089 83.8735 277.43 147.611 257.24 207.665C238.582 263.156 185.839 285.782 140.997 259.891C130.086 253.592 122.251 243.986 118.339 232.117C117.138 228.464 113.202 226.477 109.552 227.684C105.901 228.886 103.917 232.819 105.119 236.472C117.744 274.796 163.646 291.229 200.71 281.76C260.057 266.596 288.917 195.382 273.12 136.422C262.284 95.9779 236.345 62.1748 200.082 41.2398Z" fill="#B26CDE"/>
<path d="M202.034 268.74C202.181 268.027 202.405 267.359 202.685 266.732C183.088 273.376 161.237 271.576 140.996 259.891C130.086 253.591 122.251 243.986 118.342 232.114C117.137 228.464 113.201 226.477 109.551 227.684C105.901 228.886 103.917 232.819 105.118 236.469C117.744 274.796 163.648 291.229 200.712 281.76C203.34 281.087 205.903 280.302 208.41 279.416C204.039 278.067 201.067 273.586 202.034 268.74Z" fill="#9D4AD3"/>
<path d="M204.173 93.4705C200.221 93.4705 197.214 90.2154 197.214 86.509C197.214 82.1565 201.254 78.8053 205.537 79.6891C209.001 80.4101 211.131 83.3875 211.131 86.509C211.131 90.3729 208.007 93.4705 204.173 93.4705Z" fill="#4374D3"/>
<path d="M288.378 252.182C283.35 252.182 279.099 248.094 279.099 242.903C279.099 238.593 282.073 234.724 286.559 233.8C292.199 232.67 297.657 236.977 297.657 242.903C297.657 248.003 293.502 252.182 288.378 252.182Z" fill="#FADDA0"/>
<path d="M96.4722 147.6C92.5789 147.6 89.5107 144.425 89.5107 140.638C89.5107 137.448 91.7137 134.526 95.1157 133.819C99.3321 132.969 103.431 136.2 103.431 140.638C103.431 144.534 100.261 147.6 96.4722 147.6Z" fill="#FD7E31"/>
<path d="M167.472 80.6377C161.691 80.6377 157.208 75.3426 158.369 69.5374C159.579 63.6574 165.745 60.5866 171.016 62.7815C173.972 64.0125 175.951 66.552 176.567 69.5374C177.718 75.3132 173.272 80.6377 167.472 80.6377Z" fill="#D7F9B7"/>
<path d="M197.732 56.0759C196.557 50.5324 200.555 45.3306 206.117 44.9114C181.636 29.3009 154.175 20.9403 125.464 20.3555C108.502 24.7374 92.5845 31.7175 78.1543 40.8339C118.825 28.6681 161.36 33.2022 197.732 56.0759Z" fill="#C78FE8"/>
<path d="M268.38 105.797C268.38 114.027 261.71 120.697 253.48 120.697C245.25 120.697 238.58 114.027 238.58 105.797C238.58 97.5698 245.25 90.8994 253.48 90.8994C261.71 90.8994 268.38 97.5698 268.38 105.797Z" fill="#A2EC00"/>
<path d="M259.475 108.71C254.556 108.71 250.569 104.723 250.569 99.8048C250.569 95.794 253.218 92.4055 256.863 91.2893C255.776 91.0356 254.644 90.8994 253.48 90.8994C245.25 90.8994 238.58 97.5698 238.58 105.797C238.58 114.027 245.25 120.697 253.48 120.697C261.71 120.697 268.38 114.027 268.38 105.797C268.38 104.633 268.241 103.503 267.987 102.414C266.871 106.059 263.483 108.71 259.475 108.71Z" fill="#00C82F"/>
<path d="M50.9198 172.354C50.9198 183.401 41.9664 192.354 30.9194 192.354C19.8751 192.354 10.9189 183.401 10.9189 172.354C10.9189 161.31 19.8751 152.354 30.9194 152.354C41.9664 152.354 50.9198 161.31 50.9198 172.354Z" fill="#FACE7A"/>
<path d="M38.9783 176.242C32.3827 176.242 27.0341 170.893 27.0341 164.298C27.0341 158.922 30.5856 154.378 35.4695 152.88C34.0062 152.538 32.4842 152.354 30.9194 152.354C19.8751 152.354 10.9189 161.31 10.9189 172.354C10.9189 183.401 19.8751 192.354 30.9194 192.354C41.9664 192.354 50.9225 183.401 50.9225 172.354C50.9225 170.789 50.7356 169.267 50.3964 167.806C48.8957 172.69 44.3536 176.242 38.9783 176.242Z" fill="#FBB362"/>
<path d="M315.793 299.518C315.793 312.61 305.179 323.225 292.086 323.225C278.991 323.225 268.377 312.61 268.377 299.518C268.377 286.423 278.991 275.809 292.086 275.809C305.179 275.809 315.793 286.423 315.793 299.518Z" fill="#F948B4"/>
<path d="M301.486 304.423C293.585 304.423 287.179 298.017 287.179 290.116C287.179 283.641 291.486 278.174 297.39 276.412C295.684 276.022 293.91 275.809 292.087 275.809C278.994 275.809 268.38 286.423 268.38 299.518C268.38 312.61 278.994 323.225 292.087 323.225C305.179 323.225 315.793 312.61 315.793 299.518C315.793 297.694 315.58 295.919 315.19 294.212C313.428 300.116 307.964 304.423 301.486 304.423Z" fill="#F6159C"/>
<path d="M206.683 176.089C189.927 147.069 152.815 137.127 123.795 153.883C94.7739 170.639 84.8298 207.748 101.586 236.769C118.342 265.792 155.453 275.734 184.474 258.978C213.495 242.222 223.439 205.113 206.683 176.089Z" fill="#FC9949"/>
<path d="M194.456 250.713C123.303 240.579 162.386 197.272 132.786 178.813C116.027 168.361 129.432 151.01 129.432 151.01C127.528 151.862 125.648 152.818 123.8 153.886C94.7768 170.642 84.8326 207.751 101.589 236.774C118.347 265.797 155.456 275.741 184.48 258.985C188.525 256.649 192.199 253.915 195.484 250.865C195.142 250.814 194.803 250.764 194.456 250.713Z" fill="#FD7E31"/>
<path d="M166.332 147.005C156.038 151.333 146.164 158.159 140.006 168.917C128.839 188.418 107.851 197.254 93.7034 201.137C92.6887 212.603 94.9183 224.456 100.777 235.282C107.349 227.148 129.613 202.678 159.561 202.784C180.25 202.859 196.63 188.496 206.803 176.303C197.874 160.693 182.966 150.426 166.332 147.005Z" fill="#FBB362"/>
<path d="M100.777 235.281C106.331 228.405 123.098 209.863 146.236 204.351C145.026 194.471 142.978 185.168 132.786 178.812C121.197 191.56 105.194 197.982 93.7033 201.136C92.6859 212.602 94.9183 224.456 100.777 235.281Z" fill="#FC9949"/>
<path d="M214.376 213.743C204.499 222.945 191.388 231.044 175.841 230.988C151.178 230.9 131.725 247.482 121.958 257.88C159.718 281.456 208.998 257.776 214.376 213.743Z" fill="#FD7E31"/>
<path d="M194.456 250.713C173.497 247.727 162.105 241.863 155.702 234.605C140.658 240.053 128.876 250.515 121.958 257.88C146.727 273.343 176.453 268.475 195.494 250.868C195.15 250.814 194.808 250.763 194.456 250.713Z" fill="#FC5D1F"/>
<path d="M228.817 13.3243C275.357 33.9176 307.289 71.0345 323.564 112.918C324.969 109.238 328.523 106.619 332.696 106.619C333.962 106.619 335.169 106.867 336.28 107.305C318.685 62.3908 284.362 22.6783 234.449 0.595079C230.937 -0.956357 226.825 0.629793 225.268 4.14389C223.714 7.65798 225.303 11.7702 228.817 13.3243Z" fill="#C78FE8"/>
</g>
<defs>
<clipPath id="clip0_834_2604">
<rect width="350" height="350" fill="white"/>
</clipPath>
</defs>
</svg>
