<svg width="350" height="350" viewBox="0 0 350 350" fill="none" xmlns="http://www.w3.org/2000/svg">
<path d="M331.897 106.569C331.939 114.225 328.605 121.51 322.785 126.483L286.94 156.897L282.293 160.819C269.862 141.328 239.388 108.621 175 108.621C110.612 108.621 80.1381 141.328 67.7071 160.819L63.0605 156.897L27.2157 126.483C21.2943 121.378 17.9553 113.9 18.107 106.083C18.2587 98.2661 21.8852 90.9233 28.0002 86.0517L54.3105 65.5948L66.3795 56.2414C66.1702 42.1137 73.206 28.8617 85.0261 21.1207C101.138 11.0431 129.198 0 175 0C220.802 0 248.862 11.0431 264.974 21.1207C276.794 28.8617 283.83 42.1137 283.621 56.2414L295.69 65.5948L322 86.0517C328.285 90.9998 331.937 98.5701 331.897 106.569Z" fill="#E54C5B"/>
<path d="M84.4829 175L72.2932 164.681L67.707 160.819C80.1381 141.328 110.612 108.621 175 108.621C239.388 108.621 269.862 141.328 282.293 160.819L277.707 164.681L265.517 175H84.4829Z" fill="#A02A39"/>
<path d="M313.793 247.414C313.803 255.395 309.845 262.858 303.233 267.327C301.223 268.646 300.257 271.085 300.819 273.422C303.395 281.548 301.336 290.431 295.448 296.595C290.879 300.716 284.685 302.537 278.612 301.543C277.037 301.327 275.441 301.767 274.198 302.759C272.956 303.751 272.173 305.209 272.035 306.793C271.763 313.6 268.209 319.852 262.5 323.569C256.27 327.156 248.657 327.382 242.224 324.172C240.649 323.473 238.847 323.498 237.292 324.241C235.737 324.984 234.584 326.37 234.138 328.034C232.668 334.825 227.985 340.475 221.586 343.181C214.313 345.611 206.299 344.104 200.405 339.198C197.86 337.279 194.249 337.734 192.259 340.224C188.622 346.287 182.07 349.997 175 349.997C167.93 349.997 161.378 346.287 157.741 340.224C155.751 337.734 152.141 337.279 149.595 339.198C143.701 344.104 135.688 345.611 128.414 343.181C122.015 340.475 117.332 334.825 115.862 328.034C115.416 326.37 114.264 324.984 112.708 324.241C111.153 323.498 109.351 323.473 107.776 324.172C101.343 327.382 93.7304 327.156 87.5001 323.569C81.7911 319.852 78.2374 313.6 77.9656 306.793C77.8267 305.209 77.0447 303.751 75.8017 302.759C74.5588 301.767 72.9636 301.327 71.388 301.543C65.3156 302.537 59.1207 300.716 54.5518 296.595C48.6637 290.431 46.6047 281.548 49.1811 273.422C49.7432 271.085 48.7774 268.646 46.7673 267.327C38.4378 261.674 34.5008 251.438 36.8948 241.66C39.2889 231.882 47.5095 224.623 57.5087 223.457C59.418 223.148 61.0595 221.933 61.9139 220.198L84.4828 175C88.7781 166.638 94.9795 159.403 102.586 153.879C105.305 151.734 108.168 149.779 111.155 148.026C114.622 145.999 118.209 144.185 121.897 142.595C124.617 141.39 127.396 140.322 130.224 139.396C144.588 134.776 159.611 132.534 174.698 132.758H175C179.164 132.758 183.147 132.879 186.948 133.181H187.009C195.293 133.708 203.513 134.981 211.569 136.983C214.466 137.767 217.241 138.552 219.836 139.396C229.779 142.636 239.103 147.533 247.414 153.879C255.006 159.419 261.204 166.65 265.517 175L288.086 220.198C288.941 221.933 290.582 223.148 292.491 223.457C304.643 224.878 313.803 235.179 313.793 247.414Z" fill="#E47E25"/>
<path d="M247.414 153.879V206.258C247.401 212.223 243.05 217.292 237.155 218.207C226.535 219.896 208.733 222.733 201.069 241.379C181.578 241.681 175 248.621 175 248.621C175 248.621 168.423 241.681 148.931 241.379C141.267 222.733 123.466 219.896 112.845 218.207C106.951 217.292 102.599 212.223 102.586 206.258V153.879C105.306 151.734 108.169 149.779 111.155 148.026C117.203 144.511 123.592 141.62 130.224 139.396C144.589 134.776 159.611 132.534 174.698 132.758H175C179.164 132.758 183.147 132.879 186.948 133.181H187.009C195.293 133.708 203.513 134.981 211.569 136.983C214.466 137.707 217.242 138.552 219.836 139.396C229.779 142.636 239.103 147.533 247.414 153.879Z" fill="#FFCBBE"/>
<path d="M125.88 172.526C124.306 172.82 122.915 173.732 122.019 175.059C121.123 176.386 120.796 178.017 121.112 179.587C123.435 191.842 134.714 200.309 147.131 199.119C159.548 197.929 169.013 187.474 168.966 175L168.966 152.673C156.813 163.297 141.853 170.191 125.88 172.526Z" fill="#333353"/>
<path d="M223.276 175C223.274 178.59 222.203 182.098 220.199 185.077V185.138C216.819 190.118 211.192 193.101 205.173 193.101C199.154 193.101 193.526 190.118 190.147 185.138V185.077C188.143 182.098 187.071 178.59 187.069 175C187.069 164.982 195.156 162.931 205.173 162.931C215.19 162.931 223.276 164.982 223.276 175Z" fill="white"/>
<path d="M187.009 133.181C187.012 133.591 186.951 133.998 186.828 134.388C183.012 147.254 174.477 158.203 162.931 165.043C151.889 171.679 139.716 176.22 127.026 178.44C118.972 180.026 110.794 180.894 102.586 181.035V168.966C103.19 168.966 162.75 168.423 174.698 132.759H175C179.164 132.759 183.207 132.879 187.009 133.181Z" fill="#5B5B81"/>
<path d="M220.259 184.052C220.269 184.395 220.249 184.738 220.199 185.078V185.138C219.336 186.421 218.301 187.579 217.121 188.578C210.298 194.611 200.047 194.611 193.224 188.578C192.045 187.579 191.009 186.421 190.147 185.138V185.078C190.097 184.738 190.076 184.395 190.086 184.052C190.086 175.72 196.841 168.966 205.173 168.966C213.505 168.966 220.259 175.72 220.259 184.052Z" fill="#56AAFE"/>
<path d="M217.241 187.069C217.234 187.574 217.193 188.078 217.121 188.578C210.298 194.611 200.047 194.611 193.224 188.578C193.152 188.078 193.111 187.574 193.104 187.069C193.104 180.403 198.507 175 205.172 175C211.838 175 217.241 180.403 217.241 187.069Z" fill="#464F5D"/>
<path d="M211.207 181.035C214.54 181.035 217.242 178.333 217.242 175C217.242 171.668 214.54 168.966 211.207 168.966C207.875 168.966 205.173 171.668 205.173 175C205.173 178.333 207.875 181.035 211.207 181.035Z" fill="white"/>
<path d="M187.069 227.886C185.584 227.886 184.151 227.338 183.044 226.348C178.415 222.382 171.586 222.382 166.956 226.348C165.354 227.809 163.09 228.299 161.026 227.629C158.963 226.959 157.418 225.233 156.98 223.109C156.541 220.984 157.277 218.788 158.906 217.356C168.169 209.423 181.831 209.423 191.094 217.356C192.958 219.025 193.599 221.67 192.706 224.006C191.813 226.343 189.571 227.886 187.069 227.886Z" fill="#464F5D"/>
<path d="M286.94 156.896L282.293 160.819L277.707 164.681C277.514 164.507 277.351 164.304 277.224 164.077C265.457 145.612 236.492 114.655 175 114.655C113.509 114.655 84.5433 145.612 72.7761 164.077C72.6493 164.304 72.4862 164.507 72.2933 164.681L67.7071 160.819L63.0605 156.896C76.3968 136.319 108.44 102.586 175 102.586C241.561 102.586 273.604 136.319 286.94 156.896Z" fill="#FCA751"/>
<path d="M66.3795 56.2412V114.655C66.3795 117.988 63.6778 120.689 60.345 120.689C57.0123 120.689 54.3105 117.988 54.3105 114.655V65.5947L66.3795 56.2412Z" fill="#A02A39"/>
<path d="M295.69 65.5947V114.655C295.69 117.988 292.988 120.689 289.656 120.689C286.323 120.689 283.621 117.988 283.621 114.655V56.2412L295.69 65.5947Z" fill="#A02A39"/>
<path d="M193.104 90.5171C191.503 90.5168 189.969 89.8808 188.837 88.749L152.63 52.5421C150.344 50.1743 150.376 46.4106 152.704 44.0829C155.032 41.7552 158.795 41.7225 161.163 44.0094L197.37 80.2163C199.095 81.9421 199.611 84.5372 198.678 86.7918C197.744 89.0464 195.544 90.5166 193.104 90.5171Z" fill="white"/>
<path d="M156.897 90.5171C154.456 90.5166 152.257 89.0464 151.323 86.7918C150.389 84.5372 150.905 81.9421 152.63 80.2163L188.837 44.0094C191.205 41.7225 194.969 41.7552 197.296 44.0829C199.624 46.4106 199.657 50.1743 197.37 52.5421L161.163 88.749C160.032 89.8808 158.497 90.5168 156.897 90.5171Z" fill="white"/>
<path d="M42.845 111.143C40.2681 111.142 37.9762 109.505 37.1397 107.068C36.3032 104.63 37.1066 101.931 39.1398 100.347L82.1657 66.9225C83.627 65.7718 84.4808 64.0152 84.4829 62.1552V56.2414C84.283 48.3464 88.1116 40.8914 94.645 36.4544C108.017 28.0845 132.759 18.1035 175 18.1035C217.242 18.1035 241.983 28.0906 255.361 36.4604C261.891 40.9004 265.716 48.3541 265.517 56.2475V62.1613C265.526 64.0208 266.384 65.7744 267.847 66.9225L310.879 100.335C313.513 102.38 313.991 106.173 311.947 108.808C309.902 111.442 306.109 111.921 303.474 109.876L260.442 76.4509C256.015 73.0328 253.429 67.7489 253.448 62.1552V56.2414C253.627 52.5055 251.941 48.9243 248.947 46.6828C236.938 39.1518 214.369 30.1725 175 30.1725C135.631 30.1725 113.062 39.1518 101.054 46.6828C98.0627 48.9296 96.3772 52.5107 96.5519 56.2475V62.1613C96.5694 67.7543 93.9818 73.0365 89.5519 76.4509L46.526 109.876C45.4745 110.697 44.1789 111.143 42.845 111.143Z" fill="white"/>
<path d="M231.302 272.698C222.035 275.959 212.28 277.612 202.457 277.586C175 277.586 175 248.62 175 248.62C175 248.62 181.577 241.681 201.069 241.379H202.457C217.065 241.663 229.971 250.964 234.862 264.732C235.485 266.258 235.457 267.972 234.785 269.476C234.112 270.981 232.854 272.145 231.302 272.698Z" fill="#F19B1F"/>
<path d="M175 248.62C175 248.62 175 277.586 147.543 277.586C137.72 277.612 127.964 275.959 118.698 272.698C117.146 272.145 115.888 270.981 115.215 269.476C114.543 267.972 114.515 266.258 115.138 264.732C120.029 250.964 132.935 241.663 147.543 241.379H148.931C168.422 241.681 175 248.62 175 248.62Z" fill="#F19B1F"/>
</svg>
