<svg width="351" height="339" viewBox="0 0 351 339" fill="none" xmlns="http://www.w3.org/2000/svg">
<path d="M325.955 157.583C325.955 161.683 325.755 165.683 325.455 169.683C318.755 256.283 243.155 320.983 156.555 314.283C97.9552 309.783 46.7551 272.883 23.8551 218.683C17.2551 203.083 13.2552 186.583 12.0552 169.683C11.7552 165.683 11.5552 161.683 11.5552 157.583C11.5552 70.7828 81.9551 0.382812 168.755 0.382812C255.555 0.382812 325.955 70.7828 325.955 157.583Z" fill="#F79726"/>
<path d="M325.455 169.682C324.155 186.282 320.255 202.682 313.855 218.082H192.355C172.655 218.082 153.155 223.082 136.455 233.382C127.255 238.982 115.455 242.282 102.255 242.282C89.0551 242.282 77.2552 238.982 68.0552 233.382C54.5552 225.282 39.4551 220.282 23.8551 218.682C17.2551 203.082 13.2552 186.582 12.0552 169.682C32.2552 169.382 51.8552 163.682 69.4552 153.582C78.4552 148.482 89.7551 145.482 102.255 145.482C114.755 145.482 126.055 148.482 135.055 153.582C153.055 163.882 173.155 169.682 193.855 169.682H325.455Z" fill="#E8732D"/>
<path d="M318.355 109.183H290.655C269.955 109.183 249.755 114.983 231.855 125.283C222.855 130.383 211.555 133.383 199.055 133.383C186.555 133.383 175.255 130.383 166.255 125.283C148.255 114.983 128.155 109.183 107.455 109.183H19.2549C24.9549 91.6831 33.655 75.2831 44.955 60.7831H102.255C125.055 60.7831 147.455 54.683 167.555 43.983C176.355 39.283 187.155 36.583 199.055 36.583C210.955 36.583 221.755 39.283 230.555 43.983C249.755 54.283 270.955 60.2831 292.755 60.7831C303.955 75.2831 312.655 91.6831 318.355 109.183Z" fill="#FBBE1F"/>
<path d="M252.555 290.582C196.855 325.682 125.255 322.382 73.0552 282.282C96.3552 275.882 120.455 272.582 144.655 272.482C167.255 272.482 181.555 275.582 193.955 279.282C211.155 284.282 224.855 290.382 252.555 290.582Z" fill="#FBBE1F"/>
<path d="M102.255 211.983C118.934 211.983 132.455 203.88 132.455 193.883C132.455 183.887 118.934 175.783 102.255 175.783C85.5761 175.783 72.0552 183.887 72.0552 193.883C72.0552 203.88 85.5761 211.983 102.255 211.983Z" fill="#F79726"/>
<path d="M198.955 103.083C215.634 103.083 229.155 94.9791 229.155 84.9828C229.155 74.9864 215.634 66.8828 198.955 66.8828C182.276 66.8828 168.755 74.9864 168.755 84.9828C168.755 94.9791 182.276 103.083 198.955 103.083Z" fill="#F7AA23"/>
<path d="M231.755 34.9834C238.055 34.9834 243.255 40.0834 243.255 46.4834C243.255 52.7834 238.155 57.9834 231.755 57.9834C225.455 57.9834 220.255 52.8834 220.255 46.4834C220.255 40.0834 225.455 34.9834 231.755 34.9834Z" fill="#F79726"/>
<path d="M307.755 4.08301C314.055 4.08301 319.255 9.18301 319.255 15.583C319.255 21.883 314.155 27.083 307.755 27.083C301.455 27.083 296.255 21.983 296.255 15.583C296.355 9.18301 301.455 4.08301 307.755 4.08301Z" fill="#F79726"/>
<path d="M11.5552 242.783C17.8552 242.783 23.0552 247.883 23.0552 254.283C23.0552 260.583 17.9552 265.783 11.5552 265.783C5.25518 265.783 0.0551758 260.683 0.0551758 254.283C0.155176 247.983 5.25518 242.783 11.5552 242.783Z" fill="#F79726"/>
<path d="M29.9552 287.583C33.7552 287.583 36.8551 290.683 36.8551 294.483C36.8551 298.283 33.7552 301.383 29.9552 301.383C26.1552 301.383 23.0552 298.283 23.0552 294.483C23.0552 290.683 26.1552 287.583 29.9552 287.583Z" fill="#F79726"/>
<path d="M347.855 248.283C349.355 254.183 350.155 260.283 350.155 266.383C350.155 306.483 317.655 338.883 277.555 338.883C244.455 338.883 215.655 316.483 207.355 284.483C206.355 280.483 205.655 276.483 205.355 272.383C205.155 270.383 205.055 268.383 205.055 266.383C205.055 264.383 205.155 262.283 205.355 260.383C205.655 256.283 206.355 252.283 207.355 248.283C217.355 209.483 256.955 186.183 295.755 196.183C312.155 200.483 326.555 210.283 336.455 224.083" fill="#0093B9"/>
<path d="M336.455 224.083C341.655 231.383 345.555 239.583 347.755 248.283L336.455 224.083Z" fill="#0093B9"/>
<path d="M293.055 314.783C288.855 314.883 284.855 313.283 281.855 310.383C278.155 306.683 276.755 301.083 277.955 295.083C280.655 283.783 289.555 274.883 300.855 272.183C306.855 270.983 312.455 272.383 316.155 276.083C323.355 283.283 321.455 296.383 311.855 305.983C306.155 311.783 299.255 314.783 293.055 314.783ZM304.955 283.883C304.355 283.883 303.755 283.983 303.255 284.083C296.755 285.883 291.655 290.983 289.855 297.483C289.455 299.383 289.655 301.083 290.455 301.783C292.155 303.483 298.055 302.683 303.255 297.483C308.455 292.283 309.255 286.383 307.555 284.683C306.855 284.083 305.855 283.883 304.955 283.883Z" fill="#5DB9D2"/>
<path d="M271.555 248.283V260.383H205.355C205.655 256.283 206.355 252.283 207.355 248.283H271.555Z" fill="#5DB9D2"/>
<path d="M253.355 308.683V320.783H229.555C225.455 317.183 221.755 313.083 218.655 308.683H253.355Z" fill="#2DA4C4"/>
<path d="M336.455 224.082H283.655V211.982H325.555C329.655 215.582 333.355 219.582 336.455 224.082Z" fill="#067A98"/>
<path d="M347.855 248.283H307.855V236.183H343.555C345.355 240.083 346.755 244.083 347.855 248.283Z" fill="#2DA4C4"/>
<path d="M235.255 272.383V284.483H207.355C206.355 280.483 205.655 276.483 205.355 272.383H235.255Z" fill="#067A98"/>
</svg>
