<svg width="323" height="352" viewBox="0 0 323 352" fill="none" xmlns="http://www.w3.org/2000/svg">
<path d="M22.6003 282.6C26.7003 276.7 31.4003 271.3 36.7003 266.3C59.7003 244.5 104.8 232.6 137.4 232.6H186.4C219 232.6 264 244.6 287.1 266.3C309.2 287.2 321.8 317.7 322.8 347.3C322.9 349.3 321.2 351 319.2 351H4.60029C2.60029 351 0.900293 349.3 1.00029 347.3C1.60029 329.7 6.20029 311.8 14.6003 295.8" fill="#2E5AAC"/>
<path d="M14.6001 295.8C17.0001 291.2 19.7001 286.8 22.6001 282.6L14.6001 295.8Z" fill="#2E5AAC"/>
<path d="M322.7 347.3C322.8 349.3 321.1 351 319.1 351H26.7004C24.7004 351 23.0004 349.3 23.1004 347.3C24.1004 317.7 36.6004 287.2 58.8004 266.3C81.8004 244.5 126.9 232.6 159.5 232.6H186.4C219 232.6 264 244.6 287.1 266.3C309.1 287.2 321.7 317.7 322.7 347.3Z" fill="#4172CC"/>
<path d="M231.8 246.699C228.2 250.499 207.3 269.899 161.8 267.199C111.4 270.199 92.0003 246.999 92.0003 246.999V246.799C85.4003 250.799 79.2003 255.699 73.8003 261.099C56.2003 278.699 45.3003 302.999 45.3003 329.799C45.3003 341.499 54.8003 351.099 66.6003 351.099H257.1C263 351.099 268.3 348.699 272.1 344.899C276 341.099 278.3 335.699 278.3 329.899C278.4 294.599 259.7 263.799 231.8 246.699Z" fill="#D63030"/>
<path d="M231.8 246.699C228.2 250.499 207.3 269.899 161.8 267.199C131.6 268.999 112.5 261.299 102.1 254.899C99.8004 256.799 97.5004 258.899 95.4004 260.999C77.8004 278.599 66.9004 302.899 66.9004 329.699C66.9004 341.399 76.4004 350.999 88.2004 350.999H257.1C263 350.999 268.3 348.599 272.1 344.799C276 340.999 278.3 335.599 278.3 329.799C278.4 294.599 259.7 263.799 231.8 246.699Z" fill="#F44545"/>
<path d="M192.9 312.499L178.9 336.699C178.3 337.799 177.1 338.499 175.8 338.499H147.9C146.6 338.499 145.4 337.799 144.8 336.699L130.8 312.499C130.2 311.399 130.2 309.999 130.8 308.899L144.8 284.699C145.4 283.599 146.6 282.899 147.9 282.899H175.8C177.1 282.899 178.3 283.599 178.9 284.699L192.9 308.899C193.5 309.999 193.5 311.399 192.9 312.499Z" fill="#2E5AAC"/>
<path d="M192.9 312.499L178.9 336.699C178.3 337.799 177.1 338.499 175.8 338.499H166.2C164.9 338.499 163.7 337.799 163.1 336.699L149.1 312.499C148.5 311.399 148.5 309.999 149.1 308.899L163.1 284.699C163.7 283.599 164.9 282.899 166.2 282.899H175.8C177.1 282.899 178.3 283.599 178.9 284.699L192.9 308.899C193.5 309.999 193.5 311.399 192.9 312.499Z" fill="#4172CC"/>
<path d="M231.8 246.699C228.2 250.399 207.4 269.899 161.8 267.199C111.4 270.199 92.0005 246.999 92.0005 246.999V246.799C106.7 237.799 124 232.699 142.5 232.699H181.3C199.7 232.699 217 237.799 231.6 246.699C231.6 246.699 231.7 246.699 231.8 246.699Z" fill="#2E5AAC"/>
<path d="M142.5 232.6C124 232.6 106.7 237.8 92.0005 246.7V246.9C92.0005 246.9 95.1005 250.6 102.1 254.9C118.9 240.9 140.5 232.5 164.1 232.5H142.5V232.6Z" fill="#274C91"/>
<path d="M161.8 267.2C148.4 267.2 137.6 256.3 137.6 243V188.5H186.1V243C186.1 256.4 175.2 267.2 161.8 267.2Z" fill="#F2BB88"/>
<path d="M120.7 156.2C120.7 171.3 108.4 183.6 93.3004 183.6C78.2004 183.6 65.9004 171.3 65.9004 156.2C65.9004 141.1 78.2004 128.8 93.3004 128.8C108.4 128.8 120.7 141.1 120.7 156.2Z" fill="#F2BB88"/>
<path d="M257.8 156.2C257.8 171.3 245.5 183.6 230.4 183.6C215.3 183.6 203 171.3 203 156.2C203 141.1 215.3 128.8 230.4 128.8C245.6 128.8 257.8 141.1 257.8 156.2Z" fill="#F2D1A5"/>
<path d="M233.1 94.1992V161.299C233.1 180.999 219.4 198.799 203.5 211.699C193.3 219.899 182.3 226.199 173.2 229.599C168.1 231.599 163.6 232.599 160.4 232.599C142.4 232.599 87.7002 200.699 87.7002 161.399V94.1992C87.7002 81.1992 98.2002 70.6992 111.2 70.6992H209.5C222.6 70.6992 233.1 81.1992 233.1 94.1992Z" fill="#F2BB88"/>
<path d="M233.1 94.1992V161.299C233.1 180.999 219.4 198.799 203.5 211.699C193.3 219.899 182.3 226.199 173.2 229.599C150 220.799 113.4 193.599 113.4 161.399V94.1992C113.4 81.1992 123.9 70.6992 136.9 70.6992H209.5C222.6 70.6992 233.1 81.1992 233.1 94.1992Z" fill="#F2D1A5"/>
<path d="M161.8 187.699C180.9 187.699 187.4 162.399 176.3 162.399C173.3 162.399 170.9 164.799 170.9 167.799C170.9 172.799 166.8 176.899 161.8 176.899C156.8 176.899 152.7 172.799 152.7 167.799C152.7 164.799 150.3 162.399 147.3 162.399C136.3 162.399 142.7 187.699 161.8 187.699Z" fill="black"/>
<path d="M203.4 136.4C203.4 141.2 199.5 145 194.8 145C190 145 186.2 141.1 186.2 136.4C186.2 131.6 190.1 127.8 194.8 127.8C199.6 127.8 203.4 131.7 203.4 136.4Z" fill="black"/>
<path d="M137.5 136.4C137.5 141.2 133.6 145 128.9 145C124.1 145 120.3 141.1 120.3 136.4C120.3 131.6 124.2 127.8 128.9 127.8C133.6 127.8 137.5 131.7 137.5 136.4Z" fill="black"/>
<path d="M226.4 67.0997H225.4C225 67.0997 224.5 67.0997 224.1 67.0997C226.8 63.7997 229 59.8997 230.3 55.6997C231.4 52.2997 232 48.6997 232 44.9997V4.99969C232 1.59969 228.1 -0.300307 225.5 1.79969C197.8 23.3997 122.1 18.4997 122.1 18.4997C120 18.4997 118 18.6997 116 19.0997C110 20.2997 104.6 23.2997 100.4 27.4997C94.9001 32.9997 91.4001 40.6997 91.4001 49.0997C91.4001 55.7997 93.6001 61.9997 97.2001 66.9997H97.1001C83.8001 66.9997 73.1001 77.7997 73.1001 90.9997V122.3C73.1001 124.8 75.1001 126.8 77.6001 126.8H95.1001C110 126.8 122.2 114.6 122.2 99.6997V90.9997C122.2 86.7997 121.1 82.8997 119.2 79.4997C120.1 79.5997 121.1 79.5997 122 79.5997H197.2C199.7 79.5997 202.2 79.2997 204.5 78.7997C202.4 82.3997 201.2 86.4997 201.2 90.9997V99.6997C201.2 114.6 213.4 126.8 228.3 126.8H246C248.5 126.8 250.5 124.8 250.5 122.3V91.0997C250.4 77.7997 239.7 67.0997 226.4 67.0997Z" fill="#F76937"/>
<path d="M232 5.0993V45.0993C232 48.7993 231.4 52.3993 230.3 55.7993C227.3 56.5993 224.2 57.0993 221 57.0993H145.8C128.9 57.0993 115.2 43.3993 115.2 26.4993C115.2 23.9993 115.5 21.4993 116.1 19.1993C118.1 18.7993 120.1 18.5993 122.2 18.5993C122.2 18.5993 197.8 23.3993 225.6 1.8993C228.2 -0.200698 232 1.6993 232 5.0993Z" fill="#FF7C48"/>
</svg>
