<svg width="351" height="273" viewBox="0 0 351 273" fill="none" xmlns="http://www.w3.org/2000/svg">
<path d="M106.433 26.1387C106.433 26.1387 63.9332 83.3387 63.9332 87.1387C63.9332 90.9387 73.2332 106.939 73.2332 106.939L55.1332 132.539V146.239L47.2332 157.139L43.8331 172.439C43.8331 172.439 26.2332 195.839 25.7332 197.839C25.1332 199.839 25.7332 223.639 25.7332 223.639L14.4332 236.639L10.7332 259.539L0.533203 265.939V272.339H89.7332L116.033 124.639L106.433 26.1387Z" fill="#8A3B32"/>
<path d="M262.934 43.0381L282.134 68.1381V93.7381L287.434 104.438L290.033 136.338L310.134 156.038L313.533 183.638L323.634 190.938L326.734 228.038L333.533 236.638V249.538L347.833 257.038L350.533 272.338H269.234L246.434 188.338L262.934 43.0381Z" fill="#8A3B32"/>
<path d="M55.333 47.4383L56.1331 67.2383L59.333 72.0383L56.333 77.2383L53.333 272.238H308.833L299.933 82.4383C299.933 82.4383 305.933 40.1383 305.933 37.7383C305.933 35.3383 299.533 12.7383 299.533 12.7383L53.333 0.238281L54.4331 26.0383" fill="#D64040"/>
<path d="M77.1328 50.9384C77.1328 50.9384 98.3328 87.4384 120.633 89.6384C143.033 91.8384 157.933 74.7384 157.933 74.7384C157.933 74.7384 122.533 27.5384 77.1328 50.9384Z" fill="#FFE680" stroke="black" stroke-width="8" stroke-miterlimit="10" stroke-linecap="round" stroke-linejoin="round"/>
<path d="M256.533 45.8387C264.633 43.5387 274.033 42.4387 284.833 43.4387C288.633 53.5387 273.133 85.1387 253.033 86.9387C232.933 88.7387 215.533 76.8387 215.533 76.8387C215.533 76.8387 223.733 61.9387 241.633 51.9387" fill="#FFE680"/>
<path d="M256.533 45.8387C264.633 43.5387 274.033 42.4387 284.833 43.4387C288.633 53.5387 273.133 85.1387 253.033 86.9387C232.933 88.7387 215.533 76.8387 215.533 76.8387C215.533 76.8387 223.733 61.9387 241.633 51.9387" stroke="black" stroke-width="8" stroke-miterlimit="10" stroke-linecap="round" stroke-linejoin="round"/>
<path d="M239.333 86.3388C239.333 86.3388 238.633 63.3388 242.933 62.3388C247.233 61.3388 249.233 87.2387 249.233 87.2387C249.233 87.2387 244.233 87.4388 239.333 86.3388Z" fill="black"/>
<path d="M123.333 89.7379C123.333 89.7379 124.433 65.938 129.133 66.138C133.733 66.338 133.433 88.838 133.433 88.838C133.433 88.838 128.433 90.3379 123.333 89.7379Z" fill="black"/>
<path d="M129.533 8.23828C129.533 8.23828 153.533 14.0383 164.033 25.9383C174.533 37.9383 178.433 53.4383 184.133 52.6383C189.933 51.8383 190.533 37.7383 190.533 37.7383C190.533 37.7383 195.333 57.4383 204.533 53.7383C213.733 50.0383 215.533 19.8383 239.233 14.9383C220.733 10.3383 210.733 46.3383 203.933 45.5383C197.133 44.7383 193.333 21.7383 188.633 28.7383C183.933 35.7383 185.933 49.5383 180.333 41.5383C175.633 34.9383 165.533 12.1383 129.533 8.23828Z" fill="black"/>
<path d="M237.033 272.338C237.033 272.338 254.733 182.338 221.433 134.238C188.133 86.1384 137.033 123.238 129.833 149.538C122.533 175.838 129.833 272.338 129.833 272.338H237.033Z" fill="#871212"/>
<path d="M218.633 272.339C218.633 272.339 248.033 236.639 249.433 208.139C264.833 218.839 261.633 262.939 251.733 272.339H218.633Z" fill="#FFE680"/>
<path d="M154.634 272.338C154.634 272.338 122.034 239.138 121.234 200.838C116.034 200.838 105.134 241.738 118.434 272.338H154.634Z" fill="#FFE680"/>
<path d="M160.733 272.338C160.733 272.338 152.833 197.138 164.733 187.438C176.533 177.738 181.133 189.138 179.333 193.038C177.633 196.938 178.233 200.738 182.933 200.738C187.633 200.838 192.033 199.238 190.233 194.338C188.333 189.538 185.133 188.138 189.433 186.438C193.733 184.738 204.233 187.338 207.133 210.238C210.133 233.038 207.133 272.338 207.133 272.338H160.733Z" fill="black"/>
<path d="M177.133 72.8383C179.342 72.8383 181.133 70.4654 181.133 67.5383C181.133 64.6112 179.342 62.2383 177.133 62.2383C174.924 62.2383 173.133 64.6112 173.133 67.5383C173.133 70.4654 174.924 72.8383 177.133 72.8383Z" fill="black"/>
<path d="M197.507 67.6582C197.829 64.7489 196.31 62.1935 194.114 61.9505C191.919 61.7075 189.878 63.8689 189.556 66.7782C189.234 69.6874 190.753 72.2429 192.948 72.4859C195.144 72.7289 197.185 70.5674 197.507 67.6582Z" fill="black"/>
<path d="M129.333 151.638L141.333 151.138L138.733 137.038C138.733 137.038 154.033 138.238 154.133 137.638C154.233 137.038 153.633 125.238 153.633 125.238L166.033 128.938L170.633 115.438C170.633 115.438 183.133 128.538 183.333 127.938C183.533 127.338 191.033 116.538 191.033 116.538C191.033 116.538 197.933 130.538 198.233 130.438C198.533 130.338 208.933 124.638 208.933 124.638C208.933 124.638 208.633 139.738 208.933 139.738C209.233 139.738 219.733 139.638 219.733 139.638L220.733 153.538L231.333 153.238C231.333 153.238 220.433 106.538 179.133 106.938C147.733 107.438 129.433 139.038 129.333 151.638Z" fill="#FFE680"/>
</svg>
