<svg width="325" height="359" viewBox="0 0 325 359" fill="none" xmlns="http://www.w3.org/2000/svg">
<path d="M11.43 294.88C13.76 291.73 16.56 289.9 19.58 289.9C25.53 289.9 30.66 297.13 32.94 307.4H66.66C75.42 316.55 85.44 324.41 96.41 330.73H32.94C30.66 341 25.53 348.23 19.58 348.23C11.54 348.22 5 335.16 5 319.06C5 316.24 5.2 313.51 5.57 310.94" fill="#9E9E9E"/>
<path d="M320 319.06C320 335.16 313.47 348.23 305.42 348.23C299.47 348.23 294.34 341 292.06 330.73H228.59C239.57 324.41 249.58 316.55 258.34 307.4H292.06C294.33 297.13 299.47 289.9 305.42 289.9C313.46 289.89 320 302.96 320 319.06Z" fill="#9E9E9E"/>
<path d="M37.6101 173.23H37.0901C19.4001 173.2 5.03006 187.51 5.00006 205.2C4.97006 221.22 16.7801 234.79 32.6501 236.98" fill="#558B30"/>
<path d="M292.35 237.04C309.89 234.6 322.13 218.41 319.7 200.87C317.49 185.01 303.93 173.21 287.92 173.22H287.4" fill="#558B30"/>
<path d="M297.31 221.07C297.33 242.25 292.13 263.11 282.18 281.81C282.18 281.84 282.16 281.87 282.12 281.87C276.49 292.53 269.42 302.37 261.11 311.1C209.08 365.56 122.75 367.53 68.2902 315.5C66.7902 314.07 65.3302 312.6 63.8902 311.1C40.6702 286.88 27.7102 254.62 27.7002 221.07C27.7102 217.91 27.8102 214.76 28.0202 211.61C28.2102 208.71 28.4802 205.83 28.8402 202.95C31.1202 183.73 35.3202 164.79 41.3802 146.41C42.1002 144.13 42.8802 141.79 43.6602 139.44C43.7902 139.14 43.8502 138.9 43.9702 138.6C43.9702 138.54 43.9702 138.54 44.0202 138.48C44.4402 137.22 44.8702 135.9 45.2302 134.58C47.3502 127.39 48.4402 119.93 48.4702 112.44V75.88H50.5002L73.0802 53.29L89.6202 69.83L106.16 53.29L124.2 71.34L141.41 54.14L160.64 73.37L179.53 54.47L196.74 71.68L213.94 54.47L232.33 72.86L251.39 53.81L274.51 76.92H276.54V112.44C276.57 119.93 277.66 127.39 279.78 134.58C280.14 135.9 280.56 137.22 280.98 138.48C281.04 138.54 281.04 138.54 281.04 138.6C281.17 138.93 281.27 139.28 281.34 139.63C282.12 141.91 282.9 144.19 283.56 146.41C285.31 151.75 286.87 157.03 288.25 162.19L288.31 162.25C291.95 175.6 294.58 189.2 296.17 202.94C296.91 208.96 297.29 215.01 297.31 221.07Z" fill="#8BC34A"/>
<path d="M276.54 75.82V76.92H274.51L251.39 53.81L232.33 72.86L213.94 54.47L196.74 71.68L179.53 54.47L160.64 73.37L141.41 54.14L124.2 71.34L106.16 53.29L89.6202 69.83L73.0802 53.29L50.5002 75.88H48.4702V75.83V75.82V29.01C48.4702 28.17 48.5202 27.39 48.5902 26.55C48.6502 25.76 48.7702 24.98 48.9502 24.21C51.2302 13.03 61.0602 5 72.4702 5H93.9602H231.04H252.53C263.94 5 273.77 13.03 276.06 24.21C276.24 24.98 276.36 25.76 276.42 26.55C276.48 27.39 276.54 28.17 276.54 29.01V75.82Z" fill="#795548"/>
<path d="M297.5 220C297.521 241.437 292.721 261.723 282.573 280.659C282.573 280.69 282.552 280.721 282.51 280.721C276.77 291.508 269.56 302.471 261.091 311.308C230.909 342.687 188.404 355.85 148 352.526C180.68 349.827 212.53 335.705 236.961 310.308C245.42 301.471 252.629 291.508 258.37 280.721C258.412 280.721 258.433 280.69 258.433 280.659C268.571 261.723 273.881 240.598 273.86 219.161C273.849 213.023 273.45 206.895 272.695 200.798C271.079 186.886 268.403 173.119 264.677 159.602L264.625 159.54C263.208 154.318 261.623 148.972 259.85 143.563C259.178 141.312 258.38 139.009 257.583 136.695C257.499 136.341 257.404 135.987 257.279 135.653C257.279 135.591 257.279 135.591 257.216 135.539C256.785 134.257 256.366 132.923 255.998 131.589C253.826 124.304 252.713 116.749 252.682 109.172V53L275.822 76.0108V109.172C275.854 116.749 276.966 124.304 279.128 131.589C279.495 132.923 279.926 134.257 280.356 135.539C280.408 135.591 280.408 135.591 280.408 135.653C280.545 135.987 280.65 136.341 280.723 136.695C281.51 139.009 282.308 141.312 282.979 143.563C284.763 148.972 286.359 154.318 287.765 159.54L287.828 159.602C291.532 173.119 294.219 186.886 295.835 200.798C296.591 206.895 297.479 213.862 297.5 220Z" fill="#558B30"/>
<path d="M121.67 289.02V284.06C121.67 277.61 116.45 272.39 110 272.39C103.55 272.39 98.3301 277.61 98.3301 284.06V295.73H100.9" fill="#F5F5F5"/>
<path d="M121.67 289.02V284.06C121.67 277.61 116.45 272.39 110 272.39C103.55 272.39 98.3301 277.61 98.3301 284.06V295.73H100.9" stroke="#558B30" stroke-width="10" stroke-miterlimit="10"/>
<path d="M224.1 295.73H226.67V284.06C226.67 277.61 221.45 272.39 215 272.39C208.55 272.39 203.33 277.61 203.33 284.06V289.02" fill="#F5F5F5"/>
<path d="M224.1 295.73H226.67V284.06C226.67 277.61 221.45 272.39 215 272.39C208.55 272.39 203.33 277.61 203.33 284.06V289.02" stroke="#558B30" stroke-width="10" stroke-miterlimit="10"/>
<path d="M127.73 193.53V210.1C127.73 222.99 117.28 233.43 104.4 233.43C91.5198 233.43 81.0698 222.98 81.0698 210.1V197.27" fill="#00695C"/>
<path d="M244.39 197.26V210.09C244.39 222.98 233.94 233.42 221.06 233.42C208.18 233.42 197.73 222.97 197.73 210.09V193.52" fill="#00695C"/>
<path d="M50.7002 132.39C50.7002 132.39 150.26 67.0799 274.29 132.39" stroke="#004E44" stroke-width="10" stroke-miterlimit="10" stroke-linecap="round" stroke-linejoin="round"/>
<path d="M162.51 89.9102V120.85" stroke="#004E44" stroke-width="10" stroke-miterlimit="10" stroke-linecap="round" stroke-linejoin="round"/>
<path d="M191.69 89.9102V120.85" stroke="#004E44" stroke-width="10" stroke-miterlimit="10" stroke-linecap="round" stroke-linejoin="round"/>
<path d="M133.34 89.9102V120.85" stroke="#004E44" stroke-width="10" stroke-miterlimit="10" stroke-linecap="round" stroke-linejoin="round"/>
<path d="M104.17 96.5103V127.45" stroke="#004E44" stroke-width="10" stroke-miterlimit="10" stroke-linecap="round" stroke-linejoin="round"/>
<path d="M220.86 96.5103V127.45" stroke="#004E44" stroke-width="10" stroke-miterlimit="10" stroke-linecap="round" stroke-linejoin="round"/>
<path d="M250.03 108.18V139.11" stroke="#004E44" stroke-width="10" stroke-miterlimit="10" stroke-linecap="round" stroke-linejoin="round"/>
<path d="M75 108.18V139.11" stroke="#004E44" stroke-width="10" stroke-miterlimit="10" stroke-linecap="round" stroke-linejoin="round"/>
<path d="M158.61 283.78C180.32 283.2 205.79 286.91 232.5 299.85" stroke="#558B30" stroke-width="10" stroke-miterlimit="10" stroke-linecap="round" stroke-linejoin="round"/>
<path d="M92.5 299.85C92.5 299.85 110.86 289.62 139.28 285.46" stroke="#558B30" stroke-width="10" stroke-miterlimit="10" stroke-linecap="round" stroke-linejoin="round"/>
<path d="M69.1601 173.23C68.0701 175.52 67.2701 178.16 67.0501 180.81C66.8301 183.46 67.2001 186.11 68.4401 188.44C73.4401 197.82 86.7401 197.54 95.8001 196.73C107.55 195.68 119.2 193.45 130.51 190.13C140.98 187.06 151.34 181.89 162.49 182.19" stroke="#558B30" stroke-width="10" stroke-miterlimit="10" stroke-linecap="round" stroke-linejoin="round"/>
<path d="M255.84 173.23C258.02 177.82 259.05 183.78 256.56 188.44C251.56 197.82 238.26 197.54 229.2 196.73C217.45 195.68 205.8 193.45 194.49 190.13C184.02 187.06 173.66 181.89 162.51 182.19" stroke="#558B30" stroke-width="10" stroke-miterlimit="10" stroke-linecap="round" stroke-linejoin="round"/>
</svg>
