<svg width="320" height="350" viewBox="0 0 320 350" fill="none" xmlns="http://www.w3.org/2000/svg">
<path d="M246.2 91.9959C245.305 91.9959 244.4 91.7635 243.575 91.2767L124.866 21.1181C122.409 19.6655 121.594 16.4963 123.047 14.0381C124.499 11.5806 127.668 10.7671 130.126 12.2184L248.834 82.377C251.291 83.8297 252.106 86.9988 250.654 89.457C249.689 91.0888 247.967 91.9959 246.2 91.9959Z" fill="#C8C0C8"/>
<path d="M265.474 81.9316H237.679C227.257 81.9316 218.808 90.3809 218.808 100.803V113.1H283.931V100.388C283.931 90.1949 275.668 81.9316 265.474 81.9316Z" fill="#B1ABB5"/>
<path d="M265.474 81.9316H243.199C253.706 81.9316 262.223 90.4492 262.223 100.956V113.1H283.931V100.388C283.931 90.1949 275.668 81.9316 265.474 81.9316Z" fill="#8F818F"/>
<path d="M291.557 350H28.0274C12.5481 350 0 337.452 0 321.973V136.323C0 120.844 12.5481 108.296 28.0274 108.296H291.558C307.037 108.296 319.585 120.844 319.585 136.323V321.973C319.584 337.452 307.036 350 291.557 350Z" fill="#FC840D"/>
<path d="M291.557 108.296H275.252V277.431C275.252 293.026 262.61 305.668 247.015 305.668H0V321.973C0 337.452 12.5481 350 28.0274 350H291.558C307.037 350 319.585 337.452 319.585 321.973V136.323C319.584 120.845 307.036 108.296 291.557 108.296Z" fill="#F16600"/>
<path d="M251.369 324.564C273.107 324.564 290.728 306.942 290.728 285.205C290.728 263.468 273.107 245.847 251.369 245.847C229.632 245.847 212.011 263.468 212.011 285.205C212.011 306.942 229.632 324.564 251.369 324.564Z" fill="#E0DDE2"/>
<path d="M273.29 252.515C277.5 258.78 279.957 266.32 279.957 274.435C279.957 296.172 262.335 313.794 240.599 313.794C232.484 313.794 224.943 311.336 218.678 307.127C225.743 317.643 237.747 324.565 251.369 324.565C273.106 324.565 290.728 306.943 290.728 285.206C290.728 271.584 283.806 259.58 273.29 252.515Z" fill="#B1ABB5"/>
<path d="M251.369 299.665C259.355 299.665 265.829 293.191 265.829 285.205C265.829 277.219 259.355 270.745 251.369 270.745C243.383 270.745 236.909 277.219 236.909 285.205C236.909 293.191 243.383 299.665 251.369 299.665Z" fill="#B1ABB5"/>
<path d="M255.561 271.367C255.963 272.695 256.183 274.101 256.183 275.559C256.183 283.545 249.709 290.019 241.723 290.019C240.264 290.019 238.859 289.798 237.531 289.397C239.329 295.338 244.842 299.665 251.369 299.665C259.356 299.665 265.829 293.191 265.829 285.205C265.829 278.678 261.502 273.165 255.561 271.367Z" fill="#8F818F"/>
<path d="M278.418 214.053H41.1675C34.7492 214.053 29.5464 208.85 29.5464 202.432V161.409C29.5464 154.991 34.7492 149.788 41.1675 149.788H278.418C284.837 149.788 290.04 154.991 290.04 161.409V202.432C290.04 208.85 284.837 214.053 278.418 214.053Z" fill="#F0F0F3"/>
<path d="M278.418 149.788H274.659V187.576C274.659 193.704 269.691 198.672 263.563 198.672H29.5464V202.432C29.5464 208.85 34.7492 214.053 41.1675 214.053H278.418C284.837 214.053 290.04 208.85 290.04 202.432V161.409C290.04 154.991 284.837 149.788 278.418 149.788Z" fill="#E0DDE2"/>
<path d="M92.3809 214.053V170.72C92.3809 167.866 94.6948 165.552 97.5495 165.552C100.404 165.552 102.718 167.866 102.718 170.72V214.053H92.3809Z" fill="#8F818F"/>
<path d="M34.198 308.346C31.3433 308.346 29.0293 306.032 29.0293 303.177V274.234C29.0293 271.379 31.3433 269.065 34.198 269.065C37.0526 269.065 39.3666 271.379 39.3666 274.234V303.177C39.3666 306.032 37.0526 308.346 34.198 308.346Z" fill="#F1F0F3"/>
<path d="M61.3332 308.346C58.4785 308.346 56.1646 306.032 56.1646 303.177V274.234C56.1646 271.379 58.4785 269.065 61.3332 269.065C64.1879 269.065 66.5019 271.379 66.5019 274.234V303.177C66.5019 306.032 64.1879 308.346 61.3332 308.346Z" fill="#F1F0F3"/>
<path d="M88.467 308.346C85.6123 308.346 83.2983 306.032 83.2983 303.177V274.234C83.2983 271.379 85.6123 269.065 88.467 269.065C91.3217 269.065 93.6356 271.379 93.6356 274.234V303.177C93.6356 306.032 91.3217 308.346 88.467 308.346Z" fill="#F1F0F3"/>
<path d="M115.601 308.346C112.747 308.346 110.433 306.032 110.433 303.177V274.234C110.433 271.379 112.747 269.065 115.601 269.065C118.456 269.065 120.77 271.379 120.77 274.234V303.177C120.77 306.032 118.456 308.346 115.601 308.346Z" fill="#F1F0F3"/>
<path d="M119.479 22.333C125.646 22.333 130.646 17.3336 130.646 11.1665C130.646 4.99942 125.646 0 119.479 0C113.312 0 108.312 4.99942 108.312 11.1665C108.312 17.3336 113.312 22.333 119.479 22.333Z" fill="#8F818F"/>
</svg>
