<svg width="269" height="350" viewBox="0 0 269 350" fill="none" xmlns="http://www.w3.org/2000/svg">
<path d="M52.1074 274.51H72.6957V305.392H52.1074V274.51Z" fill="#FFDB00"/>
<path d="M134.46 241.892L141.482 308.824H87.8486L98.232 239.627L134.46 241.892Z" fill="#4BB9EC"/>
<path d="M181.003 308.824H134.46V241.892L170.791 244.163L181.003 308.824Z" fill="#1982BF"/>
<path d="M257.989 133.823C257.989 202.046 202.683 257.353 134.46 257.353V10.2939C202.683 10.2939 257.989 65.6008 257.989 133.823Z" fill="#D5E8FE"/>
<path d="M134.46 10.2939V257.353C66.2375 257.353 10.9307 202.046 10.9307 133.823C10.9307 65.6008 66.2375 10.2939 134.46 10.2939Z" fill="#EDF5FF"/>
<path d="M134.46 20.5882V0C60.672 0 0.636719 60.0353 0.636719 133.824C0.636719 207.612 60.672 267.647 134.46 267.647V247.059C72.023 247.059 21.225 196.261 21.225 133.824C21.225 71.3863 72.023 20.5882 134.46 20.5882Z" fill="#00DDC1"/>
<path d="M268.284 133.824C268.284 207.612 208.248 267.647 134.46 267.647V247.059C196.897 247.059 247.695 196.261 247.695 133.824C247.695 71.3863 196.897 20.5882 134.46 20.5882V0C208.248 0 268.284 60.0353 268.284 133.824Z" fill="#00B5BC"/>
<path d="M134.46 41.1768L143.224 82.4212L134.46 166.95L133.389 167.019L92.4393 216.918L84.7461 212.032C74.6922 205.642 66.052 197.448 59.0726 187.676C52.0863 177.903 47.1383 167.074 44.3589 155.483L42.7393 148.737L57.9883 137.845C68.4471 130.379 80.7589 126.206 93.6059 125.794C97.2569 125.678 100.434 125.403 103.303 124.95L108.251 114.347L91.2657 51.3336L99.7138 47.916C110.763 43.4415 122.45 41.1768 134.46 41.1768Z" fill="#3B5A71"/>
<path d="M227.231 141.826L225.563 150.789C223.387 162.503 219.002 173.573 212.537 183.695C206.08 193.811 197.872 202.444 188.161 209.348L182.499 213.37L166.708 203.282C155.879 196.364 147.417 186.489 142.242 174.726C140.904 171.672 139.586 169.037 138.234 166.71L134.46 166.95V41.1768C146.47 41.1768 158.157 43.4415 169.206 47.916L175.636 50.517V69.2591C175.636 82.1062 171.869 94.5552 164.738 105.247C162.748 108.24 161.149 110.937 159.859 113.483L165.123 122.267L227.231 141.826Z" fill="#2F374F"/>
<path d="M134.461 295.133L146.707 350H31.5195V340.856C31.5195 315.647 54.6058 295.133 82.9901 295.133H134.461Z" fill="#00DDC1"/>
<path d="M237.401 340.856V350H134.46V295.133H185.931C214.315 295.133 237.401 315.647 237.401 340.856Z" fill="#00B5BC"/>
<path d="M134.46 99.5098L141.482 133.823L134.46 168.137C115.54 168.137 100.146 152.744 100.146 133.823C100.146 114.903 115.54 99.5098 134.46 99.5098Z" fill="#678D98"/>
<path d="M168.774 133.823C168.774 152.744 153.381 168.137 134.46 168.137V99.5098C153.381 99.5098 168.774 114.903 168.774 133.823Z" fill="#3B5A71"/>
</svg>
