<svg width="350" height="316" viewBox="0 0 350 316" fill="none" xmlns="http://www.w3.org/2000/svg">
<path d="M63.2002 286.8H330.5C333.7 284.4 341.4 282 344.3 279.4L291.6 154.3C291.6 154.3 244.8 14.5 187.2 14.5H162.7C105 14.5 58.3002 154.3 58.3002 154.3L5.7002 279.4C8.6002 282 16.3002 284.4 19.5002 286.8H42.3002" fill="#1E1E1E"/>
<path d="M77.7998 189.6L116.7 257.7L165.3 189.6H77.7998Z" fill="#333333"/>
<path d="M233.3 257.6L272.2 189.5H184.7L233.3 257.6Z" fill="#333333"/>
<path d="M87.5 167.7C87.5 161 91.1 151.2 95.5 146C95.5 146 107.8 131.3 132.9 131.3C145.6 131.3 154.5 136.8 154.5 136.8C160.5 140.5 165.3 149 165.3 155.6V173.8C165.3 177.1 159.5 179.9 152.3 179.9H100.4C93.3 179.9 87.5 174.4 87.5 167.7Z" fill="#FDFDFD"/>
<path d="M249.5 179.9H197.7C190.6 179.9 184.7 177.2 184.7 173.8V155.6C184.7 148.9 189.6 140.4 195.5 136.8C195.5 136.8 204.4 131.3 217.1 131.3C242.2 131.3 254.5 146 254.5 146C258.9 151.3 262.5 161 262.5 167.7C262.5 174.4 256.7 179.9 249.5 179.9Z" fill="#FDFDFD"/>
<path d="M257.6 32.2C239.9 16.1 216.5 5.9 190.8 5C188.1 1.9 184.2 0 179.9 0H170.2C165.8 0 161.9 2 159.3 5C103.3 6.9 58.4 52.8 58.4 109.3V131.3L0 286.8H19.4L70.7 161.9C83.9 129 102.1 114.9 131.7 114.9C152 114.9 164.5 130.7 165.2 131.2H184.6C185.3 130.7 197.8 114.9 218.1 114.9C247.7 114.9 266 128.9 279.1 161.8L330.4 286.8H350L291.7 131.2V109.2C291.7 88.2 285.5 68.7 274.9 52.4" fill="#424242"/>
<path d="M87.3998 102.1C84.8998 102.1 82.7998 100.1 82.7998 97.4998C82.7998 59.8998 113.4 29.2998 151 29.2998C153.5 29.2998 155.5 31.2998 155.5 33.7998C155.5 36.2998 153.5 38.2998 151 38.2998C118.4 38.2998 91.8998 64.7998 91.8998 97.3998C91.8998 100.1 89.8998 102.1 87.3998 102.1Z" fill="#7F7F7F"/>
<path d="M175 189.6C169.6 189.6 165.3 193.9 165.3 199.3V209H184.7V199.3C184.7 193.9 180.4 189.6 175 189.6ZM247.9 286.8C242.5 286.8 238.2 291.2 238.2 296.5C238.2 301.8 242.6 306.2 247.9 306.2C253.3 306.2 257.6 301.8 257.6 296.5C257.6 291.2 253.3 286.8 247.9 286.8ZM102.1 286.8C96.6999 286.8 92.3999 291.2 92.3999 296.5C92.3999 301.8 96.7999 306.2 102.1 306.2C107.5 306.2 111.8 301.8 111.8 296.5C111.8 291.2 107.4 286.8 102.1 286.8Z" fill="white"/>
<path d="M219.8 306.3H231.2C234.6 312.1 240.8 316 247.9 316C258.6 316 267.3 307.3 267.3 296.6C267.3 289.3 263.2 283 257.2 279.6V279.2L272.2 189.6L233.3 257.7L194.4 203.3V199.4C194.4 188.7 185.7 180 175 180C164.3 180 155.6 188.7 155.6 199.4V203.3L116.7 257.7L77.7998 189.6L92.7998 279.6C86.7998 282.9 82.6998 289.2 82.6998 296.6C82.6998 307.3 91.3998 316 102.1 316C109.3 316 115.5 312.1 118.8 306.3H194.4" fill="#424242"/>
<path d="M136.1 286.8H155.5V235.7L136.1 262.4V286.8Z" fill="#7F7F7F"/>
<path d="M194.4 235.7V286.8H213.8V262.4L194.4 235.7Z" fill="#7F7F7F"/>
<path d="M165.3 286.8H184.7V228.5H165.3V286.8Z" fill="#7F7F7F"/>
<path d="M175 189.6C169.6 189.6 165.3 193.9 165.3 199.3V209H184.7V199.3C184.7 193.9 180.4 189.6 175 189.6ZM247.9 286.8C242.5 286.8 238.2 291.2 238.2 296.5C238.2 301.8 242.6 306.2 247.9 306.2C253.3 306.2 257.6 301.8 257.6 296.5C257.6 291.2 253.3 286.8 247.9 286.8ZM102.1 286.8C96.6999 286.8 92.3999 291.2 92.3999 296.5C92.3999 301.8 96.7999 306.2 102.1 306.2C107.5 306.2 111.8 301.8 111.8 296.5C111.8 291.2 107.4 286.8 102.1 286.8Z" fill="white"/>
</svg>
