<svg width="253" height="350" viewBox="0 0 253 350" fill="none" xmlns="http://www.w3.org/2000/svg">
<path d="M223.592 135.007H28.6022C12.8058 135.007 0 122.201 0 106.405C0 90.6085 12.8058 77.8027 28.6022 77.8027H223.593C239.389 77.8027 252.195 90.6085 252.195 106.405C252.194 122.201 239.388 135.007 223.592 135.007Z" fill="#EFECEF"/>
<path d="M111.577 135.009H28.6043C12.8044 135.009 0 122.204 0 106.404C0 98.5082 3.20332 91.3605 8.37812 86.1857C13.5536 81.0109 20.7006 77.8076 28.6043 77.8076H111.578C103.681 77.8076 96.5337 81.0109 91.3589 86.1857C86.1841 91.3605 82.9808 98.5082 82.9808 106.404C82.9801 122.204 95.7845 135.009 111.577 135.009Z" fill="#DDDAEC"/>
<path d="M127.639 260.821H124.556C80.4715 260.821 44.7339 296.559 44.7339 340.643C44.7339 345.811 48.9229 350 54.0902 350H198.103C203.271 350 207.46 345.81 207.46 340.642C207.46 296.558 171.723 260.821 127.639 260.821Z" fill="#B46E59"/>
<path d="M120.805 290.489H131.368V350H120.805V290.489Z" fill="#A55E4D"/>
<path d="M145.694 262.875C110.306 271.061 83.9337 302.771 83.9337 340.644V350H54.0914C48.9237 350 44.7344 345.811 44.7344 340.643C44.7344 296.558 80.4713 260.821 124.556 260.821H127.633C133.846 260.821 139.896 261.533 145.694 262.875Z" fill="#A55E4D"/>
<path d="M222.1 135.007H225.948C239.027 135.007 249.622 145.602 249.622 158.673C249.622 165.205 246.975 171.129 242.689 175.414C238.404 179.692 232.487 182.346 225.948 182.346H220.751H31.4432H26.2458C13.1673 182.346 2.57227 171.744 2.57227 158.673C2.57227 152.141 5.21914 146.225 9.50459 141.939C13.79 137.654 19.7065 135.007 26.2458 135.007H30.0937" fill="#EAAC9D"/>
<path d="M30.0938 97.0974V166.228C30.0938 192.741 40.8371 216.734 58.2161 234.113C75.5876 251.484 99.5879 262.228 126.101 262.228C179.121 262.228 222.101 219.247 222.101 166.228V97.0974C222.101 44.0779 179.121 1.09766 126.101 1.09766C112.044 1.09766 98.6903 4.11504 86.657 9.55029C76.6034 14.088 67.4617 20.3012 59.61 27.8487C41.4147 45.3166 30.0938 69.887 30.0938 97.0974Z" fill="#FFDDCE"/>
<path d="M135.1 178.289H117.094C114.089 178.289 111.653 175.853 111.653 172.848C111.653 169.843 114.088 167.406 117.094 167.406H135.1C138.105 167.406 140.542 169.843 140.542 172.848C140.542 175.853 138.106 178.289 135.1 178.289Z" fill="#FFCBBE"/>
<path d="M149.949 259.242C142.319 261.192 134.327 262.23 126.09 262.23C73.0706 262.23 30.0903 219.249 30.0903 166.23V97.0984C30.0903 44.0789 73.0706 1.09863 126.09 1.09863C134.327 1.09863 142.32 2.13701 149.949 4.08662C108.466 14.6892 77.8011 52.3087 77.8011 97.0984V166.23C77.8004 211.019 108.466 248.64 149.949 259.242Z" fill="#FFCBBE"/>
<path d="M126.086 305.085C136.689 305.085 145.282 296.491 145.282 285.889V278.846C145.452 278.809 145.623 278.772 145.793 278.734C146.794 282.975 149.188 286.675 152.48 289.314C155.765 291.954 159.939 293.533 164.484 293.533C175.087 293.533 183.687 284.932 183.687 274.33V261.571C183.828 261.459 183.961 261.355 184.102 261.245C185.022 265.589 187.409 269.393 190.723 272.106C194.029 274.82 198.263 276.451 202.882 276.451C213.492 276.451 222.085 267.851 222.085 257.248V77.8008C212.787 77.8008 205.099 85.0448 204.535 94.3198L198.767 189.334C198.33 196.482 192.398 202.057 185.229 202.049C179.083 202.042 172.98 202.034 172.802 202.02C168.087 201.657 163.853 198.936 161.57 194.747L155.72 183.981C153.266 179.459 148.543 176.648 143.405 176.648H126.086H108.766C103.628 176.648 98.9052 179.459 96.4511 183.981L90.6016 194.747C88.3177 198.936 84.0842 201.656 79.3688 202.02C79.191 202.035 73.0886 202.043 66.9424 202.049C59.7728 202.057 53.8413 196.482 53.4038 189.334L47.6356 94.3198C47.0724 85.0448 39.3833 77.8008 30.0864 77.8008V257.248C30.0864 267.851 38.6799 276.451 49.2893 276.451C53.9083 276.451 58.1418 274.82 61.4483 272.106C64.7624 269.392 67.1502 265.589 68.0689 261.245C68.2098 261.356 68.3431 261.46 68.4839 261.571V274.331C68.4839 284.933 77.0842 293.533 87.6867 293.533C92.2319 293.533 96.406 291.954 99.6906 289.315C102.983 286.676 105.377 282.976 106.378 278.735C106.548 278.772 106.719 278.809 106.89 278.846V285.89C106.89 296.491 115.484 305.085 126.086 305.085Z" fill="#EFECEF"/>
<path d="M93.5007 292.636C91.6693 293.222 89.7197 293.533 87.6881 293.533C77.0855 293.533 68.4853 284.932 68.4853 274.33V261.571C68.3444 261.459 68.2111 261.355 68.0703 261.245C67.1509 265.589 64.7638 269.393 61.4497 272.106C58.1432 274.82 53.9097 276.451 49.2906 276.451C38.6806 276.451 30.0878 267.851 30.0878 257.248V135.007L21.9824 108.99L30.0878 77.8008C39.3854 77.8008 47.0737 85.0448 47.637 94.3198L53.4052 189.334C53.8427 196.481 59.7742 202.057 66.9437 202.049C73.0899 202.042 79.1924 202.034 79.3701 202.02C81.3054 201.872 83.1586 201.323 84.8273 200.441V276.585C84.8259 283.302 88.2732 289.219 93.5007 292.636Z" fill="#DDDAEC"/>
<path d="M189.115 144.452C189.115 150.799 186.838 156.612 183.065 161.127H143.125C139.35 156.612 137.075 150.8 137.075 144.452C137.075 130.084 148.722 118.436 163.099 118.436C177.467 118.436 189.115 130.083 189.115 144.452Z" fill="white"/>
<path d="M115.12 144.452C115.12 150.799 112.844 156.612 109.07 161.127H69.1367C65.3551 156.612 63.0869 150.8 63.0869 144.452C63.0869 130.084 74.7347 118.436 89.1038 118.436C94.0858 118.436 98.7425 119.837 102.694 122.269C110.153 126.844 115.12 135.066 115.12 144.452Z" fill="white"/>
<path d="M92.7556 134.567C87.3032 134.567 82.8667 139.003 82.8667 144.456C82.8667 149.909 87.3025 154.344 92.7556 154.344C98.2079 154.344 102.644 149.909 102.644 144.456C102.644 139.003 98.2079 134.567 92.7556 134.567Z" fill="#454045"/>
<path d="M159.336 134.567C153.883 134.567 149.447 139.003 149.447 144.456C149.447 149.909 153.883 154.344 159.336 154.344C164.789 154.344 169.224 149.909 169.224 144.456C169.224 139.003 164.789 134.567 159.336 134.567Z" fill="#454045"/>
<path d="M126.097 221.184C116.089 221.184 106.084 217.376 98.4653 209.757C96.4022 207.695 96.4022 204.35 98.4653 202.287C100.528 200.225 103.872 200.225 105.935 202.287C117.052 213.404 135.143 213.405 146.259 202.287C148.323 200.224 151.666 200.225 153.729 202.287C155.791 204.35 155.791 207.694 153.728 209.757C146.111 217.374 136.103 221.184 126.097 221.184Z" fill="#EAAC9D"/>
<path d="M180.871 105.533C180.825 105.533 180.779 105.533 180.733 105.531L151.85 104.792C148.934 104.717 146.631 102.293 146.706 99.3763C146.78 96.4601 149.222 94.1728 152.121 94.2316L181.004 94.9712C183.92 95.0457 186.223 97.4704 186.148 100.387C186.075 103.256 183.725 105.533 180.871 105.533Z" fill="#EFECEF"/>
<path d="M71.3235 105.534C68.4688 105.534 66.1193 103.257 66.0462 100.387C65.9717 97.4706 68.2747 95.0466 71.1909 94.9714L100.074 94.2317C102.96 94.1688 105.414 96.4602 105.49 99.3765C105.564 102.293 103.261 104.717 100.345 104.792L71.4616 105.532C71.4151 105.533 71.3686 105.534 71.3235 105.534Z" fill="#EFECEF"/>
<path d="M45.2114 73.9668C67.7728 89.3962 95.0652 91.004 124.463 91.004C153.86 91.004 181.152 89.3955 203.721 73.9668L130.957 22.793L45.2114 73.9668Z" fill="#21386B"/>
<path d="M231.618 50.4157C231.618 63.4231 221.076 73.9648 208.061 73.9648H44.1185C37.6182 73.9648 31.7311 71.331 27.4634 67.0708C23.2025 62.8031 20.5693 56.9153 20.5693 50.4157C20.5693 43.683 21.8859 37.2613 24.2874 31.3872C25.8439 27.5632 27.851 23.9784 30.2593 20.6972C39.4208 8.14775 54.252 0 70.9775 0H181.203C195.126 0 207.731 5.64102 216.851 14.7677C218.696 16.6127 220.393 18.5917 221.929 20.7047C224.337 23.9866 226.344 27.5639 227.901 31.3811C230.301 37.2531 231.618 43.683 231.618 50.4157Z" fill="#26457D"/>
<path d="M88.7347 67.0724C92.9976 71.3284 98.8847 73.9678 105.387 73.9678H44.1227C37.6128 73.9678 31.7257 71.3284 27.4628 67.0724C23.1999 62.8095 20.5674 56.9148 20.5674 50.4125C20.5674 22.5718 43.1362 0.00292969 70.977 0.00292969H132.25C104.409 0.00292969 81.8324 22.5718 81.8324 50.4125C81.8324 56.9155 84.4718 62.8095 88.7347 67.0724Z" fill="#21386B"/>
<path d="M227.9 31.3805C217.674 47.0915 200.096 56.7186 181.203 56.7186H70.9841C56.1111 56.7186 42.118 50.923 31.5968 40.4087C28.8433 37.662 26.3926 34.6344 24.2871 31.3873C25.8437 27.5633 27.8507 23.9785 30.259 20.6973L31.6323 23.1336C33.6462 26.7252 36.1468 30.0208 39.0616 32.9363C47.5901 41.4573 58.9275 46.155 70.9841 46.155H181.203C197.491 46.155 212.569 37.3312 220.562 23.1336L221.928 20.7041C224.336 23.986 226.343 27.5633 227.9 31.3805Z" fill="#21386B"/>
</svg>
