<svg width="323" height="350" viewBox="0 0 323 350" fill="none" xmlns="http://www.w3.org/2000/svg">
<path d="M307.011 136.243L249.903 51.3089V33.0501L246.388 30.1229V24.1948C227.105 12.2196 205.116 4.1915 181.546 1.25H157.95L88.9764 36.0504L53.02 82.7637L34.3955 167.271L43.1612 209.659L60.6927 242.975L65.6966 259.259V303.538H265.344L275.347 297.354C285.713 286.619 294.672 273.871 301.932 259.259L296.826 244.736L307.011 136.243Z" fill="#F9F6F6"/>
<path d="M68.4264 267.414C68.4264 258.037 65.8745 248.908 61.3525 240.95C49.836 220.68 42.5906 197.671 40.8201 173.144L40.8119 173.15C34.5324 86.1629 97.3478 11.6471 181.547 1.25036C174.895 0.420476 168.118 -0.00608673 161.241 6.56161e-05C71.8607 0.0738937 0 71.9968 0 161.376C0 165.336 0.147655 169.261 0.428612 173.15L0.436816 173.145L5.48516 179.275L12.1755 207.593L30.8376 244.737L32.9506 257.413L27.9713 264.815C28.0144 265.68 28.0431 266.546 28.0431 267.414V297.355L33.6547 303.54H74.0387L68.427 297.355V267.414H68.4264Z" fill="#E2D8EC"/>
<path d="M276.72 297.354H64.6372C62.3164 298.366 60.6929 300.679 60.6929 303.372V326.075L65.2593 329.596H279.429L283.069 325.661V303.704C283.069 300.198 280.226 297.354 276.72 297.354Z" fill="#E2D8EC"/>
<path d="M61.6123 303.704C61.6123 300.197 64.4547 297.354 67.9615 297.354H24.8678C21.3609 297.354 18.5186 300.197 18.5186 303.704V325.661L23.6216 329.596H66.7153L61.6123 325.661V303.704Z" fill="#D5C6E4"/>
<path d="M164.369 122.553L172.035 145.089L169.357 167.272L174.638 179.948C174.638 179.948 232.832 205.065 233.536 205.535C234.24 206.004 261.94 255.065 261.94 256.004C261.94 256.36 264.24 257.716 267.092 259.26H301.931C315.178 232.599 322.751 199.714 322.751 161.376C322.751 115.658 303.727 74.3927 273.178 45.0303H265.695L160.812 118.249L164.369 122.553Z" fill="#8DCAFC"/>
<path d="M262.95 251.038L238.955 208.272C236.888 204.727 233.729 201.948 229.951 200.346L185.146 181.358C176.569 177.724 171.736 168.554 173.585 159.424C174.932 152.773 174.916 145.894 173.313 139.3C171.859 133.315 166.886 123.481 162.782 116.873L138.702 133.683L149.337 161.167L143.675 180.651L148.394 187.115L207.938 212.348C211.716 213.949 214.875 216.729 216.942 220.273L234.181 249.827C237.588 255.667 243.841 259.259 250.603 259.259H272.725C268.678 257.748 265.195 254.886 262.95 251.038Z" fill="#31A7FB"/>
<path d="M138.856 231.802L110.846 219.933L109.535 216.567L49.8518 192.314H45.6716L38.9888 189.481L43.1614 209.659L60.6929 242.975L65.6968 259.259V264.815H132.15C141.642 264.815 149.337 257.12 149.337 247.627C149.337 240.726 145.21 234.495 138.856 231.802Z" fill="#E2D8EC"/>
<path d="M61.3532 240.95C52.7174 225.751 46.4844 209.013 43.1594 191.249L0.4375 173.145C2.20801 197.672 9.45273 220.68 20.9699 240.95C25.1296 248.271 27.5536 256.434 27.9713 264.815H68.3546C67.9294 256.356 65.4555 248.17 61.3532 240.95Z" fill="#D5C6E4"/>
<path d="M169.358 260.573C166.441 260.573 164.076 258.208 164.076 255.291V246.783C164.076 243.866 166.441 241.502 169.358 241.502C172.274 241.502 174.639 243.867 174.639 246.783V255.291C174.639 258.208 172.274 260.573 169.358 260.573Z" fill="#D5C6E4"/>
<path d="M188.606 260.573C185.689 260.573 183.324 258.208 183.324 255.291V246.783C183.324 243.866 185.689 241.502 188.606 241.502C191.523 241.502 193.887 243.867 193.887 246.783V255.291C193.888 258.208 191.523 260.573 188.606 260.573Z" fill="#D5C6E4"/>
<path d="M207.855 260.573C204.938 260.573 202.573 258.208 202.573 255.291V246.783C202.573 243.866 204.938 241.502 207.855 241.502C210.772 241.502 213.136 243.867 213.136 246.783V255.291C213.136 258.208 210.772 260.573 207.855 260.573Z" fill="#D5C6E4"/>
<path d="M274.158 34.4396C268.786 29.8432 263.114 25.5878 257.176 21.705C254.961 20.2571 252.087 20.2954 249.904 21.7897L141.958 95.6862C152.974 104.007 161.446 116.403 163.746 119.946L273.56 44.7701C277.092 42.3522 277.411 37.2225 274.158 34.4396Z" fill="#E2D8EC"/>
<path d="M284.657 325.661H56.1101C50.9653 327.315 47.2397 332.136 47.2397 337.83C47.2397 343.525 50.9653 348.346 56.1101 350H284.656C291.377 350 296.825 344.552 296.825 337.83C296.826 331.109 291.377 325.661 284.657 325.661Z" fill="#F9F6F6"/>
<path d="M47.8555 337.83C47.8555 331.109 53.3037 325.661 60.0248 325.661H16.9311C10.21 325.661 4.76172 331.109 4.76172 337.83C4.76172 344.552 10.21 350 16.9311 350H60.0248C53.3037 350 47.8555 344.552 47.8555 337.83Z" fill="#E2D8EC"/>
<path d="M164.369 119.518C164.369 119.518 155.39 104.835 142.925 95.0234L117.934 112.132V115.862L135.239 133.683H143.676L164.369 119.518Z" fill="#D5C6E4"/>
<path d="M108.222 109.05C84.6329 116.615 67.5513 138.713 67.5513 164.815C67.5513 190.918 84.6329 213.016 108.222 220.581C133.789 214.895 152.91 192.095 152.91 164.815C152.91 137.536 133.789 114.736 108.222 109.05Z" fill="#5169CD"/>
<path d="M68.6047 164.815C68.6047 138.445 86.4725 116.259 110.758 109.672C105.979 108.376 100.957 107.672 95.768 107.672C64.2092 107.672 38.625 133.255 38.625 164.815C38.625 196.374 64.2085 221.958 95.768 221.958C100.957 221.958 105.979 221.254 110.758 219.958C86.4718 213.37 68.6047 191.184 68.6047 164.815Z" fill="#3351C5"/>
<path d="M110.169 140.143C102.105 145.394 96.7632 154.475 96.7632 164.816C96.7632 175.156 102.105 184.237 110.169 189.488C118.643 184.531 124.339 175.341 124.339 164.816C124.339 154.29 118.643 145.099 110.169 140.143Z" fill="#3351C5"/>
<path d="M97.176 164.816C97.176 154.534 102.608 145.525 110.758 140.493C106.4 137.801 101.266 136.244 95.7678 136.244C79.9884 136.244 67.1963 149.036 67.1963 164.816C67.1963 180.595 79.9884 193.387 95.7678 193.387C101.267 193.387 106.4 191.831 110.758 189.139C102.608 184.106 97.176 175.096 97.176 164.816Z" fill="#213993"/>
</svg>
