<svg width="24" height="24" viewBox="0 0 24 24" fill="none" xmlns="http://www.w3.org/2000/svg">
<path fill-rule="evenodd" clip-rule="evenodd" d="M11.6328 5.02635C11.3851 5.08858 11.0326 5.29719 10.8615 5.48282C10.7737 5.57817 10.646 5.77386 10.5779 5.91762C10.4659 6.15406 10.454 6.21464 10.454 6.55089C10.454 6.8856 10.4661 6.94826 10.5755 7.17895C10.6422 7.31989 10.7524 7.49852 10.8204 7.5759L10.9439 7.71656L10.7185 8.15273C10.5102 8.5559 10.4858 8.58736 10.3953 8.56893C10.1314 8.51511 9.44685 8.50126 9.13186 8.54337C7.71421 8.73296 6.6247 9.47789 5.83522 10.7974C5.8018 10.8532 5.722 10.7818 5.31738 10.3343L4.83902 9.80509L4.96552 9.53805C5.08059 9.29511 5.09198 9.23734 5.09198 8.89719C5.09198 8.54435 5.08376 8.50674 4.94579 8.2276C4.76975 7.87136 4.54313 7.64948 4.17926 7.47711C3.94282 7.36509 3.88223 7.35324 3.54599 7.35324C3.20975 7.35324 3.14916 7.36509 2.91272 7.47711C2.54885 7.64948 2.32223 7.87136 2.14618 8.2276C2.00822 8.50674 2 8.54435 2 8.89719C2 9.23574 2.0117 9.29574 2.12387 9.53249C2.19198 9.67625 2.32176 9.87421 2.41225 9.97237C2.58074 10.1552 3.05448 10.4251 3.20877 10.4262C3.25432 10.4266 3.31401 10.4411 3.34141 10.4584C3.37217 10.478 3.58384 11.558 3.89542 13.2856C4.32399 15.6618 4.39104 16.0861 4.34227 16.1138C4.18376 16.204 4.00759 16.4029 3.90959 16.6025C3.81957 16.7858 3.80039 16.8764 3.80039 17.1184C3.80039 17.6076 4.04149 17.9862 4.48333 18.1906L4.66145 18.273H12H19.3386L19.5167 18.1906C19.6146 18.1453 19.7592 18.0516 19.838 17.9824C20.2007 17.664 20.3122 17.0542 20.0904 16.6025C19.9924 16.4029 19.8162 16.204 19.6577 16.1138C19.609 16.0861 19.676 15.6618 20.1043 13.2858C20.4179 11.5459 20.6271 10.4784 20.6583 10.4586C20.6859 10.4411 20.7457 10.4266 20.7912 10.4262C20.9455 10.4251 21.4193 10.1552 21.5877 9.97237C21.6782 9.87421 21.808 9.67625 21.8761 9.53249C21.9881 9.29605 22 9.23547 22 8.89922C22 8.56298 21.9881 8.50239 21.8761 8.26596C21.7038 7.90208 21.4819 7.67547 21.1256 7.49942C20.8465 7.36145 20.8089 7.35324 20.456 7.35324C20.1175 7.35324 20.0575 7.36494 19.8207 7.47711C19.4569 7.64948 19.2303 7.87136 19.0542 8.2276C18.9162 8.50674 18.908 8.54435 18.908 8.89719C18.908 9.23734 18.9194 9.29511 19.0345 9.53805L19.161 9.80509L18.6836 10.3332C18.2944 10.7638 18.1987 10.8503 18.1657 10.802C18.1434 10.7693 18.0416 10.6115 17.9395 10.4513C17.3381 9.50803 16.2861 8.80329 15.1507 8.58302C14.8541 8.52545 14.0183 8.50987 13.7025 8.55597L13.5068 8.58459L13.2815 8.15057L13.0561 7.71656L13.1796 7.5759C13.2476 7.49852 13.3578 7.31989 13.4245 7.17895C13.534 6.94799 13.546 6.88584 13.546 6.54885C13.546 6.19601 13.5378 6.1584 13.3998 5.87926C13.1353 5.34412 12.6655 5.0301 12.088 5.00263C11.9212 4.99468 11.7164 5.00537 11.6328 5.02635ZM12.4299 5.90008C12.6633 6.05449 12.7632 6.2496 12.7632 6.55089C12.7632 6.85609 12.6631 7.0474 12.4188 7.20909C12.2004 7.35359 11.8182 7.35922 11.5962 7.22122C11.2999 7.03703 11.1607 6.67132 11.2544 6.32337C11.3083 6.12333 11.5478 5.86709 11.7343 5.81003C11.9395 5.74721 12.2621 5.78897 12.4299 5.90008ZM13.9961 11.1856C15.2008 13.4721 15.6456 14.2822 15.7182 14.3221C15.852 14.3957 15.9918 14.3914 16.1154 14.31C16.1724 14.2724 16.9628 13.4139 17.8717 12.4022C19.7464 10.3154 19.7766 10.2831 19.8121 10.3186C19.8264 10.333 19.6114 11.6046 19.3343 13.1445L18.8304 15.9442H16.1607C14.1742 15.9442 13.4647 15.9562 13.3883 15.991C13.2762 16.0421 13.1742 16.2062 13.1742 16.3356C13.1742 16.465 13.2762 16.6291 13.3883 16.6802C13.4649 16.7151 14.2067 16.727 16.3053 16.727C18.4039 16.727 19.1457 16.7389 19.2222 16.7738C19.4064 16.8577 19.4819 17.0931 19.3896 17.2956C19.2859 17.5233 19.7516 17.5098 12.0038 17.5098C6.56434 17.5098 4.85613 17.4988 4.77777 17.463C4.50978 17.3409 4.49863 16.9459 4.7589 16.7922C4.85906 16.733 5.12841 16.727 7.68912 16.727C9.79205 16.727 10.5351 16.7151 10.6117 16.6802C10.7238 16.6291 10.8258 16.465 10.8258 16.3356C10.8258 16.2062 10.7238 16.0421 10.6117 15.991C10.5353 15.9562 9.82583 15.9442 7.83945 15.9442H5.16982L4.66552 13.1448C4.38814 11.6051 4.17303 10.3335 4.18755 10.3189C4.22348 10.283 4.25127 10.3128 6.12826 12.4022C7.03722 13.4139 7.82755 14.2724 7.88458 14.31C7.9416 14.3475 8.02877 14.3784 8.07828 14.3785C8.32528 14.379 8.30986 14.4046 9.982 11.2218C10.8623 9.54615 11.5958 8.15754 11.6118 8.13601C11.628 8.11441 11.8047 8.09821 12.0065 8.09985L12.3718 8.10286L13.9961 11.1856ZM3.97593 8.24842C4.20928 8.40282 4.3092 8.59793 4.3092 8.89922C4.3092 9.20443 4.20908 9.39574 3.96477 9.55742C3.74642 9.70192 3.36419 9.70756 3.14219 9.56956C2.84591 9.38537 2.70669 9.01965 2.80039 8.67171C2.85425 8.47167 3.09378 8.21543 3.28027 8.15836C3.48548 8.09554 3.80806 8.13731 3.97593 8.24842ZM20.884 8.24842C21.1173 8.40282 21.2172 8.59793 21.2172 8.89922C21.2172 9.20443 21.1171 9.39574 20.8728 9.55742C20.6544 9.70192 20.2722 9.70756 20.0502 9.56956C19.7539 9.38537 19.6147 9.01965 19.7084 8.67171C19.7623 8.47167 20.0018 8.21543 20.1883 8.15836C20.3935 8.09554 20.7161 8.13731 20.884 8.24842ZM10.0329 9.32263C10.0679 9.3449 9.79902 9.89034 9.06485 11.2862C8.50575 12.3491 8.03299 13.2341 8.01432 13.2528C7.97796 13.2892 6.4317 11.6002 6.4099 11.5004C6.40286 11.4681 6.47053 11.3056 6.56027 11.1392C7.06767 10.1981 7.97687 9.54122 9.03883 9.3485C9.35374 9.29136 9.95887 9.27562 10.0329 9.32263ZM15.229 9.40506C15.9056 9.57895 16.6358 10.0432 17.0613 10.57C17.3012 10.867 17.6098 11.4101 17.5901 11.5004C17.5683 11.6002 16.022 13.2892 15.9857 13.2528C15.967 13.2341 15.4942 12.3491 14.9351 11.2862C14.1865 9.86278 13.9314 9.34455 13.9671 9.31958C14.0499 9.26173 14.8935 9.31887 15.229 9.40506ZM11.1696 12.3741C10.5173 13.0263 10.5127 13.0321 10.5127 13.2045C10.5127 13.3769 10.5173 13.3827 11.1696 14.0349C11.8218 14.6872 11.8276 14.6918 12 14.6918C12.1724 14.6918 12.1782 14.6872 12.8304 14.0349C13.4827 13.3827 13.4873 13.3769 13.4873 13.2045C13.4873 13.0321 13.4827 13.0263 12.8304 12.3741C12.1782 11.7218 12.1724 11.7172 12 11.7172C11.8276 11.7172 11.8218 11.7218 11.1696 12.3741ZM12.2939 12.9309L12.5661 13.2052L12.2831 13.4883L12 13.7714L11.7169 13.4883L11.4339 13.2052L11.7061 12.9309C11.8558 12.78 11.9881 12.6566 12 12.6566C12.0119 12.6566 12.1442 12.78 12.2939 12.9309ZM11.8086 15.9989C11.4693 16.1869 11.6113 16.727 12 16.727C12.1983 16.727 12.3914 16.5358 12.3914 16.3394C12.3914 16.0456 12.0667 15.8558 11.8086 15.9989Z" fill="black"/>
</svg>
