<svg width="350" height="350" viewBox="0 0 350 350" fill="none" xmlns="http://www.w3.org/2000/svg">
<g clip-path="url(#clip0_834_2830)">
<path d="M128.294 242.979L108.667 316.226L110.364 317.388L137.398 324.632L139.318 324.439L159.464 249.254L128.314 242.985C128.307 242.983 128.301 242.98 128.294 242.979Z" fill="#FED2A4"/>
<path d="M239.353 317.464L241.333 316.226L221.706 242.979C221.699 242.98 221.693 242.983 221.685 242.985L190.535 249.253L210.681 324.438L212.554 324.644L239.353 317.464Z" fill="#FED2A4"/>
<path d="M292.492 101.818C291.814 99.0689 289.035 97.3865 286.286 98.0688C283.537 98.7469 281.859 101.526 282.537 104.274C284.674 112.933 285.756 121.859 285.756 130.803C285.756 155.182 277.955 178.325 263.195 197.726C252.276 212.079 237.873 223.623 221.654 231.22L222.774 241.497C222.793 241.663 222.778 241.825 222.74 241.978C241.781 233.737 258.71 220.557 271.355 203.935C287.485 182.733 296.01 157.444 296.01 130.803C296.01 121.031 294.826 111.279 292.492 101.818Z" fill="#C8EFFE"/>
<path d="M127.226 241.496L128.342 231.256C111.53 223.447 96.9814 211.555 85.7869 196.365C71.6933 177.241 64.2435 154.569 64.2435 130.802C64.2435 121.858 65.327 112.932 67.4625 104.274C68.1406 101.525 66.4624 98.7464 63.7137 98.0683C60.9636 97.3875 58.1854 99.0684 57.508 101.817C55.1735 111.279 53.9902 121.03 53.9902 130.802C53.9902 156.774 62.1311 181.549 77.5325 202.448C90.4716 220.006 107.521 233.528 127.264 242.001C127.222 241.841 127.207 241.671 127.226 241.496Z" fill="#C8EFFE"/>
<path d="M131.399 203.211L130.827 203.063C130.066 202.866 129.606 202.084 129.803 201.323L131.109 196.259C110.048 182.091 96.1641 158.038 96.1641 130.802C96.1641 127.97 93.8692 125.675 91.0371 125.675C88.205 125.675 85.9102 127.97 85.9102 130.802C85.9102 163.877 104.028 192.798 130.859 208.166L131.399 203.211Z" fill="#C8EFFE"/>
<path d="M258.963 125.676C256.131 125.676 253.836 127.971 253.836 130.803C253.836 158.039 239.952 182.092 218.891 196.26L220.197 201.324C220.394 202.085 219.934 202.867 219.173 203.064L218.601 203.212L219.141 208.168C245.972 192.799 264.09 163.878 264.09 130.803C264.09 127.971 261.795 125.676 258.963 125.676Z" fill="#C8EFFE"/>
<path d="M224.179 320.822L204.263 246.491L190.536 249.254L210.681 324.439L224.179 320.822Z" fill="#FFBD86"/>
<path d="M232.739 340.43L253.62 334.836C259.263 333.323 262.611 327.523 261.099 321.881C259.587 316.238 253.787 312.89 248.144 314.401L210.681 324.44L214.966 340.43H232.739Z" fill="#01D0FB"/>
<path d="M232.739 340.43L253.62 334.835C258.955 333.405 262.233 328.142 261.297 322.804L230.193 331.138C228.342 331.633 226.439 330.536 225.944 328.684L223.86 320.907L210.681 324.439L214.966 340.43H232.739Z" fill="#01C0FA"/>
<path d="M120.94 319.514L140.773 245.492L128.315 242.986C128.307 242.984 128.301 242.981 128.294 242.979L108.667 316.227L120.94 319.514Z" fill="#FFBD86"/>
<path d="M219.269 203.028C219.123 203.078 218.97 203.112 218.811 203.112H131.189C131.029 203.112 130.878 203.078 130.731 203.028L126.546 241.422C126.432 242.477 127.14 243.446 128.18 243.655L160.67 250.194C161.624 250.386 162.581 249.881 162.961 248.986L173.054 225.29C173.785 223.574 176.216 223.574 176.946 225.29L187.039 248.986C187.42 249.881 188.377 250.385 189.33 250.194L221.82 243.655C222.861 243.446 223.57 242.477 223.454 241.422L219.269 203.028Z" fill="#54469C"/>
<path d="M150.196 228.34L152.946 203.112H131.189C131.029 203.112 130.878 203.078 130.731 203.028L126.546 241.422C126.432 242.477 127.14 243.446 128.18 243.655L160.67 250.194C161.624 250.386 162.58 249.881 162.961 248.986L168.79 235.301L152.961 232.116C151.201 231.762 150.002 230.124 150.196 228.34Z" fill="#463B84"/>
<path d="M96.3809 334.836L117.261 340.43H135.035L139.319 324.439L101.856 314.4C96.2134 312.888 90.4138 316.237 88.9017 321.88C87.3896 327.523 90.7378 333.323 96.3809 334.836Z" fill="#01D0FB"/>
<path d="M96.3808 334.835L117.261 340.43H135.035L136.23 335.97L109.982 328.937C104.339 327.425 100.991 321.625 102.502 315.982C102.622 315.536 102.777 315.11 102.948 314.694L101.856 314.401C96.2127 312.889 90.413 316.238 88.9009 321.88C87.3895 327.523 90.7378 333.324 96.3808 334.835Z" fill="#01C0FA"/>
<path d="M129.905 107.079L81.7764 58.9508V37.8154C81.7764 33.8964 78.5997 30.7197 74.6807 30.7197C70.7623 30.7197 67.5856 33.8964 67.5856 37.8154V40.6325L62.6897 35.7366C59.1433 32.1901 53.3929 32.1901 49.8464 35.7366L43.677 41.9061C40.1305 45.4525 40.1305 51.2029 43.677 54.7494L56.1587 67.2305C58.0208 69.0926 60.4899 69.9669 62.9297 69.8739L137.29 144.235L129.905 107.079Z" fill="#FED2A4"/>
<path d="M133.514 125.24L69.2871 61.0129C66.848 61.1065 64.3782 60.2315 62.5161 58.3694L50.0351 45.8884C47.9111 43.7645 47.0696 40.8523 47.4887 38.0947L43.677 41.9064C40.1305 45.4529 40.1305 51.2033 43.677 54.7498L56.1587 67.2309C58.0208 69.093 60.4899 69.9673 62.9297 69.8743L137.29 144.235L133.514 125.24Z" fill="#FFBD86"/>
<path d="M306.323 41.9061L300.154 35.7366C296.607 32.1901 290.857 32.1901 287.31 35.7366L282.414 40.6325V37.8154C282.414 33.8971 279.238 30.7197 275.319 30.7197C271.4 30.7197 268.224 33.8964 268.224 37.8154V58.9508L220.095 107.079L212.71 144.235L287.071 69.8739C289.51 69.9676 291.98 69.0933 293.842 67.2305L306.324 54.7494C309.87 51.2029 309.87 45.4525 306.323 41.9061Z" fill="#FED2A4"/>
<path d="M275.319 30.7197C271.4 30.7197 268.223 33.8964 268.223 37.8154V58.9508L220.095 107.079L216.125 127.057L278.52 64.6622V43.5269C278.52 40.7733 280.091 38.391 282.384 37.2152C282.078 33.5778 279.035 30.7197 275.319 30.7197Z" fill="#FFBD86"/>
<path d="M218.016 103.992V37.0706C218.016 16.597 201.419 0 180.945 0H169.055C148.581 0 131.984 16.597 131.984 37.0706V103.992H218.016Z" fill="#BB5D4C"/>
<path d="M155.57 103.992V37.0706C155.57 18.5876 169.099 3.26826 186.793 0.463477C184.888 0.161328 182.936 0 180.945 0H169.055C148.581 0 131.984 16.597 131.984 37.0706V103.992H155.57Z" fill="#A44F3E"/>
<path d="M218.811 203.796H131.189C129.807 203.796 128.796 202.491 129.141 201.151L137.731 167.867C139.054 162.738 139.205 157.377 138.173 152.183L128.962 105.837C128.702 104.528 129.703 103.309 131.036 103.309H218.965C220.299 103.309 221.3 104.528 221.04 105.837L211.828 152.183C210.796 157.377 210.947 162.738 212.271 167.867L220.861 201.151C221.205 202.491 220.194 203.796 218.811 203.796Z" fill="#FE7701"/>
<path d="M152.452 201.151L161.042 167.867C162.365 162.738 162.516 157.377 161.484 152.183L152.273 105.837C152.012 104.528 153.014 103.309 154.348 103.309H131.037C129.703 103.309 128.702 104.528 128.962 105.837L138.174 152.183C139.206 157.377 139.055 162.738 137.731 167.867L129.141 201.151C128.795 202.491 129.807 203.796 131.19 203.796H154.501C153.117 203.796 152.106 202.491 152.452 201.151Z" fill="#F46700"/>
<path d="M176.482 94.7348H173.519C170.289 94.7348 167.185 94.1879 164.288 93.1953V105.708C164.288 111.587 169.054 116.353 174.933 116.353H175.068C180.947 116.353 185.713 111.587 185.713 105.708V93.1953C182.815 94.1879 179.712 94.7348 176.482 94.7348Z" fill="#F6A96C"/>
<path d="M144.951 66.1687V47.9961H138.049C131.635 47.9961 126.436 53.1955 126.436 59.6097C126.436 66.0238 131.635 71.2232 138.049 71.2232H145.408C145.114 69.5813 144.951 67.8941 144.951 66.1687Z" fill="#F6A96C"/>
<path d="M211.951 47.9961H205.049V66.1687C205.049 67.8941 204.886 69.5813 204.592 71.2232H211.951C218.365 71.2232 223.565 66.0238 223.565 59.6097C223.565 53.1955 218.365 47.9961 211.951 47.9961Z" fill="#FFBD86"/>
<path d="M193.267 31.4202L147.077 41.0213C145.441 41.361 144.269 42.8027 144.269 44.4734V66.168C144.269 82.3227 157.365 95.4189 173.52 95.4189H176.482C192.637 95.4189 205.733 82.3227 205.733 66.168V41.6058C205.733 37.9492 203.878 34.7261 201.057 32.8264C198.785 31.2965 195.947 30.8631 193.267 31.4202Z" fill="#FED2A4"/>
<path d="M161.815 66.1686V37.958L147.076 41.0219C145.44 41.3616 144.268 42.8033 144.268 44.474V66.1686C144.268 82.3232 157.364 95.4195 173.519 95.4195H176.481C178.999 95.4195 181.443 95.101 183.774 94.5028C171.148 91.2619 161.815 79.8049 161.815 66.1686Z" fill="#FFBD86"/>
<path d="M164.614 57.1202V51.4785C164.614 48.6464 162.319 46.3516 159.487 46.3516C156.655 46.3516 154.36 48.6464 154.36 51.4785V57.1202C154.36 59.9523 156.655 62.2472 159.487 62.2472C162.319 62.2472 164.614 59.9517 164.614 57.1202Z" fill="#BB5D4C"/>
<path d="M190.514 46.3516C187.682 46.3516 185.387 48.6464 185.387 51.4785V57.1202C185.387 59.9523 187.682 62.2472 190.514 62.2472C193.346 62.2472 195.641 59.9523 195.641 57.1202V51.4785C195.641 48.6464 193.346 46.3516 190.514 46.3516Z" fill="#BB5D4C"/>
<path d="M167.754 65.9459L171.984 69.0228C172.895 69.6852 173.95 70.0044 174.996 70.0044C176.58 70.0038 178.143 69.2716 179.146 67.8921C180.794 65.6267 180.315 62.4637 178.087 60.7841L179.031 59.5824C180.78 57.3552 180.393 54.1321 178.167 52.3834C175.94 50.6348 172.717 51.021 170.968 53.2475L166.737 58.6329C165.877 59.7287 165.498 61.1259 165.691 62.5061C165.883 63.8842 166.628 65.127 167.754 65.9459Z" fill="#BB5D4C"/>
<path d="M180.849 72.8371C179.285 74.4019 177.208 75.2632 175 75.2632C172.792 75.2632 170.716 74.4019 169.151 72.8371C167.149 70.8355 163.903 70.8355 161.901 72.8371C159.898 74.84 159.898 78.0857 161.901 80.088C165.402 83.5887 170.054 85.5164 175 85.5164C179.947 85.5164 184.599 83.5887 188.1 80.088C190.102 78.0851 190.102 74.8394 188.1 72.8371C186.097 70.8355 182.851 70.8355 180.849 72.8371Z" fill="#BB5D4C"/>
<path d="M325.203 350H24.7974C21.9652 350 19.6704 347.705 19.6704 344.873C19.6704 342.041 21.9652 339.746 24.7974 339.746H325.202C328.034 339.746 330.329 342.041 330.329 344.873C330.329 347.705 328.034 350 325.203 350Z" fill="#81B823"/>
</g>
<defs>
<clipPath id="clip0_834_2830">
<rect width="350" height="350" fill="white"/>
</clipPath>
</defs>
</svg>
