<svg width="24" height="24" viewBox="0 0 24 24" fill="none" xmlns="http://www.w3.org/2000/svg">
<path fill-rule="evenodd" clip-rule="evenodd" d="M11.6551 2.0494C11.4434 2.11612 11.0824 2.48995 11.0175 2.70964C10.9774 2.8451 10.965 4.24451 10.965 8.61782V14.3485L9.81136 13.1967C8.57662 11.9639 8.49981 11.9062 8.09346 11.9062C7.35818 11.9062 6.85859 12.6772 7.16182 13.344C7.22379 13.4802 7.81317 14.0934 9.37521 15.6465C11.643 17.9014 11.5984 17.864 12.0104 17.864C12.4058 17.864 12.413 17.858 14.6461 15.6309C16.0581 14.2226 16.7796 13.4728 16.8338 13.3572C16.9408 13.1291 16.9412 12.7242 16.8347 12.4946C16.6679 12.1351 16.3056 11.9062 15.9031 11.9062C15.5008 11.9062 15.4217 11.9657 14.1888 13.1967L13.0352 14.3485V8.61782C13.0352 4.31537 13.0224 2.8445 12.9839 2.71602C12.9087 2.46524 12.6025 2.14476 12.3585 2.06161C12.1306 1.98393 11.8767 1.97953 11.6551 2.0494ZM2.68452 11.0199C2.45918 11.091 2.1089 11.4613 2.04425 11.6967C2.00319 11.8463 1.99383 12.8992 2.0035 16.2898L2.01605 20.6889L2.15254 20.9769C2.34248 21.3779 2.58697 21.6276 2.97952 21.8216L3.30539 21.9827H20.6948L21.0207 21.8216C21.4132 21.6276 21.6577 21.3779 21.8476 20.9769L21.9841 20.6889L21.9967 16.2898C22.006 12.9975 21.9963 11.8442 21.9581 11.7052C21.8858 11.4431 21.5825 11.1185 21.329 11.0322C20.911 10.8897 20.5736 10.9695 20.2576 11.2856C20.1208 11.4224 20.0211 11.5684 19.988 11.6802C19.9485 11.814 19.9356 12.8514 19.9356 15.8959V19.9341H4.06461V15.8959C4.06461 12.901 4.05137 11.8135 4.01333 11.6866C3.9382 11.4358 3.63191 11.1153 3.38794 11.0322C3.16001 10.9545 2.9062 10.9501 2.68452 11.0199Z" fill="white"/>
</svg>
