<svg width="282" height="351" viewBox="0 0 282 351" fill="none" xmlns="http://www.w3.org/2000/svg">
<path d="M54.7553 286.9L29.9553 226.5C29.9553 226.5 -4.74475 139.4 53.9553 73.2003C53.9553 73.2003 133.355 -4.59966 212.955 54.5003C212.955 54.5003 284.755 112.1 265.155 190.4C245.555 268.7 217.855 317.9 217.855 317.9L68.3553 320L54.7553 286.9Z" fill="#FFF200"/>
<path d="M180.755 289H104.655V299.3H180.755V289Z" fill="#EF9C07"/>
<path d="M190.655 304.8H94.6552H63.4551C70.1551 320.6 74.9551 331.9 74.9551 331.9C105.355 353.3 180.155 353.3 210.455 331.9C210.455 331.9 215.255 320.7 221.955 304.8H190.655Z" fill="#EF9C07"/>
<path d="M200.255 261.9C170.855 261.9 146.955 238 146.955 208.6C146.955 179.2 170.855 155.3 200.255 155.3C229.655 155.3 253.555 179.2 253.555 208.6C253.555 238 229.655 261.9 200.255 261.9Z" stroke="#EF9C07" stroke-width="10" stroke-miterlimit="10" stroke-linecap="round" stroke-linejoin="round"/>
<path d="M84.2551 261.9C54.8551 261.9 30.9551 238 30.9551 208.6C30.9551 179.2 54.8551 155.3 84.2551 155.3C113.655 155.3 137.555 179.2 137.555 208.6C137.555 238 113.755 261.9 84.2551 261.9Z" stroke="#EF9C07" stroke-width="10" stroke-miterlimit="10" stroke-linecap="round" stroke-linejoin="round"/>
<path d="M200.255 163C175.055 163 154.555 183.5 154.555 208.7C154.555 233.9 175.055 254.4 200.255 254.4C225.455 254.4 245.955 233.9 245.955 208.7C245.855 183.4 225.455 163 200.255 163Z" fill="white"/>
<path d="M200.255 221.3C207.269 221.3 212.955 215.613 212.955 208.599C212.955 201.585 207.269 195.899 200.255 195.899C193.241 195.899 187.555 201.585 187.555 208.599C187.555 215.613 193.241 221.3 200.255 221.3Z" fill="#1A1A1A"/>
<path d="M213.456 164.6H208.256V252.7H213.456V164.6Z" fill="#EF9C07"/>
<path d="M232.655 164.6H227.455V252.7H232.655V164.6Z" fill="#EF9C07"/>
<path d="M192.355 164.6H187.155V252.7H192.355V164.6Z" fill="#EF9C07"/>
<path d="M171.555 173.6H166.355V243.6H171.555V173.6Z" fill="#EF9C07"/>
<path d="M200.255 254.3C175.055 254.3 154.555 233.799 154.555 208.599C154.555 183.399 175.055 162.899 200.255 162.899C225.455 162.899 245.955 183.399 245.955 208.599C245.855 233.799 225.455 254.3 200.255 254.3Z" stroke="#1A1A1A" stroke-width="11.0568" stroke-miterlimit="10" stroke-linecap="round" stroke-linejoin="round"/>
<path d="M83.8552 163C58.6552 163 38.1553 183.5 38.1553 208.7C38.1553 233.9 58.6552 254.4 83.8552 254.4C109.055 254.4 129.555 233.9 129.555 208.7C129.455 183.4 108.955 163 83.8552 163Z" fill="white"/>
<path d="M83.8552 221.3C90.8692 221.3 96.5552 215.613 96.5552 208.599C96.5552 201.585 90.8692 195.899 83.8552 195.899C76.8412 195.899 71.1553 201.585 71.1553 208.599C71.1553 215.613 76.8412 221.3 83.8552 221.3Z" fill="#1A1A1A"/>
<path d="M77.0551 164.6H71.9551V252.7H77.0551V164.6Z" fill="#EF9C07"/>
<path d="M95.9554 164.6H90.8555V252.7H95.9554V164.6Z" fill="#EF9C07"/>
<path d="M116.356 175.399H111.256V243.599H116.356V175.399Z" fill="#EF9C07"/>
<path d="M56.4554 164.6H51.3555V252.7H56.4554V164.6Z" fill="#EF9C07"/>
<path d="M84.2552 254.3C59.0552 254.3 38.5552 233.799 38.5552 208.599C38.5552 183.399 59.0552 162.899 84.2552 162.899C109.455 162.899 129.955 183.399 129.955 208.599C129.955 233.799 109.455 254.3 84.2552 254.3Z" stroke="#1A1A1A" stroke-width="11.0568" stroke-miterlimit="10" stroke-linecap="round" stroke-linejoin="round"/>
<path opacity="0.25" d="M154.555 215.899C154.555 190.699 175.055 170.199 200.255 170.199C225.455 170.199 245.955 190.699 245.955 215.899" stroke="#1A1A1A" stroke-width="11.0568" stroke-miterlimit="10" stroke-linecap="round" stroke-linejoin="round"/>
<path opacity="0.25" d="M38.6553 215.899C38.6553 190.699 59.1552 170.199 84.3552 170.199C109.555 170.199 130.055 190.699 130.055 215.899" stroke="#1A1A1A" stroke-width="11.0568" stroke-miterlimit="10" stroke-linecap="round" stroke-linejoin="round"/>
<path d="M236.055 52.2C219.455 35.7 199.055 23.5 176.455 17.2C163.655 13.6 157.755 0 142.755 0C127.455 0 117.655 13.6 104.855 17.2C44.5552 34.1 0.0551758 92.7999 0.0551758 162.6C0.0551758 164.6 0.0552734 169.9 0.155273 176.6C5.85527 176.7 10.3552 181.3 10.3552 186.9C10.3552 192.5 5.9552 197 0.4552 197.2C0.7552 212.1 1.05518 226.9 1.55518 230.5L21.2552 230.4C21.0552 226.8 20.8552 221.2 20.7552 214.9C20.3552 212.2 20.1553 209.5 20.1553 206.8C20.1553 204.8 20.2552 202.9 20.4552 200.9C20.2552 188.9 20.1553 177.7 20.1553 174.7C20.1553 102.4 74.9553 43.7 142.655 43.7C210.355 43.7 265.155 102.3 265.155 174.7C265.155 177.6 265.055 188.8 264.855 200.7C265.055 202.5 265.155 204.4 265.155 206.3C265.155 208.9 264.955 211.4 264.655 213.9C264.555 220.2 264.355 225.9 264.155 229.5L279.655 229.4V229.3C280.155 225.9 280.455 211.6 280.655 197.1C275.155 196.9 270.755 192.4 270.755 186.8C270.755 181.1 275.355 176.5 280.955 176.5C281.055 169.7 281.055 164.4 281.055 162.5C281.055 126.2 268.955 92.8 248.955 66.8" fill="#EF9C07"/>
<path d="M142.656 31.0999C147.516 31.0999 151.455 27.1602 151.455 22.3C151.455 17.4399 147.516 13.5 142.656 13.5C137.795 13.5 133.855 17.4399 133.855 22.3C133.855 27.1602 137.795 31.0999 142.656 31.0999Z" fill="black"/>
</svg>
